M48
; DRILL file {KiCad 8.0.0} date 2024-02-29T15:27:24+1100
; FORMAT={-:-/ absolute / metric / decimal}
; #@! TF.CreationDate,2024-02-29T15:27:24+11:00
; #@! TF.GenerationSoftware,Kicad,Pcbnew,8.0.0
; #@! TF.FileFunction,MixedPlating,1,2
FMAT,2
METRIC
; #@! TA.AperFunction,Plated,PTH,ViaDrill
T1C0.300
; #@! TA.AperFunction,Plated,PTH,ViaDrill
T2C0.400
; #@! TA.AperFunction,Plated,PTH,ComponentDrill
T3C1.000
%
G90
G05
T1
X139.38Y-132.51
X141.14Y-131.23
X143.0Y-132.0
X144.63Y-132.05
X146.27Y-131.2
X147.83Y-128.77
X147.87Y-131.19
X149.37Y-128.11
X150.37Y-126.58
X152.62Y-126.69
X152.85Y-121.959
X153.37Y-128.09
X160.0Y-102.0
X160.0Y-103.0
X160.0Y-104.0
X160.0Y-105.0
X160.0Y-106.0
X160.0Y-107.0
X161.0Y-107.5
T2
X139.0Y-121.0
X139.0Y-122.0
X139.0Y-138.0
X140.0Y-138.0
X140.5Y-103.0
X140.5Y-104.0
X140.5Y-105.0
X140.5Y-106.0
X140.5Y-107.0
X140.5Y-108.0
X140.5Y-109.0
X140.5Y-110.0
X140.5Y-111.0
X140.5Y-112.0
X140.5Y-113.0
X141.0Y-89.0
X141.0Y-90.0
X141.0Y-91.0
X141.0Y-92.0
X141.0Y-93.0
X141.0Y-94.0
X141.0Y-95.0
X141.0Y-96.0
X141.0Y-97.0
X141.0Y-98.0
X141.0Y-99.0
X141.0Y-100.0
X141.0Y-101.0
X141.0Y-102.0
X141.0Y-138.0
X142.0Y-89.0
X142.0Y-101.0
X142.25Y-113.0
X142.5Y-102.0
X143.0Y-89.0
X143.0Y-101.0
X143.0Y-114.5
X143.0Y-115.5
X143.0Y-116.5
X143.0Y-117.5
X143.0Y-118.5
X143.25Y-113.0
X143.5Y-119.5
X143.75Y-124.75
X143.75Y-125.75
X144.0Y-92.0
X144.25Y-113.0
X145.0Y-92.0
X145.25Y-113.0
X145.5Y-123.25
X145.5Y-124.25
X145.5Y-125.5
X146.0Y-92.0
X146.25Y-113.0
X146.25Y-114.0
X146.25Y-115.0
X146.25Y-116.0
X146.25Y-117.0
X146.5Y-123.25
X146.5Y-124.25
X146.5Y-125.5
X147.0Y-92.0
X147.25Y-113.0
X147.25Y-114.0
X147.25Y-115.0
X147.25Y-116.0
X147.25Y-117.0
X147.25Y-118.0
X147.5Y-123.25
X148.0Y-92.0
X148.25Y-113.0
X148.25Y-114.0
X148.5Y-124.0
X148.5Y-125.5
X149.0Y-92.0
X149.25Y-113.0
X149.5Y-124.5
X149.5Y-125.5
X150.0Y-92.0
X150.25Y-113.0
X150.25Y-125.0
X151.0Y-92.0
X151.0Y-100.0
X151.0Y-101.0
X151.25Y-113.0
X151.25Y-114.0
X151.25Y-125.0
X152.0Y-92.0
X152.0Y-100.0
X152.0Y-101.0
X152.0Y-133.5
X152.25Y-113.0
X152.25Y-114.0
X152.25Y-125.0
X152.25Y-129.5
X153.0Y-92.0
X153.0Y-93.0
X153.0Y-94.0
X153.0Y-95.0
X153.0Y-96.0
X153.0Y-97.0
X153.0Y-98.0
X153.0Y-99.0
X153.0Y-100.0
X153.0Y-101.0
X153.0Y-102.0
X153.0Y-103.0
X153.0Y-104.0
X153.0Y-105.0
X153.0Y-106.0
X153.25Y-123.75
X153.25Y-124.75
X154.0Y-95.0
X154.0Y-96.0
X154.0Y-99.0
X154.0Y-100.0
X154.0Y-101.0
X154.0Y-103.0
X154.0Y-104.0
X154.0Y-105.0
X154.0Y-106.0
X154.5Y-113.0
X154.5Y-114.0
X154.5Y-115.0
X154.5Y-116.0
X154.5Y-117.0
X154.5Y-118.0
X155.0Y-94.0
X155.0Y-95.0
X155.0Y-96.0
X155.0Y-99.0
X155.0Y-100.0
X155.0Y-101.0
X155.0Y-103.0
X155.0Y-104.0
X155.0Y-105.0
X155.0Y-106.0
X155.0Y-107.0
X155.0Y-108.0
X155.0Y-129.75
X155.0Y-130.75
X155.0Y-131.75
X155.5Y-113.0
X155.5Y-114.0
X155.5Y-115.0
X155.5Y-116.0
X155.5Y-117.0
X155.5Y-118.0
X156.0Y-129.75
X156.0Y-130.75
X156.0Y-131.75
X157.75Y-122.5
X157.75Y-123.5
X157.75Y-124.5
X158.25Y-133.5
X158.5Y-128.25
X159.25Y-133.5
X159.75Y-122.5
X159.75Y-123.5
X159.75Y-124.5
X160.0Y-98.0
X160.0Y-99.0
X160.0Y-100.0
X160.0Y-101.0
X160.0Y-128.25
X160.25Y-133.5
X161.0Y-88.0
X161.0Y-91.0
X161.0Y-94.0
X161.0Y-95.0
X161.0Y-96.0
X161.0Y-97.0
X161.0Y-98.0
X161.0Y-99.0
X161.0Y-100.0
X161.0Y-101.0
X161.0Y-119.75
X161.0Y-120.75
X161.0Y-121.75
X161.0Y-122.75
X161.0Y-123.75
X161.0Y-124.75
X161.0Y-125.75
X161.0Y-126.75
X161.0Y-127.75
X161.25Y-129.5
X161.25Y-130.5
X161.25Y-131.5
X161.25Y-132.5
X161.25Y-133.5
X162.0Y-95.0
X162.0Y-96.0
X162.0Y-97.0
X162.0Y-98.0
X162.0Y-99.0
X162.0Y-100.0
X162.0Y-101.0
T3
X139.4Y-128.515
X139.4Y-131.055
X149.905Y-136.02
X152.445Y-136.02
X158.425Y-89.5
X160.965Y-89.5
M30
