G04 #@! TF.GenerationSoftware,KiCad,Pcbnew,8.0.0*
G04 #@! TF.CreationDate,2024-02-29T15:27:24+11:00*
G04 #@! TF.ProjectId,GingerLight,47696e67-6572-44c6-9967-68742e6b6963,rev?*
G04 #@! TF.SameCoordinates,Original*
G04 #@! TF.FileFunction,Soldermask,Top*
G04 #@! TF.FilePolarity,Negative*
%FSLAX46Y46*%
G04 Gerber Fmt 4.6, Leading zero omitted, Abs format (unit mm)*
G04 Created by KiCad (PCBNEW 8.0.0) date 2024-02-29 15:27:24*
%MOMM*%
%LPD*%
G01*
G04 APERTURE LIST*
G04 Aperture macros list*
%AMRoundRect*
0 Rectangle with rounded corners*
0 $1 Rounding radius*
0 $2 $3 $4 $5 $6 $7 $8 $9 X,Y pos of 4 corners*
0 Add a 4 corners polygon primitive as box body*
4,1,4,$2,$3,$4,$5,$6,$7,$8,$9,$2,$3,0*
0 Add four circle primitives for the rounded corners*
1,1,$1+$1,$2,$3*
1,1,$1+$1,$4,$5*
1,1,$1+$1,$6,$7*
1,1,$1+$1,$8,$9*
0 Add four rect primitives between the rounded corners*
20,1,$1+$1,$2,$3,$4,$5,0*
20,1,$1+$1,$4,$5,$6,$7,0*
20,1,$1+$1,$6,$7,$8,$9,0*
20,1,$1+$1,$8,$9,$2,$3,0*%
G04 Aperture macros list end*
%ADD10RoundRect,0.249999X-1.425001X0.450001X-1.425001X-0.450001X1.425001X-0.450001X1.425001X0.450001X0*%
%ADD11RoundRect,0.250000X0.300000X-2.050000X0.300000X2.050000X-0.300000X2.050000X-0.300000X-2.050000X0*%
%ADD12RoundRect,0.250002X5.149998X-4.449998X5.149998X4.449998X-5.149998X4.449998X-5.149998X-4.449998X0*%
%ADD13RoundRect,0.237500X0.250000X0.237500X-0.250000X0.237500X-0.250000X-0.237500X0.250000X-0.237500X0*%
%ADD14RoundRect,0.250000X0.412500X1.100000X-0.412500X1.100000X-0.412500X-1.100000X0.412500X-1.100000X0*%
%ADD15R,0.510000X1.100000*%
%ADD16R,1.700000X1.700000*%
%ADD17O,1.700000X1.700000*%
%ADD18RoundRect,0.250000X-1.000000X1.500000X-1.000000X-1.500000X1.000000X-1.500000X1.000000X1.500000X0*%
%ADD19RoundRect,0.237500X-0.237500X0.300000X-0.237500X-0.300000X0.237500X-0.300000X0.237500X0.300000X0*%
%ADD20RoundRect,0.237500X0.237500X-0.250000X0.237500X0.250000X-0.237500X0.250000X-0.237500X-0.250000X0*%
%ADD21RoundRect,0.250000X1.000000X0.650000X-1.000000X0.650000X-1.000000X-0.650000X1.000000X-0.650000X0*%
%ADD22RoundRect,0.237500X-0.237500X0.250000X-0.237500X-0.250000X0.237500X-0.250000X0.237500X0.250000X0*%
%ADD23R,5.000000X3.100000*%
%ADD24RoundRect,0.237500X-0.250000X-0.237500X0.250000X-0.237500X0.250000X0.237500X-0.250000X0.237500X0*%
%ADD25RoundRect,0.250000X-0.650000X0.412500X-0.650000X-0.412500X0.650000X-0.412500X0.650000X0.412500X0*%
%ADD26RoundRect,0.249999X0.450001X1.425001X-0.450001X1.425001X-0.450001X-1.425001X0.450001X-1.425001X0*%
G04 APERTURE END LIST*
D10*
G04 #@! TO.C,R502*
X158500000Y-120650000D03*
X158500000Y-126750000D03*
G04 #@! TD*
D11*
G04 #@! TO.C,Q1*
X144435000Y-116575000D03*
D12*
X146975000Y-107425000D03*
D11*
X149515000Y-116575000D03*
G04 #@! TD*
D13*
G04 #@! TO.C,R3*
X144002500Y-128627500D03*
X142177500Y-128627500D03*
G04 #@! TD*
D14*
G04 #@! TO.C,C202*
X158092500Y-113860000D03*
X154967500Y-113860000D03*
G04 #@! TD*
D15*
G04 #@! TO.C,U1*
X145500000Y-126950000D03*
X146500000Y-126950000D03*
X147500000Y-126950000D03*
X148500000Y-126950000D03*
X149500000Y-126950000D03*
X149500000Y-121850000D03*
X148500000Y-121850000D03*
X147500000Y-121850000D03*
X146500000Y-121850000D03*
X145500000Y-121850000D03*
G04 #@! TD*
D16*
G04 #@! TO.C,J3*
X139400000Y-128515000D03*
D17*
X139400000Y-131055000D03*
G04 #@! TD*
D14*
G04 #@! TO.C,C201*
X158092500Y-117230000D03*
X154967500Y-117230000D03*
G04 #@! TD*
D16*
G04 #@! TO.C,J2*
X152445000Y-136020000D03*
D17*
X149905000Y-136020000D03*
G04 #@! TD*
D18*
G04 #@! TO.C,C1*
X158100000Y-94192500D03*
X158100000Y-100692500D03*
G04 #@! TD*
D19*
G04 #@! TO.C,C302*
X142190000Y-130327500D03*
X142190000Y-132052500D03*
G04 #@! TD*
D20*
G04 #@! TO.C,R1*
X147100000Y-132082500D03*
X147100000Y-130257500D03*
G04 #@! TD*
D21*
G04 #@! TO.C,D1*
X158400000Y-110400000D03*
X154400000Y-110400000D03*
G04 #@! TD*
D22*
G04 #@! TO.C,R2*
X145510000Y-130257500D03*
X145510000Y-132082500D03*
G04 #@! TD*
D19*
G04 #@! TO.C,C301*
X143790000Y-130327500D03*
X143790000Y-132052500D03*
G04 #@! TD*
D23*
G04 #@! TO.C,L1*
X147000000Y-89350000D03*
X147000000Y-100450000D03*
G04 #@! TD*
D10*
G04 #@! TO.C,R501*
X154590000Y-120650000D03*
X154590000Y-126750000D03*
G04 #@! TD*
D24*
G04 #@! TO.C,R4*
X145587500Y-120000000D03*
X147412500Y-120000000D03*
G04 #@! TD*
D19*
G04 #@! TO.C,C5*
X143900000Y-121750000D03*
X143900000Y-123475000D03*
G04 #@! TD*
D25*
G04 #@! TO.C,C4*
X151440000Y-123440000D03*
X151440000Y-126565000D03*
G04 #@! TD*
D16*
G04 #@! TO.C,J1*
X158425000Y-89500000D03*
D17*
X160965000Y-89500000D03*
G04 #@! TD*
D26*
G04 #@! TO.C,R6*
X155270000Y-130940000D03*
X149170000Y-130940000D03*
G04 #@! TD*
M02*
