G04 #@! TF.GenerationSoftware,KiCad,Pcbnew,8.0.0*
G04 #@! TF.CreationDate,2024-02-29T15:25:12+11:00*
G04 #@! TF.ProjectId,panel,70616e65-6c2e-46b6-9963-61645f706362,rev?*
G04 #@! TF.SameCoordinates,Original*
G04 #@! TF.FileFunction,Paste,Top*
G04 #@! TF.FilePolarity,Positive*
%FSLAX46Y46*%
G04 Gerber Fmt 4.6, Leading zero omitted, Abs format (unit mm)*
G04 Created by KiCad (PCBNEW 8.0.0) date 2024-02-29 15:25:12*
%MOMM*%
%LPD*%
G01*
G04 APERTURE LIST*
G04 Aperture macros list*
%AMRoundRect*
0 Rectangle with rounded corners*
0 $1 Rounding radius*
0 $2 $3 $4 $5 $6 $7 $8 $9 X,Y pos of 4 corners*
0 Add a 4 corners polygon primitive as box body*
4,1,4,$2,$3,$4,$5,$6,$7,$8,$9,$2,$3,0*
0 Add four circle primitives for the rounded corners*
1,1,$1+$1,$2,$3*
1,1,$1+$1,$4,$5*
1,1,$1+$1,$6,$7*
1,1,$1+$1,$8,$9*
0 Add four rect primitives between the rounded corners*
20,1,$1+$1,$2,$3,$4,$5,0*
20,1,$1+$1,$4,$5,$6,$7,0*
20,1,$1+$1,$6,$7,$8,$9,0*
20,1,$1+$1,$8,$9,$2,$3,0*%
G04 Aperture macros list end*
%ADD10RoundRect,0.250000X-0.650000X0.412500X-0.650000X-0.412500X0.650000X-0.412500X0.650000X0.412500X0*%
%ADD11RoundRect,0.250000X0.300000X-2.050000X0.300000X2.050000X-0.300000X2.050000X-0.300000X-2.050000X0*%
%ADD12RoundRect,0.250000X2.375000X-2.025000X2.375000X2.025000X-2.375000X2.025000X-2.375000X-2.025000X0*%
%ADD13RoundRect,0.237500X0.237500X-0.250000X0.237500X0.250000X-0.237500X0.250000X-0.237500X-0.250000X0*%
%ADD14RoundRect,0.237500X-0.250000X-0.237500X0.250000X-0.237500X0.250000X0.237500X-0.250000X0.237500X0*%
%ADD15R,0.510000X1.100000*%
%ADD16RoundRect,0.249999X-1.425001X0.450001X-1.425001X-0.450001X1.425001X-0.450001X1.425001X0.450001X0*%
%ADD17RoundRect,0.237500X-0.237500X0.300000X-0.237500X-0.300000X0.237500X-0.300000X0.237500X0.300000X0*%
%ADD18RoundRect,0.249999X0.450001X1.425001X-0.450001X1.425001X-0.450001X-1.425001X0.450001X-1.425001X0*%
%ADD19RoundRect,0.250000X1.000000X0.650000X-1.000000X0.650000X-1.000000X-0.650000X1.000000X-0.650000X0*%
%ADD20RoundRect,0.250000X0.412500X1.100000X-0.412500X1.100000X-0.412500X-1.100000X0.412500X-1.100000X0*%
%ADD21R,5.000000X3.100000*%
%ADD22RoundRect,0.237500X0.250000X0.237500X-0.250000X0.237500X-0.250000X-0.237500X0.250000X-0.237500X0*%
%ADD23RoundRect,0.237500X-0.237500X0.250000X-0.237500X-0.250000X0.237500X-0.250000X0.237500X0.250000X0*%
%ADD24RoundRect,0.250000X-1.000000X1.500000X-1.000000X-1.500000X1.000000X-1.500000X1.000000X1.500000X0*%
G04 APERTURE END LIST*
D10*
G04 #@! TO.C,C4*
X13940000Y-53689500D03*
X13940000Y-56814500D03*
G04 #@! TD*
D11*
G04 #@! TO.C,Q1*
X37935000Y-46824500D03*
D12*
X37700000Y-40099500D03*
X43250000Y-40099500D03*
X37700000Y-35249500D03*
X43250000Y-35249500D03*
D11*
X43015000Y-46824500D03*
G04 #@! TD*
D13*
G04 #@! TO.C,R1*
X71600000Y-62332000D03*
X71600000Y-60507000D03*
G04 #@! TD*
D14*
G04 #@! TO.C,R4*
X70087500Y-50249500D03*
X71912500Y-50249500D03*
G04 #@! TD*
D15*
G04 #@! TO.C,U1*
X39000000Y-57199500D03*
X40000000Y-57199500D03*
X41000000Y-57199500D03*
X42000000Y-57199500D03*
X43000000Y-57199500D03*
X43000000Y-52099500D03*
X42000000Y-52099500D03*
X41000000Y-52099500D03*
X40000000Y-52099500D03*
X39000000Y-52099500D03*
G04 #@! TD*
D10*
G04 #@! TO.C,C4*
X75940000Y-53689500D03*
X75940000Y-56814500D03*
G04 #@! TD*
D16*
G04 #@! TO.C,R501*
X48090000Y-50899500D03*
X48090000Y-56999500D03*
G04 #@! TD*
D17*
G04 #@! TO.C,C5*
X37400000Y-51999500D03*
X37400000Y-53724500D03*
G04 #@! TD*
D14*
G04 #@! TO.C,R4*
X39087500Y-50249500D03*
X40912500Y-50249500D03*
G04 #@! TD*
D18*
G04 #@! TO.C,R6*
X48770000Y-61189500D03*
X42670000Y-61189500D03*
G04 #@! TD*
D16*
G04 #@! TO.C,R502*
X52000000Y-50899500D03*
X52000000Y-56999500D03*
G04 #@! TD*
G04 #@! TO.C,R501*
X17090000Y-50899500D03*
X17090000Y-56999500D03*
G04 #@! TD*
D17*
G04 #@! TO.C,C302*
X35690000Y-60577000D03*
X35690000Y-62302000D03*
G04 #@! TD*
D19*
G04 #@! TO.C,D1*
X82900000Y-40649500D03*
X78900000Y-40649500D03*
G04 #@! TD*
D17*
G04 #@! TO.C,C5*
X68400000Y-51999500D03*
X68400000Y-53724500D03*
G04 #@! TD*
D20*
G04 #@! TO.C,C201*
X20592500Y-47479500D03*
X17467500Y-47479500D03*
G04 #@! TD*
D21*
G04 #@! TO.C,L1*
X71500000Y-19599500D03*
X71500000Y-30699500D03*
G04 #@! TD*
D11*
G04 #@! TO.C,Q1*
X68935000Y-46824500D03*
D12*
X68700000Y-40099500D03*
X74250000Y-40099500D03*
X68700000Y-35249500D03*
X74250000Y-35249500D03*
D11*
X74015000Y-46824500D03*
G04 #@! TD*
D22*
G04 #@! TO.C,R3*
X37502500Y-58877000D03*
X35677500Y-58877000D03*
G04 #@! TD*
D23*
G04 #@! TO.C,R2*
X39010000Y-60507000D03*
X39010000Y-62332000D03*
G04 #@! TD*
D13*
G04 #@! TO.C,R1*
X9600000Y-62332000D03*
X9600000Y-60507000D03*
G04 #@! TD*
D20*
G04 #@! TO.C,C201*
X82592500Y-47479500D03*
X79467500Y-47479500D03*
G04 #@! TD*
D18*
G04 #@! TO.C,R6*
X79770000Y-61189500D03*
X73670000Y-61189500D03*
G04 #@! TD*
D20*
G04 #@! TO.C,C202*
X51592500Y-44109500D03*
X48467500Y-44109500D03*
G04 #@! TD*
D21*
G04 #@! TO.C,L1*
X40500000Y-19599500D03*
X40500000Y-30699500D03*
G04 #@! TD*
D23*
G04 #@! TO.C,R2*
X70010000Y-60507000D03*
X70010000Y-62332000D03*
G04 #@! TD*
D22*
G04 #@! TO.C,R3*
X68502500Y-58877000D03*
X66677500Y-58877000D03*
G04 #@! TD*
D17*
G04 #@! TO.C,C302*
X66690000Y-60577000D03*
X66690000Y-62302000D03*
G04 #@! TD*
D15*
G04 #@! TO.C,U1*
X8000000Y-57199500D03*
X9000000Y-57199500D03*
X10000000Y-57199500D03*
X11000000Y-57199500D03*
X12000000Y-57199500D03*
X12000000Y-52099500D03*
X11000000Y-52099500D03*
X10000000Y-52099500D03*
X9000000Y-52099500D03*
X8000000Y-52099500D03*
G04 #@! TD*
D17*
G04 #@! TO.C,C301*
X37290000Y-60577000D03*
X37290000Y-62302000D03*
G04 #@! TD*
D24*
G04 #@! TO.C,C1*
X51600000Y-24442000D03*
X51600000Y-30942000D03*
G04 #@! TD*
D16*
G04 #@! TO.C,R502*
X83000000Y-50899500D03*
X83000000Y-56999500D03*
G04 #@! TD*
D20*
G04 #@! TO.C,C201*
X51592500Y-47479500D03*
X48467500Y-47479500D03*
G04 #@! TD*
D19*
G04 #@! TO.C,D1*
X20900000Y-40649500D03*
X16900000Y-40649500D03*
G04 #@! TD*
D11*
G04 #@! TO.C,Q1*
X6935000Y-46824500D03*
D12*
X6700000Y-40099500D03*
X12250000Y-40099500D03*
X6700000Y-35249500D03*
X12250000Y-35249500D03*
D11*
X12015000Y-46824500D03*
G04 #@! TD*
D20*
G04 #@! TO.C,C202*
X82592500Y-44109500D03*
X79467500Y-44109500D03*
G04 #@! TD*
D19*
G04 #@! TO.C,D1*
X51900000Y-40649500D03*
X47900000Y-40649500D03*
G04 #@! TD*
D17*
G04 #@! TO.C,C5*
X6400000Y-51999500D03*
X6400000Y-53724500D03*
G04 #@! TD*
G04 #@! TO.C,C301*
X68290000Y-60577000D03*
X68290000Y-62302000D03*
G04 #@! TD*
D22*
G04 #@! TO.C,R3*
X6502500Y-58877000D03*
X4677500Y-58877000D03*
G04 #@! TD*
D16*
G04 #@! TO.C,R502*
X21000000Y-50899500D03*
X21000000Y-56999500D03*
G04 #@! TD*
D14*
G04 #@! TO.C,R4*
X8087500Y-50249500D03*
X9912500Y-50249500D03*
G04 #@! TD*
D20*
G04 #@! TO.C,C202*
X20592500Y-44109500D03*
X17467500Y-44109500D03*
G04 #@! TD*
D21*
G04 #@! TO.C,L1*
X9500000Y-19599500D03*
X9500000Y-30699500D03*
G04 #@! TD*
D23*
G04 #@! TO.C,R2*
X8010000Y-60507000D03*
X8010000Y-62332000D03*
G04 #@! TD*
D10*
G04 #@! TO.C,C4*
X44940000Y-53689500D03*
X44940000Y-56814500D03*
G04 #@! TD*
D17*
G04 #@! TO.C,C301*
X6290000Y-60577000D03*
X6290000Y-62302000D03*
G04 #@! TD*
D24*
G04 #@! TO.C,C1*
X82600000Y-24442000D03*
X82600000Y-30942000D03*
G04 #@! TD*
G04 #@! TO.C,C1*
X20600000Y-24442000D03*
X20600000Y-30942000D03*
G04 #@! TD*
D18*
G04 #@! TO.C,R6*
X17770000Y-61189500D03*
X11670000Y-61189500D03*
G04 #@! TD*
D16*
G04 #@! TO.C,R501*
X79090000Y-50899500D03*
X79090000Y-56999500D03*
G04 #@! TD*
D15*
G04 #@! TO.C,U1*
X70000000Y-57199500D03*
X71000000Y-57199500D03*
X72000000Y-57199500D03*
X73000000Y-57199500D03*
X74000000Y-57199500D03*
X74000000Y-52099500D03*
X73000000Y-52099500D03*
X72000000Y-52099500D03*
X71000000Y-52099500D03*
X70000000Y-52099500D03*
G04 #@! TD*
D17*
G04 #@! TO.C,C302*
X4690000Y-60577000D03*
X4690000Y-62302000D03*
G04 #@! TD*
D13*
G04 #@! TO.C,R1*
X40600000Y-62332000D03*
X40600000Y-60507000D03*
G04 #@! TD*
M02*
