G04 #@! TF.GenerationSoftware,KiCad,Pcbnew,8.0.0*
G04 #@! TF.CreationDate,2024-02-29T15:25:12+11:00*
G04 #@! TF.ProjectId,panel,70616e65-6c2e-46b6-9963-61645f706362,rev?*
G04 #@! TF.SameCoordinates,Original*
G04 #@! TF.FileFunction,Legend,Top*
G04 #@! TF.FilePolarity,Positive*
%FSLAX46Y46*%
G04 Gerber Fmt 4.6, Leading zero omitted, Abs format (unit mm)*
G04 Created by KiCad (PCBNEW 8.0.0) date 2024-02-29 15:25:12*
%MOMM*%
%LPD*%
G01*
G04 APERTURE LIST*
%ADD10C,0.150000*%
%ADD11C,0.300000*%
%ADD12C,0.120000*%
G04 APERTURE END LIST*
D10*
X76696779Y-68388366D02*
X77458684Y-68388366D01*
X77077731Y-68769319D02*
X77077731Y-68007414D01*
X82536779Y-18168366D02*
X83298684Y-18168366D01*
X82917731Y-18549319D02*
X82917731Y-17787414D01*
D11*
X38071428Y-4178328D02*
X38071428Y-5249757D01*
X38071428Y-5249757D02*
X37999999Y-5464042D01*
X37999999Y-5464042D02*
X37857142Y-5606900D01*
X37857142Y-5606900D02*
X37642856Y-5678328D01*
X37642856Y-5678328D02*
X37499999Y-5678328D01*
X39499999Y-5678328D02*
X38785713Y-5678328D01*
X38785713Y-5678328D02*
X38785713Y-4178328D01*
X40857142Y-5535471D02*
X40785714Y-5606900D01*
X40785714Y-5606900D02*
X40571428Y-5678328D01*
X40571428Y-5678328D02*
X40428571Y-5678328D01*
X40428571Y-5678328D02*
X40214285Y-5606900D01*
X40214285Y-5606900D02*
X40071428Y-5464042D01*
X40071428Y-5464042D02*
X39999999Y-5321185D01*
X39999999Y-5321185D02*
X39928571Y-5035471D01*
X39928571Y-5035471D02*
X39928571Y-4821185D01*
X39928571Y-4821185D02*
X39999999Y-4535471D01*
X39999999Y-4535471D02*
X40071428Y-4392614D01*
X40071428Y-4392614D02*
X40214285Y-4249757D01*
X40214285Y-4249757D02*
X40428571Y-4178328D01*
X40428571Y-4178328D02*
X40571428Y-4178328D01*
X40571428Y-4178328D02*
X40785714Y-4249757D01*
X40785714Y-4249757D02*
X40857142Y-4321185D01*
X41928571Y-4178328D02*
X41928571Y-5249757D01*
X41928571Y-5249757D02*
X41857142Y-5464042D01*
X41857142Y-5464042D02*
X41714285Y-5606900D01*
X41714285Y-5606900D02*
X41499999Y-5678328D01*
X41499999Y-5678328D02*
X41357142Y-5678328D01*
X43357142Y-5678328D02*
X42642856Y-5678328D01*
X42642856Y-5678328D02*
X42642856Y-4178328D01*
X44714285Y-5535471D02*
X44642857Y-5606900D01*
X44642857Y-5606900D02*
X44428571Y-5678328D01*
X44428571Y-5678328D02*
X44285714Y-5678328D01*
X44285714Y-5678328D02*
X44071428Y-5606900D01*
X44071428Y-5606900D02*
X43928571Y-5464042D01*
X43928571Y-5464042D02*
X43857142Y-5321185D01*
X43857142Y-5321185D02*
X43785714Y-5035471D01*
X43785714Y-5035471D02*
X43785714Y-4821185D01*
X43785714Y-4821185D02*
X43857142Y-4535471D01*
X43857142Y-4535471D02*
X43928571Y-4392614D01*
X43928571Y-4392614D02*
X44071428Y-4249757D01*
X44071428Y-4249757D02*
X44285714Y-4178328D01*
X44285714Y-4178328D02*
X44428571Y-4178328D01*
X44428571Y-4178328D02*
X44642857Y-4249757D01*
X44642857Y-4249757D02*
X44714285Y-4321185D01*
X45785714Y-4178328D02*
X45785714Y-5249757D01*
X45785714Y-5249757D02*
X45714285Y-5464042D01*
X45714285Y-5464042D02*
X45571428Y-5606900D01*
X45571428Y-5606900D02*
X45357142Y-5678328D01*
X45357142Y-5678328D02*
X45214285Y-5678328D01*
X47214285Y-5678328D02*
X46499999Y-5678328D01*
X46499999Y-5678328D02*
X46499999Y-4178328D01*
X48571428Y-5535471D02*
X48500000Y-5606900D01*
X48500000Y-5606900D02*
X48285714Y-5678328D01*
X48285714Y-5678328D02*
X48142857Y-5678328D01*
X48142857Y-5678328D02*
X47928571Y-5606900D01*
X47928571Y-5606900D02*
X47785714Y-5464042D01*
X47785714Y-5464042D02*
X47714285Y-5321185D01*
X47714285Y-5321185D02*
X47642857Y-5035471D01*
X47642857Y-5035471D02*
X47642857Y-4821185D01*
X47642857Y-4821185D02*
X47714285Y-4535471D01*
X47714285Y-4535471D02*
X47785714Y-4392614D01*
X47785714Y-4392614D02*
X47928571Y-4249757D01*
X47928571Y-4249757D02*
X48142857Y-4178328D01*
X48142857Y-4178328D02*
X48285714Y-4178328D01*
X48285714Y-4178328D02*
X48500000Y-4249757D01*
X48500000Y-4249757D02*
X48571428Y-4321185D01*
X49642857Y-4178328D02*
X49642857Y-5249757D01*
X49642857Y-5249757D02*
X49571428Y-5464042D01*
X49571428Y-5464042D02*
X49428571Y-5606900D01*
X49428571Y-5606900D02*
X49214285Y-5678328D01*
X49214285Y-5678328D02*
X49071428Y-5678328D01*
X51071428Y-5678328D02*
X50357142Y-5678328D01*
X50357142Y-5678328D02*
X50357142Y-4178328D01*
X52428571Y-5535471D02*
X52357143Y-5606900D01*
X52357143Y-5606900D02*
X52142857Y-5678328D01*
X52142857Y-5678328D02*
X52000000Y-5678328D01*
X52000000Y-5678328D02*
X51785714Y-5606900D01*
X51785714Y-5606900D02*
X51642857Y-5464042D01*
X51642857Y-5464042D02*
X51571428Y-5321185D01*
X51571428Y-5321185D02*
X51500000Y-5035471D01*
X51500000Y-5035471D02*
X51500000Y-4821185D01*
X51500000Y-4821185D02*
X51571428Y-4535471D01*
X51571428Y-4535471D02*
X51642857Y-4392614D01*
X51642857Y-4392614D02*
X51785714Y-4249757D01*
X51785714Y-4249757D02*
X52000000Y-4178328D01*
X52000000Y-4178328D02*
X52142857Y-4178328D01*
X52142857Y-4178328D02*
X52357143Y-4249757D01*
X52357143Y-4249757D02*
X52428571Y-4321185D01*
D10*
X45696779Y-68388366D02*
X46458684Y-68388366D01*
X46077731Y-68769319D02*
X46077731Y-68007414D01*
X20536779Y-18168366D02*
X21298684Y-18168366D01*
X20917731Y-18549319D02*
X20917731Y-17787414D01*
X51536779Y-18168366D02*
X52298684Y-18168366D01*
X51917731Y-18549319D02*
X51917731Y-17787414D01*
X14696779Y-68388366D02*
X15458684Y-68388366D01*
X15077731Y-68769319D02*
X15077731Y-68007414D01*
X13949580Y-58626166D02*
X13997200Y-58673785D01*
X13997200Y-58673785D02*
X14044819Y-58816642D01*
X14044819Y-58816642D02*
X14044819Y-58911880D01*
X14044819Y-58911880D02*
X13997200Y-59054737D01*
X13997200Y-59054737D02*
X13901961Y-59149975D01*
X13901961Y-59149975D02*
X13806723Y-59197594D01*
X13806723Y-59197594D02*
X13616247Y-59245213D01*
X13616247Y-59245213D02*
X13473390Y-59245213D01*
X13473390Y-59245213D02*
X13282914Y-59197594D01*
X13282914Y-59197594D02*
X13187676Y-59149975D01*
X13187676Y-59149975D02*
X13092438Y-59054737D01*
X13092438Y-59054737D02*
X13044819Y-58911880D01*
X13044819Y-58911880D02*
X13044819Y-58816642D01*
X13044819Y-58816642D02*
X13092438Y-58673785D01*
X13092438Y-58673785D02*
X13140057Y-58626166D01*
X13378152Y-57769023D02*
X14044819Y-57769023D01*
X12997200Y-58007118D02*
X13711485Y-58245213D01*
X13711485Y-58245213D02*
X13711485Y-57626166D01*
X64466666Y-63519319D02*
X64466666Y-64233604D01*
X64466666Y-64233604D02*
X64419047Y-64376461D01*
X64419047Y-64376461D02*
X64323809Y-64471700D01*
X64323809Y-64471700D02*
X64180952Y-64519319D01*
X64180952Y-64519319D02*
X64085714Y-64519319D01*
X64847619Y-63519319D02*
X65466666Y-63519319D01*
X65466666Y-63519319D02*
X65133333Y-63900271D01*
X65133333Y-63900271D02*
X65276190Y-63900271D01*
X65276190Y-63900271D02*
X65371428Y-63947890D01*
X65371428Y-63947890D02*
X65419047Y-63995509D01*
X65419047Y-63995509D02*
X65466666Y-64090747D01*
X65466666Y-64090747D02*
X65466666Y-64328842D01*
X65466666Y-64328842D02*
X65419047Y-64424080D01*
X65419047Y-64424080D02*
X65371428Y-64471700D01*
X65371428Y-64471700D02*
X65276190Y-64519319D01*
X65276190Y-64519319D02*
X64990476Y-64519319D01*
X64990476Y-64519319D02*
X64895238Y-64471700D01*
X64895238Y-64471700D02*
X64847619Y-64424080D01*
X45294761Y-46969557D02*
X45199523Y-46921938D01*
X45199523Y-46921938D02*
X45104285Y-46826700D01*
X45104285Y-46826700D02*
X44961428Y-46683842D01*
X44961428Y-46683842D02*
X44866190Y-46636223D01*
X44866190Y-46636223D02*
X44770952Y-46636223D01*
X44818571Y-46874319D02*
X44723333Y-46826700D01*
X44723333Y-46826700D02*
X44628095Y-46731461D01*
X44628095Y-46731461D02*
X44580476Y-46540985D01*
X44580476Y-46540985D02*
X44580476Y-46207652D01*
X44580476Y-46207652D02*
X44628095Y-46017176D01*
X44628095Y-46017176D02*
X44723333Y-45921938D01*
X44723333Y-45921938D02*
X44818571Y-45874319D01*
X44818571Y-45874319D02*
X45009047Y-45874319D01*
X45009047Y-45874319D02*
X45104285Y-45921938D01*
X45104285Y-45921938D02*
X45199523Y-46017176D01*
X45199523Y-46017176D02*
X45247142Y-46207652D01*
X45247142Y-46207652D02*
X45247142Y-46540985D01*
X45247142Y-46540985D02*
X45199523Y-46731461D01*
X45199523Y-46731461D02*
X45104285Y-46826700D01*
X45104285Y-46826700D02*
X45009047Y-46874319D01*
X45009047Y-46874319D02*
X44818571Y-46874319D01*
X46199523Y-46874319D02*
X45628095Y-46874319D01*
X45913809Y-46874319D02*
X45913809Y-45874319D01*
X45913809Y-45874319D02*
X45818571Y-46017176D01*
X45818571Y-46017176D02*
X45723333Y-46112414D01*
X45723333Y-46112414D02*
X45628095Y-46160033D01*
X2466666Y-63519319D02*
X2466666Y-64233604D01*
X2466666Y-64233604D02*
X2419047Y-64376461D01*
X2419047Y-64376461D02*
X2323809Y-64471700D01*
X2323809Y-64471700D02*
X2180952Y-64519319D01*
X2180952Y-64519319D02*
X2085714Y-64519319D01*
X2847619Y-63519319D02*
X3466666Y-63519319D01*
X3466666Y-63519319D02*
X3133333Y-63900271D01*
X3133333Y-63900271D02*
X3276190Y-63900271D01*
X3276190Y-63900271D02*
X3371428Y-63947890D01*
X3371428Y-63947890D02*
X3419047Y-63995509D01*
X3419047Y-63995509D02*
X3466666Y-64090747D01*
X3466666Y-64090747D02*
X3466666Y-64328842D01*
X3466666Y-64328842D02*
X3419047Y-64424080D01*
X3419047Y-64424080D02*
X3371428Y-64471700D01*
X3371428Y-64471700D02*
X3276190Y-64519319D01*
X3276190Y-64519319D02*
X2990476Y-64519319D01*
X2990476Y-64519319D02*
X2895238Y-64471700D01*
X2895238Y-64471700D02*
X2847619Y-64424080D01*
X79608333Y-66814680D02*
X79608333Y-66100395D01*
X79608333Y-66100395D02*
X79655952Y-65957538D01*
X79655952Y-65957538D02*
X79751190Y-65862300D01*
X79751190Y-65862300D02*
X79894047Y-65814680D01*
X79894047Y-65814680D02*
X79989285Y-65814680D01*
X79179761Y-66719442D02*
X79132142Y-66767061D01*
X79132142Y-66767061D02*
X79036904Y-66814680D01*
X79036904Y-66814680D02*
X78798809Y-66814680D01*
X78798809Y-66814680D02*
X78703571Y-66767061D01*
X78703571Y-66767061D02*
X78655952Y-66719442D01*
X78655952Y-66719442D02*
X78608333Y-66624204D01*
X78608333Y-66624204D02*
X78608333Y-66528966D01*
X78608333Y-66528966D02*
X78655952Y-66386109D01*
X78655952Y-66386109D02*
X79227380Y-65814680D01*
X79227380Y-65814680D02*
X78608333Y-65814680D01*
X71413333Y-64534319D02*
X71080000Y-64058128D01*
X70841905Y-64534319D02*
X70841905Y-63534319D01*
X70841905Y-63534319D02*
X71222857Y-63534319D01*
X71222857Y-63534319D02*
X71318095Y-63581938D01*
X71318095Y-63581938D02*
X71365714Y-63629557D01*
X71365714Y-63629557D02*
X71413333Y-63724795D01*
X71413333Y-63724795D02*
X71413333Y-63867652D01*
X71413333Y-63867652D02*
X71365714Y-63962890D01*
X71365714Y-63962890D02*
X71318095Y-64010509D01*
X71318095Y-64010509D02*
X71222857Y-64058128D01*
X71222857Y-64058128D02*
X70841905Y-64058128D01*
X72365714Y-64534319D02*
X71794286Y-64534319D01*
X72080000Y-64534319D02*
X72080000Y-63534319D01*
X72080000Y-63534319D02*
X71984762Y-63677176D01*
X71984762Y-63677176D02*
X71889524Y-63772414D01*
X71889524Y-63772414D02*
X71794286Y-63820033D01*
X73583333Y-50704319D02*
X73250000Y-50228128D01*
X73011905Y-50704319D02*
X73011905Y-49704319D01*
X73011905Y-49704319D02*
X73392857Y-49704319D01*
X73392857Y-49704319D02*
X73488095Y-49751938D01*
X73488095Y-49751938D02*
X73535714Y-49799557D01*
X73535714Y-49799557D02*
X73583333Y-49894795D01*
X73583333Y-49894795D02*
X73583333Y-50037652D01*
X73583333Y-50037652D02*
X73535714Y-50132890D01*
X73535714Y-50132890D02*
X73488095Y-50180509D01*
X73488095Y-50180509D02*
X73392857Y-50228128D01*
X73392857Y-50228128D02*
X73011905Y-50228128D01*
X74440476Y-50037652D02*
X74440476Y-50704319D01*
X74202381Y-49656700D02*
X73964286Y-50370985D01*
X73964286Y-50370985D02*
X74583333Y-50370985D01*
X40138095Y-54104319D02*
X40138095Y-54913842D01*
X40138095Y-54913842D02*
X40185714Y-55009080D01*
X40185714Y-55009080D02*
X40233333Y-55056700D01*
X40233333Y-55056700D02*
X40328571Y-55104319D01*
X40328571Y-55104319D02*
X40519047Y-55104319D01*
X40519047Y-55104319D02*
X40614285Y-55056700D01*
X40614285Y-55056700D02*
X40661904Y-55009080D01*
X40661904Y-55009080D02*
X40709523Y-54913842D01*
X40709523Y-54913842D02*
X40709523Y-54104319D01*
X41709523Y-55104319D02*
X41138095Y-55104319D01*
X41423809Y-55104319D02*
X41423809Y-54104319D01*
X41423809Y-54104319D02*
X41328571Y-54247176D01*
X41328571Y-54247176D02*
X41233333Y-54342414D01*
X41233333Y-54342414D02*
X41138095Y-54390033D01*
X75949580Y-58626166D02*
X75997200Y-58673785D01*
X75997200Y-58673785D02*
X76044819Y-58816642D01*
X76044819Y-58816642D02*
X76044819Y-58911880D01*
X76044819Y-58911880D02*
X75997200Y-59054737D01*
X75997200Y-59054737D02*
X75901961Y-59149975D01*
X75901961Y-59149975D02*
X75806723Y-59197594D01*
X75806723Y-59197594D02*
X75616247Y-59245213D01*
X75616247Y-59245213D02*
X75473390Y-59245213D01*
X75473390Y-59245213D02*
X75282914Y-59197594D01*
X75282914Y-59197594D02*
X75187676Y-59149975D01*
X75187676Y-59149975D02*
X75092438Y-59054737D01*
X75092438Y-59054737D02*
X75044819Y-58911880D01*
X75044819Y-58911880D02*
X75044819Y-58816642D01*
X75044819Y-58816642D02*
X75092438Y-58673785D01*
X75092438Y-58673785D02*
X75140057Y-58626166D01*
X75378152Y-57769023D02*
X76044819Y-57769023D01*
X74997200Y-58007118D02*
X75711485Y-58245213D01*
X75711485Y-58245213D02*
X75711485Y-57626166D01*
X49209047Y-53794680D02*
X49542380Y-54270871D01*
X49780475Y-53794680D02*
X49780475Y-54794680D01*
X49780475Y-54794680D02*
X49399523Y-54794680D01*
X49399523Y-54794680D02*
X49304285Y-54747061D01*
X49304285Y-54747061D02*
X49256666Y-54699442D01*
X49256666Y-54699442D02*
X49209047Y-54604204D01*
X49209047Y-54604204D02*
X49209047Y-54461347D01*
X49209047Y-54461347D02*
X49256666Y-54366109D01*
X49256666Y-54366109D02*
X49304285Y-54318490D01*
X49304285Y-54318490D02*
X49399523Y-54270871D01*
X49399523Y-54270871D02*
X49780475Y-54270871D01*
X48304285Y-54794680D02*
X48780475Y-54794680D01*
X48780475Y-54794680D02*
X48828094Y-54318490D01*
X48828094Y-54318490D02*
X48780475Y-54366109D01*
X48780475Y-54366109D02*
X48685237Y-54413728D01*
X48685237Y-54413728D02*
X48447142Y-54413728D01*
X48447142Y-54413728D02*
X48351904Y-54366109D01*
X48351904Y-54366109D02*
X48304285Y-54318490D01*
X48304285Y-54318490D02*
X48256666Y-54223252D01*
X48256666Y-54223252D02*
X48256666Y-53985157D01*
X48256666Y-53985157D02*
X48304285Y-53889919D01*
X48304285Y-53889919D02*
X48351904Y-53842300D01*
X48351904Y-53842300D02*
X48447142Y-53794680D01*
X48447142Y-53794680D02*
X48685237Y-53794680D01*
X48685237Y-53794680D02*
X48780475Y-53842300D01*
X48780475Y-53842300D02*
X48828094Y-53889919D01*
X47637618Y-54794680D02*
X47542380Y-54794680D01*
X47542380Y-54794680D02*
X47447142Y-54747061D01*
X47447142Y-54747061D02*
X47399523Y-54699442D01*
X47399523Y-54699442D02*
X47351904Y-54604204D01*
X47351904Y-54604204D02*
X47304285Y-54413728D01*
X47304285Y-54413728D02*
X47304285Y-54175633D01*
X47304285Y-54175633D02*
X47351904Y-53985157D01*
X47351904Y-53985157D02*
X47399523Y-53889919D01*
X47399523Y-53889919D02*
X47447142Y-53842300D01*
X47447142Y-53842300D02*
X47542380Y-53794680D01*
X47542380Y-53794680D02*
X47637618Y-53794680D01*
X47637618Y-53794680D02*
X47732856Y-53842300D01*
X47732856Y-53842300D02*
X47780475Y-53889919D01*
X47780475Y-53889919D02*
X47828094Y-53985157D01*
X47828094Y-53985157D02*
X47875713Y-54175633D01*
X47875713Y-54175633D02*
X47875713Y-54413728D01*
X47875713Y-54413728D02*
X47828094Y-54604204D01*
X47828094Y-54604204D02*
X47780475Y-54699442D01*
X47780475Y-54699442D02*
X47732856Y-54747061D01*
X47732856Y-54747061D02*
X47637618Y-54794680D01*
X46351904Y-53794680D02*
X46923332Y-53794680D01*
X46637618Y-53794680D02*
X46637618Y-54794680D01*
X46637618Y-54794680D02*
X46732856Y-54651823D01*
X46732856Y-54651823D02*
X46828094Y-54556585D01*
X46828094Y-54556585D02*
X46923332Y-54508966D01*
X36266666Y-53102419D02*
X36314285Y-53054800D01*
X36314285Y-53054800D02*
X36457142Y-53007180D01*
X36457142Y-53007180D02*
X36552380Y-53007180D01*
X36552380Y-53007180D02*
X36695237Y-53054800D01*
X36695237Y-53054800D02*
X36790475Y-53150038D01*
X36790475Y-53150038D02*
X36838094Y-53245276D01*
X36838094Y-53245276D02*
X36885713Y-53435752D01*
X36885713Y-53435752D02*
X36885713Y-53578609D01*
X36885713Y-53578609D02*
X36838094Y-53769085D01*
X36838094Y-53769085D02*
X36790475Y-53864323D01*
X36790475Y-53864323D02*
X36695237Y-53959561D01*
X36695237Y-53959561D02*
X36552380Y-54007180D01*
X36552380Y-54007180D02*
X36457142Y-54007180D01*
X36457142Y-54007180D02*
X36314285Y-53959561D01*
X36314285Y-53959561D02*
X36266666Y-53911942D01*
X35361904Y-54007180D02*
X35838094Y-54007180D01*
X35838094Y-54007180D02*
X35885713Y-53530990D01*
X35885713Y-53530990D02*
X35838094Y-53578609D01*
X35838094Y-53578609D02*
X35742856Y-53626228D01*
X35742856Y-53626228D02*
X35504761Y-53626228D01*
X35504761Y-53626228D02*
X35409523Y-53578609D01*
X35409523Y-53578609D02*
X35361904Y-53530990D01*
X35361904Y-53530990D02*
X35314285Y-53435752D01*
X35314285Y-53435752D02*
X35314285Y-53197657D01*
X35314285Y-53197657D02*
X35361904Y-53102419D01*
X35361904Y-53102419D02*
X35409523Y-53054800D01*
X35409523Y-53054800D02*
X35504761Y-53007180D01*
X35504761Y-53007180D02*
X35742856Y-53007180D01*
X35742856Y-53007180D02*
X35838094Y-53054800D01*
X35838094Y-53054800D02*
X35885713Y-53102419D01*
X42583333Y-50704319D02*
X42250000Y-50228128D01*
X42011905Y-50704319D02*
X42011905Y-49704319D01*
X42011905Y-49704319D02*
X42392857Y-49704319D01*
X42392857Y-49704319D02*
X42488095Y-49751938D01*
X42488095Y-49751938D02*
X42535714Y-49799557D01*
X42535714Y-49799557D02*
X42583333Y-49894795D01*
X42583333Y-49894795D02*
X42583333Y-50037652D01*
X42583333Y-50037652D02*
X42535714Y-50132890D01*
X42535714Y-50132890D02*
X42488095Y-50180509D01*
X42488095Y-50180509D02*
X42392857Y-50228128D01*
X42392857Y-50228128D02*
X42011905Y-50228128D01*
X43440476Y-50037652D02*
X43440476Y-50704319D01*
X43202381Y-49656700D02*
X42964286Y-50370985D01*
X42964286Y-50370985D02*
X43583333Y-50370985D01*
X45826666Y-60794680D02*
X46159999Y-61270871D01*
X46398094Y-60794680D02*
X46398094Y-61794680D01*
X46398094Y-61794680D02*
X46017142Y-61794680D01*
X46017142Y-61794680D02*
X45921904Y-61747061D01*
X45921904Y-61747061D02*
X45874285Y-61699442D01*
X45874285Y-61699442D02*
X45826666Y-61604204D01*
X45826666Y-61604204D02*
X45826666Y-61461347D01*
X45826666Y-61461347D02*
X45874285Y-61366109D01*
X45874285Y-61366109D02*
X45921904Y-61318490D01*
X45921904Y-61318490D02*
X46017142Y-61270871D01*
X46017142Y-61270871D02*
X46398094Y-61270871D01*
X44969523Y-61794680D02*
X45159999Y-61794680D01*
X45159999Y-61794680D02*
X45255237Y-61747061D01*
X45255237Y-61747061D02*
X45302856Y-61699442D01*
X45302856Y-61699442D02*
X45398094Y-61556585D01*
X45398094Y-61556585D02*
X45445713Y-61366109D01*
X45445713Y-61366109D02*
X45445713Y-60985157D01*
X45445713Y-60985157D02*
X45398094Y-60889919D01*
X45398094Y-60889919D02*
X45350475Y-60842300D01*
X45350475Y-60842300D02*
X45255237Y-60794680D01*
X45255237Y-60794680D02*
X45064761Y-60794680D01*
X45064761Y-60794680D02*
X44969523Y-60842300D01*
X44969523Y-60842300D02*
X44921904Y-60889919D01*
X44921904Y-60889919D02*
X44874285Y-60985157D01*
X44874285Y-60985157D02*
X44874285Y-61223252D01*
X44874285Y-61223252D02*
X44921904Y-61318490D01*
X44921904Y-61318490D02*
X44969523Y-61366109D01*
X44969523Y-61366109D02*
X45064761Y-61413728D01*
X45064761Y-61413728D02*
X45255237Y-61413728D01*
X45255237Y-61413728D02*
X45350475Y-61366109D01*
X45350475Y-61366109D02*
X45398094Y-61318490D01*
X45398094Y-61318490D02*
X45445713Y-61223252D01*
X53369047Y-53694680D02*
X53702380Y-54170871D01*
X53940475Y-53694680D02*
X53940475Y-54694680D01*
X53940475Y-54694680D02*
X53559523Y-54694680D01*
X53559523Y-54694680D02*
X53464285Y-54647061D01*
X53464285Y-54647061D02*
X53416666Y-54599442D01*
X53416666Y-54599442D02*
X53369047Y-54504204D01*
X53369047Y-54504204D02*
X53369047Y-54361347D01*
X53369047Y-54361347D02*
X53416666Y-54266109D01*
X53416666Y-54266109D02*
X53464285Y-54218490D01*
X53464285Y-54218490D02*
X53559523Y-54170871D01*
X53559523Y-54170871D02*
X53940475Y-54170871D01*
X52464285Y-54694680D02*
X52940475Y-54694680D01*
X52940475Y-54694680D02*
X52988094Y-54218490D01*
X52988094Y-54218490D02*
X52940475Y-54266109D01*
X52940475Y-54266109D02*
X52845237Y-54313728D01*
X52845237Y-54313728D02*
X52607142Y-54313728D01*
X52607142Y-54313728D02*
X52511904Y-54266109D01*
X52511904Y-54266109D02*
X52464285Y-54218490D01*
X52464285Y-54218490D02*
X52416666Y-54123252D01*
X52416666Y-54123252D02*
X52416666Y-53885157D01*
X52416666Y-53885157D02*
X52464285Y-53789919D01*
X52464285Y-53789919D02*
X52511904Y-53742300D01*
X52511904Y-53742300D02*
X52607142Y-53694680D01*
X52607142Y-53694680D02*
X52845237Y-53694680D01*
X52845237Y-53694680D02*
X52940475Y-53742300D01*
X52940475Y-53742300D02*
X52988094Y-53789919D01*
X51797618Y-54694680D02*
X51702380Y-54694680D01*
X51702380Y-54694680D02*
X51607142Y-54647061D01*
X51607142Y-54647061D02*
X51559523Y-54599442D01*
X51559523Y-54599442D02*
X51511904Y-54504204D01*
X51511904Y-54504204D02*
X51464285Y-54313728D01*
X51464285Y-54313728D02*
X51464285Y-54075633D01*
X51464285Y-54075633D02*
X51511904Y-53885157D01*
X51511904Y-53885157D02*
X51559523Y-53789919D01*
X51559523Y-53789919D02*
X51607142Y-53742300D01*
X51607142Y-53742300D02*
X51702380Y-53694680D01*
X51702380Y-53694680D02*
X51797618Y-53694680D01*
X51797618Y-53694680D02*
X51892856Y-53742300D01*
X51892856Y-53742300D02*
X51940475Y-53789919D01*
X51940475Y-53789919D02*
X51988094Y-53885157D01*
X51988094Y-53885157D02*
X52035713Y-54075633D01*
X52035713Y-54075633D02*
X52035713Y-54313728D01*
X52035713Y-54313728D02*
X51988094Y-54504204D01*
X51988094Y-54504204D02*
X51940475Y-54599442D01*
X51940475Y-54599442D02*
X51892856Y-54647061D01*
X51892856Y-54647061D02*
X51797618Y-54694680D01*
X51083332Y-54599442D02*
X51035713Y-54647061D01*
X51035713Y-54647061D02*
X50940475Y-54694680D01*
X50940475Y-54694680D02*
X50702380Y-54694680D01*
X50702380Y-54694680D02*
X50607142Y-54647061D01*
X50607142Y-54647061D02*
X50559523Y-54599442D01*
X50559523Y-54599442D02*
X50511904Y-54504204D01*
X50511904Y-54504204D02*
X50511904Y-54408966D01*
X50511904Y-54408966D02*
X50559523Y-54266109D01*
X50559523Y-54266109D02*
X51130951Y-53694680D01*
X51130951Y-53694680D02*
X50511904Y-53694680D01*
X18209047Y-53794680D02*
X18542380Y-54270871D01*
X18780475Y-53794680D02*
X18780475Y-54794680D01*
X18780475Y-54794680D02*
X18399523Y-54794680D01*
X18399523Y-54794680D02*
X18304285Y-54747061D01*
X18304285Y-54747061D02*
X18256666Y-54699442D01*
X18256666Y-54699442D02*
X18209047Y-54604204D01*
X18209047Y-54604204D02*
X18209047Y-54461347D01*
X18209047Y-54461347D02*
X18256666Y-54366109D01*
X18256666Y-54366109D02*
X18304285Y-54318490D01*
X18304285Y-54318490D02*
X18399523Y-54270871D01*
X18399523Y-54270871D02*
X18780475Y-54270871D01*
X17304285Y-54794680D02*
X17780475Y-54794680D01*
X17780475Y-54794680D02*
X17828094Y-54318490D01*
X17828094Y-54318490D02*
X17780475Y-54366109D01*
X17780475Y-54366109D02*
X17685237Y-54413728D01*
X17685237Y-54413728D02*
X17447142Y-54413728D01*
X17447142Y-54413728D02*
X17351904Y-54366109D01*
X17351904Y-54366109D02*
X17304285Y-54318490D01*
X17304285Y-54318490D02*
X17256666Y-54223252D01*
X17256666Y-54223252D02*
X17256666Y-53985157D01*
X17256666Y-53985157D02*
X17304285Y-53889919D01*
X17304285Y-53889919D02*
X17351904Y-53842300D01*
X17351904Y-53842300D02*
X17447142Y-53794680D01*
X17447142Y-53794680D02*
X17685237Y-53794680D01*
X17685237Y-53794680D02*
X17780475Y-53842300D01*
X17780475Y-53842300D02*
X17828094Y-53889919D01*
X16637618Y-54794680D02*
X16542380Y-54794680D01*
X16542380Y-54794680D02*
X16447142Y-54747061D01*
X16447142Y-54747061D02*
X16399523Y-54699442D01*
X16399523Y-54699442D02*
X16351904Y-54604204D01*
X16351904Y-54604204D02*
X16304285Y-54413728D01*
X16304285Y-54413728D02*
X16304285Y-54175633D01*
X16304285Y-54175633D02*
X16351904Y-53985157D01*
X16351904Y-53985157D02*
X16399523Y-53889919D01*
X16399523Y-53889919D02*
X16447142Y-53842300D01*
X16447142Y-53842300D02*
X16542380Y-53794680D01*
X16542380Y-53794680D02*
X16637618Y-53794680D01*
X16637618Y-53794680D02*
X16732856Y-53842300D01*
X16732856Y-53842300D02*
X16780475Y-53889919D01*
X16780475Y-53889919D02*
X16828094Y-53985157D01*
X16828094Y-53985157D02*
X16875713Y-54175633D01*
X16875713Y-54175633D02*
X16875713Y-54413728D01*
X16875713Y-54413728D02*
X16828094Y-54604204D01*
X16828094Y-54604204D02*
X16780475Y-54699442D01*
X16780475Y-54699442D02*
X16732856Y-54747061D01*
X16732856Y-54747061D02*
X16637618Y-54794680D01*
X15351904Y-53794680D02*
X15923332Y-53794680D01*
X15637618Y-53794680D02*
X15637618Y-54794680D01*
X15637618Y-54794680D02*
X15732856Y-54651823D01*
X15732856Y-54651823D02*
X15828094Y-54556585D01*
X15828094Y-54556585D02*
X15923332Y-54508966D01*
X36809047Y-64817419D02*
X36856666Y-64769800D01*
X36856666Y-64769800D02*
X36999523Y-64722180D01*
X36999523Y-64722180D02*
X37094761Y-64722180D01*
X37094761Y-64722180D02*
X37237618Y-64769800D01*
X37237618Y-64769800D02*
X37332856Y-64865038D01*
X37332856Y-64865038D02*
X37380475Y-64960276D01*
X37380475Y-64960276D02*
X37428094Y-65150752D01*
X37428094Y-65150752D02*
X37428094Y-65293609D01*
X37428094Y-65293609D02*
X37380475Y-65484085D01*
X37380475Y-65484085D02*
X37332856Y-65579323D01*
X37332856Y-65579323D02*
X37237618Y-65674561D01*
X37237618Y-65674561D02*
X37094761Y-65722180D01*
X37094761Y-65722180D02*
X36999523Y-65722180D01*
X36999523Y-65722180D02*
X36856666Y-65674561D01*
X36856666Y-65674561D02*
X36809047Y-65626942D01*
X36475713Y-65722180D02*
X35856666Y-65722180D01*
X35856666Y-65722180D02*
X36189999Y-65341228D01*
X36189999Y-65341228D02*
X36047142Y-65341228D01*
X36047142Y-65341228D02*
X35951904Y-65293609D01*
X35951904Y-65293609D02*
X35904285Y-65245990D01*
X35904285Y-65245990D02*
X35856666Y-65150752D01*
X35856666Y-65150752D02*
X35856666Y-64912657D01*
X35856666Y-64912657D02*
X35904285Y-64817419D01*
X35904285Y-64817419D02*
X35951904Y-64769800D01*
X35951904Y-64769800D02*
X36047142Y-64722180D01*
X36047142Y-64722180D02*
X36332856Y-64722180D01*
X36332856Y-64722180D02*
X36428094Y-64769800D01*
X36428094Y-64769800D02*
X36475713Y-64817419D01*
X35237618Y-65722180D02*
X35142380Y-65722180D01*
X35142380Y-65722180D02*
X35047142Y-65674561D01*
X35047142Y-65674561D02*
X34999523Y-65626942D01*
X34999523Y-65626942D02*
X34951904Y-65531704D01*
X34951904Y-65531704D02*
X34904285Y-65341228D01*
X34904285Y-65341228D02*
X34904285Y-65103133D01*
X34904285Y-65103133D02*
X34951904Y-64912657D01*
X34951904Y-64912657D02*
X34999523Y-64817419D01*
X34999523Y-64817419D02*
X35047142Y-64769800D01*
X35047142Y-64769800D02*
X35142380Y-64722180D01*
X35142380Y-64722180D02*
X35237618Y-64722180D01*
X35237618Y-64722180D02*
X35332856Y-64769800D01*
X35332856Y-64769800D02*
X35380475Y-64817419D01*
X35380475Y-64817419D02*
X35428094Y-64912657D01*
X35428094Y-64912657D02*
X35475713Y-65103133D01*
X35475713Y-65103133D02*
X35475713Y-65341228D01*
X35475713Y-65341228D02*
X35428094Y-65531704D01*
X35428094Y-65531704D02*
X35380475Y-65626942D01*
X35380475Y-65626942D02*
X35332856Y-65674561D01*
X35332856Y-65674561D02*
X35237618Y-65722180D01*
X34523332Y-65626942D02*
X34475713Y-65674561D01*
X34475713Y-65674561D02*
X34380475Y-65722180D01*
X34380475Y-65722180D02*
X34142380Y-65722180D01*
X34142380Y-65722180D02*
X34047142Y-65674561D01*
X34047142Y-65674561D02*
X33999523Y-65626942D01*
X33999523Y-65626942D02*
X33951904Y-65531704D01*
X33951904Y-65531704D02*
X33951904Y-65436466D01*
X33951904Y-65436466D02*
X33999523Y-65293609D01*
X33999523Y-65293609D02*
X34570951Y-64722180D01*
X34570951Y-64722180D02*
X33951904Y-64722180D01*
X78928094Y-37514680D02*
X78928094Y-38514680D01*
X78928094Y-38514680D02*
X78689999Y-38514680D01*
X78689999Y-38514680D02*
X78547142Y-38467061D01*
X78547142Y-38467061D02*
X78451904Y-38371823D01*
X78451904Y-38371823D02*
X78404285Y-38276585D01*
X78404285Y-38276585D02*
X78356666Y-38086109D01*
X78356666Y-38086109D02*
X78356666Y-37943252D01*
X78356666Y-37943252D02*
X78404285Y-37752776D01*
X78404285Y-37752776D02*
X78451904Y-37657538D01*
X78451904Y-37657538D02*
X78547142Y-37562300D01*
X78547142Y-37562300D02*
X78689999Y-37514680D01*
X78689999Y-37514680D02*
X78928094Y-37514680D01*
X77404285Y-37514680D02*
X77975713Y-37514680D01*
X77689999Y-37514680D02*
X77689999Y-38514680D01*
X77689999Y-38514680D02*
X77785237Y-38371823D01*
X77785237Y-38371823D02*
X77880475Y-38276585D01*
X77880475Y-38276585D02*
X77975713Y-38228966D01*
X67266666Y-53102419D02*
X67314285Y-53054800D01*
X67314285Y-53054800D02*
X67457142Y-53007180D01*
X67457142Y-53007180D02*
X67552380Y-53007180D01*
X67552380Y-53007180D02*
X67695237Y-53054800D01*
X67695237Y-53054800D02*
X67790475Y-53150038D01*
X67790475Y-53150038D02*
X67838094Y-53245276D01*
X67838094Y-53245276D02*
X67885713Y-53435752D01*
X67885713Y-53435752D02*
X67885713Y-53578609D01*
X67885713Y-53578609D02*
X67838094Y-53769085D01*
X67838094Y-53769085D02*
X67790475Y-53864323D01*
X67790475Y-53864323D02*
X67695237Y-53959561D01*
X67695237Y-53959561D02*
X67552380Y-54007180D01*
X67552380Y-54007180D02*
X67457142Y-54007180D01*
X67457142Y-54007180D02*
X67314285Y-53959561D01*
X67314285Y-53959561D02*
X67266666Y-53911942D01*
X66361904Y-54007180D02*
X66838094Y-54007180D01*
X66838094Y-54007180D02*
X66885713Y-53530990D01*
X66885713Y-53530990D02*
X66838094Y-53578609D01*
X66838094Y-53578609D02*
X66742856Y-53626228D01*
X66742856Y-53626228D02*
X66504761Y-53626228D01*
X66504761Y-53626228D02*
X66409523Y-53578609D01*
X66409523Y-53578609D02*
X66361904Y-53530990D01*
X66361904Y-53530990D02*
X66314285Y-53435752D01*
X66314285Y-53435752D02*
X66314285Y-53197657D01*
X66314285Y-53197657D02*
X66361904Y-53102419D01*
X66361904Y-53102419D02*
X66409523Y-53054800D01*
X66409523Y-53054800D02*
X66504761Y-53007180D01*
X66504761Y-53007180D02*
X66742856Y-53007180D01*
X66742856Y-53007180D02*
X66838094Y-53054800D01*
X66838094Y-53054800D02*
X66885713Y-53102419D01*
X48608333Y-66814680D02*
X48608333Y-66100395D01*
X48608333Y-66100395D02*
X48655952Y-65957538D01*
X48655952Y-65957538D02*
X48751190Y-65862300D01*
X48751190Y-65862300D02*
X48894047Y-65814680D01*
X48894047Y-65814680D02*
X48989285Y-65814680D01*
X48179761Y-66719442D02*
X48132142Y-66767061D01*
X48132142Y-66767061D02*
X48036904Y-66814680D01*
X48036904Y-66814680D02*
X47798809Y-66814680D01*
X47798809Y-66814680D02*
X47703571Y-66767061D01*
X47703571Y-66767061D02*
X47655952Y-66719442D01*
X47655952Y-66719442D02*
X47608333Y-66624204D01*
X47608333Y-66624204D02*
X47608333Y-66528966D01*
X47608333Y-66528966D02*
X47655952Y-66386109D01*
X47655952Y-66386109D02*
X48227380Y-65814680D01*
X48227380Y-65814680D02*
X47608333Y-65814680D01*
X24579047Y-47339919D02*
X24626666Y-47292300D01*
X24626666Y-47292300D02*
X24769523Y-47244680D01*
X24769523Y-47244680D02*
X24864761Y-47244680D01*
X24864761Y-47244680D02*
X25007618Y-47292300D01*
X25007618Y-47292300D02*
X25102856Y-47387538D01*
X25102856Y-47387538D02*
X25150475Y-47482776D01*
X25150475Y-47482776D02*
X25198094Y-47673252D01*
X25198094Y-47673252D02*
X25198094Y-47816109D01*
X25198094Y-47816109D02*
X25150475Y-48006585D01*
X25150475Y-48006585D02*
X25102856Y-48101823D01*
X25102856Y-48101823D02*
X25007618Y-48197061D01*
X25007618Y-48197061D02*
X24864761Y-48244680D01*
X24864761Y-48244680D02*
X24769523Y-48244680D01*
X24769523Y-48244680D02*
X24626666Y-48197061D01*
X24626666Y-48197061D02*
X24579047Y-48149442D01*
X24198094Y-48149442D02*
X24150475Y-48197061D01*
X24150475Y-48197061D02*
X24055237Y-48244680D01*
X24055237Y-48244680D02*
X23817142Y-48244680D01*
X23817142Y-48244680D02*
X23721904Y-48197061D01*
X23721904Y-48197061D02*
X23674285Y-48149442D01*
X23674285Y-48149442D02*
X23626666Y-48054204D01*
X23626666Y-48054204D02*
X23626666Y-47958966D01*
X23626666Y-47958966D02*
X23674285Y-47816109D01*
X23674285Y-47816109D02*
X24245713Y-47244680D01*
X24245713Y-47244680D02*
X23626666Y-47244680D01*
X23007618Y-48244680D02*
X22912380Y-48244680D01*
X22912380Y-48244680D02*
X22817142Y-48197061D01*
X22817142Y-48197061D02*
X22769523Y-48149442D01*
X22769523Y-48149442D02*
X22721904Y-48054204D01*
X22721904Y-48054204D02*
X22674285Y-47863728D01*
X22674285Y-47863728D02*
X22674285Y-47625633D01*
X22674285Y-47625633D02*
X22721904Y-47435157D01*
X22721904Y-47435157D02*
X22769523Y-47339919D01*
X22769523Y-47339919D02*
X22817142Y-47292300D01*
X22817142Y-47292300D02*
X22912380Y-47244680D01*
X22912380Y-47244680D02*
X23007618Y-47244680D01*
X23007618Y-47244680D02*
X23102856Y-47292300D01*
X23102856Y-47292300D02*
X23150475Y-47339919D01*
X23150475Y-47339919D02*
X23198094Y-47435157D01*
X23198094Y-47435157D02*
X23245713Y-47625633D01*
X23245713Y-47625633D02*
X23245713Y-47863728D01*
X23245713Y-47863728D02*
X23198094Y-48054204D01*
X23198094Y-48054204D02*
X23150475Y-48149442D01*
X23150475Y-48149442D02*
X23102856Y-48197061D01*
X23102856Y-48197061D02*
X23007618Y-48244680D01*
X21721904Y-47244680D02*
X22293332Y-47244680D01*
X22007618Y-47244680D02*
X22007618Y-48244680D01*
X22007618Y-48244680D02*
X22102856Y-48101823D01*
X22102856Y-48101823D02*
X22198094Y-48006585D01*
X22198094Y-48006585D02*
X22293332Y-47958966D01*
X68566666Y-23994680D02*
X69042856Y-23994680D01*
X69042856Y-23994680D02*
X69042856Y-24994680D01*
X67709523Y-23994680D02*
X68280951Y-23994680D01*
X67995237Y-23994680D02*
X67995237Y-24994680D01*
X67995237Y-24994680D02*
X68090475Y-24851823D01*
X68090475Y-24851823D02*
X68185713Y-24756585D01*
X68185713Y-24756585D02*
X68280951Y-24708966D01*
X76294761Y-46969557D02*
X76199523Y-46921938D01*
X76199523Y-46921938D02*
X76104285Y-46826700D01*
X76104285Y-46826700D02*
X75961428Y-46683842D01*
X75961428Y-46683842D02*
X75866190Y-46636223D01*
X75866190Y-46636223D02*
X75770952Y-46636223D01*
X75818571Y-46874319D02*
X75723333Y-46826700D01*
X75723333Y-46826700D02*
X75628095Y-46731461D01*
X75628095Y-46731461D02*
X75580476Y-46540985D01*
X75580476Y-46540985D02*
X75580476Y-46207652D01*
X75580476Y-46207652D02*
X75628095Y-46017176D01*
X75628095Y-46017176D02*
X75723333Y-45921938D01*
X75723333Y-45921938D02*
X75818571Y-45874319D01*
X75818571Y-45874319D02*
X76009047Y-45874319D01*
X76009047Y-45874319D02*
X76104285Y-45921938D01*
X76104285Y-45921938D02*
X76199523Y-46017176D01*
X76199523Y-46017176D02*
X76247142Y-46207652D01*
X76247142Y-46207652D02*
X76247142Y-46540985D01*
X76247142Y-46540985D02*
X76199523Y-46731461D01*
X76199523Y-46731461D02*
X76104285Y-46826700D01*
X76104285Y-46826700D02*
X76009047Y-46874319D01*
X76009047Y-46874319D02*
X75818571Y-46874319D01*
X77199523Y-46874319D02*
X76628095Y-46874319D01*
X76913809Y-46874319D02*
X76913809Y-45874319D01*
X76913809Y-45874319D02*
X76818571Y-46017176D01*
X76818571Y-46017176D02*
X76723333Y-46112414D01*
X76723333Y-46112414D02*
X76628095Y-46160033D01*
X17791666Y-18104319D02*
X17791666Y-18818604D01*
X17791666Y-18818604D02*
X17744047Y-18961461D01*
X17744047Y-18961461D02*
X17648809Y-19056700D01*
X17648809Y-19056700D02*
X17505952Y-19104319D01*
X17505952Y-19104319D02*
X17410714Y-19104319D01*
X18791666Y-19104319D02*
X18220238Y-19104319D01*
X18505952Y-19104319D02*
X18505952Y-18104319D01*
X18505952Y-18104319D02*
X18410714Y-18247176D01*
X18410714Y-18247176D02*
X18315476Y-18342414D01*
X18315476Y-18342414D02*
X18220238Y-18390033D01*
X39344166Y-58465930D02*
X39677499Y-58942121D01*
X39915594Y-58465930D02*
X39915594Y-59465930D01*
X39915594Y-59465930D02*
X39534642Y-59465930D01*
X39534642Y-59465930D02*
X39439404Y-59418311D01*
X39439404Y-59418311D02*
X39391785Y-59370692D01*
X39391785Y-59370692D02*
X39344166Y-59275454D01*
X39344166Y-59275454D02*
X39344166Y-59132597D01*
X39344166Y-59132597D02*
X39391785Y-59037359D01*
X39391785Y-59037359D02*
X39439404Y-58989740D01*
X39439404Y-58989740D02*
X39534642Y-58942121D01*
X39534642Y-58942121D02*
X39915594Y-58942121D01*
X39010832Y-59465930D02*
X38391785Y-59465930D01*
X38391785Y-59465930D02*
X38725118Y-59084978D01*
X38725118Y-59084978D02*
X38582261Y-59084978D01*
X38582261Y-59084978D02*
X38487023Y-59037359D01*
X38487023Y-59037359D02*
X38439404Y-58989740D01*
X38439404Y-58989740D02*
X38391785Y-58894502D01*
X38391785Y-58894502D02*
X38391785Y-58656407D01*
X38391785Y-58656407D02*
X38439404Y-58561169D01*
X38439404Y-58561169D02*
X38487023Y-58513550D01*
X38487023Y-58513550D02*
X38582261Y-58465930D01*
X38582261Y-58465930D02*
X38867975Y-58465930D01*
X38867975Y-58465930D02*
X38963213Y-58513550D01*
X38963213Y-58513550D02*
X39010832Y-58561169D01*
X39166666Y-63654680D02*
X39499999Y-64130871D01*
X39738094Y-63654680D02*
X39738094Y-64654680D01*
X39738094Y-64654680D02*
X39357142Y-64654680D01*
X39357142Y-64654680D02*
X39261904Y-64607061D01*
X39261904Y-64607061D02*
X39214285Y-64559442D01*
X39214285Y-64559442D02*
X39166666Y-64464204D01*
X39166666Y-64464204D02*
X39166666Y-64321347D01*
X39166666Y-64321347D02*
X39214285Y-64226109D01*
X39214285Y-64226109D02*
X39261904Y-64178490D01*
X39261904Y-64178490D02*
X39357142Y-64130871D01*
X39357142Y-64130871D02*
X39738094Y-64130871D01*
X38785713Y-64559442D02*
X38738094Y-64607061D01*
X38738094Y-64607061D02*
X38642856Y-64654680D01*
X38642856Y-64654680D02*
X38404761Y-64654680D01*
X38404761Y-64654680D02*
X38309523Y-64607061D01*
X38309523Y-64607061D02*
X38261904Y-64559442D01*
X38261904Y-64559442D02*
X38214285Y-64464204D01*
X38214285Y-64464204D02*
X38214285Y-64368966D01*
X38214285Y-64368966D02*
X38261904Y-64226109D01*
X38261904Y-64226109D02*
X38833332Y-63654680D01*
X38833332Y-63654680D02*
X38214285Y-63654680D01*
X9413333Y-64534319D02*
X9080000Y-64058128D01*
X8841905Y-64534319D02*
X8841905Y-63534319D01*
X8841905Y-63534319D02*
X9222857Y-63534319D01*
X9222857Y-63534319D02*
X9318095Y-63581938D01*
X9318095Y-63581938D02*
X9365714Y-63629557D01*
X9365714Y-63629557D02*
X9413333Y-63724795D01*
X9413333Y-63724795D02*
X9413333Y-63867652D01*
X9413333Y-63867652D02*
X9365714Y-63962890D01*
X9365714Y-63962890D02*
X9318095Y-64010509D01*
X9318095Y-64010509D02*
X9222857Y-64058128D01*
X9222857Y-64058128D02*
X8841905Y-64058128D01*
X10365714Y-64534319D02*
X9794286Y-64534319D01*
X10080000Y-64534319D02*
X10080000Y-63534319D01*
X10080000Y-63534319D02*
X9984762Y-63677176D01*
X9984762Y-63677176D02*
X9889524Y-63772414D01*
X9889524Y-63772414D02*
X9794286Y-63820033D01*
X86579047Y-47339919D02*
X86626666Y-47292300D01*
X86626666Y-47292300D02*
X86769523Y-47244680D01*
X86769523Y-47244680D02*
X86864761Y-47244680D01*
X86864761Y-47244680D02*
X87007618Y-47292300D01*
X87007618Y-47292300D02*
X87102856Y-47387538D01*
X87102856Y-47387538D02*
X87150475Y-47482776D01*
X87150475Y-47482776D02*
X87198094Y-47673252D01*
X87198094Y-47673252D02*
X87198094Y-47816109D01*
X87198094Y-47816109D02*
X87150475Y-48006585D01*
X87150475Y-48006585D02*
X87102856Y-48101823D01*
X87102856Y-48101823D02*
X87007618Y-48197061D01*
X87007618Y-48197061D02*
X86864761Y-48244680D01*
X86864761Y-48244680D02*
X86769523Y-48244680D01*
X86769523Y-48244680D02*
X86626666Y-48197061D01*
X86626666Y-48197061D02*
X86579047Y-48149442D01*
X86198094Y-48149442D02*
X86150475Y-48197061D01*
X86150475Y-48197061D02*
X86055237Y-48244680D01*
X86055237Y-48244680D02*
X85817142Y-48244680D01*
X85817142Y-48244680D02*
X85721904Y-48197061D01*
X85721904Y-48197061D02*
X85674285Y-48149442D01*
X85674285Y-48149442D02*
X85626666Y-48054204D01*
X85626666Y-48054204D02*
X85626666Y-47958966D01*
X85626666Y-47958966D02*
X85674285Y-47816109D01*
X85674285Y-47816109D02*
X86245713Y-47244680D01*
X86245713Y-47244680D02*
X85626666Y-47244680D01*
X85007618Y-48244680D02*
X84912380Y-48244680D01*
X84912380Y-48244680D02*
X84817142Y-48197061D01*
X84817142Y-48197061D02*
X84769523Y-48149442D01*
X84769523Y-48149442D02*
X84721904Y-48054204D01*
X84721904Y-48054204D02*
X84674285Y-47863728D01*
X84674285Y-47863728D02*
X84674285Y-47625633D01*
X84674285Y-47625633D02*
X84721904Y-47435157D01*
X84721904Y-47435157D02*
X84769523Y-47339919D01*
X84769523Y-47339919D02*
X84817142Y-47292300D01*
X84817142Y-47292300D02*
X84912380Y-47244680D01*
X84912380Y-47244680D02*
X85007618Y-47244680D01*
X85007618Y-47244680D02*
X85102856Y-47292300D01*
X85102856Y-47292300D02*
X85150475Y-47339919D01*
X85150475Y-47339919D02*
X85198094Y-47435157D01*
X85198094Y-47435157D02*
X85245713Y-47625633D01*
X85245713Y-47625633D02*
X85245713Y-47863728D01*
X85245713Y-47863728D02*
X85198094Y-48054204D01*
X85198094Y-48054204D02*
X85150475Y-48149442D01*
X85150475Y-48149442D02*
X85102856Y-48197061D01*
X85102856Y-48197061D02*
X85007618Y-48244680D01*
X83721904Y-47244680D02*
X84293332Y-47244680D01*
X84007618Y-47244680D02*
X84007618Y-48244680D01*
X84007618Y-48244680D02*
X84102856Y-48101823D01*
X84102856Y-48101823D02*
X84198094Y-48006585D01*
X84198094Y-48006585D02*
X84293332Y-47958966D01*
X76826666Y-60794680D02*
X77159999Y-61270871D01*
X77398094Y-60794680D02*
X77398094Y-61794680D01*
X77398094Y-61794680D02*
X77017142Y-61794680D01*
X77017142Y-61794680D02*
X76921904Y-61747061D01*
X76921904Y-61747061D02*
X76874285Y-61699442D01*
X76874285Y-61699442D02*
X76826666Y-61604204D01*
X76826666Y-61604204D02*
X76826666Y-61461347D01*
X76826666Y-61461347D02*
X76874285Y-61366109D01*
X76874285Y-61366109D02*
X76921904Y-61318490D01*
X76921904Y-61318490D02*
X77017142Y-61270871D01*
X77017142Y-61270871D02*
X77398094Y-61270871D01*
X75969523Y-61794680D02*
X76159999Y-61794680D01*
X76159999Y-61794680D02*
X76255237Y-61747061D01*
X76255237Y-61747061D02*
X76302856Y-61699442D01*
X76302856Y-61699442D02*
X76398094Y-61556585D01*
X76398094Y-61556585D02*
X76445713Y-61366109D01*
X76445713Y-61366109D02*
X76445713Y-60985157D01*
X76445713Y-60985157D02*
X76398094Y-60889919D01*
X76398094Y-60889919D02*
X76350475Y-60842300D01*
X76350475Y-60842300D02*
X76255237Y-60794680D01*
X76255237Y-60794680D02*
X76064761Y-60794680D01*
X76064761Y-60794680D02*
X75969523Y-60842300D01*
X75969523Y-60842300D02*
X75921904Y-60889919D01*
X75921904Y-60889919D02*
X75874285Y-60985157D01*
X75874285Y-60985157D02*
X75874285Y-61223252D01*
X75874285Y-61223252D02*
X75921904Y-61318490D01*
X75921904Y-61318490D02*
X75969523Y-61366109D01*
X75969523Y-61366109D02*
X76064761Y-61413728D01*
X76064761Y-61413728D02*
X76255237Y-61413728D01*
X76255237Y-61413728D02*
X76350475Y-61366109D01*
X76350475Y-61366109D02*
X76398094Y-61318490D01*
X76398094Y-61318490D02*
X76445713Y-61223252D01*
X55599047Y-43869919D02*
X55646666Y-43822300D01*
X55646666Y-43822300D02*
X55789523Y-43774680D01*
X55789523Y-43774680D02*
X55884761Y-43774680D01*
X55884761Y-43774680D02*
X56027618Y-43822300D01*
X56027618Y-43822300D02*
X56122856Y-43917538D01*
X56122856Y-43917538D02*
X56170475Y-44012776D01*
X56170475Y-44012776D02*
X56218094Y-44203252D01*
X56218094Y-44203252D02*
X56218094Y-44346109D01*
X56218094Y-44346109D02*
X56170475Y-44536585D01*
X56170475Y-44536585D02*
X56122856Y-44631823D01*
X56122856Y-44631823D02*
X56027618Y-44727061D01*
X56027618Y-44727061D02*
X55884761Y-44774680D01*
X55884761Y-44774680D02*
X55789523Y-44774680D01*
X55789523Y-44774680D02*
X55646666Y-44727061D01*
X55646666Y-44727061D02*
X55599047Y-44679442D01*
X55218094Y-44679442D02*
X55170475Y-44727061D01*
X55170475Y-44727061D02*
X55075237Y-44774680D01*
X55075237Y-44774680D02*
X54837142Y-44774680D01*
X54837142Y-44774680D02*
X54741904Y-44727061D01*
X54741904Y-44727061D02*
X54694285Y-44679442D01*
X54694285Y-44679442D02*
X54646666Y-44584204D01*
X54646666Y-44584204D02*
X54646666Y-44488966D01*
X54646666Y-44488966D02*
X54694285Y-44346109D01*
X54694285Y-44346109D02*
X55265713Y-43774680D01*
X55265713Y-43774680D02*
X54646666Y-43774680D01*
X54027618Y-44774680D02*
X53932380Y-44774680D01*
X53932380Y-44774680D02*
X53837142Y-44727061D01*
X53837142Y-44727061D02*
X53789523Y-44679442D01*
X53789523Y-44679442D02*
X53741904Y-44584204D01*
X53741904Y-44584204D02*
X53694285Y-44393728D01*
X53694285Y-44393728D02*
X53694285Y-44155633D01*
X53694285Y-44155633D02*
X53741904Y-43965157D01*
X53741904Y-43965157D02*
X53789523Y-43869919D01*
X53789523Y-43869919D02*
X53837142Y-43822300D01*
X53837142Y-43822300D02*
X53932380Y-43774680D01*
X53932380Y-43774680D02*
X54027618Y-43774680D01*
X54027618Y-43774680D02*
X54122856Y-43822300D01*
X54122856Y-43822300D02*
X54170475Y-43869919D01*
X54170475Y-43869919D02*
X54218094Y-43965157D01*
X54218094Y-43965157D02*
X54265713Y-44155633D01*
X54265713Y-44155633D02*
X54265713Y-44393728D01*
X54265713Y-44393728D02*
X54218094Y-44584204D01*
X54218094Y-44584204D02*
X54170475Y-44679442D01*
X54170475Y-44679442D02*
X54122856Y-44727061D01*
X54122856Y-44727061D02*
X54027618Y-44774680D01*
X53313332Y-44679442D02*
X53265713Y-44727061D01*
X53265713Y-44727061D02*
X53170475Y-44774680D01*
X53170475Y-44774680D02*
X52932380Y-44774680D01*
X52932380Y-44774680D02*
X52837142Y-44727061D01*
X52837142Y-44727061D02*
X52789523Y-44679442D01*
X52789523Y-44679442D02*
X52741904Y-44584204D01*
X52741904Y-44584204D02*
X52741904Y-44488966D01*
X52741904Y-44488966D02*
X52789523Y-44346109D01*
X52789523Y-44346109D02*
X53360951Y-43774680D01*
X53360951Y-43774680D02*
X52741904Y-43774680D01*
X17608333Y-66814680D02*
X17608333Y-66100395D01*
X17608333Y-66100395D02*
X17655952Y-65957538D01*
X17655952Y-65957538D02*
X17751190Y-65862300D01*
X17751190Y-65862300D02*
X17894047Y-65814680D01*
X17894047Y-65814680D02*
X17989285Y-65814680D01*
X17179761Y-66719442D02*
X17132142Y-66767061D01*
X17132142Y-66767061D02*
X17036904Y-66814680D01*
X17036904Y-66814680D02*
X16798809Y-66814680D01*
X16798809Y-66814680D02*
X16703571Y-66767061D01*
X16703571Y-66767061D02*
X16655952Y-66719442D01*
X16655952Y-66719442D02*
X16608333Y-66624204D01*
X16608333Y-66624204D02*
X16608333Y-66528966D01*
X16608333Y-66528966D02*
X16655952Y-66386109D01*
X16655952Y-66386109D02*
X17227380Y-65814680D01*
X17227380Y-65814680D02*
X16608333Y-65814680D01*
X37566666Y-23994680D02*
X38042856Y-23994680D01*
X38042856Y-23994680D02*
X38042856Y-24994680D01*
X36709523Y-23994680D02*
X37280951Y-23994680D01*
X36995237Y-23994680D02*
X36995237Y-24994680D01*
X36995237Y-24994680D02*
X37090475Y-24851823D01*
X37090475Y-24851823D02*
X37185713Y-24756585D01*
X37185713Y-24756585D02*
X37280951Y-24708966D01*
X70166666Y-63654680D02*
X70499999Y-64130871D01*
X70738094Y-63654680D02*
X70738094Y-64654680D01*
X70738094Y-64654680D02*
X70357142Y-64654680D01*
X70357142Y-64654680D02*
X70261904Y-64607061D01*
X70261904Y-64607061D02*
X70214285Y-64559442D01*
X70214285Y-64559442D02*
X70166666Y-64464204D01*
X70166666Y-64464204D02*
X70166666Y-64321347D01*
X70166666Y-64321347D02*
X70214285Y-64226109D01*
X70214285Y-64226109D02*
X70261904Y-64178490D01*
X70261904Y-64178490D02*
X70357142Y-64130871D01*
X70357142Y-64130871D02*
X70738094Y-64130871D01*
X69785713Y-64559442D02*
X69738094Y-64607061D01*
X69738094Y-64607061D02*
X69642856Y-64654680D01*
X69642856Y-64654680D02*
X69404761Y-64654680D01*
X69404761Y-64654680D02*
X69309523Y-64607061D01*
X69309523Y-64607061D02*
X69261904Y-64559442D01*
X69261904Y-64559442D02*
X69214285Y-64464204D01*
X69214285Y-64464204D02*
X69214285Y-64368966D01*
X69214285Y-64368966D02*
X69261904Y-64226109D01*
X69261904Y-64226109D02*
X69833332Y-63654680D01*
X69833332Y-63654680D02*
X69214285Y-63654680D01*
X70344166Y-58465930D02*
X70677499Y-58942121D01*
X70915594Y-58465930D02*
X70915594Y-59465930D01*
X70915594Y-59465930D02*
X70534642Y-59465930D01*
X70534642Y-59465930D02*
X70439404Y-59418311D01*
X70439404Y-59418311D02*
X70391785Y-59370692D01*
X70391785Y-59370692D02*
X70344166Y-59275454D01*
X70344166Y-59275454D02*
X70344166Y-59132597D01*
X70344166Y-59132597D02*
X70391785Y-59037359D01*
X70391785Y-59037359D02*
X70439404Y-58989740D01*
X70439404Y-58989740D02*
X70534642Y-58942121D01*
X70534642Y-58942121D02*
X70915594Y-58942121D01*
X70010832Y-59465930D02*
X69391785Y-59465930D01*
X69391785Y-59465930D02*
X69725118Y-59084978D01*
X69725118Y-59084978D02*
X69582261Y-59084978D01*
X69582261Y-59084978D02*
X69487023Y-59037359D01*
X69487023Y-59037359D02*
X69439404Y-58989740D01*
X69439404Y-58989740D02*
X69391785Y-58894502D01*
X69391785Y-58894502D02*
X69391785Y-58656407D01*
X69391785Y-58656407D02*
X69439404Y-58561169D01*
X69439404Y-58561169D02*
X69487023Y-58513550D01*
X69487023Y-58513550D02*
X69582261Y-58465930D01*
X69582261Y-58465930D02*
X69867975Y-58465930D01*
X69867975Y-58465930D02*
X69963213Y-58513550D01*
X69963213Y-58513550D02*
X70010832Y-58561169D01*
X79791666Y-18104319D02*
X79791666Y-18818604D01*
X79791666Y-18818604D02*
X79744047Y-18961461D01*
X79744047Y-18961461D02*
X79648809Y-19056700D01*
X79648809Y-19056700D02*
X79505952Y-19104319D01*
X79505952Y-19104319D02*
X79410714Y-19104319D01*
X80791666Y-19104319D02*
X80220238Y-19104319D01*
X80505952Y-19104319D02*
X80505952Y-18104319D01*
X80505952Y-18104319D02*
X80410714Y-18247176D01*
X80410714Y-18247176D02*
X80315476Y-18342414D01*
X80315476Y-18342414D02*
X80220238Y-18390033D01*
X67809047Y-64817419D02*
X67856666Y-64769800D01*
X67856666Y-64769800D02*
X67999523Y-64722180D01*
X67999523Y-64722180D02*
X68094761Y-64722180D01*
X68094761Y-64722180D02*
X68237618Y-64769800D01*
X68237618Y-64769800D02*
X68332856Y-64865038D01*
X68332856Y-64865038D02*
X68380475Y-64960276D01*
X68380475Y-64960276D02*
X68428094Y-65150752D01*
X68428094Y-65150752D02*
X68428094Y-65293609D01*
X68428094Y-65293609D02*
X68380475Y-65484085D01*
X68380475Y-65484085D02*
X68332856Y-65579323D01*
X68332856Y-65579323D02*
X68237618Y-65674561D01*
X68237618Y-65674561D02*
X68094761Y-65722180D01*
X68094761Y-65722180D02*
X67999523Y-65722180D01*
X67999523Y-65722180D02*
X67856666Y-65674561D01*
X67856666Y-65674561D02*
X67809047Y-65626942D01*
X67475713Y-65722180D02*
X66856666Y-65722180D01*
X66856666Y-65722180D02*
X67189999Y-65341228D01*
X67189999Y-65341228D02*
X67047142Y-65341228D01*
X67047142Y-65341228D02*
X66951904Y-65293609D01*
X66951904Y-65293609D02*
X66904285Y-65245990D01*
X66904285Y-65245990D02*
X66856666Y-65150752D01*
X66856666Y-65150752D02*
X66856666Y-64912657D01*
X66856666Y-64912657D02*
X66904285Y-64817419D01*
X66904285Y-64817419D02*
X66951904Y-64769800D01*
X66951904Y-64769800D02*
X67047142Y-64722180D01*
X67047142Y-64722180D02*
X67332856Y-64722180D01*
X67332856Y-64722180D02*
X67428094Y-64769800D01*
X67428094Y-64769800D02*
X67475713Y-64817419D01*
X66237618Y-65722180D02*
X66142380Y-65722180D01*
X66142380Y-65722180D02*
X66047142Y-65674561D01*
X66047142Y-65674561D02*
X65999523Y-65626942D01*
X65999523Y-65626942D02*
X65951904Y-65531704D01*
X65951904Y-65531704D02*
X65904285Y-65341228D01*
X65904285Y-65341228D02*
X65904285Y-65103133D01*
X65904285Y-65103133D02*
X65951904Y-64912657D01*
X65951904Y-64912657D02*
X65999523Y-64817419D01*
X65999523Y-64817419D02*
X66047142Y-64769800D01*
X66047142Y-64769800D02*
X66142380Y-64722180D01*
X66142380Y-64722180D02*
X66237618Y-64722180D01*
X66237618Y-64722180D02*
X66332856Y-64769800D01*
X66332856Y-64769800D02*
X66380475Y-64817419D01*
X66380475Y-64817419D02*
X66428094Y-64912657D01*
X66428094Y-64912657D02*
X66475713Y-65103133D01*
X66475713Y-65103133D02*
X66475713Y-65341228D01*
X66475713Y-65341228D02*
X66428094Y-65531704D01*
X66428094Y-65531704D02*
X66380475Y-65626942D01*
X66380475Y-65626942D02*
X66332856Y-65674561D01*
X66332856Y-65674561D02*
X66237618Y-65722180D01*
X65523332Y-65626942D02*
X65475713Y-65674561D01*
X65475713Y-65674561D02*
X65380475Y-65722180D01*
X65380475Y-65722180D02*
X65142380Y-65722180D01*
X65142380Y-65722180D02*
X65047142Y-65674561D01*
X65047142Y-65674561D02*
X64999523Y-65626942D01*
X64999523Y-65626942D02*
X64951904Y-65531704D01*
X64951904Y-65531704D02*
X64951904Y-65436466D01*
X64951904Y-65436466D02*
X64999523Y-65293609D01*
X64999523Y-65293609D02*
X65570951Y-64722180D01*
X65570951Y-64722180D02*
X64951904Y-64722180D01*
X9138095Y-54104319D02*
X9138095Y-54913842D01*
X9138095Y-54913842D02*
X9185714Y-55009080D01*
X9185714Y-55009080D02*
X9233333Y-55056700D01*
X9233333Y-55056700D02*
X9328571Y-55104319D01*
X9328571Y-55104319D02*
X9519047Y-55104319D01*
X9519047Y-55104319D02*
X9614285Y-55056700D01*
X9614285Y-55056700D02*
X9661904Y-55009080D01*
X9661904Y-55009080D02*
X9709523Y-54913842D01*
X9709523Y-54913842D02*
X9709523Y-54104319D01*
X10709523Y-55104319D02*
X10138095Y-55104319D01*
X10423809Y-55104319D02*
X10423809Y-54104319D01*
X10423809Y-54104319D02*
X10328571Y-54247176D01*
X10328571Y-54247176D02*
X10233333Y-54342414D01*
X10233333Y-54342414D02*
X10138095Y-54390033D01*
X38409047Y-64717419D02*
X38456666Y-64669800D01*
X38456666Y-64669800D02*
X38599523Y-64622180D01*
X38599523Y-64622180D02*
X38694761Y-64622180D01*
X38694761Y-64622180D02*
X38837618Y-64669800D01*
X38837618Y-64669800D02*
X38932856Y-64765038D01*
X38932856Y-64765038D02*
X38980475Y-64860276D01*
X38980475Y-64860276D02*
X39028094Y-65050752D01*
X39028094Y-65050752D02*
X39028094Y-65193609D01*
X39028094Y-65193609D02*
X38980475Y-65384085D01*
X38980475Y-65384085D02*
X38932856Y-65479323D01*
X38932856Y-65479323D02*
X38837618Y-65574561D01*
X38837618Y-65574561D02*
X38694761Y-65622180D01*
X38694761Y-65622180D02*
X38599523Y-65622180D01*
X38599523Y-65622180D02*
X38456666Y-65574561D01*
X38456666Y-65574561D02*
X38409047Y-65526942D01*
X38075713Y-65622180D02*
X37456666Y-65622180D01*
X37456666Y-65622180D02*
X37789999Y-65241228D01*
X37789999Y-65241228D02*
X37647142Y-65241228D01*
X37647142Y-65241228D02*
X37551904Y-65193609D01*
X37551904Y-65193609D02*
X37504285Y-65145990D01*
X37504285Y-65145990D02*
X37456666Y-65050752D01*
X37456666Y-65050752D02*
X37456666Y-64812657D01*
X37456666Y-64812657D02*
X37504285Y-64717419D01*
X37504285Y-64717419D02*
X37551904Y-64669800D01*
X37551904Y-64669800D02*
X37647142Y-64622180D01*
X37647142Y-64622180D02*
X37932856Y-64622180D01*
X37932856Y-64622180D02*
X38028094Y-64669800D01*
X38028094Y-64669800D02*
X38075713Y-64717419D01*
X36837618Y-65622180D02*
X36742380Y-65622180D01*
X36742380Y-65622180D02*
X36647142Y-65574561D01*
X36647142Y-65574561D02*
X36599523Y-65526942D01*
X36599523Y-65526942D02*
X36551904Y-65431704D01*
X36551904Y-65431704D02*
X36504285Y-65241228D01*
X36504285Y-65241228D02*
X36504285Y-65003133D01*
X36504285Y-65003133D02*
X36551904Y-64812657D01*
X36551904Y-64812657D02*
X36599523Y-64717419D01*
X36599523Y-64717419D02*
X36647142Y-64669800D01*
X36647142Y-64669800D02*
X36742380Y-64622180D01*
X36742380Y-64622180D02*
X36837618Y-64622180D01*
X36837618Y-64622180D02*
X36932856Y-64669800D01*
X36932856Y-64669800D02*
X36980475Y-64717419D01*
X36980475Y-64717419D02*
X37028094Y-64812657D01*
X37028094Y-64812657D02*
X37075713Y-65003133D01*
X37075713Y-65003133D02*
X37075713Y-65241228D01*
X37075713Y-65241228D02*
X37028094Y-65431704D01*
X37028094Y-65431704D02*
X36980475Y-65526942D01*
X36980475Y-65526942D02*
X36932856Y-65574561D01*
X36932856Y-65574561D02*
X36837618Y-65622180D01*
X35551904Y-64622180D02*
X36123332Y-64622180D01*
X35837618Y-64622180D02*
X35837618Y-65622180D01*
X35837618Y-65622180D02*
X35932856Y-65479323D01*
X35932856Y-65479323D02*
X36028094Y-65384085D01*
X36028094Y-65384085D02*
X36123332Y-65336466D01*
X33466666Y-63519319D02*
X33466666Y-64233604D01*
X33466666Y-64233604D02*
X33419047Y-64376461D01*
X33419047Y-64376461D02*
X33323809Y-64471700D01*
X33323809Y-64471700D02*
X33180952Y-64519319D01*
X33180952Y-64519319D02*
X33085714Y-64519319D01*
X33847619Y-63519319D02*
X34466666Y-63519319D01*
X34466666Y-63519319D02*
X34133333Y-63900271D01*
X34133333Y-63900271D02*
X34276190Y-63900271D01*
X34276190Y-63900271D02*
X34371428Y-63947890D01*
X34371428Y-63947890D02*
X34419047Y-63995509D01*
X34419047Y-63995509D02*
X34466666Y-64090747D01*
X34466666Y-64090747D02*
X34466666Y-64328842D01*
X34466666Y-64328842D02*
X34419047Y-64424080D01*
X34419047Y-64424080D02*
X34371428Y-64471700D01*
X34371428Y-64471700D02*
X34276190Y-64519319D01*
X34276190Y-64519319D02*
X33990476Y-64519319D01*
X33990476Y-64519319D02*
X33895238Y-64471700D01*
X33895238Y-64471700D02*
X33847619Y-64424080D01*
X48766666Y-27332419D02*
X48814285Y-27284800D01*
X48814285Y-27284800D02*
X48957142Y-27237180D01*
X48957142Y-27237180D02*
X49052380Y-27237180D01*
X49052380Y-27237180D02*
X49195237Y-27284800D01*
X49195237Y-27284800D02*
X49290475Y-27380038D01*
X49290475Y-27380038D02*
X49338094Y-27475276D01*
X49338094Y-27475276D02*
X49385713Y-27665752D01*
X49385713Y-27665752D02*
X49385713Y-27808609D01*
X49385713Y-27808609D02*
X49338094Y-27999085D01*
X49338094Y-27999085D02*
X49290475Y-28094323D01*
X49290475Y-28094323D02*
X49195237Y-28189561D01*
X49195237Y-28189561D02*
X49052380Y-28237180D01*
X49052380Y-28237180D02*
X48957142Y-28237180D01*
X48957142Y-28237180D02*
X48814285Y-28189561D01*
X48814285Y-28189561D02*
X48766666Y-28141942D01*
X47814285Y-27237180D02*
X48385713Y-27237180D01*
X48099999Y-27237180D02*
X48099999Y-28237180D01*
X48099999Y-28237180D02*
X48195237Y-28094323D01*
X48195237Y-28094323D02*
X48290475Y-27999085D01*
X48290475Y-27999085D02*
X48385713Y-27951466D01*
X84369047Y-53694680D02*
X84702380Y-54170871D01*
X84940475Y-53694680D02*
X84940475Y-54694680D01*
X84940475Y-54694680D02*
X84559523Y-54694680D01*
X84559523Y-54694680D02*
X84464285Y-54647061D01*
X84464285Y-54647061D02*
X84416666Y-54599442D01*
X84416666Y-54599442D02*
X84369047Y-54504204D01*
X84369047Y-54504204D02*
X84369047Y-54361347D01*
X84369047Y-54361347D02*
X84416666Y-54266109D01*
X84416666Y-54266109D02*
X84464285Y-54218490D01*
X84464285Y-54218490D02*
X84559523Y-54170871D01*
X84559523Y-54170871D02*
X84940475Y-54170871D01*
X83464285Y-54694680D02*
X83940475Y-54694680D01*
X83940475Y-54694680D02*
X83988094Y-54218490D01*
X83988094Y-54218490D02*
X83940475Y-54266109D01*
X83940475Y-54266109D02*
X83845237Y-54313728D01*
X83845237Y-54313728D02*
X83607142Y-54313728D01*
X83607142Y-54313728D02*
X83511904Y-54266109D01*
X83511904Y-54266109D02*
X83464285Y-54218490D01*
X83464285Y-54218490D02*
X83416666Y-54123252D01*
X83416666Y-54123252D02*
X83416666Y-53885157D01*
X83416666Y-53885157D02*
X83464285Y-53789919D01*
X83464285Y-53789919D02*
X83511904Y-53742300D01*
X83511904Y-53742300D02*
X83607142Y-53694680D01*
X83607142Y-53694680D02*
X83845237Y-53694680D01*
X83845237Y-53694680D02*
X83940475Y-53742300D01*
X83940475Y-53742300D02*
X83988094Y-53789919D01*
X82797618Y-54694680D02*
X82702380Y-54694680D01*
X82702380Y-54694680D02*
X82607142Y-54647061D01*
X82607142Y-54647061D02*
X82559523Y-54599442D01*
X82559523Y-54599442D02*
X82511904Y-54504204D01*
X82511904Y-54504204D02*
X82464285Y-54313728D01*
X82464285Y-54313728D02*
X82464285Y-54075633D01*
X82464285Y-54075633D02*
X82511904Y-53885157D01*
X82511904Y-53885157D02*
X82559523Y-53789919D01*
X82559523Y-53789919D02*
X82607142Y-53742300D01*
X82607142Y-53742300D02*
X82702380Y-53694680D01*
X82702380Y-53694680D02*
X82797618Y-53694680D01*
X82797618Y-53694680D02*
X82892856Y-53742300D01*
X82892856Y-53742300D02*
X82940475Y-53789919D01*
X82940475Y-53789919D02*
X82988094Y-53885157D01*
X82988094Y-53885157D02*
X83035713Y-54075633D01*
X83035713Y-54075633D02*
X83035713Y-54313728D01*
X83035713Y-54313728D02*
X82988094Y-54504204D01*
X82988094Y-54504204D02*
X82940475Y-54599442D01*
X82940475Y-54599442D02*
X82892856Y-54647061D01*
X82892856Y-54647061D02*
X82797618Y-54694680D01*
X82083332Y-54599442D02*
X82035713Y-54647061D01*
X82035713Y-54647061D02*
X81940475Y-54694680D01*
X81940475Y-54694680D02*
X81702380Y-54694680D01*
X81702380Y-54694680D02*
X81607142Y-54647061D01*
X81607142Y-54647061D02*
X81559523Y-54599442D01*
X81559523Y-54599442D02*
X81511904Y-54504204D01*
X81511904Y-54504204D02*
X81511904Y-54408966D01*
X81511904Y-54408966D02*
X81559523Y-54266109D01*
X81559523Y-54266109D02*
X82130951Y-53694680D01*
X82130951Y-53694680D02*
X81511904Y-53694680D01*
X55579047Y-47339919D02*
X55626666Y-47292300D01*
X55626666Y-47292300D02*
X55769523Y-47244680D01*
X55769523Y-47244680D02*
X55864761Y-47244680D01*
X55864761Y-47244680D02*
X56007618Y-47292300D01*
X56007618Y-47292300D02*
X56102856Y-47387538D01*
X56102856Y-47387538D02*
X56150475Y-47482776D01*
X56150475Y-47482776D02*
X56198094Y-47673252D01*
X56198094Y-47673252D02*
X56198094Y-47816109D01*
X56198094Y-47816109D02*
X56150475Y-48006585D01*
X56150475Y-48006585D02*
X56102856Y-48101823D01*
X56102856Y-48101823D02*
X56007618Y-48197061D01*
X56007618Y-48197061D02*
X55864761Y-48244680D01*
X55864761Y-48244680D02*
X55769523Y-48244680D01*
X55769523Y-48244680D02*
X55626666Y-48197061D01*
X55626666Y-48197061D02*
X55579047Y-48149442D01*
X55198094Y-48149442D02*
X55150475Y-48197061D01*
X55150475Y-48197061D02*
X55055237Y-48244680D01*
X55055237Y-48244680D02*
X54817142Y-48244680D01*
X54817142Y-48244680D02*
X54721904Y-48197061D01*
X54721904Y-48197061D02*
X54674285Y-48149442D01*
X54674285Y-48149442D02*
X54626666Y-48054204D01*
X54626666Y-48054204D02*
X54626666Y-47958966D01*
X54626666Y-47958966D02*
X54674285Y-47816109D01*
X54674285Y-47816109D02*
X55245713Y-47244680D01*
X55245713Y-47244680D02*
X54626666Y-47244680D01*
X54007618Y-48244680D02*
X53912380Y-48244680D01*
X53912380Y-48244680D02*
X53817142Y-48197061D01*
X53817142Y-48197061D02*
X53769523Y-48149442D01*
X53769523Y-48149442D02*
X53721904Y-48054204D01*
X53721904Y-48054204D02*
X53674285Y-47863728D01*
X53674285Y-47863728D02*
X53674285Y-47625633D01*
X53674285Y-47625633D02*
X53721904Y-47435157D01*
X53721904Y-47435157D02*
X53769523Y-47339919D01*
X53769523Y-47339919D02*
X53817142Y-47292300D01*
X53817142Y-47292300D02*
X53912380Y-47244680D01*
X53912380Y-47244680D02*
X54007618Y-47244680D01*
X54007618Y-47244680D02*
X54102856Y-47292300D01*
X54102856Y-47292300D02*
X54150475Y-47339919D01*
X54150475Y-47339919D02*
X54198094Y-47435157D01*
X54198094Y-47435157D02*
X54245713Y-47625633D01*
X54245713Y-47625633D02*
X54245713Y-47863728D01*
X54245713Y-47863728D02*
X54198094Y-48054204D01*
X54198094Y-48054204D02*
X54150475Y-48149442D01*
X54150475Y-48149442D02*
X54102856Y-48197061D01*
X54102856Y-48197061D02*
X54007618Y-48244680D01*
X52721904Y-47244680D02*
X53293332Y-47244680D01*
X53007618Y-47244680D02*
X53007618Y-48244680D01*
X53007618Y-48244680D02*
X53102856Y-48101823D01*
X53102856Y-48101823D02*
X53198094Y-48006585D01*
X53198094Y-48006585D02*
X53293332Y-47958966D01*
X48791666Y-18104319D02*
X48791666Y-18818604D01*
X48791666Y-18818604D02*
X48744047Y-18961461D01*
X48744047Y-18961461D02*
X48648809Y-19056700D01*
X48648809Y-19056700D02*
X48505952Y-19104319D01*
X48505952Y-19104319D02*
X48410714Y-19104319D01*
X49791666Y-19104319D02*
X49220238Y-19104319D01*
X49505952Y-19104319D02*
X49505952Y-18104319D01*
X49505952Y-18104319D02*
X49410714Y-18247176D01*
X49410714Y-18247176D02*
X49315476Y-18342414D01*
X49315476Y-18342414D02*
X49220238Y-18390033D01*
X16928094Y-37514680D02*
X16928094Y-38514680D01*
X16928094Y-38514680D02*
X16689999Y-38514680D01*
X16689999Y-38514680D02*
X16547142Y-38467061D01*
X16547142Y-38467061D02*
X16451904Y-38371823D01*
X16451904Y-38371823D02*
X16404285Y-38276585D01*
X16404285Y-38276585D02*
X16356666Y-38086109D01*
X16356666Y-38086109D02*
X16356666Y-37943252D01*
X16356666Y-37943252D02*
X16404285Y-37752776D01*
X16404285Y-37752776D02*
X16451904Y-37657538D01*
X16451904Y-37657538D02*
X16547142Y-37562300D01*
X16547142Y-37562300D02*
X16689999Y-37514680D01*
X16689999Y-37514680D02*
X16928094Y-37514680D01*
X15404285Y-37514680D02*
X15975713Y-37514680D01*
X15689999Y-37514680D02*
X15689999Y-38514680D01*
X15689999Y-38514680D02*
X15785237Y-38371823D01*
X15785237Y-38371823D02*
X15880475Y-38276585D01*
X15880475Y-38276585D02*
X15975713Y-38228966D01*
X14294761Y-46969557D02*
X14199523Y-46921938D01*
X14199523Y-46921938D02*
X14104285Y-46826700D01*
X14104285Y-46826700D02*
X13961428Y-46683842D01*
X13961428Y-46683842D02*
X13866190Y-46636223D01*
X13866190Y-46636223D02*
X13770952Y-46636223D01*
X13818571Y-46874319D02*
X13723333Y-46826700D01*
X13723333Y-46826700D02*
X13628095Y-46731461D01*
X13628095Y-46731461D02*
X13580476Y-46540985D01*
X13580476Y-46540985D02*
X13580476Y-46207652D01*
X13580476Y-46207652D02*
X13628095Y-46017176D01*
X13628095Y-46017176D02*
X13723333Y-45921938D01*
X13723333Y-45921938D02*
X13818571Y-45874319D01*
X13818571Y-45874319D02*
X14009047Y-45874319D01*
X14009047Y-45874319D02*
X14104285Y-45921938D01*
X14104285Y-45921938D02*
X14199523Y-46017176D01*
X14199523Y-46017176D02*
X14247142Y-46207652D01*
X14247142Y-46207652D02*
X14247142Y-46540985D01*
X14247142Y-46540985D02*
X14199523Y-46731461D01*
X14199523Y-46731461D02*
X14104285Y-46826700D01*
X14104285Y-46826700D02*
X14009047Y-46874319D01*
X14009047Y-46874319D02*
X13818571Y-46874319D01*
X15199523Y-46874319D02*
X14628095Y-46874319D01*
X14913809Y-46874319D02*
X14913809Y-45874319D01*
X14913809Y-45874319D02*
X14818571Y-46017176D01*
X14818571Y-46017176D02*
X14723333Y-46112414D01*
X14723333Y-46112414D02*
X14628095Y-46160033D01*
X86599047Y-43869919D02*
X86646666Y-43822300D01*
X86646666Y-43822300D02*
X86789523Y-43774680D01*
X86789523Y-43774680D02*
X86884761Y-43774680D01*
X86884761Y-43774680D02*
X87027618Y-43822300D01*
X87027618Y-43822300D02*
X87122856Y-43917538D01*
X87122856Y-43917538D02*
X87170475Y-44012776D01*
X87170475Y-44012776D02*
X87218094Y-44203252D01*
X87218094Y-44203252D02*
X87218094Y-44346109D01*
X87218094Y-44346109D02*
X87170475Y-44536585D01*
X87170475Y-44536585D02*
X87122856Y-44631823D01*
X87122856Y-44631823D02*
X87027618Y-44727061D01*
X87027618Y-44727061D02*
X86884761Y-44774680D01*
X86884761Y-44774680D02*
X86789523Y-44774680D01*
X86789523Y-44774680D02*
X86646666Y-44727061D01*
X86646666Y-44727061D02*
X86599047Y-44679442D01*
X86218094Y-44679442D02*
X86170475Y-44727061D01*
X86170475Y-44727061D02*
X86075237Y-44774680D01*
X86075237Y-44774680D02*
X85837142Y-44774680D01*
X85837142Y-44774680D02*
X85741904Y-44727061D01*
X85741904Y-44727061D02*
X85694285Y-44679442D01*
X85694285Y-44679442D02*
X85646666Y-44584204D01*
X85646666Y-44584204D02*
X85646666Y-44488966D01*
X85646666Y-44488966D02*
X85694285Y-44346109D01*
X85694285Y-44346109D02*
X86265713Y-43774680D01*
X86265713Y-43774680D02*
X85646666Y-43774680D01*
X85027618Y-44774680D02*
X84932380Y-44774680D01*
X84932380Y-44774680D02*
X84837142Y-44727061D01*
X84837142Y-44727061D02*
X84789523Y-44679442D01*
X84789523Y-44679442D02*
X84741904Y-44584204D01*
X84741904Y-44584204D02*
X84694285Y-44393728D01*
X84694285Y-44393728D02*
X84694285Y-44155633D01*
X84694285Y-44155633D02*
X84741904Y-43965157D01*
X84741904Y-43965157D02*
X84789523Y-43869919D01*
X84789523Y-43869919D02*
X84837142Y-43822300D01*
X84837142Y-43822300D02*
X84932380Y-43774680D01*
X84932380Y-43774680D02*
X85027618Y-43774680D01*
X85027618Y-43774680D02*
X85122856Y-43822300D01*
X85122856Y-43822300D02*
X85170475Y-43869919D01*
X85170475Y-43869919D02*
X85218094Y-43965157D01*
X85218094Y-43965157D02*
X85265713Y-44155633D01*
X85265713Y-44155633D02*
X85265713Y-44393728D01*
X85265713Y-44393728D02*
X85218094Y-44584204D01*
X85218094Y-44584204D02*
X85170475Y-44679442D01*
X85170475Y-44679442D02*
X85122856Y-44727061D01*
X85122856Y-44727061D02*
X85027618Y-44774680D01*
X84313332Y-44679442D02*
X84265713Y-44727061D01*
X84265713Y-44727061D02*
X84170475Y-44774680D01*
X84170475Y-44774680D02*
X83932380Y-44774680D01*
X83932380Y-44774680D02*
X83837142Y-44727061D01*
X83837142Y-44727061D02*
X83789523Y-44679442D01*
X83789523Y-44679442D02*
X83741904Y-44584204D01*
X83741904Y-44584204D02*
X83741904Y-44488966D01*
X83741904Y-44488966D02*
X83789523Y-44346109D01*
X83789523Y-44346109D02*
X84360951Y-43774680D01*
X84360951Y-43774680D02*
X83741904Y-43774680D01*
X47928094Y-37514680D02*
X47928094Y-38514680D01*
X47928094Y-38514680D02*
X47689999Y-38514680D01*
X47689999Y-38514680D02*
X47547142Y-38467061D01*
X47547142Y-38467061D02*
X47451904Y-38371823D01*
X47451904Y-38371823D02*
X47404285Y-38276585D01*
X47404285Y-38276585D02*
X47356666Y-38086109D01*
X47356666Y-38086109D02*
X47356666Y-37943252D01*
X47356666Y-37943252D02*
X47404285Y-37752776D01*
X47404285Y-37752776D02*
X47451904Y-37657538D01*
X47451904Y-37657538D02*
X47547142Y-37562300D01*
X47547142Y-37562300D02*
X47689999Y-37514680D01*
X47689999Y-37514680D02*
X47928094Y-37514680D01*
X46404285Y-37514680D02*
X46975713Y-37514680D01*
X46689999Y-37514680D02*
X46689999Y-38514680D01*
X46689999Y-38514680D02*
X46785237Y-38371823D01*
X46785237Y-38371823D02*
X46880475Y-38276585D01*
X46880475Y-38276585D02*
X46975713Y-38228966D01*
X5266666Y-53102419D02*
X5314285Y-53054800D01*
X5314285Y-53054800D02*
X5457142Y-53007180D01*
X5457142Y-53007180D02*
X5552380Y-53007180D01*
X5552380Y-53007180D02*
X5695237Y-53054800D01*
X5695237Y-53054800D02*
X5790475Y-53150038D01*
X5790475Y-53150038D02*
X5838094Y-53245276D01*
X5838094Y-53245276D02*
X5885713Y-53435752D01*
X5885713Y-53435752D02*
X5885713Y-53578609D01*
X5885713Y-53578609D02*
X5838094Y-53769085D01*
X5838094Y-53769085D02*
X5790475Y-53864323D01*
X5790475Y-53864323D02*
X5695237Y-53959561D01*
X5695237Y-53959561D02*
X5552380Y-54007180D01*
X5552380Y-54007180D02*
X5457142Y-54007180D01*
X5457142Y-54007180D02*
X5314285Y-53959561D01*
X5314285Y-53959561D02*
X5266666Y-53911942D01*
X4361904Y-54007180D02*
X4838094Y-54007180D01*
X4838094Y-54007180D02*
X4885713Y-53530990D01*
X4885713Y-53530990D02*
X4838094Y-53578609D01*
X4838094Y-53578609D02*
X4742856Y-53626228D01*
X4742856Y-53626228D02*
X4504761Y-53626228D01*
X4504761Y-53626228D02*
X4409523Y-53578609D01*
X4409523Y-53578609D02*
X4361904Y-53530990D01*
X4361904Y-53530990D02*
X4314285Y-53435752D01*
X4314285Y-53435752D02*
X4314285Y-53197657D01*
X4314285Y-53197657D02*
X4361904Y-53102419D01*
X4361904Y-53102419D02*
X4409523Y-53054800D01*
X4409523Y-53054800D02*
X4504761Y-53007180D01*
X4504761Y-53007180D02*
X4742856Y-53007180D01*
X4742856Y-53007180D02*
X4838094Y-53054800D01*
X4838094Y-53054800D02*
X4885713Y-53102419D01*
X69409047Y-64717419D02*
X69456666Y-64669800D01*
X69456666Y-64669800D02*
X69599523Y-64622180D01*
X69599523Y-64622180D02*
X69694761Y-64622180D01*
X69694761Y-64622180D02*
X69837618Y-64669800D01*
X69837618Y-64669800D02*
X69932856Y-64765038D01*
X69932856Y-64765038D02*
X69980475Y-64860276D01*
X69980475Y-64860276D02*
X70028094Y-65050752D01*
X70028094Y-65050752D02*
X70028094Y-65193609D01*
X70028094Y-65193609D02*
X69980475Y-65384085D01*
X69980475Y-65384085D02*
X69932856Y-65479323D01*
X69932856Y-65479323D02*
X69837618Y-65574561D01*
X69837618Y-65574561D02*
X69694761Y-65622180D01*
X69694761Y-65622180D02*
X69599523Y-65622180D01*
X69599523Y-65622180D02*
X69456666Y-65574561D01*
X69456666Y-65574561D02*
X69409047Y-65526942D01*
X69075713Y-65622180D02*
X68456666Y-65622180D01*
X68456666Y-65622180D02*
X68789999Y-65241228D01*
X68789999Y-65241228D02*
X68647142Y-65241228D01*
X68647142Y-65241228D02*
X68551904Y-65193609D01*
X68551904Y-65193609D02*
X68504285Y-65145990D01*
X68504285Y-65145990D02*
X68456666Y-65050752D01*
X68456666Y-65050752D02*
X68456666Y-64812657D01*
X68456666Y-64812657D02*
X68504285Y-64717419D01*
X68504285Y-64717419D02*
X68551904Y-64669800D01*
X68551904Y-64669800D02*
X68647142Y-64622180D01*
X68647142Y-64622180D02*
X68932856Y-64622180D01*
X68932856Y-64622180D02*
X69028094Y-64669800D01*
X69028094Y-64669800D02*
X69075713Y-64717419D01*
X67837618Y-65622180D02*
X67742380Y-65622180D01*
X67742380Y-65622180D02*
X67647142Y-65574561D01*
X67647142Y-65574561D02*
X67599523Y-65526942D01*
X67599523Y-65526942D02*
X67551904Y-65431704D01*
X67551904Y-65431704D02*
X67504285Y-65241228D01*
X67504285Y-65241228D02*
X67504285Y-65003133D01*
X67504285Y-65003133D02*
X67551904Y-64812657D01*
X67551904Y-64812657D02*
X67599523Y-64717419D01*
X67599523Y-64717419D02*
X67647142Y-64669800D01*
X67647142Y-64669800D02*
X67742380Y-64622180D01*
X67742380Y-64622180D02*
X67837618Y-64622180D01*
X67837618Y-64622180D02*
X67932856Y-64669800D01*
X67932856Y-64669800D02*
X67980475Y-64717419D01*
X67980475Y-64717419D02*
X68028094Y-64812657D01*
X68028094Y-64812657D02*
X68075713Y-65003133D01*
X68075713Y-65003133D02*
X68075713Y-65241228D01*
X68075713Y-65241228D02*
X68028094Y-65431704D01*
X68028094Y-65431704D02*
X67980475Y-65526942D01*
X67980475Y-65526942D02*
X67932856Y-65574561D01*
X67932856Y-65574561D02*
X67837618Y-65622180D01*
X66551904Y-64622180D02*
X67123332Y-64622180D01*
X66837618Y-64622180D02*
X66837618Y-65622180D01*
X66837618Y-65622180D02*
X66932856Y-65479323D01*
X66932856Y-65479323D02*
X67028094Y-65384085D01*
X67028094Y-65384085D02*
X67123332Y-65336466D01*
X8344166Y-58465930D02*
X8677499Y-58942121D01*
X8915594Y-58465930D02*
X8915594Y-59465930D01*
X8915594Y-59465930D02*
X8534642Y-59465930D01*
X8534642Y-59465930D02*
X8439404Y-59418311D01*
X8439404Y-59418311D02*
X8391785Y-59370692D01*
X8391785Y-59370692D02*
X8344166Y-59275454D01*
X8344166Y-59275454D02*
X8344166Y-59132597D01*
X8344166Y-59132597D02*
X8391785Y-59037359D01*
X8391785Y-59037359D02*
X8439404Y-58989740D01*
X8439404Y-58989740D02*
X8534642Y-58942121D01*
X8534642Y-58942121D02*
X8915594Y-58942121D01*
X8010832Y-59465930D02*
X7391785Y-59465930D01*
X7391785Y-59465930D02*
X7725118Y-59084978D01*
X7725118Y-59084978D02*
X7582261Y-59084978D01*
X7582261Y-59084978D02*
X7487023Y-59037359D01*
X7487023Y-59037359D02*
X7439404Y-58989740D01*
X7439404Y-58989740D02*
X7391785Y-58894502D01*
X7391785Y-58894502D02*
X7391785Y-58656407D01*
X7391785Y-58656407D02*
X7439404Y-58561169D01*
X7439404Y-58561169D02*
X7487023Y-58513550D01*
X7487023Y-58513550D02*
X7582261Y-58465930D01*
X7582261Y-58465930D02*
X7867975Y-58465930D01*
X7867975Y-58465930D02*
X7963213Y-58513550D01*
X7963213Y-58513550D02*
X8010832Y-58561169D01*
X22369047Y-53694680D02*
X22702380Y-54170871D01*
X22940475Y-53694680D02*
X22940475Y-54694680D01*
X22940475Y-54694680D02*
X22559523Y-54694680D01*
X22559523Y-54694680D02*
X22464285Y-54647061D01*
X22464285Y-54647061D02*
X22416666Y-54599442D01*
X22416666Y-54599442D02*
X22369047Y-54504204D01*
X22369047Y-54504204D02*
X22369047Y-54361347D01*
X22369047Y-54361347D02*
X22416666Y-54266109D01*
X22416666Y-54266109D02*
X22464285Y-54218490D01*
X22464285Y-54218490D02*
X22559523Y-54170871D01*
X22559523Y-54170871D02*
X22940475Y-54170871D01*
X21464285Y-54694680D02*
X21940475Y-54694680D01*
X21940475Y-54694680D02*
X21988094Y-54218490D01*
X21988094Y-54218490D02*
X21940475Y-54266109D01*
X21940475Y-54266109D02*
X21845237Y-54313728D01*
X21845237Y-54313728D02*
X21607142Y-54313728D01*
X21607142Y-54313728D02*
X21511904Y-54266109D01*
X21511904Y-54266109D02*
X21464285Y-54218490D01*
X21464285Y-54218490D02*
X21416666Y-54123252D01*
X21416666Y-54123252D02*
X21416666Y-53885157D01*
X21416666Y-53885157D02*
X21464285Y-53789919D01*
X21464285Y-53789919D02*
X21511904Y-53742300D01*
X21511904Y-53742300D02*
X21607142Y-53694680D01*
X21607142Y-53694680D02*
X21845237Y-53694680D01*
X21845237Y-53694680D02*
X21940475Y-53742300D01*
X21940475Y-53742300D02*
X21988094Y-53789919D01*
X20797618Y-54694680D02*
X20702380Y-54694680D01*
X20702380Y-54694680D02*
X20607142Y-54647061D01*
X20607142Y-54647061D02*
X20559523Y-54599442D01*
X20559523Y-54599442D02*
X20511904Y-54504204D01*
X20511904Y-54504204D02*
X20464285Y-54313728D01*
X20464285Y-54313728D02*
X20464285Y-54075633D01*
X20464285Y-54075633D02*
X20511904Y-53885157D01*
X20511904Y-53885157D02*
X20559523Y-53789919D01*
X20559523Y-53789919D02*
X20607142Y-53742300D01*
X20607142Y-53742300D02*
X20702380Y-53694680D01*
X20702380Y-53694680D02*
X20797618Y-53694680D01*
X20797618Y-53694680D02*
X20892856Y-53742300D01*
X20892856Y-53742300D02*
X20940475Y-53789919D01*
X20940475Y-53789919D02*
X20988094Y-53885157D01*
X20988094Y-53885157D02*
X21035713Y-54075633D01*
X21035713Y-54075633D02*
X21035713Y-54313728D01*
X21035713Y-54313728D02*
X20988094Y-54504204D01*
X20988094Y-54504204D02*
X20940475Y-54599442D01*
X20940475Y-54599442D02*
X20892856Y-54647061D01*
X20892856Y-54647061D02*
X20797618Y-54694680D01*
X20083332Y-54599442D02*
X20035713Y-54647061D01*
X20035713Y-54647061D02*
X19940475Y-54694680D01*
X19940475Y-54694680D02*
X19702380Y-54694680D01*
X19702380Y-54694680D02*
X19607142Y-54647061D01*
X19607142Y-54647061D02*
X19559523Y-54599442D01*
X19559523Y-54599442D02*
X19511904Y-54504204D01*
X19511904Y-54504204D02*
X19511904Y-54408966D01*
X19511904Y-54408966D02*
X19559523Y-54266109D01*
X19559523Y-54266109D02*
X20130951Y-53694680D01*
X20130951Y-53694680D02*
X19511904Y-53694680D01*
X11583333Y-50704319D02*
X11250000Y-50228128D01*
X11011905Y-50704319D02*
X11011905Y-49704319D01*
X11011905Y-49704319D02*
X11392857Y-49704319D01*
X11392857Y-49704319D02*
X11488095Y-49751938D01*
X11488095Y-49751938D02*
X11535714Y-49799557D01*
X11535714Y-49799557D02*
X11583333Y-49894795D01*
X11583333Y-49894795D02*
X11583333Y-50037652D01*
X11583333Y-50037652D02*
X11535714Y-50132890D01*
X11535714Y-50132890D02*
X11488095Y-50180509D01*
X11488095Y-50180509D02*
X11392857Y-50228128D01*
X11392857Y-50228128D02*
X11011905Y-50228128D01*
X12440476Y-50037652D02*
X12440476Y-50704319D01*
X12202381Y-49656700D02*
X11964286Y-50370985D01*
X11964286Y-50370985D02*
X12583333Y-50370985D01*
X24599047Y-43869919D02*
X24646666Y-43822300D01*
X24646666Y-43822300D02*
X24789523Y-43774680D01*
X24789523Y-43774680D02*
X24884761Y-43774680D01*
X24884761Y-43774680D02*
X25027618Y-43822300D01*
X25027618Y-43822300D02*
X25122856Y-43917538D01*
X25122856Y-43917538D02*
X25170475Y-44012776D01*
X25170475Y-44012776D02*
X25218094Y-44203252D01*
X25218094Y-44203252D02*
X25218094Y-44346109D01*
X25218094Y-44346109D02*
X25170475Y-44536585D01*
X25170475Y-44536585D02*
X25122856Y-44631823D01*
X25122856Y-44631823D02*
X25027618Y-44727061D01*
X25027618Y-44727061D02*
X24884761Y-44774680D01*
X24884761Y-44774680D02*
X24789523Y-44774680D01*
X24789523Y-44774680D02*
X24646666Y-44727061D01*
X24646666Y-44727061D02*
X24599047Y-44679442D01*
X24218094Y-44679442D02*
X24170475Y-44727061D01*
X24170475Y-44727061D02*
X24075237Y-44774680D01*
X24075237Y-44774680D02*
X23837142Y-44774680D01*
X23837142Y-44774680D02*
X23741904Y-44727061D01*
X23741904Y-44727061D02*
X23694285Y-44679442D01*
X23694285Y-44679442D02*
X23646666Y-44584204D01*
X23646666Y-44584204D02*
X23646666Y-44488966D01*
X23646666Y-44488966D02*
X23694285Y-44346109D01*
X23694285Y-44346109D02*
X24265713Y-43774680D01*
X24265713Y-43774680D02*
X23646666Y-43774680D01*
X23027618Y-44774680D02*
X22932380Y-44774680D01*
X22932380Y-44774680D02*
X22837142Y-44727061D01*
X22837142Y-44727061D02*
X22789523Y-44679442D01*
X22789523Y-44679442D02*
X22741904Y-44584204D01*
X22741904Y-44584204D02*
X22694285Y-44393728D01*
X22694285Y-44393728D02*
X22694285Y-44155633D01*
X22694285Y-44155633D02*
X22741904Y-43965157D01*
X22741904Y-43965157D02*
X22789523Y-43869919D01*
X22789523Y-43869919D02*
X22837142Y-43822300D01*
X22837142Y-43822300D02*
X22932380Y-43774680D01*
X22932380Y-43774680D02*
X23027618Y-43774680D01*
X23027618Y-43774680D02*
X23122856Y-43822300D01*
X23122856Y-43822300D02*
X23170475Y-43869919D01*
X23170475Y-43869919D02*
X23218094Y-43965157D01*
X23218094Y-43965157D02*
X23265713Y-44155633D01*
X23265713Y-44155633D02*
X23265713Y-44393728D01*
X23265713Y-44393728D02*
X23218094Y-44584204D01*
X23218094Y-44584204D02*
X23170475Y-44679442D01*
X23170475Y-44679442D02*
X23122856Y-44727061D01*
X23122856Y-44727061D02*
X23027618Y-44774680D01*
X22313332Y-44679442D02*
X22265713Y-44727061D01*
X22265713Y-44727061D02*
X22170475Y-44774680D01*
X22170475Y-44774680D02*
X21932380Y-44774680D01*
X21932380Y-44774680D02*
X21837142Y-44727061D01*
X21837142Y-44727061D02*
X21789523Y-44679442D01*
X21789523Y-44679442D02*
X21741904Y-44584204D01*
X21741904Y-44584204D02*
X21741904Y-44488966D01*
X21741904Y-44488966D02*
X21789523Y-44346109D01*
X21789523Y-44346109D02*
X22360951Y-43774680D01*
X22360951Y-43774680D02*
X21741904Y-43774680D01*
X6566666Y-23994680D02*
X7042856Y-23994680D01*
X7042856Y-23994680D02*
X7042856Y-24994680D01*
X5709523Y-23994680D02*
X6280951Y-23994680D01*
X5995237Y-23994680D02*
X5995237Y-24994680D01*
X5995237Y-24994680D02*
X6090475Y-24851823D01*
X6090475Y-24851823D02*
X6185713Y-24756585D01*
X6185713Y-24756585D02*
X6280951Y-24708966D01*
X8166666Y-63654680D02*
X8499999Y-64130871D01*
X8738094Y-63654680D02*
X8738094Y-64654680D01*
X8738094Y-64654680D02*
X8357142Y-64654680D01*
X8357142Y-64654680D02*
X8261904Y-64607061D01*
X8261904Y-64607061D02*
X8214285Y-64559442D01*
X8214285Y-64559442D02*
X8166666Y-64464204D01*
X8166666Y-64464204D02*
X8166666Y-64321347D01*
X8166666Y-64321347D02*
X8214285Y-64226109D01*
X8214285Y-64226109D02*
X8261904Y-64178490D01*
X8261904Y-64178490D02*
X8357142Y-64130871D01*
X8357142Y-64130871D02*
X8738094Y-64130871D01*
X7785713Y-64559442D02*
X7738094Y-64607061D01*
X7738094Y-64607061D02*
X7642856Y-64654680D01*
X7642856Y-64654680D02*
X7404761Y-64654680D01*
X7404761Y-64654680D02*
X7309523Y-64607061D01*
X7309523Y-64607061D02*
X7261904Y-64559442D01*
X7261904Y-64559442D02*
X7214285Y-64464204D01*
X7214285Y-64464204D02*
X7214285Y-64368966D01*
X7214285Y-64368966D02*
X7261904Y-64226109D01*
X7261904Y-64226109D02*
X7833332Y-63654680D01*
X7833332Y-63654680D02*
X7214285Y-63654680D01*
X44949580Y-58626166D02*
X44997200Y-58673785D01*
X44997200Y-58673785D02*
X45044819Y-58816642D01*
X45044819Y-58816642D02*
X45044819Y-58911880D01*
X45044819Y-58911880D02*
X44997200Y-59054737D01*
X44997200Y-59054737D02*
X44901961Y-59149975D01*
X44901961Y-59149975D02*
X44806723Y-59197594D01*
X44806723Y-59197594D02*
X44616247Y-59245213D01*
X44616247Y-59245213D02*
X44473390Y-59245213D01*
X44473390Y-59245213D02*
X44282914Y-59197594D01*
X44282914Y-59197594D02*
X44187676Y-59149975D01*
X44187676Y-59149975D02*
X44092438Y-59054737D01*
X44092438Y-59054737D02*
X44044819Y-58911880D01*
X44044819Y-58911880D02*
X44044819Y-58816642D01*
X44044819Y-58816642D02*
X44092438Y-58673785D01*
X44092438Y-58673785D02*
X44140057Y-58626166D01*
X44378152Y-57769023D02*
X45044819Y-57769023D01*
X43997200Y-58007118D02*
X44711485Y-58245213D01*
X44711485Y-58245213D02*
X44711485Y-57626166D01*
X7409047Y-64717419D02*
X7456666Y-64669800D01*
X7456666Y-64669800D02*
X7599523Y-64622180D01*
X7599523Y-64622180D02*
X7694761Y-64622180D01*
X7694761Y-64622180D02*
X7837618Y-64669800D01*
X7837618Y-64669800D02*
X7932856Y-64765038D01*
X7932856Y-64765038D02*
X7980475Y-64860276D01*
X7980475Y-64860276D02*
X8028094Y-65050752D01*
X8028094Y-65050752D02*
X8028094Y-65193609D01*
X8028094Y-65193609D02*
X7980475Y-65384085D01*
X7980475Y-65384085D02*
X7932856Y-65479323D01*
X7932856Y-65479323D02*
X7837618Y-65574561D01*
X7837618Y-65574561D02*
X7694761Y-65622180D01*
X7694761Y-65622180D02*
X7599523Y-65622180D01*
X7599523Y-65622180D02*
X7456666Y-65574561D01*
X7456666Y-65574561D02*
X7409047Y-65526942D01*
X7075713Y-65622180D02*
X6456666Y-65622180D01*
X6456666Y-65622180D02*
X6789999Y-65241228D01*
X6789999Y-65241228D02*
X6647142Y-65241228D01*
X6647142Y-65241228D02*
X6551904Y-65193609D01*
X6551904Y-65193609D02*
X6504285Y-65145990D01*
X6504285Y-65145990D02*
X6456666Y-65050752D01*
X6456666Y-65050752D02*
X6456666Y-64812657D01*
X6456666Y-64812657D02*
X6504285Y-64717419D01*
X6504285Y-64717419D02*
X6551904Y-64669800D01*
X6551904Y-64669800D02*
X6647142Y-64622180D01*
X6647142Y-64622180D02*
X6932856Y-64622180D01*
X6932856Y-64622180D02*
X7028094Y-64669800D01*
X7028094Y-64669800D02*
X7075713Y-64717419D01*
X5837618Y-65622180D02*
X5742380Y-65622180D01*
X5742380Y-65622180D02*
X5647142Y-65574561D01*
X5647142Y-65574561D02*
X5599523Y-65526942D01*
X5599523Y-65526942D02*
X5551904Y-65431704D01*
X5551904Y-65431704D02*
X5504285Y-65241228D01*
X5504285Y-65241228D02*
X5504285Y-65003133D01*
X5504285Y-65003133D02*
X5551904Y-64812657D01*
X5551904Y-64812657D02*
X5599523Y-64717419D01*
X5599523Y-64717419D02*
X5647142Y-64669800D01*
X5647142Y-64669800D02*
X5742380Y-64622180D01*
X5742380Y-64622180D02*
X5837618Y-64622180D01*
X5837618Y-64622180D02*
X5932856Y-64669800D01*
X5932856Y-64669800D02*
X5980475Y-64717419D01*
X5980475Y-64717419D02*
X6028094Y-64812657D01*
X6028094Y-64812657D02*
X6075713Y-65003133D01*
X6075713Y-65003133D02*
X6075713Y-65241228D01*
X6075713Y-65241228D02*
X6028094Y-65431704D01*
X6028094Y-65431704D02*
X5980475Y-65526942D01*
X5980475Y-65526942D02*
X5932856Y-65574561D01*
X5932856Y-65574561D02*
X5837618Y-65622180D01*
X4551904Y-64622180D02*
X5123332Y-64622180D01*
X4837618Y-64622180D02*
X4837618Y-65622180D01*
X4837618Y-65622180D02*
X4932856Y-65479323D01*
X4932856Y-65479323D02*
X5028094Y-65384085D01*
X5028094Y-65384085D02*
X5123332Y-65336466D01*
X79766666Y-27332419D02*
X79814285Y-27284800D01*
X79814285Y-27284800D02*
X79957142Y-27237180D01*
X79957142Y-27237180D02*
X80052380Y-27237180D01*
X80052380Y-27237180D02*
X80195237Y-27284800D01*
X80195237Y-27284800D02*
X80290475Y-27380038D01*
X80290475Y-27380038D02*
X80338094Y-27475276D01*
X80338094Y-27475276D02*
X80385713Y-27665752D01*
X80385713Y-27665752D02*
X80385713Y-27808609D01*
X80385713Y-27808609D02*
X80338094Y-27999085D01*
X80338094Y-27999085D02*
X80290475Y-28094323D01*
X80290475Y-28094323D02*
X80195237Y-28189561D01*
X80195237Y-28189561D02*
X80052380Y-28237180D01*
X80052380Y-28237180D02*
X79957142Y-28237180D01*
X79957142Y-28237180D02*
X79814285Y-28189561D01*
X79814285Y-28189561D02*
X79766666Y-28141942D01*
X78814285Y-27237180D02*
X79385713Y-27237180D01*
X79099999Y-27237180D02*
X79099999Y-28237180D01*
X79099999Y-28237180D02*
X79195237Y-28094323D01*
X79195237Y-28094323D02*
X79290475Y-27999085D01*
X79290475Y-27999085D02*
X79385713Y-27951466D01*
X17766666Y-27332419D02*
X17814285Y-27284800D01*
X17814285Y-27284800D02*
X17957142Y-27237180D01*
X17957142Y-27237180D02*
X18052380Y-27237180D01*
X18052380Y-27237180D02*
X18195237Y-27284800D01*
X18195237Y-27284800D02*
X18290475Y-27380038D01*
X18290475Y-27380038D02*
X18338094Y-27475276D01*
X18338094Y-27475276D02*
X18385713Y-27665752D01*
X18385713Y-27665752D02*
X18385713Y-27808609D01*
X18385713Y-27808609D02*
X18338094Y-27999085D01*
X18338094Y-27999085D02*
X18290475Y-28094323D01*
X18290475Y-28094323D02*
X18195237Y-28189561D01*
X18195237Y-28189561D02*
X18052380Y-28237180D01*
X18052380Y-28237180D02*
X17957142Y-28237180D01*
X17957142Y-28237180D02*
X17814285Y-28189561D01*
X17814285Y-28189561D02*
X17766666Y-28141942D01*
X16814285Y-27237180D02*
X17385713Y-27237180D01*
X17099999Y-27237180D02*
X17099999Y-28237180D01*
X17099999Y-28237180D02*
X17195237Y-28094323D01*
X17195237Y-28094323D02*
X17290475Y-27999085D01*
X17290475Y-27999085D02*
X17385713Y-27951466D01*
X14826666Y-60794680D02*
X15159999Y-61270871D01*
X15398094Y-60794680D02*
X15398094Y-61794680D01*
X15398094Y-61794680D02*
X15017142Y-61794680D01*
X15017142Y-61794680D02*
X14921904Y-61747061D01*
X14921904Y-61747061D02*
X14874285Y-61699442D01*
X14874285Y-61699442D02*
X14826666Y-61604204D01*
X14826666Y-61604204D02*
X14826666Y-61461347D01*
X14826666Y-61461347D02*
X14874285Y-61366109D01*
X14874285Y-61366109D02*
X14921904Y-61318490D01*
X14921904Y-61318490D02*
X15017142Y-61270871D01*
X15017142Y-61270871D02*
X15398094Y-61270871D01*
X13969523Y-61794680D02*
X14159999Y-61794680D01*
X14159999Y-61794680D02*
X14255237Y-61747061D01*
X14255237Y-61747061D02*
X14302856Y-61699442D01*
X14302856Y-61699442D02*
X14398094Y-61556585D01*
X14398094Y-61556585D02*
X14445713Y-61366109D01*
X14445713Y-61366109D02*
X14445713Y-60985157D01*
X14445713Y-60985157D02*
X14398094Y-60889919D01*
X14398094Y-60889919D02*
X14350475Y-60842300D01*
X14350475Y-60842300D02*
X14255237Y-60794680D01*
X14255237Y-60794680D02*
X14064761Y-60794680D01*
X14064761Y-60794680D02*
X13969523Y-60842300D01*
X13969523Y-60842300D02*
X13921904Y-60889919D01*
X13921904Y-60889919D02*
X13874285Y-60985157D01*
X13874285Y-60985157D02*
X13874285Y-61223252D01*
X13874285Y-61223252D02*
X13921904Y-61318490D01*
X13921904Y-61318490D02*
X13969523Y-61366109D01*
X13969523Y-61366109D02*
X14064761Y-61413728D01*
X14064761Y-61413728D02*
X14255237Y-61413728D01*
X14255237Y-61413728D02*
X14350475Y-61366109D01*
X14350475Y-61366109D02*
X14398094Y-61318490D01*
X14398094Y-61318490D02*
X14445713Y-61223252D01*
X80209047Y-53794680D02*
X80542380Y-54270871D01*
X80780475Y-53794680D02*
X80780475Y-54794680D01*
X80780475Y-54794680D02*
X80399523Y-54794680D01*
X80399523Y-54794680D02*
X80304285Y-54747061D01*
X80304285Y-54747061D02*
X80256666Y-54699442D01*
X80256666Y-54699442D02*
X80209047Y-54604204D01*
X80209047Y-54604204D02*
X80209047Y-54461347D01*
X80209047Y-54461347D02*
X80256666Y-54366109D01*
X80256666Y-54366109D02*
X80304285Y-54318490D01*
X80304285Y-54318490D02*
X80399523Y-54270871D01*
X80399523Y-54270871D02*
X80780475Y-54270871D01*
X79304285Y-54794680D02*
X79780475Y-54794680D01*
X79780475Y-54794680D02*
X79828094Y-54318490D01*
X79828094Y-54318490D02*
X79780475Y-54366109D01*
X79780475Y-54366109D02*
X79685237Y-54413728D01*
X79685237Y-54413728D02*
X79447142Y-54413728D01*
X79447142Y-54413728D02*
X79351904Y-54366109D01*
X79351904Y-54366109D02*
X79304285Y-54318490D01*
X79304285Y-54318490D02*
X79256666Y-54223252D01*
X79256666Y-54223252D02*
X79256666Y-53985157D01*
X79256666Y-53985157D02*
X79304285Y-53889919D01*
X79304285Y-53889919D02*
X79351904Y-53842300D01*
X79351904Y-53842300D02*
X79447142Y-53794680D01*
X79447142Y-53794680D02*
X79685237Y-53794680D01*
X79685237Y-53794680D02*
X79780475Y-53842300D01*
X79780475Y-53842300D02*
X79828094Y-53889919D01*
X78637618Y-54794680D02*
X78542380Y-54794680D01*
X78542380Y-54794680D02*
X78447142Y-54747061D01*
X78447142Y-54747061D02*
X78399523Y-54699442D01*
X78399523Y-54699442D02*
X78351904Y-54604204D01*
X78351904Y-54604204D02*
X78304285Y-54413728D01*
X78304285Y-54413728D02*
X78304285Y-54175633D01*
X78304285Y-54175633D02*
X78351904Y-53985157D01*
X78351904Y-53985157D02*
X78399523Y-53889919D01*
X78399523Y-53889919D02*
X78447142Y-53842300D01*
X78447142Y-53842300D02*
X78542380Y-53794680D01*
X78542380Y-53794680D02*
X78637618Y-53794680D01*
X78637618Y-53794680D02*
X78732856Y-53842300D01*
X78732856Y-53842300D02*
X78780475Y-53889919D01*
X78780475Y-53889919D02*
X78828094Y-53985157D01*
X78828094Y-53985157D02*
X78875713Y-54175633D01*
X78875713Y-54175633D02*
X78875713Y-54413728D01*
X78875713Y-54413728D02*
X78828094Y-54604204D01*
X78828094Y-54604204D02*
X78780475Y-54699442D01*
X78780475Y-54699442D02*
X78732856Y-54747061D01*
X78732856Y-54747061D02*
X78637618Y-54794680D01*
X77351904Y-53794680D02*
X77923332Y-53794680D01*
X77637618Y-53794680D02*
X77637618Y-54794680D01*
X77637618Y-54794680D02*
X77732856Y-54651823D01*
X77732856Y-54651823D02*
X77828094Y-54556585D01*
X77828094Y-54556585D02*
X77923332Y-54508966D01*
X71138095Y-54104319D02*
X71138095Y-54913842D01*
X71138095Y-54913842D02*
X71185714Y-55009080D01*
X71185714Y-55009080D02*
X71233333Y-55056700D01*
X71233333Y-55056700D02*
X71328571Y-55104319D01*
X71328571Y-55104319D02*
X71519047Y-55104319D01*
X71519047Y-55104319D02*
X71614285Y-55056700D01*
X71614285Y-55056700D02*
X71661904Y-55009080D01*
X71661904Y-55009080D02*
X71709523Y-54913842D01*
X71709523Y-54913842D02*
X71709523Y-54104319D01*
X72709523Y-55104319D02*
X72138095Y-55104319D01*
X72423809Y-55104319D02*
X72423809Y-54104319D01*
X72423809Y-54104319D02*
X72328571Y-54247176D01*
X72328571Y-54247176D02*
X72233333Y-54342414D01*
X72233333Y-54342414D02*
X72138095Y-54390033D01*
X5809047Y-64817419D02*
X5856666Y-64769800D01*
X5856666Y-64769800D02*
X5999523Y-64722180D01*
X5999523Y-64722180D02*
X6094761Y-64722180D01*
X6094761Y-64722180D02*
X6237618Y-64769800D01*
X6237618Y-64769800D02*
X6332856Y-64865038D01*
X6332856Y-64865038D02*
X6380475Y-64960276D01*
X6380475Y-64960276D02*
X6428094Y-65150752D01*
X6428094Y-65150752D02*
X6428094Y-65293609D01*
X6428094Y-65293609D02*
X6380475Y-65484085D01*
X6380475Y-65484085D02*
X6332856Y-65579323D01*
X6332856Y-65579323D02*
X6237618Y-65674561D01*
X6237618Y-65674561D02*
X6094761Y-65722180D01*
X6094761Y-65722180D02*
X5999523Y-65722180D01*
X5999523Y-65722180D02*
X5856666Y-65674561D01*
X5856666Y-65674561D02*
X5809047Y-65626942D01*
X5475713Y-65722180D02*
X4856666Y-65722180D01*
X4856666Y-65722180D02*
X5189999Y-65341228D01*
X5189999Y-65341228D02*
X5047142Y-65341228D01*
X5047142Y-65341228D02*
X4951904Y-65293609D01*
X4951904Y-65293609D02*
X4904285Y-65245990D01*
X4904285Y-65245990D02*
X4856666Y-65150752D01*
X4856666Y-65150752D02*
X4856666Y-64912657D01*
X4856666Y-64912657D02*
X4904285Y-64817419D01*
X4904285Y-64817419D02*
X4951904Y-64769800D01*
X4951904Y-64769800D02*
X5047142Y-64722180D01*
X5047142Y-64722180D02*
X5332856Y-64722180D01*
X5332856Y-64722180D02*
X5428094Y-64769800D01*
X5428094Y-64769800D02*
X5475713Y-64817419D01*
X4237618Y-65722180D02*
X4142380Y-65722180D01*
X4142380Y-65722180D02*
X4047142Y-65674561D01*
X4047142Y-65674561D02*
X3999523Y-65626942D01*
X3999523Y-65626942D02*
X3951904Y-65531704D01*
X3951904Y-65531704D02*
X3904285Y-65341228D01*
X3904285Y-65341228D02*
X3904285Y-65103133D01*
X3904285Y-65103133D02*
X3951904Y-64912657D01*
X3951904Y-64912657D02*
X3999523Y-64817419D01*
X3999523Y-64817419D02*
X4047142Y-64769800D01*
X4047142Y-64769800D02*
X4142380Y-64722180D01*
X4142380Y-64722180D02*
X4237618Y-64722180D01*
X4237618Y-64722180D02*
X4332856Y-64769800D01*
X4332856Y-64769800D02*
X4380475Y-64817419D01*
X4380475Y-64817419D02*
X4428094Y-64912657D01*
X4428094Y-64912657D02*
X4475713Y-65103133D01*
X4475713Y-65103133D02*
X4475713Y-65341228D01*
X4475713Y-65341228D02*
X4428094Y-65531704D01*
X4428094Y-65531704D02*
X4380475Y-65626942D01*
X4380475Y-65626942D02*
X4332856Y-65674561D01*
X4332856Y-65674561D02*
X4237618Y-65722180D01*
X3523332Y-65626942D02*
X3475713Y-65674561D01*
X3475713Y-65674561D02*
X3380475Y-65722180D01*
X3380475Y-65722180D02*
X3142380Y-65722180D01*
X3142380Y-65722180D02*
X3047142Y-65674561D01*
X3047142Y-65674561D02*
X2999523Y-65626942D01*
X2999523Y-65626942D02*
X2951904Y-65531704D01*
X2951904Y-65531704D02*
X2951904Y-65436466D01*
X2951904Y-65436466D02*
X2999523Y-65293609D01*
X2999523Y-65293609D02*
X3570951Y-64722180D01*
X3570951Y-64722180D02*
X2951904Y-64722180D01*
X40413333Y-64534319D02*
X40080000Y-64058128D01*
X39841905Y-64534319D02*
X39841905Y-63534319D01*
X39841905Y-63534319D02*
X40222857Y-63534319D01*
X40222857Y-63534319D02*
X40318095Y-63581938D01*
X40318095Y-63581938D02*
X40365714Y-63629557D01*
X40365714Y-63629557D02*
X40413333Y-63724795D01*
X40413333Y-63724795D02*
X40413333Y-63867652D01*
X40413333Y-63867652D02*
X40365714Y-63962890D01*
X40365714Y-63962890D02*
X40318095Y-64010509D01*
X40318095Y-64010509D02*
X40222857Y-64058128D01*
X40222857Y-64058128D02*
X39841905Y-64058128D01*
X41365714Y-64534319D02*
X40794286Y-64534319D01*
X41080000Y-64534319D02*
X41080000Y-63534319D01*
X41080000Y-63534319D02*
X40984762Y-63677176D01*
X40984762Y-63677176D02*
X40889524Y-63772414D01*
X40889524Y-63772414D02*
X40794286Y-63820033D01*
D12*
G04 #@! TO.C,C4*
X13030000Y-54540748D02*
X13030000Y-55963252D01*
X14850000Y-54540748D02*
X14850000Y-55963252D01*
G04 #@! TO.C,J3*
X62570000Y-57434500D02*
X63900000Y-57434500D01*
X62570000Y-58764500D02*
X62570000Y-57434500D01*
X62570000Y-60034500D02*
X62570000Y-62634500D01*
X62570000Y-60034500D02*
X65230000Y-60034500D01*
X62570000Y-62634500D02*
X65230000Y-62634500D01*
X65230000Y-60034500D02*
X65230000Y-62634500D01*
G04 #@! TO.C,Q1*
X35275000Y-42499500D02*
X35275000Y-43999500D01*
X35275000Y-43999500D02*
X37085000Y-43999500D01*
X37085000Y-43999500D02*
X37085000Y-49124500D01*
X43865000Y-43999500D02*
X43865000Y-45099500D01*
X45675000Y-42499500D02*
X45675000Y-43999500D01*
X45675000Y-43999500D02*
X43865000Y-43999500D01*
G04 #@! TO.C,J3*
X570000Y-57434500D02*
X1900000Y-57434500D01*
X570000Y-58764500D02*
X570000Y-57434500D01*
X570000Y-60034500D02*
X570000Y-62634500D01*
X570000Y-60034500D02*
X3230000Y-60034500D01*
X570000Y-62634500D02*
X3230000Y-62634500D01*
X3230000Y-60034500D02*
X3230000Y-62634500D01*
G04 #@! TO.C,J2*
X73075000Y-64939500D02*
X73075000Y-67599500D01*
X75675000Y-64939500D02*
X73075000Y-64939500D01*
X75675000Y-64939500D02*
X75675000Y-67599500D01*
X75675000Y-67599500D02*
X73075000Y-67599500D01*
X76945000Y-64939500D02*
X78275000Y-64939500D01*
X78275000Y-64939500D02*
X78275000Y-66269500D01*
G04 #@! TO.C,R1*
X71077500Y-61674224D02*
X71077500Y-61164776D01*
X72122500Y-61674224D02*
X72122500Y-61164776D01*
G04 #@! TO.C,R4*
X70745276Y-49727000D02*
X71254724Y-49727000D01*
X70745276Y-50772000D02*
X71254724Y-50772000D01*
D10*
G04 #@! TO.C,U1*
X38430000Y-57649500D02*
X38430000Y-52579500D01*
X43570000Y-56719500D02*
X43570000Y-52579500D01*
D12*
G04 #@! TO.C,C4*
X75030000Y-54540748D02*
X75030000Y-55963252D01*
X76850000Y-54540748D02*
X76850000Y-55963252D01*
G04 #@! TO.C,R501*
X46380000Y-51772436D02*
X46380000Y-56126564D01*
X49800000Y-51772436D02*
X49800000Y-56126564D01*
G04 #@! TO.C,C5*
X36890000Y-52715733D02*
X36890000Y-53008267D01*
X37910000Y-52715733D02*
X37910000Y-53008267D01*
G04 #@! TO.C,R4*
X39745276Y-49727000D02*
X40254724Y-49727000D01*
X39745276Y-50772000D02*
X40254724Y-50772000D01*
G04 #@! TO.C,R6*
X47897064Y-59479500D02*
X43542936Y-59479500D01*
X47897064Y-62899500D02*
X43542936Y-62899500D01*
G04 #@! TO.C,R502*
X50290000Y-51772436D02*
X50290000Y-56126564D01*
X53710000Y-51772436D02*
X53710000Y-56126564D01*
G04 #@! TO.C,R501*
X15380000Y-51772436D02*
X15380000Y-56126564D01*
X18800000Y-51772436D02*
X18800000Y-56126564D01*
G04 #@! TO.C,C302*
X35180000Y-61293233D02*
X35180000Y-61585767D01*
X36200000Y-61293233D02*
X36200000Y-61585767D01*
G04 #@! TO.C,D1*
X84410000Y-38999500D02*
X78900000Y-38999500D01*
X84410000Y-42299500D02*
X78900000Y-42299500D01*
X84410000Y-42299500D02*
X84410000Y-38999500D01*
G04 #@! TO.C,C5*
X67890000Y-52715733D02*
X67890000Y-53008267D01*
X68910000Y-52715733D02*
X68910000Y-53008267D01*
G04 #@! TO.C,J2*
X42075000Y-64939500D02*
X42075000Y-67599500D01*
X44675000Y-64939500D02*
X42075000Y-64939500D01*
X44675000Y-64939500D02*
X44675000Y-67599500D01*
X44675000Y-67599500D02*
X42075000Y-67599500D01*
X45945000Y-64939500D02*
X47275000Y-64939500D01*
X47275000Y-64939500D02*
X47275000Y-66269500D01*
G04 #@! TO.C,C201*
X19741252Y-46119500D02*
X18318748Y-46119500D01*
X19741252Y-48839500D02*
X18318748Y-48839500D01*
G04 #@! TO.C,L1*
X65100000Y-30899500D02*
X65100000Y-19399500D01*
X68500000Y-18749500D02*
X65750000Y-18749500D01*
X68500000Y-31549500D02*
X65750000Y-31549500D01*
X77250000Y-18749500D02*
X74500000Y-18749500D01*
X77250000Y-31549500D02*
X74500000Y-31549500D01*
X77900000Y-19399500D02*
X77900000Y-30899500D01*
X65100000Y-19399500D02*
G75*
G02*
X65750000Y-18749500I650001J-1D01*
G01*
X65750000Y-31549500D02*
G75*
G02*
X65100000Y-30899500I0J650000D01*
G01*
X77250000Y-18749500D02*
G75*
G02*
X77900000Y-19399500I-1J-650001D01*
G01*
X77900000Y-30899500D02*
G75*
G02*
X77250000Y-31549500I-650000J0D01*
G01*
G04 #@! TO.C,Q1*
X66275000Y-42499500D02*
X66275000Y-43999500D01*
X66275000Y-43999500D02*
X68085000Y-43999500D01*
X68085000Y-43999500D02*
X68085000Y-49124500D01*
X74865000Y-43999500D02*
X74865000Y-45099500D01*
X76675000Y-42499500D02*
X76675000Y-43999500D01*
X76675000Y-43999500D02*
X74865000Y-43999500D01*
G04 #@! TO.C,J1*
X19595000Y-21079500D02*
X19595000Y-19749500D01*
X20925000Y-21079500D02*
X19595000Y-21079500D01*
X22195000Y-18419500D02*
X24795000Y-18419500D01*
X22195000Y-21079500D02*
X22195000Y-18419500D01*
X22195000Y-21079500D02*
X24795000Y-21079500D01*
X24795000Y-21079500D02*
X24795000Y-18419500D01*
G04 #@! TO.C,R3*
X36844724Y-58354500D02*
X36335276Y-58354500D01*
X36844724Y-59399500D02*
X36335276Y-59399500D01*
G04 #@! TO.C,R2*
X38487500Y-61164776D02*
X38487500Y-61674224D01*
X39532500Y-61164776D02*
X39532500Y-61674224D01*
G04 #@! TO.C,R1*
X9077500Y-61674224D02*
X9077500Y-61164776D01*
X10122500Y-61674224D02*
X10122500Y-61164776D01*
G04 #@! TO.C,C201*
X81741252Y-46119500D02*
X80318748Y-46119500D01*
X81741252Y-48839500D02*
X80318748Y-48839500D01*
G04 #@! TO.C,R6*
X78897064Y-59479500D02*
X74542936Y-59479500D01*
X78897064Y-62899500D02*
X74542936Y-62899500D01*
G04 #@! TO.C,C202*
X50741252Y-42749500D02*
X49318748Y-42749500D01*
X50741252Y-45469500D02*
X49318748Y-45469500D01*
G04 #@! TO.C,J2*
X11075000Y-64939500D02*
X11075000Y-67599500D01*
X13675000Y-64939500D02*
X11075000Y-64939500D01*
X13675000Y-64939500D02*
X13675000Y-67599500D01*
X13675000Y-67599500D02*
X11075000Y-67599500D01*
X14945000Y-64939500D02*
X16275000Y-64939500D01*
X16275000Y-64939500D02*
X16275000Y-66269500D01*
G04 #@! TO.C,L1*
X34100000Y-30899500D02*
X34100000Y-19399500D01*
X37500000Y-18749500D02*
X34750000Y-18749500D01*
X37500000Y-31549500D02*
X34750000Y-31549500D01*
X46250000Y-18749500D02*
X43500000Y-18749500D01*
X46250000Y-31549500D02*
X43500000Y-31549500D01*
X46900000Y-19399500D02*
X46900000Y-30899500D01*
X34100000Y-19399500D02*
G75*
G02*
X34750000Y-18749500I650001J-1D01*
G01*
X34750000Y-31549500D02*
G75*
G02*
X34100000Y-30899500I0J650000D01*
G01*
X46250000Y-18749500D02*
G75*
G02*
X46900000Y-19399500I-1J-650001D01*
G01*
X46900000Y-30899500D02*
G75*
G02*
X46250000Y-31549500I-650000J0D01*
G01*
G04 #@! TO.C,R2*
X69487500Y-61164776D02*
X69487500Y-61674224D01*
X70532500Y-61164776D02*
X70532500Y-61674224D01*
G04 #@! TO.C,R3*
X67844724Y-58354500D02*
X67335276Y-58354500D01*
X67844724Y-59399500D02*
X67335276Y-59399500D01*
G04 #@! TO.C,J1*
X81595000Y-21079500D02*
X81595000Y-19749500D01*
X82925000Y-21079500D02*
X81595000Y-21079500D01*
X84195000Y-18419500D02*
X86795000Y-18419500D01*
X84195000Y-21079500D02*
X84195000Y-18419500D01*
X84195000Y-21079500D02*
X86795000Y-21079500D01*
X86795000Y-21079500D02*
X86795000Y-18419500D01*
G04 #@! TO.C,C302*
X66180000Y-61293233D02*
X66180000Y-61585767D01*
X67200000Y-61293233D02*
X67200000Y-61585767D01*
D10*
G04 #@! TO.C,U1*
X7430000Y-57649500D02*
X7430000Y-52579500D01*
X12570000Y-56719500D02*
X12570000Y-52579500D01*
D12*
G04 #@! TO.C,C301*
X36780000Y-61293233D02*
X36780000Y-61585767D01*
X37800000Y-61293233D02*
X37800000Y-61585767D01*
G04 #@! TO.C,J3*
X31570000Y-57434500D02*
X32900000Y-57434500D01*
X31570000Y-58764500D02*
X31570000Y-57434500D01*
X31570000Y-60034500D02*
X31570000Y-62634500D01*
X31570000Y-60034500D02*
X34230000Y-60034500D01*
X31570000Y-62634500D02*
X34230000Y-62634500D01*
X34230000Y-60034500D02*
X34230000Y-62634500D01*
G04 #@! TO.C,C1*
X47340000Y-24496437D02*
X47340000Y-31952000D01*
X47340000Y-31952000D02*
X50090000Y-31952000D01*
X48404437Y-23432000D02*
X47340000Y-24496437D01*
X48404437Y-23432000D02*
X50090000Y-23432000D01*
X54110000Y-22192000D02*
X54110000Y-23192000D01*
X54610000Y-22692000D02*
X53610000Y-22692000D01*
X54795563Y-23432000D02*
X53110000Y-23432000D01*
X54795563Y-23432000D02*
X55860000Y-24496437D01*
X55860000Y-24496437D02*
X55860000Y-31952000D01*
X55860000Y-31952000D02*
X53110000Y-31952000D01*
G04 #@! TO.C,R502*
X81290000Y-51772436D02*
X81290000Y-56126564D01*
X84710000Y-51772436D02*
X84710000Y-56126564D01*
G04 #@! TO.C,C201*
X50741252Y-46119500D02*
X49318748Y-46119500D01*
X50741252Y-48839500D02*
X49318748Y-48839500D01*
G04 #@! TO.C,J1*
X50595000Y-21079500D02*
X50595000Y-19749500D01*
X51925000Y-21079500D02*
X50595000Y-21079500D01*
X53195000Y-18419500D02*
X55795000Y-18419500D01*
X53195000Y-21079500D02*
X53195000Y-18419500D01*
X53195000Y-21079500D02*
X55795000Y-21079500D01*
X55795000Y-21079500D02*
X55795000Y-18419500D01*
G04 #@! TO.C,D1*
X22410000Y-38999500D02*
X16900000Y-38999500D01*
X22410000Y-42299500D02*
X16900000Y-42299500D01*
X22410000Y-42299500D02*
X22410000Y-38999500D01*
G04 #@! TO.C,Q1*
X4275000Y-42499500D02*
X4275000Y-43999500D01*
X4275000Y-43999500D02*
X6085000Y-43999500D01*
X6085000Y-43999500D02*
X6085000Y-49124500D01*
X12865000Y-43999500D02*
X12865000Y-45099500D01*
X14675000Y-42499500D02*
X14675000Y-43999500D01*
X14675000Y-43999500D02*
X12865000Y-43999500D01*
G04 #@! TO.C,C202*
X81741252Y-42749500D02*
X80318748Y-42749500D01*
X81741252Y-45469500D02*
X80318748Y-45469500D01*
G04 #@! TO.C,D1*
X53410000Y-38999500D02*
X47900000Y-38999500D01*
X53410000Y-42299500D02*
X47900000Y-42299500D01*
X53410000Y-42299500D02*
X53410000Y-38999500D01*
G04 #@! TO.C,C5*
X5890000Y-52715733D02*
X5890000Y-53008267D01*
X6910000Y-52715733D02*
X6910000Y-53008267D01*
G04 #@! TO.C,C301*
X67780000Y-61293233D02*
X67780000Y-61585767D01*
X68800000Y-61293233D02*
X68800000Y-61585767D01*
G04 #@! TO.C,R3*
X5844724Y-58354500D02*
X5335276Y-58354500D01*
X5844724Y-59399500D02*
X5335276Y-59399500D01*
G04 #@! TO.C,R502*
X19290000Y-51772436D02*
X19290000Y-56126564D01*
X22710000Y-51772436D02*
X22710000Y-56126564D01*
G04 #@! TO.C,R4*
X8745276Y-49727000D02*
X9254724Y-49727000D01*
X8745276Y-50772000D02*
X9254724Y-50772000D01*
G04 #@! TO.C,C202*
X19741252Y-42749500D02*
X18318748Y-42749500D01*
X19741252Y-45469500D02*
X18318748Y-45469500D01*
G04 #@! TO.C,L1*
X3100000Y-30899500D02*
X3100000Y-19399500D01*
X6500000Y-18749500D02*
X3750000Y-18749500D01*
X6500000Y-31549500D02*
X3750000Y-31549500D01*
X15250000Y-18749500D02*
X12500000Y-18749500D01*
X15250000Y-31549500D02*
X12500000Y-31549500D01*
X15900000Y-19399500D02*
X15900000Y-30899500D01*
X3100000Y-19399500D02*
G75*
G02*
X3750000Y-18749500I650001J-1D01*
G01*
X3750000Y-31549500D02*
G75*
G02*
X3100000Y-30899500I0J650000D01*
G01*
X15250000Y-18749500D02*
G75*
G02*
X15900000Y-19399500I-1J-650001D01*
G01*
X15900000Y-30899500D02*
G75*
G02*
X15250000Y-31549500I-650000J0D01*
G01*
G04 #@! TO.C,R2*
X7487500Y-61164776D02*
X7487500Y-61674224D01*
X8532500Y-61164776D02*
X8532500Y-61674224D01*
G04 #@! TO.C,C4*
X44030000Y-54540748D02*
X44030000Y-55963252D01*
X45850000Y-54540748D02*
X45850000Y-55963252D01*
G04 #@! TO.C,C301*
X5780000Y-61293233D02*
X5780000Y-61585767D01*
X6800000Y-61293233D02*
X6800000Y-61585767D01*
G04 #@! TO.C,C1*
X78340000Y-24496437D02*
X78340000Y-31952000D01*
X78340000Y-31952000D02*
X81090000Y-31952000D01*
X79404437Y-23432000D02*
X78340000Y-24496437D01*
X79404437Y-23432000D02*
X81090000Y-23432000D01*
X85110000Y-22192000D02*
X85110000Y-23192000D01*
X85610000Y-22692000D02*
X84610000Y-22692000D01*
X85795563Y-23432000D02*
X84110000Y-23432000D01*
X85795563Y-23432000D02*
X86860000Y-24496437D01*
X86860000Y-24496437D02*
X86860000Y-31952000D01*
X86860000Y-31952000D02*
X84110000Y-31952000D01*
X16340000Y-24496437D02*
X16340000Y-31952000D01*
X16340000Y-31952000D02*
X19090000Y-31952000D01*
X17404437Y-23432000D02*
X16340000Y-24496437D01*
X17404437Y-23432000D02*
X19090000Y-23432000D01*
X23110000Y-22192000D02*
X23110000Y-23192000D01*
X23610000Y-22692000D02*
X22610000Y-22692000D01*
X23795563Y-23432000D02*
X22110000Y-23432000D01*
X23795563Y-23432000D02*
X24860000Y-24496437D01*
X24860000Y-24496437D02*
X24860000Y-31952000D01*
X24860000Y-31952000D02*
X22110000Y-31952000D01*
G04 #@! TO.C,R6*
X16897064Y-59479500D02*
X12542936Y-59479500D01*
X16897064Y-62899500D02*
X12542936Y-62899500D01*
G04 #@! TO.C,R501*
X77380000Y-51772436D02*
X77380000Y-56126564D01*
X80800000Y-51772436D02*
X80800000Y-56126564D01*
D10*
G04 #@! TO.C,U1*
X69430000Y-57649500D02*
X69430000Y-52579500D01*
X74570000Y-56719500D02*
X74570000Y-52579500D01*
D12*
G04 #@! TO.C,C302*
X4180000Y-61293233D02*
X4180000Y-61585767D01*
X5200000Y-61293233D02*
X5200000Y-61585767D01*
G04 #@! TO.C,R1*
X40077500Y-61674224D02*
X40077500Y-61164776D01*
X41122500Y-61674224D02*
X41122500Y-61164776D01*
G04 #@! TD*
M02*
