G04 #@! TF.GenerationSoftware,KiCad,Pcbnew,8.0.0*
G04 #@! TF.CreationDate,2024-02-29T15:25:12+11:00*
G04 #@! TF.ProjectId,panel,70616e65-6c2e-46b6-9963-61645f706362,rev?*
G04 #@! TF.SameCoordinates,Original*
G04 #@! TF.FileFunction,Profile,NP*
%FSLAX46Y46*%
G04 Gerber Fmt 4.6, Leading zero omitted, Abs format (unit mm)*
G04 Created by KiCad (PCBNEW 8.0.0) date 2024-02-29 15:25:12*
%MOMM*%
%LPD*%
G01*
G04 APERTURE LIST*
G04 #@! TA.AperFunction,Profile*
%ADD10C,0.100000*%
G04 #@! TD*
G04 APERTURE END LIST*
D10*
X60500000Y-46999500D02*
X59000000Y-46999500D01*
X31000000Y-57499500D02*
X29500000Y-57499500D01*
X62000000Y-60499500D02*
X62000000Y-69499500D01*
X59000000Y-49999500D02*
X60500000Y-49999500D01*
X28000000Y-69499500D02*
X28000000Y-60499500D01*
X60500000Y-57499500D02*
X59000000Y-57499500D01*
X79166666Y-71499500D02*
X72833333Y-71499500D01*
X28000000Y-39499500D02*
X29500000Y-39499500D01*
X7833333Y-15000000D02*
X7833333Y-16999500D01*
X51166666Y-16999500D02*
X51166666Y-15000000D01*
X69833333Y-71499500D02*
X51166666Y-71499500D01*
X20166666Y-69499500D02*
X28000000Y-69499500D01*
X90000000Y-15000000D02*
X90000000Y0D01*
X59000000Y-28999500D02*
X60500000Y-28999500D01*
X41833333Y-71499500D02*
X41833333Y-69499500D01*
X48166666Y-69499500D02*
X48166666Y-71499500D01*
X10833333Y-69499500D02*
X17166666Y-69499500D01*
X28000000Y-49999500D02*
X29500000Y-49999500D01*
X31000000Y-60499500D02*
X31000000Y-69499500D01*
X31000000Y-36499500D02*
X29500000Y-36499500D01*
X82166666Y-69499500D02*
X90000000Y-69499500D01*
X62000000Y-16999500D02*
X62000000Y-25999500D01*
X69833333Y-15000000D02*
X69833333Y-16999500D01*
X0Y-16999500D02*
X0Y-69499500D01*
X28000000Y-60499500D02*
X29500000Y-60499500D01*
X17166666Y-16999500D02*
X10833333Y-16999500D01*
X0Y-69499500D02*
X7833333Y-69499500D01*
X90000000Y-71499500D02*
X82166666Y-71499500D01*
X60500000Y-49999500D02*
X62000000Y-49999500D01*
X79166666Y-15000000D02*
X79166666Y-16999500D01*
X59000000Y-60499500D02*
X60500000Y-60499500D01*
X31000000Y-49999500D02*
X31000000Y-57499500D01*
X0Y-71499500D02*
X0Y-86499500D01*
X62000000Y-57499500D02*
X60500000Y-57499500D01*
X90000000Y-16999500D02*
X82166666Y-16999500D01*
X90000000Y0D02*
X0Y0D01*
X7833333Y-69499500D02*
X7833333Y-71499500D01*
X29500000Y-49999500D02*
X31000000Y-49999500D01*
X62000000Y-49999500D02*
X62000000Y-57499500D01*
X59000000Y-57499500D02*
X59000000Y-49999500D01*
X59000000Y-36499500D02*
X59000000Y-28999500D01*
X17166666Y-71499500D02*
X10833333Y-71499500D01*
X59000000Y-39499500D02*
X60500000Y-39499500D01*
X0Y0D02*
X0Y-15000000D01*
X79166666Y-16999500D02*
X72833333Y-16999500D01*
X72833333Y-16999500D02*
X72833333Y-15000000D01*
X0Y-15000000D02*
X7833333Y-15000000D01*
X62000000Y-39499500D02*
X62000000Y-46999500D01*
X20166666Y-16999500D02*
X20166666Y-15000000D01*
X41833333Y-69499500D02*
X48166666Y-69499500D01*
X31000000Y-46999500D02*
X29500000Y-46999500D01*
X62000000Y-28999500D02*
X62000000Y-36499500D01*
X28000000Y-16999500D02*
X20166666Y-16999500D01*
X51166666Y-71499500D02*
X51166666Y-69499500D01*
X31000000Y-28999500D02*
X31000000Y-36499500D01*
X60500000Y-28999500D02*
X62000000Y-28999500D01*
X60500000Y-25999500D02*
X59000000Y-25999500D01*
X28000000Y-57499500D02*
X28000000Y-49999500D01*
X48166666Y-15000000D02*
X48166666Y-16999500D01*
X28000000Y-46999500D02*
X28000000Y-39499500D01*
X59000000Y-69499500D02*
X59000000Y-60499500D01*
X31000000Y-39499500D02*
X31000000Y-46999500D01*
X38833333Y-15000000D02*
X38833333Y-16999500D01*
X41833333Y-15000000D02*
X48166666Y-15000000D01*
X31000000Y-16999500D02*
X31000000Y-25999500D01*
X90000000Y-86499500D02*
X90000000Y-71499500D01*
X31000000Y-25999500D02*
X29500000Y-25999500D01*
X60500000Y-60499500D02*
X62000000Y-60499500D01*
X10833333Y-15000000D02*
X17166666Y-15000000D01*
X90000000Y-69499500D02*
X90000000Y-16999500D01*
X20166666Y-15000000D02*
X38833333Y-15000000D01*
X62000000Y-36499500D02*
X60500000Y-36499500D01*
X62000000Y-46999500D02*
X60500000Y-46999500D01*
X79166666Y-69499500D02*
X79166666Y-71499500D01*
X62000000Y-69499500D02*
X69833333Y-69499500D01*
X29500000Y-25999500D02*
X28000000Y-25999500D01*
X38833333Y-16999500D02*
X31000000Y-16999500D01*
X31000000Y-69499500D02*
X38833333Y-69499500D01*
X29500000Y-39499500D02*
X31000000Y-39499500D01*
X72833333Y-15000000D02*
X79166666Y-15000000D01*
X60500000Y-36499500D02*
X59000000Y-36499500D01*
X69833333Y-69499500D02*
X69833333Y-71499500D01*
X48166666Y-71499500D02*
X41833333Y-71499500D01*
X38833333Y-71499500D02*
X20166666Y-71499500D01*
X29500000Y-46999500D02*
X28000000Y-46999500D01*
X62000000Y-25999500D02*
X60500000Y-25999500D01*
X72833333Y-69499500D02*
X79166666Y-69499500D01*
X51166666Y-69499500D02*
X59000000Y-69499500D01*
X17166666Y-69499500D02*
X17166666Y-71499500D01*
X59000000Y-16999500D02*
X51166666Y-16999500D01*
X82166666Y-16999500D02*
X82166666Y-15000000D01*
X10833333Y-16999500D02*
X10833333Y-15000000D01*
X38833333Y-69499500D02*
X38833333Y-71499500D01*
X20166666Y-71499500D02*
X20166666Y-69499500D01*
X10833333Y-71499500D02*
X10833333Y-69499500D01*
X41833333Y-16999500D02*
X41833333Y-15000000D01*
X69833333Y-16999500D02*
X62000000Y-16999500D01*
X82166666Y-71499500D02*
X82166666Y-69499500D01*
X7833333Y-16999500D02*
X0Y-16999500D01*
X0Y-86499500D02*
X90000000Y-86499500D01*
X28000000Y-25999500D02*
X28000000Y-16999500D01*
X59000000Y-46999500D02*
X59000000Y-39499500D01*
X28000000Y-28999500D02*
X29500000Y-28999500D01*
X29500000Y-60499500D02*
X31000000Y-60499500D01*
X17166666Y-15000000D02*
X17166666Y-16999500D01*
X60500000Y-39499500D02*
X62000000Y-39499500D01*
X29500000Y-28999500D02*
X31000000Y-28999500D01*
X48166666Y-16999500D02*
X41833333Y-16999500D01*
X7833333Y-71499500D02*
X0Y-71499500D01*
X29500000Y-57499500D02*
X28000000Y-57499500D01*
X59000000Y-25999500D02*
X59000000Y-16999500D01*
X72833333Y-71499500D02*
X72833333Y-69499500D01*
X82166666Y-15000000D02*
X90000000Y-15000000D01*
X29500000Y-36499500D02*
X28000000Y-36499500D01*
X28000000Y-36499500D02*
X28000000Y-28999500D01*
X51166666Y-15000000D02*
X69833333Y-15000000D01*
M02*
