M48
; DRILL file {KiCad 8.0.0} date 2024-02-29T15:25:12+1100
; FORMAT={-:-/ absolute / metric / decimal}
; #@! TF.CreationDate,2024-02-29T15:25:12+11:00
; #@! TF.GenerationSoftware,Kicad,Pcbnew,8.0.0
; #@! TF.FileFunction,MixedPlating,1,2
FMAT,2
METRIC
; #@! TA.AperFunction,Plated,PTH,ViaDrill
T1C0.300
; #@! TA.AperFunction,Plated,PTH,ViaDrill
T2C0.400
; #@! TA.AperFunction,Plated,PTH,ComponentDrill
T3C1.000
; #@! TA.AperFunction,NonPlated,NPTH,ComponentDrill
T4C0.700
; #@! TA.AperFunction,NonPlated,NPTH,ComponentDrill
T5C2.000
%
G90
G05
T1
X1.88Y-62.759
X3.64Y-61.479
X5.5Y-62.249
X7.13Y-62.299
X8.77Y-61.45
X10.33Y-59.02
X10.37Y-61.439
X11.87Y-58.359
X12.87Y-56.829
X15.12Y-56.939
X15.35Y-52.209
X15.87Y-58.339
X22.5Y-32.249
X22.5Y-33.249
X22.5Y-34.249
X22.5Y-35.249
X22.5Y-36.249
X22.5Y-37.249
X23.5Y-37.749
X32.88Y-62.759
X34.64Y-61.479
X36.5Y-62.249
X38.13Y-62.299
X39.77Y-61.45
X41.33Y-59.02
X41.37Y-61.439
X42.87Y-58.359
X43.87Y-56.829
X46.12Y-56.939
X46.35Y-52.209
X46.87Y-58.339
X53.5Y-32.249
X53.5Y-33.249
X53.5Y-34.249
X53.5Y-35.249
X53.5Y-36.249
X53.5Y-37.249
X54.5Y-37.749
X63.88Y-62.759
X65.64Y-61.479
X67.5Y-62.249
X69.13Y-62.299
X70.77Y-61.45
X72.33Y-59.02
X72.37Y-61.439
X73.87Y-58.359
X74.87Y-56.829
X77.12Y-56.939
X77.35Y-52.209
X77.87Y-58.339
X84.5Y-32.249
X84.5Y-33.249
X84.5Y-34.249
X84.5Y-35.249
X84.5Y-36.249
X84.5Y-37.249
X85.5Y-37.749
T2
X1.5Y-51.249
X1.5Y-52.249
X1.5Y-68.249
X2.5Y-68.249
X3.0Y-33.249
X3.0Y-34.249
X3.0Y-35.249
X3.0Y-36.249
X3.0Y-37.249
X3.0Y-38.249
X3.0Y-39.249
X3.0Y-40.249
X3.0Y-41.249
X3.0Y-42.249
X3.0Y-43.249
X3.5Y-19.249
X3.5Y-20.249
X3.5Y-21.249
X3.5Y-22.249
X3.5Y-23.249
X3.5Y-24.249
X3.5Y-25.249
X3.5Y-26.249
X3.5Y-27.249
X3.5Y-28.249
X3.5Y-29.249
X3.5Y-30.249
X3.5Y-31.249
X3.5Y-32.249
X3.5Y-68.249
X4.5Y-19.249
X4.5Y-31.249
X4.75Y-43.249
X5.0Y-32.249
X5.5Y-19.249
X5.5Y-31.249
X5.5Y-44.749
X5.5Y-45.749
X5.5Y-46.749
X5.5Y-47.749
X5.5Y-48.749
X5.75Y-43.249
X6.0Y-49.749
X6.25Y-54.999
X6.25Y-55.999
X6.5Y-22.249
X6.75Y-43.249
X7.5Y-22.249
X7.75Y-43.249
X8.0Y-53.499
X8.0Y-54.499
X8.0Y-55.749
X8.5Y-22.249
X8.75Y-43.249
X8.75Y-44.249
X8.75Y-45.249
X8.75Y-46.249
X8.75Y-47.249
X9.0Y-53.499
X9.0Y-54.499
X9.0Y-55.749
X9.5Y-22.249
X9.75Y-43.249
X9.75Y-44.249
X9.75Y-45.249
X9.75Y-46.249
X9.75Y-47.249
X9.75Y-48.249
X10.0Y-53.499
X10.5Y-22.249
X10.75Y-43.249
X10.75Y-44.249
X11.0Y-54.249
X11.0Y-55.749
X11.5Y-22.249
X11.75Y-43.249
X12.0Y-54.749
X12.0Y-55.749
X12.5Y-22.249
X12.75Y-43.249
X12.75Y-55.249
X13.5Y-22.249
X13.5Y-30.249
X13.5Y-31.249
X13.75Y-43.249
X13.75Y-44.249
X13.75Y-55.249
X14.5Y-22.249
X14.5Y-30.249
X14.5Y-31.249
X14.5Y-63.749
X14.75Y-43.249
X14.75Y-44.249
X14.75Y-55.249
X14.75Y-59.749
X15.5Y-22.249
X15.5Y-23.249
X15.5Y-24.249
X15.5Y-25.249
X15.5Y-26.249
X15.5Y-27.249
X15.5Y-28.249
X15.5Y-29.249
X15.5Y-30.249
X15.5Y-31.249
X15.5Y-32.249
X15.5Y-33.249
X15.5Y-34.249
X15.5Y-35.249
X15.5Y-36.249
X15.75Y-53.999
X15.75Y-54.999
X16.5Y-25.249
X16.5Y-26.249
X16.5Y-29.249
X16.5Y-30.249
X16.5Y-31.249
X16.5Y-33.249
X16.5Y-34.249
X16.5Y-35.249
X16.5Y-36.249
X17.0Y-43.249
X17.0Y-44.249
X17.0Y-45.249
X17.0Y-46.249
X17.0Y-47.249
X17.0Y-48.249
X17.5Y-24.249
X17.5Y-25.249
X17.5Y-26.249
X17.5Y-29.249
X17.5Y-30.249
X17.5Y-31.249
X17.5Y-33.249
X17.5Y-34.249
X17.5Y-35.249
X17.5Y-36.249
X17.5Y-37.249
X17.5Y-38.249
X17.5Y-59.999
X17.5Y-60.999
X17.5Y-61.999
X18.0Y-43.249
X18.0Y-44.249
X18.0Y-45.249
X18.0Y-46.249
X18.0Y-47.249
X18.0Y-48.249
X18.5Y-59.999
X18.5Y-60.999
X18.5Y-61.999
X20.25Y-52.749
X20.25Y-53.749
X20.25Y-54.749
X20.75Y-63.749
X21.0Y-58.499
X21.75Y-63.749
X22.25Y-52.749
X22.25Y-53.749
X22.25Y-54.749
X22.5Y-28.249
X22.5Y-29.249
X22.5Y-30.249
X22.5Y-31.249
X22.5Y-58.499
X22.75Y-63.749
X23.5Y-18.249
X23.5Y-21.249
X23.5Y-24.249
X23.5Y-25.249
X23.5Y-26.249
X23.5Y-27.249
X23.5Y-28.249
X23.5Y-29.249
X23.5Y-30.249
X23.5Y-31.249
X23.5Y-49.999
X23.5Y-50.999
X23.5Y-51.999
X23.5Y-52.999
X23.5Y-53.999
X23.5Y-54.999
X23.5Y-55.999
X23.5Y-56.999
X23.5Y-57.999
X23.75Y-59.749
X23.75Y-60.749
X23.75Y-61.749
X23.75Y-62.749
X23.75Y-63.749
X24.5Y-25.249
X24.5Y-26.249
X24.5Y-27.249
X24.5Y-28.249
X24.5Y-29.249
X24.5Y-30.249
X24.5Y-31.249
X32.5Y-51.249
X32.5Y-52.249
X32.5Y-68.249
X33.5Y-68.249
X34.0Y-33.249
X34.0Y-34.249
X34.0Y-35.249
X34.0Y-36.249
X34.0Y-37.249
X34.0Y-38.249
X34.0Y-39.249
X34.0Y-40.249
X34.0Y-41.249
X34.0Y-42.249
X34.0Y-43.249
X34.5Y-19.249
X34.5Y-20.249
X34.5Y-21.249
X34.5Y-22.249
X34.5Y-23.249
X34.5Y-24.249
X34.5Y-25.249
X34.5Y-26.249
X34.5Y-27.249
X34.5Y-28.249
X34.5Y-29.249
X34.5Y-30.249
X34.5Y-31.249
X34.5Y-32.249
X34.5Y-68.249
X35.5Y-19.249
X35.5Y-31.249
X35.75Y-43.249
X36.0Y-32.249
X36.5Y-19.249
X36.5Y-31.249
X36.5Y-44.749
X36.5Y-45.749
X36.5Y-46.749
X36.5Y-47.749
X36.5Y-48.749
X36.75Y-43.249
X37.0Y-49.749
X37.25Y-54.999
X37.25Y-55.999
X37.5Y-22.249
X37.75Y-43.249
X38.5Y-22.249
X38.75Y-43.249
X39.0Y-53.499
X39.0Y-54.499
X39.0Y-55.749
X39.5Y-22.249
X39.75Y-43.249
X39.75Y-44.249
X39.75Y-45.249
X39.75Y-46.249
X39.75Y-47.249
X40.0Y-53.499
X40.0Y-54.499
X40.0Y-55.749
X40.5Y-22.249
X40.75Y-43.249
X40.75Y-44.249
X40.75Y-45.249
X40.75Y-46.249
X40.75Y-47.249
X40.75Y-48.249
X41.0Y-53.499
X41.5Y-22.249
X41.75Y-43.249
X41.75Y-44.249
X42.0Y-54.249
X42.0Y-55.749
X42.5Y-22.249
X42.75Y-43.249
X43.0Y-54.749
X43.0Y-55.749
X43.5Y-22.249
X43.75Y-43.249
X43.75Y-55.249
X44.5Y-22.249
X44.5Y-30.249
X44.5Y-31.249
X44.75Y-43.249
X44.75Y-44.249
X44.75Y-55.249
X45.5Y-22.249
X45.5Y-30.249
X45.5Y-31.249
X45.5Y-63.749
X45.75Y-43.249
X45.75Y-44.249
X45.75Y-55.249
X45.75Y-59.749
X46.5Y-22.249
X46.5Y-23.249
X46.5Y-24.249
X46.5Y-25.249
X46.5Y-26.249
X46.5Y-27.249
X46.5Y-28.249
X46.5Y-29.249
X46.5Y-30.249
X46.5Y-31.249
X46.5Y-32.249
X46.5Y-33.249
X46.5Y-34.249
X46.5Y-35.249
X46.5Y-36.249
X46.75Y-53.999
X46.75Y-54.999
X47.5Y-25.249
X47.5Y-26.249
X47.5Y-29.249
X47.5Y-30.249
X47.5Y-31.249
X47.5Y-33.249
X47.5Y-34.249
X47.5Y-35.249
X47.5Y-36.249
X48.0Y-43.249
X48.0Y-44.249
X48.0Y-45.249
X48.0Y-46.249
X48.0Y-47.249
X48.0Y-48.249
X48.5Y-24.249
X48.5Y-25.249
X48.5Y-26.249
X48.5Y-29.249
X48.5Y-30.249
X48.5Y-31.249
X48.5Y-33.249
X48.5Y-34.249
X48.5Y-35.249
X48.5Y-36.249
X48.5Y-37.249
X48.5Y-38.249
X48.5Y-59.999
X48.5Y-60.999
X48.5Y-61.999
X49.0Y-43.249
X49.0Y-44.249
X49.0Y-45.249
X49.0Y-46.249
X49.0Y-47.249
X49.0Y-48.249
X49.5Y-59.999
X49.5Y-60.999
X49.5Y-61.999
X51.25Y-52.749
X51.25Y-53.749
X51.25Y-54.749
X51.75Y-63.749
X52.0Y-58.499
X52.75Y-63.749
X53.25Y-52.749
X53.25Y-53.749
X53.25Y-54.749
X53.5Y-28.249
X53.5Y-29.249
X53.5Y-30.249
X53.5Y-31.249
X53.5Y-58.499
X53.75Y-63.749
X54.5Y-18.249
X54.5Y-21.249
X54.5Y-24.249
X54.5Y-25.249
X54.5Y-26.249
X54.5Y-27.249
X54.5Y-28.249
X54.5Y-29.249
X54.5Y-30.249
X54.5Y-31.249
X54.5Y-49.999
X54.5Y-50.999
X54.5Y-51.999
X54.5Y-52.999
X54.5Y-53.999
X54.5Y-54.999
X54.5Y-55.999
X54.5Y-56.999
X54.5Y-57.999
X54.75Y-59.749
X54.75Y-60.749
X54.75Y-61.749
X54.75Y-62.749
X54.75Y-63.749
X55.5Y-25.249
X55.5Y-26.249
X55.5Y-27.249
X55.5Y-28.249
X55.5Y-29.249
X55.5Y-30.249
X55.5Y-31.249
X63.5Y-51.249
X63.5Y-52.249
X63.5Y-68.249
X64.5Y-68.249
X65.0Y-33.249
X65.0Y-34.249
X65.0Y-35.249
X65.0Y-36.249
X65.0Y-37.249
X65.0Y-38.249
X65.0Y-39.249
X65.0Y-40.249
X65.0Y-41.249
X65.0Y-42.249
X65.0Y-43.249
X65.5Y-19.249
X65.5Y-20.249
X65.5Y-21.249
X65.5Y-22.249
X65.5Y-23.249
X65.5Y-24.249
X65.5Y-25.249
X65.5Y-26.249
X65.5Y-27.249
X65.5Y-28.249
X65.5Y-29.249
X65.5Y-30.249
X65.5Y-31.249
X65.5Y-32.249
X65.5Y-68.249
X66.5Y-19.249
X66.5Y-31.249
X66.75Y-43.249
X67.0Y-32.249
X67.5Y-19.249
X67.5Y-31.249
X67.5Y-44.749
X67.5Y-45.749
X67.5Y-46.749
X67.5Y-47.749
X67.5Y-48.749
X67.75Y-43.249
X68.0Y-49.749
X68.25Y-54.999
X68.25Y-55.999
X68.5Y-22.249
X68.75Y-43.249
X69.5Y-22.249
X69.75Y-43.249
X70.0Y-53.499
X70.0Y-54.499
X70.0Y-55.749
X70.5Y-22.249
X70.75Y-43.249
X70.75Y-44.249
X70.75Y-45.249
X70.75Y-46.249
X70.75Y-47.249
X71.0Y-53.499
X71.0Y-54.499
X71.0Y-55.749
X71.5Y-22.249
X71.75Y-43.249
X71.75Y-44.249
X71.75Y-45.249
X71.75Y-46.249
X71.75Y-47.249
X71.75Y-48.249
X72.0Y-53.499
X72.5Y-22.249
X72.75Y-43.249
X72.75Y-44.249
X73.0Y-54.249
X73.0Y-55.749
X73.5Y-22.249
X73.75Y-43.249
X74.0Y-54.749
X74.0Y-55.749
X74.5Y-22.249
X74.75Y-43.249
X74.75Y-55.249
X75.5Y-22.249
X75.5Y-30.249
X75.5Y-31.249
X75.75Y-43.249
X75.75Y-44.249
X75.75Y-55.249
X76.5Y-22.249
X76.5Y-30.249
X76.5Y-31.249
X76.5Y-63.749
X76.75Y-43.249
X76.75Y-44.249
X76.75Y-55.249
X76.75Y-59.749
X77.5Y-22.249
X77.5Y-23.249
X77.5Y-24.249
X77.5Y-25.249
X77.5Y-26.249
X77.5Y-27.249
X77.5Y-28.249
X77.5Y-29.249
X77.5Y-30.249
X77.5Y-31.249
X77.5Y-32.249
X77.5Y-33.249
X77.5Y-34.249
X77.5Y-35.249
X77.5Y-36.249
X77.75Y-53.999
X77.75Y-54.999
X78.5Y-25.249
X78.5Y-26.249
X78.5Y-29.249
X78.5Y-30.249
X78.5Y-31.249
X78.5Y-33.249
X78.5Y-34.249
X78.5Y-35.249
X78.5Y-36.249
X79.0Y-43.249
X79.0Y-44.249
X79.0Y-45.249
X79.0Y-46.249
X79.0Y-47.249
X79.0Y-48.249
X79.5Y-24.249
X79.5Y-25.249
X79.5Y-26.249
X79.5Y-29.249
X79.5Y-30.249
X79.5Y-31.249
X79.5Y-33.249
X79.5Y-34.249
X79.5Y-35.249
X79.5Y-36.249
X79.5Y-37.249
X79.5Y-38.249
X79.5Y-59.999
X79.5Y-60.999
X79.5Y-61.999
X80.0Y-43.249
X80.0Y-44.249
X80.0Y-45.249
X80.0Y-46.249
X80.0Y-47.249
X80.0Y-48.249
X80.5Y-59.999
X80.5Y-60.999
X80.5Y-61.999
X82.25Y-52.749
X82.25Y-53.749
X82.25Y-54.749
X82.75Y-63.749
X83.0Y-58.499
X83.75Y-63.749
X84.25Y-52.749
X84.25Y-53.749
X84.25Y-54.749
X84.5Y-28.249
X84.5Y-29.249
X84.5Y-30.249
X84.5Y-31.249
X84.5Y-58.499
X84.75Y-63.749
X85.5Y-18.249
X85.5Y-21.249
X85.5Y-24.249
X85.5Y-25.249
X85.5Y-26.249
X85.5Y-27.249
X85.5Y-28.249
X85.5Y-29.249
X85.5Y-30.249
X85.5Y-31.249
X85.5Y-49.999
X85.5Y-50.999
X85.5Y-51.999
X85.5Y-52.999
X85.5Y-53.999
X85.5Y-54.999
X85.5Y-55.999
X85.5Y-56.999
X85.5Y-57.999
X85.75Y-59.749
X85.75Y-60.749
X85.75Y-61.749
X85.75Y-62.749
X85.75Y-63.749
X86.5Y-25.249
X86.5Y-26.249
X86.5Y-27.249
X86.5Y-28.249
X86.5Y-29.249
X86.5Y-30.249
X86.5Y-31.249
T3
X1.9Y-58.764
X1.9Y-61.304
X12.405Y-66.269
X14.945Y-66.269
X20.925Y-19.749
X23.465Y-19.749
X32.9Y-58.764
X32.9Y-61.304
X43.405Y-66.269
X45.945Y-66.269
X51.925Y-19.749
X54.465Y-19.749
X63.9Y-58.764
X63.9Y-61.304
X74.405Y-66.269
X76.945Y-66.269
X82.925Y-19.749
X85.465Y-19.749
T4
X7.833Y-16.999
X7.833Y-69.499
X8.833Y-16.999
X8.833Y-69.499
X9.833Y-16.999
X9.833Y-69.499
X10.833Y-16.999
X10.833Y-69.499
X17.167Y-16.999
X17.167Y-69.499
X18.167Y-16.999
X18.167Y-69.499
X19.167Y-16.999
X19.167Y-69.499
X20.167Y-16.999
X20.167Y-69.499
X28.0Y-25.999
X28.0Y-26.999
X28.0Y-27.999
X28.0Y-28.999
X28.0Y-36.499
X28.0Y-37.499
X28.0Y-38.499
X28.0Y-39.499
X28.0Y-46.999
X28.0Y-47.999
X28.0Y-48.999
X28.0Y-49.999
X28.0Y-57.499
X28.0Y-58.499
X28.0Y-59.499
X28.0Y-60.499
X31.0Y-25.999
X31.0Y-26.999
X31.0Y-27.999
X31.0Y-28.999
X31.0Y-36.499
X31.0Y-37.499
X31.0Y-38.499
X31.0Y-39.499
X31.0Y-46.999
X31.0Y-47.999
X31.0Y-48.999
X31.0Y-49.999
X31.0Y-57.499
X31.0Y-58.499
X31.0Y-59.499
X31.0Y-60.499
X38.833Y-16.999
X38.833Y-69.499
X39.833Y-16.999
X39.833Y-69.499
X40.833Y-16.999
X40.833Y-69.499
X41.833Y-16.999
X41.833Y-69.499
X48.167Y-16.999
X48.167Y-69.499
X49.167Y-16.999
X49.167Y-69.499
X50.167Y-16.999
X50.167Y-69.499
X51.167Y-16.999
X51.167Y-69.499
X59.0Y-25.999
X59.0Y-26.999
X59.0Y-27.999
X59.0Y-28.999
X59.0Y-36.499
X59.0Y-37.499
X59.0Y-38.499
X59.0Y-39.499
X59.0Y-46.999
X59.0Y-47.999
X59.0Y-48.999
X59.0Y-49.999
X59.0Y-57.499
X59.0Y-58.499
X59.0Y-59.499
X59.0Y-60.499
X62.0Y-25.999
X62.0Y-26.999
X62.0Y-27.999
X62.0Y-28.999
X62.0Y-36.499
X62.0Y-37.499
X62.0Y-38.499
X62.0Y-39.499
X62.0Y-46.999
X62.0Y-47.999
X62.0Y-48.999
X62.0Y-49.999
X62.0Y-57.499
X62.0Y-58.499
X62.0Y-59.499
X62.0Y-60.499
X69.833Y-16.999
X69.833Y-69.499
X70.833Y-16.999
X70.833Y-69.499
X71.833Y-16.999
X71.833Y-69.499
X72.833Y-16.999
X72.833Y-69.499
X79.167Y-16.999
X79.167Y-69.499
X80.167Y-16.999
X80.167Y-69.499
X81.167Y-16.999
X81.167Y-69.499
X82.167Y-16.999
X82.167Y-69.499
T5
X7.0Y-5.0
X7.0Y-81.499
X83.0Y-5.0
X83.0Y-81.499
M30
