G04 #@! TF.GenerationSoftware,KiCad,Pcbnew,8.0.0*
G04 #@! TF.CreationDate,2024-02-29T15:25:12+11:00*
G04 #@! TF.ProjectId,panel,70616e65-6c2e-46b6-9963-61645f706362,rev?*
G04 #@! TF.SameCoordinates,Original*
G04 #@! TF.FileFunction,Legend,Bot*
G04 #@! TF.FilePolarity,Positive*
%FSLAX46Y46*%
G04 Gerber Fmt 4.6, Leading zero omitted, Abs format (unit mm)*
G04 Created by KiCad (PCBNEW 8.0.0) date 2024-02-29 15:25:12*
%MOMM*%
%LPD*%
G01*
G04 APERTURE LIST*
%ADD10C,0.150000*%
%ADD11C,0.300000*%
G04 APERTURE END LIST*
D10*
X77629819Y-61352469D02*
X77629819Y-60876279D01*
X77629819Y-60876279D02*
X76629819Y-60876279D01*
X77106009Y-61685803D02*
X77106009Y-62019136D01*
X77629819Y-62161993D02*
X77629819Y-61685803D01*
X77629819Y-61685803D02*
X76629819Y-61685803D01*
X76629819Y-61685803D02*
X76629819Y-62161993D01*
X77629819Y-62590565D02*
X76629819Y-62590565D01*
X76629819Y-62590565D02*
X76629819Y-62828660D01*
X76629819Y-62828660D02*
X76677438Y-62971517D01*
X76677438Y-62971517D02*
X76772676Y-63066755D01*
X76772676Y-63066755D02*
X76867914Y-63114374D01*
X76867914Y-63114374D02*
X77058390Y-63161993D01*
X77058390Y-63161993D02*
X77201247Y-63161993D01*
X77201247Y-63161993D02*
X77391723Y-63114374D01*
X77391723Y-63114374D02*
X77486961Y-63066755D01*
X77486961Y-63066755D02*
X77582200Y-62971517D01*
X77582200Y-62971517D02*
X77629819Y-62828660D01*
X77629819Y-62828660D02*
X77629819Y-62590565D01*
X77248866Y-63590565D02*
X77248866Y-64352470D01*
X77629819Y-63971517D02*
X76867914Y-63971517D01*
X1336009Y-18429612D02*
X1383628Y-18572469D01*
X1383628Y-18572469D02*
X1431247Y-18620088D01*
X1431247Y-18620088D02*
X1526485Y-18667707D01*
X1526485Y-18667707D02*
X1669342Y-18667707D01*
X1669342Y-18667707D02*
X1764580Y-18620088D01*
X1764580Y-18620088D02*
X1812200Y-18572469D01*
X1812200Y-18572469D02*
X1859819Y-18477231D01*
X1859819Y-18477231D02*
X1859819Y-18096279D01*
X1859819Y-18096279D02*
X859819Y-18096279D01*
X859819Y-18096279D02*
X859819Y-18429612D01*
X859819Y-18429612D02*
X907438Y-18524850D01*
X907438Y-18524850D02*
X955057Y-18572469D01*
X955057Y-18572469D02*
X1050295Y-18620088D01*
X1050295Y-18620088D02*
X1145533Y-18620088D01*
X1145533Y-18620088D02*
X1240771Y-18572469D01*
X1240771Y-18572469D02*
X1288390Y-18524850D01*
X1288390Y-18524850D02*
X1336009Y-18429612D01*
X1336009Y-18429612D02*
X1336009Y-18096279D01*
X1193152Y-19001041D02*
X1859819Y-19239136D01*
X1193152Y-19477231D02*
X1859819Y-19239136D01*
X1859819Y-19239136D02*
X2097914Y-19143898D01*
X2097914Y-19143898D02*
X2145533Y-19096279D01*
X2145533Y-19096279D02*
X2193152Y-19001041D01*
X859819Y-20905803D02*
X1574104Y-20905803D01*
X1574104Y-20905803D02*
X1716961Y-20858184D01*
X1716961Y-20858184D02*
X1812200Y-20762946D01*
X1812200Y-20762946D02*
X1859819Y-20620089D01*
X1859819Y-20620089D02*
X1859819Y-20524851D01*
X1859819Y-21810565D02*
X1336009Y-21810565D01*
X1336009Y-21810565D02*
X1240771Y-21762946D01*
X1240771Y-21762946D02*
X1193152Y-21667708D01*
X1193152Y-21667708D02*
X1193152Y-21477232D01*
X1193152Y-21477232D02*
X1240771Y-21381994D01*
X1812200Y-21810565D02*
X1859819Y-21715327D01*
X1859819Y-21715327D02*
X1859819Y-21477232D01*
X1859819Y-21477232D02*
X1812200Y-21381994D01*
X1812200Y-21381994D02*
X1716961Y-21334375D01*
X1716961Y-21334375D02*
X1621723Y-21334375D01*
X1621723Y-21334375D02*
X1526485Y-21381994D01*
X1526485Y-21381994D02*
X1478866Y-21477232D01*
X1478866Y-21477232D02*
X1478866Y-21715327D01*
X1478866Y-21715327D02*
X1431247Y-21810565D01*
X1812200Y-22715327D02*
X1859819Y-22620089D01*
X1859819Y-22620089D02*
X1859819Y-22429613D01*
X1859819Y-22429613D02*
X1812200Y-22334375D01*
X1812200Y-22334375D02*
X1764580Y-22286756D01*
X1764580Y-22286756D02*
X1669342Y-22239137D01*
X1669342Y-22239137D02*
X1383628Y-22239137D01*
X1383628Y-22239137D02*
X1288390Y-22286756D01*
X1288390Y-22286756D02*
X1240771Y-22334375D01*
X1240771Y-22334375D02*
X1193152Y-22429613D01*
X1193152Y-22429613D02*
X1193152Y-22620089D01*
X1193152Y-22620089D02*
X1240771Y-22715327D01*
X1859819Y-23143899D02*
X859819Y-23143899D01*
X1478866Y-23239137D02*
X1859819Y-23524851D01*
X1193152Y-23524851D02*
X1574104Y-23143899D01*
X1812200Y-23905804D02*
X1859819Y-24001042D01*
X1859819Y-24001042D02*
X1859819Y-24191518D01*
X1859819Y-24191518D02*
X1812200Y-24286756D01*
X1812200Y-24286756D02*
X1716961Y-24334375D01*
X1716961Y-24334375D02*
X1669342Y-24334375D01*
X1669342Y-24334375D02*
X1574104Y-24286756D01*
X1574104Y-24286756D02*
X1526485Y-24191518D01*
X1526485Y-24191518D02*
X1526485Y-24048661D01*
X1526485Y-24048661D02*
X1478866Y-23953423D01*
X1478866Y-23953423D02*
X1383628Y-23905804D01*
X1383628Y-23905804D02*
X1336009Y-23905804D01*
X1336009Y-23905804D02*
X1240771Y-23953423D01*
X1240771Y-23953423D02*
X1193152Y-24048661D01*
X1193152Y-24048661D02*
X1193152Y-24191518D01*
X1193152Y-24191518D02*
X1240771Y-24286756D01*
X1859819Y-24905804D02*
X1812200Y-24810566D01*
X1812200Y-24810566D02*
X1764580Y-24762947D01*
X1764580Y-24762947D02*
X1669342Y-24715328D01*
X1669342Y-24715328D02*
X1383628Y-24715328D01*
X1383628Y-24715328D02*
X1288390Y-24762947D01*
X1288390Y-24762947D02*
X1240771Y-24810566D01*
X1240771Y-24810566D02*
X1193152Y-24905804D01*
X1193152Y-24905804D02*
X1193152Y-25048661D01*
X1193152Y-25048661D02*
X1240771Y-25143899D01*
X1240771Y-25143899D02*
X1288390Y-25191518D01*
X1288390Y-25191518D02*
X1383628Y-25239137D01*
X1383628Y-25239137D02*
X1669342Y-25239137D01*
X1669342Y-25239137D02*
X1764580Y-25191518D01*
X1764580Y-25191518D02*
X1812200Y-25143899D01*
X1812200Y-25143899D02*
X1859819Y-25048661D01*
X1859819Y-25048661D02*
X1859819Y-24905804D01*
X1193152Y-25667709D02*
X1859819Y-25667709D01*
X1288390Y-25667709D02*
X1240771Y-25715328D01*
X1240771Y-25715328D02*
X1193152Y-25810566D01*
X1193152Y-25810566D02*
X1193152Y-25953423D01*
X1193152Y-25953423D02*
X1240771Y-26048661D01*
X1240771Y-26048661D02*
X1336009Y-26096280D01*
X1336009Y-26096280D02*
X1859819Y-26096280D01*
X1859819Y-27334376D02*
X859819Y-27334376D01*
X859819Y-27334376D02*
X1574104Y-27667709D01*
X1574104Y-27667709D02*
X859819Y-28001042D01*
X859819Y-28001042D02*
X1859819Y-28001042D01*
X1859819Y-29239138D02*
X859819Y-29239138D01*
X1336009Y-29239138D02*
X1336009Y-29810566D01*
X1859819Y-29810566D02*
X859819Y-29810566D01*
X1193152Y-30715328D02*
X1859819Y-30715328D01*
X1193152Y-30286757D02*
X1716961Y-30286757D01*
X1716961Y-30286757D02*
X1812200Y-30334376D01*
X1812200Y-30334376D02*
X1859819Y-30429614D01*
X1859819Y-30429614D02*
X1859819Y-30572471D01*
X1859819Y-30572471D02*
X1812200Y-30667709D01*
X1812200Y-30667709D02*
X1764580Y-30715328D01*
X2240771Y-32239138D02*
X2193152Y-32191519D01*
X2193152Y-32191519D02*
X2050295Y-32096281D01*
X2050295Y-32096281D02*
X1955057Y-32048662D01*
X1955057Y-32048662D02*
X1812200Y-32001043D01*
X1812200Y-32001043D02*
X1574104Y-31953424D01*
X1574104Y-31953424D02*
X1383628Y-31953424D01*
X1383628Y-31953424D02*
X1145533Y-32001043D01*
X1145533Y-32001043D02*
X1002676Y-32048662D01*
X1002676Y-32048662D02*
X907438Y-32096281D01*
X907438Y-32096281D02*
X764580Y-32191519D01*
X764580Y-32191519D02*
X716961Y-32239138D01*
X1764580Y-33191519D02*
X1812200Y-33143900D01*
X1812200Y-33143900D02*
X1859819Y-33001043D01*
X1859819Y-33001043D02*
X1859819Y-32905805D01*
X1859819Y-32905805D02*
X1812200Y-32762948D01*
X1812200Y-32762948D02*
X1716961Y-32667710D01*
X1716961Y-32667710D02*
X1621723Y-32620091D01*
X1621723Y-32620091D02*
X1431247Y-32572472D01*
X1431247Y-32572472D02*
X1288390Y-32572472D01*
X1288390Y-32572472D02*
X1097914Y-32620091D01*
X1097914Y-32620091D02*
X1002676Y-32667710D01*
X1002676Y-32667710D02*
X907438Y-32762948D01*
X907438Y-32762948D02*
X859819Y-32905805D01*
X859819Y-32905805D02*
X859819Y-33001043D01*
X859819Y-33001043D02*
X907438Y-33143900D01*
X907438Y-33143900D02*
X955057Y-33191519D01*
X2240771Y-33524853D02*
X2193152Y-33572472D01*
X2193152Y-33572472D02*
X2050295Y-33667710D01*
X2050295Y-33667710D02*
X1955057Y-33715329D01*
X1955057Y-33715329D02*
X1812200Y-33762948D01*
X1812200Y-33762948D02*
X1574104Y-33810567D01*
X1574104Y-33810567D02*
X1383628Y-33810567D01*
X1383628Y-33810567D02*
X1145533Y-33762948D01*
X1145533Y-33762948D02*
X1002676Y-33715329D01*
X1002676Y-33715329D02*
X907438Y-33667710D01*
X907438Y-33667710D02*
X764580Y-33572472D01*
X764580Y-33572472D02*
X716961Y-33524853D01*
X1859819Y-35048663D02*
X859819Y-35048663D01*
X859819Y-35048663D02*
X1574104Y-35381996D01*
X1574104Y-35381996D02*
X859819Y-35715329D01*
X859819Y-35715329D02*
X1859819Y-35715329D01*
X1859819Y-36620091D02*
X1336009Y-36620091D01*
X1336009Y-36620091D02*
X1240771Y-36572472D01*
X1240771Y-36572472D02*
X1193152Y-36477234D01*
X1193152Y-36477234D02*
X1193152Y-36286758D01*
X1193152Y-36286758D02*
X1240771Y-36191520D01*
X1812200Y-36620091D02*
X1859819Y-36524853D01*
X1859819Y-36524853D02*
X1859819Y-36286758D01*
X1859819Y-36286758D02*
X1812200Y-36191520D01*
X1812200Y-36191520D02*
X1716961Y-36143901D01*
X1716961Y-36143901D02*
X1621723Y-36143901D01*
X1621723Y-36143901D02*
X1526485Y-36191520D01*
X1526485Y-36191520D02*
X1478866Y-36286758D01*
X1478866Y-36286758D02*
X1478866Y-36524853D01*
X1478866Y-36524853D02*
X1431247Y-36620091D01*
X1859819Y-37096282D02*
X1193152Y-37096282D01*
X1383628Y-37096282D02*
X1288390Y-37143901D01*
X1288390Y-37143901D02*
X1240771Y-37191520D01*
X1240771Y-37191520D02*
X1193152Y-37286758D01*
X1193152Y-37286758D02*
X1193152Y-37381996D01*
X1812200Y-38143901D02*
X1859819Y-38048663D01*
X1859819Y-38048663D02*
X1859819Y-37858187D01*
X1859819Y-37858187D02*
X1812200Y-37762949D01*
X1812200Y-37762949D02*
X1764580Y-37715330D01*
X1764580Y-37715330D02*
X1669342Y-37667711D01*
X1669342Y-37667711D02*
X1383628Y-37667711D01*
X1383628Y-37667711D02*
X1288390Y-37715330D01*
X1288390Y-37715330D02*
X1240771Y-37762949D01*
X1240771Y-37762949D02*
X1193152Y-37858187D01*
X1193152Y-37858187D02*
X1193152Y-38048663D01*
X1193152Y-38048663D02*
X1240771Y-38143901D01*
X1859819Y-38572473D02*
X859819Y-38572473D01*
X1859819Y-39001044D02*
X1336009Y-39001044D01*
X1336009Y-39001044D02*
X1240771Y-38953425D01*
X1240771Y-38953425D02*
X1193152Y-38858187D01*
X1193152Y-38858187D02*
X1193152Y-38715330D01*
X1193152Y-38715330D02*
X1240771Y-38620092D01*
X1240771Y-38620092D02*
X1288390Y-38572473D01*
X955057Y-40191521D02*
X907438Y-40239140D01*
X907438Y-40239140D02*
X859819Y-40334378D01*
X859819Y-40334378D02*
X859819Y-40572473D01*
X859819Y-40572473D02*
X907438Y-40667711D01*
X907438Y-40667711D02*
X955057Y-40715330D01*
X955057Y-40715330D02*
X1050295Y-40762949D01*
X1050295Y-40762949D02*
X1145533Y-40762949D01*
X1145533Y-40762949D02*
X1288390Y-40715330D01*
X1288390Y-40715330D02*
X1859819Y-40143902D01*
X1859819Y-40143902D02*
X1859819Y-40762949D01*
X859819Y-41381997D02*
X859819Y-41477235D01*
X859819Y-41477235D02*
X907438Y-41572473D01*
X907438Y-41572473D02*
X955057Y-41620092D01*
X955057Y-41620092D02*
X1050295Y-41667711D01*
X1050295Y-41667711D02*
X1240771Y-41715330D01*
X1240771Y-41715330D02*
X1478866Y-41715330D01*
X1478866Y-41715330D02*
X1669342Y-41667711D01*
X1669342Y-41667711D02*
X1764580Y-41620092D01*
X1764580Y-41620092D02*
X1812200Y-41572473D01*
X1812200Y-41572473D02*
X1859819Y-41477235D01*
X1859819Y-41477235D02*
X1859819Y-41381997D01*
X1859819Y-41381997D02*
X1812200Y-41286759D01*
X1812200Y-41286759D02*
X1764580Y-41239140D01*
X1764580Y-41239140D02*
X1669342Y-41191521D01*
X1669342Y-41191521D02*
X1478866Y-41143902D01*
X1478866Y-41143902D02*
X1240771Y-41143902D01*
X1240771Y-41143902D02*
X1050295Y-41191521D01*
X1050295Y-41191521D02*
X955057Y-41239140D01*
X955057Y-41239140D02*
X907438Y-41286759D01*
X907438Y-41286759D02*
X859819Y-41381997D01*
X955057Y-42096283D02*
X907438Y-42143902D01*
X907438Y-42143902D02*
X859819Y-42239140D01*
X859819Y-42239140D02*
X859819Y-42477235D01*
X859819Y-42477235D02*
X907438Y-42572473D01*
X907438Y-42572473D02*
X955057Y-42620092D01*
X955057Y-42620092D02*
X1050295Y-42667711D01*
X1050295Y-42667711D02*
X1145533Y-42667711D01*
X1145533Y-42667711D02*
X1288390Y-42620092D01*
X1288390Y-42620092D02*
X1859819Y-42048664D01*
X1859819Y-42048664D02*
X1859819Y-42667711D01*
X1193152Y-43524854D02*
X1859819Y-43524854D01*
X812200Y-43286759D02*
X1526485Y-43048664D01*
X1526485Y-43048664D02*
X1526485Y-43667711D01*
X1859819Y-46905807D02*
X1383628Y-46572474D01*
X1859819Y-46334379D02*
X859819Y-46334379D01*
X859819Y-46334379D02*
X859819Y-46715331D01*
X859819Y-46715331D02*
X907438Y-46810569D01*
X907438Y-46810569D02*
X955057Y-46858188D01*
X955057Y-46858188D02*
X1050295Y-46905807D01*
X1050295Y-46905807D02*
X1193152Y-46905807D01*
X1193152Y-46905807D02*
X1288390Y-46858188D01*
X1288390Y-46858188D02*
X1336009Y-46810569D01*
X1336009Y-46810569D02*
X1383628Y-46715331D01*
X1383628Y-46715331D02*
X1383628Y-46334379D01*
X1812200Y-47715331D02*
X1859819Y-47620093D01*
X1859819Y-47620093D02*
X1859819Y-47429617D01*
X1859819Y-47429617D02*
X1812200Y-47334379D01*
X1812200Y-47334379D02*
X1716961Y-47286760D01*
X1716961Y-47286760D02*
X1336009Y-47286760D01*
X1336009Y-47286760D02*
X1240771Y-47334379D01*
X1240771Y-47334379D02*
X1193152Y-47429617D01*
X1193152Y-47429617D02*
X1193152Y-47620093D01*
X1193152Y-47620093D02*
X1240771Y-47715331D01*
X1240771Y-47715331D02*
X1336009Y-47762950D01*
X1336009Y-47762950D02*
X1431247Y-47762950D01*
X1431247Y-47762950D02*
X1526485Y-47286760D01*
X1193152Y-48096284D02*
X1859819Y-48334379D01*
X1859819Y-48334379D02*
X1193152Y-48572474D01*
X1764580Y-48953427D02*
X1812200Y-49001046D01*
X1812200Y-49001046D02*
X1859819Y-48953427D01*
X1859819Y-48953427D02*
X1812200Y-48905808D01*
X1812200Y-48905808D02*
X1764580Y-48953427D01*
X1764580Y-48953427D02*
X1859819Y-48953427D01*
X955057Y-50143903D02*
X907438Y-50191522D01*
X907438Y-50191522D02*
X859819Y-50286760D01*
X859819Y-50286760D02*
X859819Y-50524855D01*
X859819Y-50524855D02*
X907438Y-50620093D01*
X907438Y-50620093D02*
X955057Y-50667712D01*
X955057Y-50667712D02*
X1050295Y-50715331D01*
X1050295Y-50715331D02*
X1145533Y-50715331D01*
X1145533Y-50715331D02*
X1288390Y-50667712D01*
X1288390Y-50667712D02*
X1859819Y-50096284D01*
X1859819Y-50096284D02*
X1859819Y-50715331D01*
X12479819Y-61292469D02*
X12479819Y-60816279D01*
X12479819Y-60816279D02*
X11479819Y-60816279D01*
X11956009Y-61625803D02*
X11956009Y-61959136D01*
X12479819Y-62101993D02*
X12479819Y-61625803D01*
X12479819Y-61625803D02*
X11479819Y-61625803D01*
X11479819Y-61625803D02*
X11479819Y-62101993D01*
X12479819Y-62530565D02*
X11479819Y-62530565D01*
X11479819Y-62530565D02*
X11479819Y-62768660D01*
X11479819Y-62768660D02*
X11527438Y-62911517D01*
X11527438Y-62911517D02*
X11622676Y-63006755D01*
X11622676Y-63006755D02*
X11717914Y-63054374D01*
X11717914Y-63054374D02*
X11908390Y-63101993D01*
X11908390Y-63101993D02*
X12051247Y-63101993D01*
X12051247Y-63101993D02*
X12241723Y-63054374D01*
X12241723Y-63054374D02*
X12336961Y-63006755D01*
X12336961Y-63006755D02*
X12432200Y-62911517D01*
X12432200Y-62911517D02*
X12479819Y-62768660D01*
X12479819Y-62768660D02*
X12479819Y-62530565D01*
X12098866Y-63530565D02*
X12098866Y-64292470D01*
D11*
X38025912Y-24331153D02*
X38025912Y-25259725D01*
X38025912Y-25259725D02*
X38597341Y-24759725D01*
X38597341Y-24759725D02*
X38597341Y-24974010D01*
X38597341Y-24974010D02*
X38668769Y-25116868D01*
X38668769Y-25116868D02*
X38740198Y-25188296D01*
X38740198Y-25188296D02*
X38883055Y-25259725D01*
X38883055Y-25259725D02*
X39240198Y-25259725D01*
X39240198Y-25259725D02*
X39383055Y-25188296D01*
X39383055Y-25188296D02*
X39454484Y-25116868D01*
X39454484Y-25116868D02*
X39525912Y-24974010D01*
X39525912Y-24974010D02*
X39525912Y-24545439D01*
X39525912Y-24545439D02*
X39454484Y-24402582D01*
X39454484Y-24402582D02*
X39383055Y-24331153D01*
X38025912Y-26545439D02*
X38025912Y-26259724D01*
X38025912Y-26259724D02*
X38097341Y-26116867D01*
X38097341Y-26116867D02*
X38168769Y-26045439D01*
X38168769Y-26045439D02*
X38383055Y-25902581D01*
X38383055Y-25902581D02*
X38668769Y-25831153D01*
X38668769Y-25831153D02*
X39240198Y-25831153D01*
X39240198Y-25831153D02*
X39383055Y-25902581D01*
X39383055Y-25902581D02*
X39454484Y-25974010D01*
X39454484Y-25974010D02*
X39525912Y-26116867D01*
X39525912Y-26116867D02*
X39525912Y-26402581D01*
X39525912Y-26402581D02*
X39454484Y-26545439D01*
X39454484Y-26545439D02*
X39383055Y-26616867D01*
X39383055Y-26616867D02*
X39240198Y-26688296D01*
X39240198Y-26688296D02*
X38883055Y-26688296D01*
X38883055Y-26688296D02*
X38740198Y-26616867D01*
X38740198Y-26616867D02*
X38668769Y-26545439D01*
X38668769Y-26545439D02*
X38597341Y-26402581D01*
X38597341Y-26402581D02*
X38597341Y-26116867D01*
X38597341Y-26116867D02*
X38668769Y-25974010D01*
X38668769Y-25974010D02*
X38740198Y-25902581D01*
X38740198Y-25902581D02*
X38883055Y-25831153D01*
X38525912Y-27188295D02*
X39525912Y-27545438D01*
X39525912Y-27545438D02*
X38525912Y-27902581D01*
X38525912Y-30259724D02*
X39525912Y-30259724D01*
X37954484Y-29902581D02*
X39025912Y-29545438D01*
X39025912Y-29545438D02*
X39025912Y-30474009D01*
X38025912Y-31331152D02*
X38025912Y-31474009D01*
X38025912Y-31474009D02*
X38097341Y-31616866D01*
X38097341Y-31616866D02*
X38168769Y-31688295D01*
X38168769Y-31688295D02*
X38311626Y-31759723D01*
X38311626Y-31759723D02*
X38597341Y-31831152D01*
X38597341Y-31831152D02*
X38954484Y-31831152D01*
X38954484Y-31831152D02*
X39240198Y-31759723D01*
X39240198Y-31759723D02*
X39383055Y-31688295D01*
X39383055Y-31688295D02*
X39454484Y-31616866D01*
X39454484Y-31616866D02*
X39525912Y-31474009D01*
X39525912Y-31474009D02*
X39525912Y-31331152D01*
X39525912Y-31331152D02*
X39454484Y-31188295D01*
X39454484Y-31188295D02*
X39383055Y-31116866D01*
X39383055Y-31116866D02*
X39240198Y-31045437D01*
X39240198Y-31045437D02*
X38954484Y-30974009D01*
X38954484Y-30974009D02*
X38597341Y-30974009D01*
X38597341Y-30974009D02*
X38311626Y-31045437D01*
X38311626Y-31045437D02*
X38168769Y-31116866D01*
X38168769Y-31116866D02*
X38097341Y-31188295D01*
X38097341Y-31188295D02*
X38025912Y-31331152D01*
X38525912Y-32331151D02*
X39525912Y-32616866D01*
X39525912Y-32616866D02*
X38811626Y-32902580D01*
X38811626Y-32902580D02*
X39525912Y-33188294D01*
X39525912Y-33188294D02*
X38525912Y-33474008D01*
X41797971Y-25331153D02*
X41869400Y-25259725D01*
X41869400Y-25259725D02*
X41940828Y-25045439D01*
X41940828Y-25045439D02*
X41940828Y-24902582D01*
X41940828Y-24902582D02*
X41869400Y-24688296D01*
X41869400Y-24688296D02*
X41726542Y-24545439D01*
X41726542Y-24545439D02*
X41583685Y-24474010D01*
X41583685Y-24474010D02*
X41297971Y-24402582D01*
X41297971Y-24402582D02*
X41083685Y-24402582D01*
X41083685Y-24402582D02*
X40797971Y-24474010D01*
X40797971Y-24474010D02*
X40655114Y-24545439D01*
X40655114Y-24545439D02*
X40512257Y-24688296D01*
X40512257Y-24688296D02*
X40440828Y-24902582D01*
X40440828Y-24902582D02*
X40440828Y-25045439D01*
X40440828Y-25045439D02*
X40512257Y-25259725D01*
X40512257Y-25259725D02*
X40583685Y-25331153D01*
X40440828Y-26259725D02*
X40440828Y-26545439D01*
X40440828Y-26545439D02*
X40512257Y-26688296D01*
X40512257Y-26688296D02*
X40655114Y-26831153D01*
X40655114Y-26831153D02*
X40940828Y-26902582D01*
X40940828Y-26902582D02*
X41440828Y-26902582D01*
X41440828Y-26902582D02*
X41726542Y-26831153D01*
X41726542Y-26831153D02*
X41869400Y-26688296D01*
X41869400Y-26688296D02*
X41940828Y-26545439D01*
X41940828Y-26545439D02*
X41940828Y-26259725D01*
X41940828Y-26259725D02*
X41869400Y-26116868D01*
X41869400Y-26116868D02*
X41726542Y-25974010D01*
X41726542Y-25974010D02*
X41440828Y-25902582D01*
X41440828Y-25902582D02*
X40940828Y-25902582D01*
X40940828Y-25902582D02*
X40655114Y-25974010D01*
X40655114Y-25974010D02*
X40512257Y-26116868D01*
X40512257Y-26116868D02*
X40440828Y-26259725D01*
X41155114Y-28045439D02*
X41226542Y-28259725D01*
X41226542Y-28259725D02*
X41297971Y-28331154D01*
X41297971Y-28331154D02*
X41440828Y-28402582D01*
X41440828Y-28402582D02*
X41655114Y-28402582D01*
X41655114Y-28402582D02*
X41797971Y-28331154D01*
X41797971Y-28331154D02*
X41869400Y-28259725D01*
X41869400Y-28259725D02*
X41940828Y-28116868D01*
X41940828Y-28116868D02*
X41940828Y-27545439D01*
X41940828Y-27545439D02*
X40440828Y-27545439D01*
X40440828Y-27545439D02*
X40440828Y-28045439D01*
X40440828Y-28045439D02*
X40512257Y-28188297D01*
X40512257Y-28188297D02*
X40583685Y-28259725D01*
X40583685Y-28259725D02*
X40726542Y-28331154D01*
X40726542Y-28331154D02*
X40869400Y-28331154D01*
X40869400Y-28331154D02*
X41012257Y-28259725D01*
X41012257Y-28259725D02*
X41083685Y-28188297D01*
X41083685Y-28188297D02*
X41155114Y-28045439D01*
X41155114Y-28045439D02*
X41155114Y-27545439D01*
X41940828Y-30902582D02*
X41940828Y-30188296D01*
X41940828Y-30188296D02*
X40440828Y-30188296D01*
X41155114Y-31402582D02*
X41155114Y-31902582D01*
X41940828Y-32116868D02*
X41940828Y-31402582D01*
X41940828Y-31402582D02*
X40440828Y-31402582D01*
X40440828Y-31402582D02*
X40440828Y-32116868D01*
X41940828Y-32759725D02*
X40440828Y-32759725D01*
X40440828Y-32759725D02*
X40440828Y-33116868D01*
X40440828Y-33116868D02*
X40512257Y-33331154D01*
X40512257Y-33331154D02*
X40655114Y-33474011D01*
X40655114Y-33474011D02*
X40797971Y-33545440D01*
X40797971Y-33545440D02*
X41083685Y-33616868D01*
X41083685Y-33616868D02*
X41297971Y-33616868D01*
X41297971Y-33616868D02*
X41583685Y-33545440D01*
X41583685Y-33545440D02*
X41726542Y-33474011D01*
X41726542Y-33474011D02*
X41869400Y-33331154D01*
X41869400Y-33331154D02*
X41940828Y-33116868D01*
X41940828Y-33116868D02*
X41940828Y-32759725D01*
X41940828Y-36045440D02*
X40440828Y-36045440D01*
X41869400Y-36045440D02*
X41940828Y-35902582D01*
X41940828Y-35902582D02*
X41940828Y-35616868D01*
X41940828Y-35616868D02*
X41869400Y-35474011D01*
X41869400Y-35474011D02*
X41797971Y-35402582D01*
X41797971Y-35402582D02*
X41655114Y-35331154D01*
X41655114Y-35331154D02*
X41226542Y-35331154D01*
X41226542Y-35331154D02*
X41083685Y-35402582D01*
X41083685Y-35402582D02*
X41012257Y-35474011D01*
X41012257Y-35474011D02*
X40940828Y-35616868D01*
X40940828Y-35616868D02*
X40940828Y-35902582D01*
X40940828Y-35902582D02*
X41012257Y-36045440D01*
X41940828Y-36759725D02*
X40940828Y-36759725D01*
X41226542Y-36759725D02*
X41083685Y-36831154D01*
X41083685Y-36831154D02*
X41012257Y-36902583D01*
X41012257Y-36902583D02*
X40940828Y-37045440D01*
X40940828Y-37045440D02*
X40940828Y-37188297D01*
X41940828Y-37688296D02*
X40940828Y-37688296D01*
X40440828Y-37688296D02*
X40512257Y-37616868D01*
X40512257Y-37616868D02*
X40583685Y-37688296D01*
X40583685Y-37688296D02*
X40512257Y-37759725D01*
X40512257Y-37759725D02*
X40440828Y-37688296D01*
X40440828Y-37688296D02*
X40583685Y-37688296D01*
X40940828Y-38259725D02*
X41940828Y-38616868D01*
X41940828Y-38616868D02*
X40940828Y-38974011D01*
X41869400Y-40116868D02*
X41940828Y-39974011D01*
X41940828Y-39974011D02*
X41940828Y-39688297D01*
X41940828Y-39688297D02*
X41869400Y-39545439D01*
X41869400Y-39545439D02*
X41726542Y-39474011D01*
X41726542Y-39474011D02*
X41155114Y-39474011D01*
X41155114Y-39474011D02*
X41012257Y-39545439D01*
X41012257Y-39545439D02*
X40940828Y-39688297D01*
X40940828Y-39688297D02*
X40940828Y-39974011D01*
X40940828Y-39974011D02*
X41012257Y-40116868D01*
X41012257Y-40116868D02*
X41155114Y-40188297D01*
X41155114Y-40188297D02*
X41297971Y-40188297D01*
X41297971Y-40188297D02*
X41440828Y-39474011D01*
X41940828Y-40831153D02*
X40940828Y-40831153D01*
X41226542Y-40831153D02*
X41083685Y-40902582D01*
X41083685Y-40902582D02*
X41012257Y-40974011D01*
X41012257Y-40974011D02*
X40940828Y-41116868D01*
X40940828Y-41116868D02*
X40940828Y-41259725D01*
D10*
X87977438Y-18700088D02*
X87929819Y-18604850D01*
X87929819Y-18604850D02*
X87929819Y-18461993D01*
X87929819Y-18461993D02*
X87977438Y-18319136D01*
X87977438Y-18319136D02*
X88072676Y-18223898D01*
X88072676Y-18223898D02*
X88167914Y-18176279D01*
X88167914Y-18176279D02*
X88358390Y-18128660D01*
X88358390Y-18128660D02*
X88501247Y-18128660D01*
X88501247Y-18128660D02*
X88691723Y-18176279D01*
X88691723Y-18176279D02*
X88786961Y-18223898D01*
X88786961Y-18223898D02*
X88882200Y-18319136D01*
X88882200Y-18319136D02*
X88929819Y-18461993D01*
X88929819Y-18461993D02*
X88929819Y-18557231D01*
X88929819Y-18557231D02*
X88882200Y-18700088D01*
X88882200Y-18700088D02*
X88834580Y-18747707D01*
X88834580Y-18747707D02*
X88501247Y-18747707D01*
X88501247Y-18747707D02*
X88501247Y-18557231D01*
X88929819Y-19176279D02*
X87929819Y-19176279D01*
X87929819Y-19176279D02*
X88929819Y-19747707D01*
X88929819Y-19747707D02*
X87929819Y-19747707D01*
X88929819Y-20223898D02*
X87929819Y-20223898D01*
X87929819Y-20223898D02*
X87929819Y-20461993D01*
X87929819Y-20461993D02*
X87977438Y-20604850D01*
X87977438Y-20604850D02*
X88072676Y-20700088D01*
X88072676Y-20700088D02*
X88167914Y-20747707D01*
X88167914Y-20747707D02*
X88358390Y-20795326D01*
X88358390Y-20795326D02*
X88501247Y-20795326D01*
X88501247Y-20795326D02*
X88691723Y-20747707D01*
X88691723Y-20747707D02*
X88786961Y-20700088D01*
X88786961Y-20700088D02*
X88882200Y-20604850D01*
X88882200Y-20604850D02*
X88929819Y-20461993D01*
X88929819Y-20461993D02*
X88929819Y-20223898D01*
X63336009Y-18429612D02*
X63383628Y-18572469D01*
X63383628Y-18572469D02*
X63431247Y-18620088D01*
X63431247Y-18620088D02*
X63526485Y-18667707D01*
X63526485Y-18667707D02*
X63669342Y-18667707D01*
X63669342Y-18667707D02*
X63764580Y-18620088D01*
X63764580Y-18620088D02*
X63812200Y-18572469D01*
X63812200Y-18572469D02*
X63859819Y-18477231D01*
X63859819Y-18477231D02*
X63859819Y-18096279D01*
X63859819Y-18096279D02*
X62859819Y-18096279D01*
X62859819Y-18096279D02*
X62859819Y-18429612D01*
X62859819Y-18429612D02*
X62907438Y-18524850D01*
X62907438Y-18524850D02*
X62955057Y-18572469D01*
X62955057Y-18572469D02*
X63050295Y-18620088D01*
X63050295Y-18620088D02*
X63145533Y-18620088D01*
X63145533Y-18620088D02*
X63240771Y-18572469D01*
X63240771Y-18572469D02*
X63288390Y-18524850D01*
X63288390Y-18524850D02*
X63336009Y-18429612D01*
X63336009Y-18429612D02*
X63336009Y-18096279D01*
X63193152Y-19001041D02*
X63859819Y-19239136D01*
X63193152Y-19477231D02*
X63859819Y-19239136D01*
X63859819Y-19239136D02*
X64097914Y-19143898D01*
X64097914Y-19143898D02*
X64145533Y-19096279D01*
X64145533Y-19096279D02*
X64193152Y-19001041D01*
X62859819Y-20905803D02*
X63574104Y-20905803D01*
X63574104Y-20905803D02*
X63716961Y-20858184D01*
X63716961Y-20858184D02*
X63812200Y-20762946D01*
X63812200Y-20762946D02*
X63859819Y-20620089D01*
X63859819Y-20620089D02*
X63859819Y-20524851D01*
X63859819Y-21810565D02*
X63336009Y-21810565D01*
X63336009Y-21810565D02*
X63240771Y-21762946D01*
X63240771Y-21762946D02*
X63193152Y-21667708D01*
X63193152Y-21667708D02*
X63193152Y-21477232D01*
X63193152Y-21477232D02*
X63240771Y-21381994D01*
X63812200Y-21810565D02*
X63859819Y-21715327D01*
X63859819Y-21715327D02*
X63859819Y-21477232D01*
X63859819Y-21477232D02*
X63812200Y-21381994D01*
X63812200Y-21381994D02*
X63716961Y-21334375D01*
X63716961Y-21334375D02*
X63621723Y-21334375D01*
X63621723Y-21334375D02*
X63526485Y-21381994D01*
X63526485Y-21381994D02*
X63478866Y-21477232D01*
X63478866Y-21477232D02*
X63478866Y-21715327D01*
X63478866Y-21715327D02*
X63431247Y-21810565D01*
X63812200Y-22715327D02*
X63859819Y-22620089D01*
X63859819Y-22620089D02*
X63859819Y-22429613D01*
X63859819Y-22429613D02*
X63812200Y-22334375D01*
X63812200Y-22334375D02*
X63764580Y-22286756D01*
X63764580Y-22286756D02*
X63669342Y-22239137D01*
X63669342Y-22239137D02*
X63383628Y-22239137D01*
X63383628Y-22239137D02*
X63288390Y-22286756D01*
X63288390Y-22286756D02*
X63240771Y-22334375D01*
X63240771Y-22334375D02*
X63193152Y-22429613D01*
X63193152Y-22429613D02*
X63193152Y-22620089D01*
X63193152Y-22620089D02*
X63240771Y-22715327D01*
X63859819Y-23143899D02*
X62859819Y-23143899D01*
X63478866Y-23239137D02*
X63859819Y-23524851D01*
X63193152Y-23524851D02*
X63574104Y-23143899D01*
X63812200Y-23905804D02*
X63859819Y-24001042D01*
X63859819Y-24001042D02*
X63859819Y-24191518D01*
X63859819Y-24191518D02*
X63812200Y-24286756D01*
X63812200Y-24286756D02*
X63716961Y-24334375D01*
X63716961Y-24334375D02*
X63669342Y-24334375D01*
X63669342Y-24334375D02*
X63574104Y-24286756D01*
X63574104Y-24286756D02*
X63526485Y-24191518D01*
X63526485Y-24191518D02*
X63526485Y-24048661D01*
X63526485Y-24048661D02*
X63478866Y-23953423D01*
X63478866Y-23953423D02*
X63383628Y-23905804D01*
X63383628Y-23905804D02*
X63336009Y-23905804D01*
X63336009Y-23905804D02*
X63240771Y-23953423D01*
X63240771Y-23953423D02*
X63193152Y-24048661D01*
X63193152Y-24048661D02*
X63193152Y-24191518D01*
X63193152Y-24191518D02*
X63240771Y-24286756D01*
X63859819Y-24905804D02*
X63812200Y-24810566D01*
X63812200Y-24810566D02*
X63764580Y-24762947D01*
X63764580Y-24762947D02*
X63669342Y-24715328D01*
X63669342Y-24715328D02*
X63383628Y-24715328D01*
X63383628Y-24715328D02*
X63288390Y-24762947D01*
X63288390Y-24762947D02*
X63240771Y-24810566D01*
X63240771Y-24810566D02*
X63193152Y-24905804D01*
X63193152Y-24905804D02*
X63193152Y-25048661D01*
X63193152Y-25048661D02*
X63240771Y-25143899D01*
X63240771Y-25143899D02*
X63288390Y-25191518D01*
X63288390Y-25191518D02*
X63383628Y-25239137D01*
X63383628Y-25239137D02*
X63669342Y-25239137D01*
X63669342Y-25239137D02*
X63764580Y-25191518D01*
X63764580Y-25191518D02*
X63812200Y-25143899D01*
X63812200Y-25143899D02*
X63859819Y-25048661D01*
X63859819Y-25048661D02*
X63859819Y-24905804D01*
X63193152Y-25667709D02*
X63859819Y-25667709D01*
X63288390Y-25667709D02*
X63240771Y-25715328D01*
X63240771Y-25715328D02*
X63193152Y-25810566D01*
X63193152Y-25810566D02*
X63193152Y-25953423D01*
X63193152Y-25953423D02*
X63240771Y-26048661D01*
X63240771Y-26048661D02*
X63336009Y-26096280D01*
X63336009Y-26096280D02*
X63859819Y-26096280D01*
X63859819Y-27334376D02*
X62859819Y-27334376D01*
X62859819Y-27334376D02*
X63574104Y-27667709D01*
X63574104Y-27667709D02*
X62859819Y-28001042D01*
X62859819Y-28001042D02*
X63859819Y-28001042D01*
X63859819Y-29239138D02*
X62859819Y-29239138D01*
X63336009Y-29239138D02*
X63336009Y-29810566D01*
X63859819Y-29810566D02*
X62859819Y-29810566D01*
X63193152Y-30715328D02*
X63859819Y-30715328D01*
X63193152Y-30286757D02*
X63716961Y-30286757D01*
X63716961Y-30286757D02*
X63812200Y-30334376D01*
X63812200Y-30334376D02*
X63859819Y-30429614D01*
X63859819Y-30429614D02*
X63859819Y-30572471D01*
X63859819Y-30572471D02*
X63812200Y-30667709D01*
X63812200Y-30667709D02*
X63764580Y-30715328D01*
X64240771Y-32239138D02*
X64193152Y-32191519D01*
X64193152Y-32191519D02*
X64050295Y-32096281D01*
X64050295Y-32096281D02*
X63955057Y-32048662D01*
X63955057Y-32048662D02*
X63812200Y-32001043D01*
X63812200Y-32001043D02*
X63574104Y-31953424D01*
X63574104Y-31953424D02*
X63383628Y-31953424D01*
X63383628Y-31953424D02*
X63145533Y-32001043D01*
X63145533Y-32001043D02*
X63002676Y-32048662D01*
X63002676Y-32048662D02*
X62907438Y-32096281D01*
X62907438Y-32096281D02*
X62764580Y-32191519D01*
X62764580Y-32191519D02*
X62716961Y-32239138D01*
X63764580Y-33191519D02*
X63812200Y-33143900D01*
X63812200Y-33143900D02*
X63859819Y-33001043D01*
X63859819Y-33001043D02*
X63859819Y-32905805D01*
X63859819Y-32905805D02*
X63812200Y-32762948D01*
X63812200Y-32762948D02*
X63716961Y-32667710D01*
X63716961Y-32667710D02*
X63621723Y-32620091D01*
X63621723Y-32620091D02*
X63431247Y-32572472D01*
X63431247Y-32572472D02*
X63288390Y-32572472D01*
X63288390Y-32572472D02*
X63097914Y-32620091D01*
X63097914Y-32620091D02*
X63002676Y-32667710D01*
X63002676Y-32667710D02*
X62907438Y-32762948D01*
X62907438Y-32762948D02*
X62859819Y-32905805D01*
X62859819Y-32905805D02*
X62859819Y-33001043D01*
X62859819Y-33001043D02*
X62907438Y-33143900D01*
X62907438Y-33143900D02*
X62955057Y-33191519D01*
X64240771Y-33524853D02*
X64193152Y-33572472D01*
X64193152Y-33572472D02*
X64050295Y-33667710D01*
X64050295Y-33667710D02*
X63955057Y-33715329D01*
X63955057Y-33715329D02*
X63812200Y-33762948D01*
X63812200Y-33762948D02*
X63574104Y-33810567D01*
X63574104Y-33810567D02*
X63383628Y-33810567D01*
X63383628Y-33810567D02*
X63145533Y-33762948D01*
X63145533Y-33762948D02*
X63002676Y-33715329D01*
X63002676Y-33715329D02*
X62907438Y-33667710D01*
X62907438Y-33667710D02*
X62764580Y-33572472D01*
X62764580Y-33572472D02*
X62716961Y-33524853D01*
X63859819Y-35048663D02*
X62859819Y-35048663D01*
X62859819Y-35048663D02*
X63574104Y-35381996D01*
X63574104Y-35381996D02*
X62859819Y-35715329D01*
X62859819Y-35715329D02*
X63859819Y-35715329D01*
X63859819Y-36620091D02*
X63336009Y-36620091D01*
X63336009Y-36620091D02*
X63240771Y-36572472D01*
X63240771Y-36572472D02*
X63193152Y-36477234D01*
X63193152Y-36477234D02*
X63193152Y-36286758D01*
X63193152Y-36286758D02*
X63240771Y-36191520D01*
X63812200Y-36620091D02*
X63859819Y-36524853D01*
X63859819Y-36524853D02*
X63859819Y-36286758D01*
X63859819Y-36286758D02*
X63812200Y-36191520D01*
X63812200Y-36191520D02*
X63716961Y-36143901D01*
X63716961Y-36143901D02*
X63621723Y-36143901D01*
X63621723Y-36143901D02*
X63526485Y-36191520D01*
X63526485Y-36191520D02*
X63478866Y-36286758D01*
X63478866Y-36286758D02*
X63478866Y-36524853D01*
X63478866Y-36524853D02*
X63431247Y-36620091D01*
X63859819Y-37096282D02*
X63193152Y-37096282D01*
X63383628Y-37096282D02*
X63288390Y-37143901D01*
X63288390Y-37143901D02*
X63240771Y-37191520D01*
X63240771Y-37191520D02*
X63193152Y-37286758D01*
X63193152Y-37286758D02*
X63193152Y-37381996D01*
X63812200Y-38143901D02*
X63859819Y-38048663D01*
X63859819Y-38048663D02*
X63859819Y-37858187D01*
X63859819Y-37858187D02*
X63812200Y-37762949D01*
X63812200Y-37762949D02*
X63764580Y-37715330D01*
X63764580Y-37715330D02*
X63669342Y-37667711D01*
X63669342Y-37667711D02*
X63383628Y-37667711D01*
X63383628Y-37667711D02*
X63288390Y-37715330D01*
X63288390Y-37715330D02*
X63240771Y-37762949D01*
X63240771Y-37762949D02*
X63193152Y-37858187D01*
X63193152Y-37858187D02*
X63193152Y-38048663D01*
X63193152Y-38048663D02*
X63240771Y-38143901D01*
X63859819Y-38572473D02*
X62859819Y-38572473D01*
X63859819Y-39001044D02*
X63336009Y-39001044D01*
X63336009Y-39001044D02*
X63240771Y-38953425D01*
X63240771Y-38953425D02*
X63193152Y-38858187D01*
X63193152Y-38858187D02*
X63193152Y-38715330D01*
X63193152Y-38715330D02*
X63240771Y-38620092D01*
X63240771Y-38620092D02*
X63288390Y-38572473D01*
X62955057Y-40191521D02*
X62907438Y-40239140D01*
X62907438Y-40239140D02*
X62859819Y-40334378D01*
X62859819Y-40334378D02*
X62859819Y-40572473D01*
X62859819Y-40572473D02*
X62907438Y-40667711D01*
X62907438Y-40667711D02*
X62955057Y-40715330D01*
X62955057Y-40715330D02*
X63050295Y-40762949D01*
X63050295Y-40762949D02*
X63145533Y-40762949D01*
X63145533Y-40762949D02*
X63288390Y-40715330D01*
X63288390Y-40715330D02*
X63859819Y-40143902D01*
X63859819Y-40143902D02*
X63859819Y-40762949D01*
X62859819Y-41381997D02*
X62859819Y-41477235D01*
X62859819Y-41477235D02*
X62907438Y-41572473D01*
X62907438Y-41572473D02*
X62955057Y-41620092D01*
X62955057Y-41620092D02*
X63050295Y-41667711D01*
X63050295Y-41667711D02*
X63240771Y-41715330D01*
X63240771Y-41715330D02*
X63478866Y-41715330D01*
X63478866Y-41715330D02*
X63669342Y-41667711D01*
X63669342Y-41667711D02*
X63764580Y-41620092D01*
X63764580Y-41620092D02*
X63812200Y-41572473D01*
X63812200Y-41572473D02*
X63859819Y-41477235D01*
X63859819Y-41477235D02*
X63859819Y-41381997D01*
X63859819Y-41381997D02*
X63812200Y-41286759D01*
X63812200Y-41286759D02*
X63764580Y-41239140D01*
X63764580Y-41239140D02*
X63669342Y-41191521D01*
X63669342Y-41191521D02*
X63478866Y-41143902D01*
X63478866Y-41143902D02*
X63240771Y-41143902D01*
X63240771Y-41143902D02*
X63050295Y-41191521D01*
X63050295Y-41191521D02*
X62955057Y-41239140D01*
X62955057Y-41239140D02*
X62907438Y-41286759D01*
X62907438Y-41286759D02*
X62859819Y-41381997D01*
X62955057Y-42096283D02*
X62907438Y-42143902D01*
X62907438Y-42143902D02*
X62859819Y-42239140D01*
X62859819Y-42239140D02*
X62859819Y-42477235D01*
X62859819Y-42477235D02*
X62907438Y-42572473D01*
X62907438Y-42572473D02*
X62955057Y-42620092D01*
X62955057Y-42620092D02*
X63050295Y-42667711D01*
X63050295Y-42667711D02*
X63145533Y-42667711D01*
X63145533Y-42667711D02*
X63288390Y-42620092D01*
X63288390Y-42620092D02*
X63859819Y-42048664D01*
X63859819Y-42048664D02*
X63859819Y-42667711D01*
X63193152Y-43524854D02*
X63859819Y-43524854D01*
X62812200Y-43286759D02*
X63526485Y-43048664D01*
X63526485Y-43048664D02*
X63526485Y-43667711D01*
X63859819Y-46905807D02*
X63383628Y-46572474D01*
X63859819Y-46334379D02*
X62859819Y-46334379D01*
X62859819Y-46334379D02*
X62859819Y-46715331D01*
X62859819Y-46715331D02*
X62907438Y-46810569D01*
X62907438Y-46810569D02*
X62955057Y-46858188D01*
X62955057Y-46858188D02*
X63050295Y-46905807D01*
X63050295Y-46905807D02*
X63193152Y-46905807D01*
X63193152Y-46905807D02*
X63288390Y-46858188D01*
X63288390Y-46858188D02*
X63336009Y-46810569D01*
X63336009Y-46810569D02*
X63383628Y-46715331D01*
X63383628Y-46715331D02*
X63383628Y-46334379D01*
X63812200Y-47715331D02*
X63859819Y-47620093D01*
X63859819Y-47620093D02*
X63859819Y-47429617D01*
X63859819Y-47429617D02*
X63812200Y-47334379D01*
X63812200Y-47334379D02*
X63716961Y-47286760D01*
X63716961Y-47286760D02*
X63336009Y-47286760D01*
X63336009Y-47286760D02*
X63240771Y-47334379D01*
X63240771Y-47334379D02*
X63193152Y-47429617D01*
X63193152Y-47429617D02*
X63193152Y-47620093D01*
X63193152Y-47620093D02*
X63240771Y-47715331D01*
X63240771Y-47715331D02*
X63336009Y-47762950D01*
X63336009Y-47762950D02*
X63431247Y-47762950D01*
X63431247Y-47762950D02*
X63526485Y-47286760D01*
X63193152Y-48096284D02*
X63859819Y-48334379D01*
X63859819Y-48334379D02*
X63193152Y-48572474D01*
X63764580Y-48953427D02*
X63812200Y-49001046D01*
X63812200Y-49001046D02*
X63859819Y-48953427D01*
X63859819Y-48953427D02*
X63812200Y-48905808D01*
X63812200Y-48905808D02*
X63764580Y-48953427D01*
X63764580Y-48953427D02*
X63859819Y-48953427D01*
X62955057Y-50143903D02*
X62907438Y-50191522D01*
X62907438Y-50191522D02*
X62859819Y-50286760D01*
X62859819Y-50286760D02*
X62859819Y-50524855D01*
X62859819Y-50524855D02*
X62907438Y-50620093D01*
X62907438Y-50620093D02*
X62955057Y-50667712D01*
X62955057Y-50667712D02*
X63050295Y-50715331D01*
X63050295Y-50715331D02*
X63145533Y-50715331D01*
X63145533Y-50715331D02*
X63288390Y-50667712D01*
X63288390Y-50667712D02*
X63859819Y-50096284D01*
X63859819Y-50096284D02*
X63859819Y-50715331D01*
X1177438Y-64670088D02*
X1129819Y-64574850D01*
X1129819Y-64574850D02*
X1129819Y-64431993D01*
X1129819Y-64431993D02*
X1177438Y-64289136D01*
X1177438Y-64289136D02*
X1272676Y-64193898D01*
X1272676Y-64193898D02*
X1367914Y-64146279D01*
X1367914Y-64146279D02*
X1558390Y-64098660D01*
X1558390Y-64098660D02*
X1701247Y-64098660D01*
X1701247Y-64098660D02*
X1891723Y-64146279D01*
X1891723Y-64146279D02*
X1986961Y-64193898D01*
X1986961Y-64193898D02*
X2082200Y-64289136D01*
X2082200Y-64289136D02*
X2129819Y-64431993D01*
X2129819Y-64431993D02*
X2129819Y-64527231D01*
X2129819Y-64527231D02*
X2082200Y-64670088D01*
X2082200Y-64670088D02*
X2034580Y-64717707D01*
X2034580Y-64717707D02*
X1701247Y-64717707D01*
X1701247Y-64717707D02*
X1701247Y-64527231D01*
X2129819Y-65146279D02*
X1129819Y-65146279D01*
X1129819Y-65146279D02*
X2129819Y-65717707D01*
X2129819Y-65717707D02*
X1129819Y-65717707D01*
X2129819Y-66193898D02*
X1129819Y-66193898D01*
X1129819Y-66193898D02*
X1129819Y-66431993D01*
X1129819Y-66431993D02*
X1177438Y-66574850D01*
X1177438Y-66574850D02*
X1272676Y-66670088D01*
X1272676Y-66670088D02*
X1367914Y-66717707D01*
X1367914Y-66717707D02*
X1558390Y-66765326D01*
X1558390Y-66765326D02*
X1701247Y-66765326D01*
X1701247Y-66765326D02*
X1891723Y-66717707D01*
X1891723Y-66717707D02*
X1986961Y-66670088D01*
X1986961Y-66670088D02*
X2082200Y-66574850D01*
X2082200Y-66574850D02*
X2129819Y-66431993D01*
X2129819Y-66431993D02*
X2129819Y-66193898D01*
X2189819Y-54036279D02*
X1189819Y-54036279D01*
X1189819Y-54036279D02*
X1189819Y-54417231D01*
X1189819Y-54417231D02*
X1237438Y-54512469D01*
X1237438Y-54512469D02*
X1285057Y-54560088D01*
X1285057Y-54560088D02*
X1380295Y-54607707D01*
X1380295Y-54607707D02*
X1523152Y-54607707D01*
X1523152Y-54607707D02*
X1618390Y-54560088D01*
X1618390Y-54560088D02*
X1666009Y-54512469D01*
X1666009Y-54512469D02*
X1713628Y-54417231D01*
X1713628Y-54417231D02*
X1713628Y-54036279D01*
X1189819Y-54941041D02*
X2189819Y-55179136D01*
X2189819Y-55179136D02*
X1475533Y-55369612D01*
X1475533Y-55369612D02*
X2189819Y-55560088D01*
X2189819Y-55560088D02*
X1189819Y-55798184D01*
X2189819Y-56179136D02*
X1189819Y-56179136D01*
X1189819Y-56179136D02*
X1904104Y-56512469D01*
X1904104Y-56512469D02*
X1189819Y-56845802D01*
X1189819Y-56845802D02*
X2189819Y-56845802D01*
X33189819Y-54036279D02*
X32189819Y-54036279D01*
X32189819Y-54036279D02*
X32189819Y-54417231D01*
X32189819Y-54417231D02*
X32237438Y-54512469D01*
X32237438Y-54512469D02*
X32285057Y-54560088D01*
X32285057Y-54560088D02*
X32380295Y-54607707D01*
X32380295Y-54607707D02*
X32523152Y-54607707D01*
X32523152Y-54607707D02*
X32618390Y-54560088D01*
X32618390Y-54560088D02*
X32666009Y-54512469D01*
X32666009Y-54512469D02*
X32713628Y-54417231D01*
X32713628Y-54417231D02*
X32713628Y-54036279D01*
X32189819Y-54941041D02*
X33189819Y-55179136D01*
X33189819Y-55179136D02*
X32475533Y-55369612D01*
X32475533Y-55369612D02*
X33189819Y-55560088D01*
X33189819Y-55560088D02*
X32189819Y-55798184D01*
X33189819Y-56179136D02*
X32189819Y-56179136D01*
X32189819Y-56179136D02*
X32904104Y-56512469D01*
X32904104Y-56512469D02*
X32189819Y-56845802D01*
X32189819Y-56845802D02*
X33189819Y-56845802D01*
X74479819Y-61292469D02*
X74479819Y-60816279D01*
X74479819Y-60816279D02*
X73479819Y-60816279D01*
X73956009Y-61625803D02*
X73956009Y-61959136D01*
X74479819Y-62101993D02*
X74479819Y-61625803D01*
X74479819Y-61625803D02*
X73479819Y-61625803D01*
X73479819Y-61625803D02*
X73479819Y-62101993D01*
X74479819Y-62530565D02*
X73479819Y-62530565D01*
X73479819Y-62530565D02*
X73479819Y-62768660D01*
X73479819Y-62768660D02*
X73527438Y-62911517D01*
X73527438Y-62911517D02*
X73622676Y-63006755D01*
X73622676Y-63006755D02*
X73717914Y-63054374D01*
X73717914Y-63054374D02*
X73908390Y-63101993D01*
X73908390Y-63101993D02*
X74051247Y-63101993D01*
X74051247Y-63101993D02*
X74241723Y-63054374D01*
X74241723Y-63054374D02*
X74336961Y-63006755D01*
X74336961Y-63006755D02*
X74432200Y-62911517D01*
X74432200Y-62911517D02*
X74479819Y-62768660D01*
X74479819Y-62768660D02*
X74479819Y-62530565D01*
X74098866Y-63530565D02*
X74098866Y-64292470D01*
X64189819Y-54036279D02*
X63189819Y-54036279D01*
X63189819Y-54036279D02*
X63189819Y-54417231D01*
X63189819Y-54417231D02*
X63237438Y-54512469D01*
X63237438Y-54512469D02*
X63285057Y-54560088D01*
X63285057Y-54560088D02*
X63380295Y-54607707D01*
X63380295Y-54607707D02*
X63523152Y-54607707D01*
X63523152Y-54607707D02*
X63618390Y-54560088D01*
X63618390Y-54560088D02*
X63666009Y-54512469D01*
X63666009Y-54512469D02*
X63713628Y-54417231D01*
X63713628Y-54417231D02*
X63713628Y-54036279D01*
X63189819Y-54941041D02*
X64189819Y-55179136D01*
X64189819Y-55179136D02*
X63475533Y-55369612D01*
X63475533Y-55369612D02*
X64189819Y-55560088D01*
X64189819Y-55560088D02*
X63189819Y-55798184D01*
X64189819Y-56179136D02*
X63189819Y-56179136D01*
X63189819Y-56179136D02*
X63904104Y-56512469D01*
X63904104Y-56512469D02*
X63189819Y-56845802D01*
X63189819Y-56845802D02*
X64189819Y-56845802D01*
D11*
X69025912Y-24331153D02*
X69025912Y-25259725D01*
X69025912Y-25259725D02*
X69597341Y-24759725D01*
X69597341Y-24759725D02*
X69597341Y-24974010D01*
X69597341Y-24974010D02*
X69668769Y-25116868D01*
X69668769Y-25116868D02*
X69740198Y-25188296D01*
X69740198Y-25188296D02*
X69883055Y-25259725D01*
X69883055Y-25259725D02*
X70240198Y-25259725D01*
X70240198Y-25259725D02*
X70383055Y-25188296D01*
X70383055Y-25188296D02*
X70454484Y-25116868D01*
X70454484Y-25116868D02*
X70525912Y-24974010D01*
X70525912Y-24974010D02*
X70525912Y-24545439D01*
X70525912Y-24545439D02*
X70454484Y-24402582D01*
X70454484Y-24402582D02*
X70383055Y-24331153D01*
X69025912Y-26545439D02*
X69025912Y-26259724D01*
X69025912Y-26259724D02*
X69097341Y-26116867D01*
X69097341Y-26116867D02*
X69168769Y-26045439D01*
X69168769Y-26045439D02*
X69383055Y-25902581D01*
X69383055Y-25902581D02*
X69668769Y-25831153D01*
X69668769Y-25831153D02*
X70240198Y-25831153D01*
X70240198Y-25831153D02*
X70383055Y-25902581D01*
X70383055Y-25902581D02*
X70454484Y-25974010D01*
X70454484Y-25974010D02*
X70525912Y-26116867D01*
X70525912Y-26116867D02*
X70525912Y-26402581D01*
X70525912Y-26402581D02*
X70454484Y-26545439D01*
X70454484Y-26545439D02*
X70383055Y-26616867D01*
X70383055Y-26616867D02*
X70240198Y-26688296D01*
X70240198Y-26688296D02*
X69883055Y-26688296D01*
X69883055Y-26688296D02*
X69740198Y-26616867D01*
X69740198Y-26616867D02*
X69668769Y-26545439D01*
X69668769Y-26545439D02*
X69597341Y-26402581D01*
X69597341Y-26402581D02*
X69597341Y-26116867D01*
X69597341Y-26116867D02*
X69668769Y-25974010D01*
X69668769Y-25974010D02*
X69740198Y-25902581D01*
X69740198Y-25902581D02*
X69883055Y-25831153D01*
X69525912Y-27188295D02*
X70525912Y-27545438D01*
X70525912Y-27545438D02*
X69525912Y-27902581D01*
X69525912Y-30259724D02*
X70525912Y-30259724D01*
X68954484Y-29902581D02*
X70025912Y-29545438D01*
X70025912Y-29545438D02*
X70025912Y-30474009D01*
X69025912Y-31331152D02*
X69025912Y-31474009D01*
X69025912Y-31474009D02*
X69097341Y-31616866D01*
X69097341Y-31616866D02*
X69168769Y-31688295D01*
X69168769Y-31688295D02*
X69311626Y-31759723D01*
X69311626Y-31759723D02*
X69597341Y-31831152D01*
X69597341Y-31831152D02*
X69954484Y-31831152D01*
X69954484Y-31831152D02*
X70240198Y-31759723D01*
X70240198Y-31759723D02*
X70383055Y-31688295D01*
X70383055Y-31688295D02*
X70454484Y-31616866D01*
X70454484Y-31616866D02*
X70525912Y-31474009D01*
X70525912Y-31474009D02*
X70525912Y-31331152D01*
X70525912Y-31331152D02*
X70454484Y-31188295D01*
X70454484Y-31188295D02*
X70383055Y-31116866D01*
X70383055Y-31116866D02*
X70240198Y-31045437D01*
X70240198Y-31045437D02*
X69954484Y-30974009D01*
X69954484Y-30974009D02*
X69597341Y-30974009D01*
X69597341Y-30974009D02*
X69311626Y-31045437D01*
X69311626Y-31045437D02*
X69168769Y-31116866D01*
X69168769Y-31116866D02*
X69097341Y-31188295D01*
X69097341Y-31188295D02*
X69025912Y-31331152D01*
X69525912Y-32331151D02*
X70525912Y-32616866D01*
X70525912Y-32616866D02*
X69811626Y-32902580D01*
X69811626Y-32902580D02*
X70525912Y-33188294D01*
X70525912Y-33188294D02*
X69525912Y-33474008D01*
X72797971Y-25331153D02*
X72869400Y-25259725D01*
X72869400Y-25259725D02*
X72940828Y-25045439D01*
X72940828Y-25045439D02*
X72940828Y-24902582D01*
X72940828Y-24902582D02*
X72869400Y-24688296D01*
X72869400Y-24688296D02*
X72726542Y-24545439D01*
X72726542Y-24545439D02*
X72583685Y-24474010D01*
X72583685Y-24474010D02*
X72297971Y-24402582D01*
X72297971Y-24402582D02*
X72083685Y-24402582D01*
X72083685Y-24402582D02*
X71797971Y-24474010D01*
X71797971Y-24474010D02*
X71655114Y-24545439D01*
X71655114Y-24545439D02*
X71512257Y-24688296D01*
X71512257Y-24688296D02*
X71440828Y-24902582D01*
X71440828Y-24902582D02*
X71440828Y-25045439D01*
X71440828Y-25045439D02*
X71512257Y-25259725D01*
X71512257Y-25259725D02*
X71583685Y-25331153D01*
X71440828Y-26259725D02*
X71440828Y-26545439D01*
X71440828Y-26545439D02*
X71512257Y-26688296D01*
X71512257Y-26688296D02*
X71655114Y-26831153D01*
X71655114Y-26831153D02*
X71940828Y-26902582D01*
X71940828Y-26902582D02*
X72440828Y-26902582D01*
X72440828Y-26902582D02*
X72726542Y-26831153D01*
X72726542Y-26831153D02*
X72869400Y-26688296D01*
X72869400Y-26688296D02*
X72940828Y-26545439D01*
X72940828Y-26545439D02*
X72940828Y-26259725D01*
X72940828Y-26259725D02*
X72869400Y-26116868D01*
X72869400Y-26116868D02*
X72726542Y-25974010D01*
X72726542Y-25974010D02*
X72440828Y-25902582D01*
X72440828Y-25902582D02*
X71940828Y-25902582D01*
X71940828Y-25902582D02*
X71655114Y-25974010D01*
X71655114Y-25974010D02*
X71512257Y-26116868D01*
X71512257Y-26116868D02*
X71440828Y-26259725D01*
X72155114Y-28045439D02*
X72226542Y-28259725D01*
X72226542Y-28259725D02*
X72297971Y-28331154D01*
X72297971Y-28331154D02*
X72440828Y-28402582D01*
X72440828Y-28402582D02*
X72655114Y-28402582D01*
X72655114Y-28402582D02*
X72797971Y-28331154D01*
X72797971Y-28331154D02*
X72869400Y-28259725D01*
X72869400Y-28259725D02*
X72940828Y-28116868D01*
X72940828Y-28116868D02*
X72940828Y-27545439D01*
X72940828Y-27545439D02*
X71440828Y-27545439D01*
X71440828Y-27545439D02*
X71440828Y-28045439D01*
X71440828Y-28045439D02*
X71512257Y-28188297D01*
X71512257Y-28188297D02*
X71583685Y-28259725D01*
X71583685Y-28259725D02*
X71726542Y-28331154D01*
X71726542Y-28331154D02*
X71869400Y-28331154D01*
X71869400Y-28331154D02*
X72012257Y-28259725D01*
X72012257Y-28259725D02*
X72083685Y-28188297D01*
X72083685Y-28188297D02*
X72155114Y-28045439D01*
X72155114Y-28045439D02*
X72155114Y-27545439D01*
X72940828Y-30902582D02*
X72940828Y-30188296D01*
X72940828Y-30188296D02*
X71440828Y-30188296D01*
X72155114Y-31402582D02*
X72155114Y-31902582D01*
X72940828Y-32116868D02*
X72940828Y-31402582D01*
X72940828Y-31402582D02*
X71440828Y-31402582D01*
X71440828Y-31402582D02*
X71440828Y-32116868D01*
X72940828Y-32759725D02*
X71440828Y-32759725D01*
X71440828Y-32759725D02*
X71440828Y-33116868D01*
X71440828Y-33116868D02*
X71512257Y-33331154D01*
X71512257Y-33331154D02*
X71655114Y-33474011D01*
X71655114Y-33474011D02*
X71797971Y-33545440D01*
X71797971Y-33545440D02*
X72083685Y-33616868D01*
X72083685Y-33616868D02*
X72297971Y-33616868D01*
X72297971Y-33616868D02*
X72583685Y-33545440D01*
X72583685Y-33545440D02*
X72726542Y-33474011D01*
X72726542Y-33474011D02*
X72869400Y-33331154D01*
X72869400Y-33331154D02*
X72940828Y-33116868D01*
X72940828Y-33116868D02*
X72940828Y-32759725D01*
X72940828Y-36045440D02*
X71440828Y-36045440D01*
X72869400Y-36045440D02*
X72940828Y-35902582D01*
X72940828Y-35902582D02*
X72940828Y-35616868D01*
X72940828Y-35616868D02*
X72869400Y-35474011D01*
X72869400Y-35474011D02*
X72797971Y-35402582D01*
X72797971Y-35402582D02*
X72655114Y-35331154D01*
X72655114Y-35331154D02*
X72226542Y-35331154D01*
X72226542Y-35331154D02*
X72083685Y-35402582D01*
X72083685Y-35402582D02*
X72012257Y-35474011D01*
X72012257Y-35474011D02*
X71940828Y-35616868D01*
X71940828Y-35616868D02*
X71940828Y-35902582D01*
X71940828Y-35902582D02*
X72012257Y-36045440D01*
X72940828Y-36759725D02*
X71940828Y-36759725D01*
X72226542Y-36759725D02*
X72083685Y-36831154D01*
X72083685Y-36831154D02*
X72012257Y-36902583D01*
X72012257Y-36902583D02*
X71940828Y-37045440D01*
X71940828Y-37045440D02*
X71940828Y-37188297D01*
X72940828Y-37688296D02*
X71940828Y-37688296D01*
X71440828Y-37688296D02*
X71512257Y-37616868D01*
X71512257Y-37616868D02*
X71583685Y-37688296D01*
X71583685Y-37688296D02*
X71512257Y-37759725D01*
X71512257Y-37759725D02*
X71440828Y-37688296D01*
X71440828Y-37688296D02*
X71583685Y-37688296D01*
X71940828Y-38259725D02*
X72940828Y-38616868D01*
X72940828Y-38616868D02*
X71940828Y-38974011D01*
X72869400Y-40116868D02*
X72940828Y-39974011D01*
X72940828Y-39974011D02*
X72940828Y-39688297D01*
X72940828Y-39688297D02*
X72869400Y-39545439D01*
X72869400Y-39545439D02*
X72726542Y-39474011D01*
X72726542Y-39474011D02*
X72155114Y-39474011D01*
X72155114Y-39474011D02*
X72012257Y-39545439D01*
X72012257Y-39545439D02*
X71940828Y-39688297D01*
X71940828Y-39688297D02*
X71940828Y-39974011D01*
X71940828Y-39974011D02*
X72012257Y-40116868D01*
X72012257Y-40116868D02*
X72155114Y-40188297D01*
X72155114Y-40188297D02*
X72297971Y-40188297D01*
X72297971Y-40188297D02*
X72440828Y-39474011D01*
X72940828Y-40831153D02*
X71940828Y-40831153D01*
X72226542Y-40831153D02*
X72083685Y-40902582D01*
X72083685Y-40902582D02*
X72012257Y-40974011D01*
X72012257Y-40974011D02*
X71940828Y-41116868D01*
X71940828Y-41116868D02*
X71940828Y-41259725D01*
D10*
X46629819Y-61352469D02*
X46629819Y-60876279D01*
X46629819Y-60876279D02*
X45629819Y-60876279D01*
X46106009Y-61685803D02*
X46106009Y-62019136D01*
X46629819Y-62161993D02*
X46629819Y-61685803D01*
X46629819Y-61685803D02*
X45629819Y-61685803D01*
X45629819Y-61685803D02*
X45629819Y-62161993D01*
X46629819Y-62590565D02*
X45629819Y-62590565D01*
X45629819Y-62590565D02*
X45629819Y-62828660D01*
X45629819Y-62828660D02*
X45677438Y-62971517D01*
X45677438Y-62971517D02*
X45772676Y-63066755D01*
X45772676Y-63066755D02*
X45867914Y-63114374D01*
X45867914Y-63114374D02*
X46058390Y-63161993D01*
X46058390Y-63161993D02*
X46201247Y-63161993D01*
X46201247Y-63161993D02*
X46391723Y-63114374D01*
X46391723Y-63114374D02*
X46486961Y-63066755D01*
X46486961Y-63066755D02*
X46582200Y-62971517D01*
X46582200Y-62971517D02*
X46629819Y-62828660D01*
X46629819Y-62828660D02*
X46629819Y-62590565D01*
X46248866Y-63590565D02*
X46248866Y-64352470D01*
X46629819Y-63971517D02*
X45867914Y-63971517D01*
X18938866Y-17986279D02*
X18938866Y-18748184D01*
X19319819Y-18367231D02*
X18557914Y-18367231D01*
X18415057Y-19176755D02*
X18367438Y-19224374D01*
X18367438Y-19224374D02*
X18319819Y-19319612D01*
X18319819Y-19319612D02*
X18319819Y-19557707D01*
X18319819Y-19557707D02*
X18367438Y-19652945D01*
X18367438Y-19652945D02*
X18415057Y-19700564D01*
X18415057Y-19700564D02*
X18510295Y-19748183D01*
X18510295Y-19748183D02*
X18605533Y-19748183D01*
X18605533Y-19748183D02*
X18748390Y-19700564D01*
X18748390Y-19700564D02*
X19319819Y-19129136D01*
X19319819Y-19129136D02*
X19319819Y-19748183D01*
X18319819Y-20367231D02*
X18319819Y-20462469D01*
X18319819Y-20462469D02*
X18367438Y-20557707D01*
X18367438Y-20557707D02*
X18415057Y-20605326D01*
X18415057Y-20605326D02*
X18510295Y-20652945D01*
X18510295Y-20652945D02*
X18700771Y-20700564D01*
X18700771Y-20700564D02*
X18938866Y-20700564D01*
X18938866Y-20700564D02*
X19129342Y-20652945D01*
X19129342Y-20652945D02*
X19224580Y-20605326D01*
X19224580Y-20605326D02*
X19272200Y-20557707D01*
X19272200Y-20557707D02*
X19319819Y-20462469D01*
X19319819Y-20462469D02*
X19319819Y-20367231D01*
X19319819Y-20367231D02*
X19272200Y-20271993D01*
X19272200Y-20271993D02*
X19224580Y-20224374D01*
X19224580Y-20224374D02*
X19129342Y-20176755D01*
X19129342Y-20176755D02*
X18938866Y-20129136D01*
X18938866Y-20129136D02*
X18700771Y-20129136D01*
X18700771Y-20129136D02*
X18510295Y-20176755D01*
X18510295Y-20176755D02*
X18415057Y-20224374D01*
X18415057Y-20224374D02*
X18367438Y-20271993D01*
X18367438Y-20271993D02*
X18319819Y-20367231D01*
X18653152Y-21033898D02*
X19319819Y-21271993D01*
X19319819Y-21271993D02*
X18653152Y-21510088D01*
X25977438Y-18700088D02*
X25929819Y-18604850D01*
X25929819Y-18604850D02*
X25929819Y-18461993D01*
X25929819Y-18461993D02*
X25977438Y-18319136D01*
X25977438Y-18319136D02*
X26072676Y-18223898D01*
X26072676Y-18223898D02*
X26167914Y-18176279D01*
X26167914Y-18176279D02*
X26358390Y-18128660D01*
X26358390Y-18128660D02*
X26501247Y-18128660D01*
X26501247Y-18128660D02*
X26691723Y-18176279D01*
X26691723Y-18176279D02*
X26786961Y-18223898D01*
X26786961Y-18223898D02*
X26882200Y-18319136D01*
X26882200Y-18319136D02*
X26929819Y-18461993D01*
X26929819Y-18461993D02*
X26929819Y-18557231D01*
X26929819Y-18557231D02*
X26882200Y-18700088D01*
X26882200Y-18700088D02*
X26834580Y-18747707D01*
X26834580Y-18747707D02*
X26501247Y-18747707D01*
X26501247Y-18747707D02*
X26501247Y-18557231D01*
X26929819Y-19176279D02*
X25929819Y-19176279D01*
X25929819Y-19176279D02*
X26929819Y-19747707D01*
X26929819Y-19747707D02*
X25929819Y-19747707D01*
X26929819Y-20223898D02*
X25929819Y-20223898D01*
X25929819Y-20223898D02*
X25929819Y-20461993D01*
X25929819Y-20461993D02*
X25977438Y-20604850D01*
X25977438Y-20604850D02*
X26072676Y-20700088D01*
X26072676Y-20700088D02*
X26167914Y-20747707D01*
X26167914Y-20747707D02*
X26358390Y-20795326D01*
X26358390Y-20795326D02*
X26501247Y-20795326D01*
X26501247Y-20795326D02*
X26691723Y-20747707D01*
X26691723Y-20747707D02*
X26786961Y-20700088D01*
X26786961Y-20700088D02*
X26882200Y-20604850D01*
X26882200Y-20604850D02*
X26929819Y-20461993D01*
X26929819Y-20461993D02*
X26929819Y-20223898D01*
X43479819Y-61292469D02*
X43479819Y-60816279D01*
X43479819Y-60816279D02*
X42479819Y-60816279D01*
X42956009Y-61625803D02*
X42956009Y-61959136D01*
X43479819Y-62101993D02*
X43479819Y-61625803D01*
X43479819Y-61625803D02*
X42479819Y-61625803D01*
X42479819Y-61625803D02*
X42479819Y-62101993D01*
X43479819Y-62530565D02*
X42479819Y-62530565D01*
X42479819Y-62530565D02*
X42479819Y-62768660D01*
X42479819Y-62768660D02*
X42527438Y-62911517D01*
X42527438Y-62911517D02*
X42622676Y-63006755D01*
X42622676Y-63006755D02*
X42717914Y-63054374D01*
X42717914Y-63054374D02*
X42908390Y-63101993D01*
X42908390Y-63101993D02*
X43051247Y-63101993D01*
X43051247Y-63101993D02*
X43241723Y-63054374D01*
X43241723Y-63054374D02*
X43336961Y-63006755D01*
X43336961Y-63006755D02*
X43432200Y-62911517D01*
X43432200Y-62911517D02*
X43479819Y-62768660D01*
X43479819Y-62768660D02*
X43479819Y-62530565D01*
X43098866Y-63530565D02*
X43098866Y-64292470D01*
X15629819Y-61352469D02*
X15629819Y-60876279D01*
X15629819Y-60876279D02*
X14629819Y-60876279D01*
X15106009Y-61685803D02*
X15106009Y-62019136D01*
X15629819Y-62161993D02*
X15629819Y-61685803D01*
X15629819Y-61685803D02*
X14629819Y-61685803D01*
X14629819Y-61685803D02*
X14629819Y-62161993D01*
X15629819Y-62590565D02*
X14629819Y-62590565D01*
X14629819Y-62590565D02*
X14629819Y-62828660D01*
X14629819Y-62828660D02*
X14677438Y-62971517D01*
X14677438Y-62971517D02*
X14772676Y-63066755D01*
X14772676Y-63066755D02*
X14867914Y-63114374D01*
X14867914Y-63114374D02*
X15058390Y-63161993D01*
X15058390Y-63161993D02*
X15201247Y-63161993D01*
X15201247Y-63161993D02*
X15391723Y-63114374D01*
X15391723Y-63114374D02*
X15486961Y-63066755D01*
X15486961Y-63066755D02*
X15582200Y-62971517D01*
X15582200Y-62971517D02*
X15629819Y-62828660D01*
X15629819Y-62828660D02*
X15629819Y-62590565D01*
X15248866Y-63590565D02*
X15248866Y-64352470D01*
X15629819Y-63971517D02*
X14867914Y-63971517D01*
X56977438Y-18700088D02*
X56929819Y-18604850D01*
X56929819Y-18604850D02*
X56929819Y-18461993D01*
X56929819Y-18461993D02*
X56977438Y-18319136D01*
X56977438Y-18319136D02*
X57072676Y-18223898D01*
X57072676Y-18223898D02*
X57167914Y-18176279D01*
X57167914Y-18176279D02*
X57358390Y-18128660D01*
X57358390Y-18128660D02*
X57501247Y-18128660D01*
X57501247Y-18128660D02*
X57691723Y-18176279D01*
X57691723Y-18176279D02*
X57786961Y-18223898D01*
X57786961Y-18223898D02*
X57882200Y-18319136D01*
X57882200Y-18319136D02*
X57929819Y-18461993D01*
X57929819Y-18461993D02*
X57929819Y-18557231D01*
X57929819Y-18557231D02*
X57882200Y-18700088D01*
X57882200Y-18700088D02*
X57834580Y-18747707D01*
X57834580Y-18747707D02*
X57501247Y-18747707D01*
X57501247Y-18747707D02*
X57501247Y-18557231D01*
X57929819Y-19176279D02*
X56929819Y-19176279D01*
X56929819Y-19176279D02*
X57929819Y-19747707D01*
X57929819Y-19747707D02*
X56929819Y-19747707D01*
X57929819Y-20223898D02*
X56929819Y-20223898D01*
X56929819Y-20223898D02*
X56929819Y-20461993D01*
X56929819Y-20461993D02*
X56977438Y-20604850D01*
X56977438Y-20604850D02*
X57072676Y-20700088D01*
X57072676Y-20700088D02*
X57167914Y-20747707D01*
X57167914Y-20747707D02*
X57358390Y-20795326D01*
X57358390Y-20795326D02*
X57501247Y-20795326D01*
X57501247Y-20795326D02*
X57691723Y-20747707D01*
X57691723Y-20747707D02*
X57786961Y-20700088D01*
X57786961Y-20700088D02*
X57882200Y-20604850D01*
X57882200Y-20604850D02*
X57929819Y-20461993D01*
X57929819Y-20461993D02*
X57929819Y-20223898D01*
X32177438Y-64670088D02*
X32129819Y-64574850D01*
X32129819Y-64574850D02*
X32129819Y-64431993D01*
X32129819Y-64431993D02*
X32177438Y-64289136D01*
X32177438Y-64289136D02*
X32272676Y-64193898D01*
X32272676Y-64193898D02*
X32367914Y-64146279D01*
X32367914Y-64146279D02*
X32558390Y-64098660D01*
X32558390Y-64098660D02*
X32701247Y-64098660D01*
X32701247Y-64098660D02*
X32891723Y-64146279D01*
X32891723Y-64146279D02*
X32986961Y-64193898D01*
X32986961Y-64193898D02*
X33082200Y-64289136D01*
X33082200Y-64289136D02*
X33129819Y-64431993D01*
X33129819Y-64431993D02*
X33129819Y-64527231D01*
X33129819Y-64527231D02*
X33082200Y-64670088D01*
X33082200Y-64670088D02*
X33034580Y-64717707D01*
X33034580Y-64717707D02*
X32701247Y-64717707D01*
X32701247Y-64717707D02*
X32701247Y-64527231D01*
X33129819Y-65146279D02*
X32129819Y-65146279D01*
X32129819Y-65146279D02*
X33129819Y-65717707D01*
X33129819Y-65717707D02*
X32129819Y-65717707D01*
X33129819Y-66193898D02*
X32129819Y-66193898D01*
X32129819Y-66193898D02*
X32129819Y-66431993D01*
X32129819Y-66431993D02*
X32177438Y-66574850D01*
X32177438Y-66574850D02*
X32272676Y-66670088D01*
X32272676Y-66670088D02*
X32367914Y-66717707D01*
X32367914Y-66717707D02*
X32558390Y-66765326D01*
X32558390Y-66765326D02*
X32701247Y-66765326D01*
X32701247Y-66765326D02*
X32891723Y-66717707D01*
X32891723Y-66717707D02*
X32986961Y-66670088D01*
X32986961Y-66670088D02*
X33082200Y-66574850D01*
X33082200Y-66574850D02*
X33129819Y-66431993D01*
X33129819Y-66431993D02*
X33129819Y-66193898D01*
X32336009Y-18429612D02*
X32383628Y-18572469D01*
X32383628Y-18572469D02*
X32431247Y-18620088D01*
X32431247Y-18620088D02*
X32526485Y-18667707D01*
X32526485Y-18667707D02*
X32669342Y-18667707D01*
X32669342Y-18667707D02*
X32764580Y-18620088D01*
X32764580Y-18620088D02*
X32812200Y-18572469D01*
X32812200Y-18572469D02*
X32859819Y-18477231D01*
X32859819Y-18477231D02*
X32859819Y-18096279D01*
X32859819Y-18096279D02*
X31859819Y-18096279D01*
X31859819Y-18096279D02*
X31859819Y-18429612D01*
X31859819Y-18429612D02*
X31907438Y-18524850D01*
X31907438Y-18524850D02*
X31955057Y-18572469D01*
X31955057Y-18572469D02*
X32050295Y-18620088D01*
X32050295Y-18620088D02*
X32145533Y-18620088D01*
X32145533Y-18620088D02*
X32240771Y-18572469D01*
X32240771Y-18572469D02*
X32288390Y-18524850D01*
X32288390Y-18524850D02*
X32336009Y-18429612D01*
X32336009Y-18429612D02*
X32336009Y-18096279D01*
X32193152Y-19001041D02*
X32859819Y-19239136D01*
X32193152Y-19477231D02*
X32859819Y-19239136D01*
X32859819Y-19239136D02*
X33097914Y-19143898D01*
X33097914Y-19143898D02*
X33145533Y-19096279D01*
X33145533Y-19096279D02*
X33193152Y-19001041D01*
X31859819Y-20905803D02*
X32574104Y-20905803D01*
X32574104Y-20905803D02*
X32716961Y-20858184D01*
X32716961Y-20858184D02*
X32812200Y-20762946D01*
X32812200Y-20762946D02*
X32859819Y-20620089D01*
X32859819Y-20620089D02*
X32859819Y-20524851D01*
X32859819Y-21810565D02*
X32336009Y-21810565D01*
X32336009Y-21810565D02*
X32240771Y-21762946D01*
X32240771Y-21762946D02*
X32193152Y-21667708D01*
X32193152Y-21667708D02*
X32193152Y-21477232D01*
X32193152Y-21477232D02*
X32240771Y-21381994D01*
X32812200Y-21810565D02*
X32859819Y-21715327D01*
X32859819Y-21715327D02*
X32859819Y-21477232D01*
X32859819Y-21477232D02*
X32812200Y-21381994D01*
X32812200Y-21381994D02*
X32716961Y-21334375D01*
X32716961Y-21334375D02*
X32621723Y-21334375D01*
X32621723Y-21334375D02*
X32526485Y-21381994D01*
X32526485Y-21381994D02*
X32478866Y-21477232D01*
X32478866Y-21477232D02*
X32478866Y-21715327D01*
X32478866Y-21715327D02*
X32431247Y-21810565D01*
X32812200Y-22715327D02*
X32859819Y-22620089D01*
X32859819Y-22620089D02*
X32859819Y-22429613D01*
X32859819Y-22429613D02*
X32812200Y-22334375D01*
X32812200Y-22334375D02*
X32764580Y-22286756D01*
X32764580Y-22286756D02*
X32669342Y-22239137D01*
X32669342Y-22239137D02*
X32383628Y-22239137D01*
X32383628Y-22239137D02*
X32288390Y-22286756D01*
X32288390Y-22286756D02*
X32240771Y-22334375D01*
X32240771Y-22334375D02*
X32193152Y-22429613D01*
X32193152Y-22429613D02*
X32193152Y-22620089D01*
X32193152Y-22620089D02*
X32240771Y-22715327D01*
X32859819Y-23143899D02*
X31859819Y-23143899D01*
X32478866Y-23239137D02*
X32859819Y-23524851D01*
X32193152Y-23524851D02*
X32574104Y-23143899D01*
X32812200Y-23905804D02*
X32859819Y-24001042D01*
X32859819Y-24001042D02*
X32859819Y-24191518D01*
X32859819Y-24191518D02*
X32812200Y-24286756D01*
X32812200Y-24286756D02*
X32716961Y-24334375D01*
X32716961Y-24334375D02*
X32669342Y-24334375D01*
X32669342Y-24334375D02*
X32574104Y-24286756D01*
X32574104Y-24286756D02*
X32526485Y-24191518D01*
X32526485Y-24191518D02*
X32526485Y-24048661D01*
X32526485Y-24048661D02*
X32478866Y-23953423D01*
X32478866Y-23953423D02*
X32383628Y-23905804D01*
X32383628Y-23905804D02*
X32336009Y-23905804D01*
X32336009Y-23905804D02*
X32240771Y-23953423D01*
X32240771Y-23953423D02*
X32193152Y-24048661D01*
X32193152Y-24048661D02*
X32193152Y-24191518D01*
X32193152Y-24191518D02*
X32240771Y-24286756D01*
X32859819Y-24905804D02*
X32812200Y-24810566D01*
X32812200Y-24810566D02*
X32764580Y-24762947D01*
X32764580Y-24762947D02*
X32669342Y-24715328D01*
X32669342Y-24715328D02*
X32383628Y-24715328D01*
X32383628Y-24715328D02*
X32288390Y-24762947D01*
X32288390Y-24762947D02*
X32240771Y-24810566D01*
X32240771Y-24810566D02*
X32193152Y-24905804D01*
X32193152Y-24905804D02*
X32193152Y-25048661D01*
X32193152Y-25048661D02*
X32240771Y-25143899D01*
X32240771Y-25143899D02*
X32288390Y-25191518D01*
X32288390Y-25191518D02*
X32383628Y-25239137D01*
X32383628Y-25239137D02*
X32669342Y-25239137D01*
X32669342Y-25239137D02*
X32764580Y-25191518D01*
X32764580Y-25191518D02*
X32812200Y-25143899D01*
X32812200Y-25143899D02*
X32859819Y-25048661D01*
X32859819Y-25048661D02*
X32859819Y-24905804D01*
X32193152Y-25667709D02*
X32859819Y-25667709D01*
X32288390Y-25667709D02*
X32240771Y-25715328D01*
X32240771Y-25715328D02*
X32193152Y-25810566D01*
X32193152Y-25810566D02*
X32193152Y-25953423D01*
X32193152Y-25953423D02*
X32240771Y-26048661D01*
X32240771Y-26048661D02*
X32336009Y-26096280D01*
X32336009Y-26096280D02*
X32859819Y-26096280D01*
X32859819Y-27334376D02*
X31859819Y-27334376D01*
X31859819Y-27334376D02*
X32574104Y-27667709D01*
X32574104Y-27667709D02*
X31859819Y-28001042D01*
X31859819Y-28001042D02*
X32859819Y-28001042D01*
X32859819Y-29239138D02*
X31859819Y-29239138D01*
X32336009Y-29239138D02*
X32336009Y-29810566D01*
X32859819Y-29810566D02*
X31859819Y-29810566D01*
X32193152Y-30715328D02*
X32859819Y-30715328D01*
X32193152Y-30286757D02*
X32716961Y-30286757D01*
X32716961Y-30286757D02*
X32812200Y-30334376D01*
X32812200Y-30334376D02*
X32859819Y-30429614D01*
X32859819Y-30429614D02*
X32859819Y-30572471D01*
X32859819Y-30572471D02*
X32812200Y-30667709D01*
X32812200Y-30667709D02*
X32764580Y-30715328D01*
X33240771Y-32239138D02*
X33193152Y-32191519D01*
X33193152Y-32191519D02*
X33050295Y-32096281D01*
X33050295Y-32096281D02*
X32955057Y-32048662D01*
X32955057Y-32048662D02*
X32812200Y-32001043D01*
X32812200Y-32001043D02*
X32574104Y-31953424D01*
X32574104Y-31953424D02*
X32383628Y-31953424D01*
X32383628Y-31953424D02*
X32145533Y-32001043D01*
X32145533Y-32001043D02*
X32002676Y-32048662D01*
X32002676Y-32048662D02*
X31907438Y-32096281D01*
X31907438Y-32096281D02*
X31764580Y-32191519D01*
X31764580Y-32191519D02*
X31716961Y-32239138D01*
X32764580Y-33191519D02*
X32812200Y-33143900D01*
X32812200Y-33143900D02*
X32859819Y-33001043D01*
X32859819Y-33001043D02*
X32859819Y-32905805D01*
X32859819Y-32905805D02*
X32812200Y-32762948D01*
X32812200Y-32762948D02*
X32716961Y-32667710D01*
X32716961Y-32667710D02*
X32621723Y-32620091D01*
X32621723Y-32620091D02*
X32431247Y-32572472D01*
X32431247Y-32572472D02*
X32288390Y-32572472D01*
X32288390Y-32572472D02*
X32097914Y-32620091D01*
X32097914Y-32620091D02*
X32002676Y-32667710D01*
X32002676Y-32667710D02*
X31907438Y-32762948D01*
X31907438Y-32762948D02*
X31859819Y-32905805D01*
X31859819Y-32905805D02*
X31859819Y-33001043D01*
X31859819Y-33001043D02*
X31907438Y-33143900D01*
X31907438Y-33143900D02*
X31955057Y-33191519D01*
X33240771Y-33524853D02*
X33193152Y-33572472D01*
X33193152Y-33572472D02*
X33050295Y-33667710D01*
X33050295Y-33667710D02*
X32955057Y-33715329D01*
X32955057Y-33715329D02*
X32812200Y-33762948D01*
X32812200Y-33762948D02*
X32574104Y-33810567D01*
X32574104Y-33810567D02*
X32383628Y-33810567D01*
X32383628Y-33810567D02*
X32145533Y-33762948D01*
X32145533Y-33762948D02*
X32002676Y-33715329D01*
X32002676Y-33715329D02*
X31907438Y-33667710D01*
X31907438Y-33667710D02*
X31764580Y-33572472D01*
X31764580Y-33572472D02*
X31716961Y-33524853D01*
X32859819Y-35048663D02*
X31859819Y-35048663D01*
X31859819Y-35048663D02*
X32574104Y-35381996D01*
X32574104Y-35381996D02*
X31859819Y-35715329D01*
X31859819Y-35715329D02*
X32859819Y-35715329D01*
X32859819Y-36620091D02*
X32336009Y-36620091D01*
X32336009Y-36620091D02*
X32240771Y-36572472D01*
X32240771Y-36572472D02*
X32193152Y-36477234D01*
X32193152Y-36477234D02*
X32193152Y-36286758D01*
X32193152Y-36286758D02*
X32240771Y-36191520D01*
X32812200Y-36620091D02*
X32859819Y-36524853D01*
X32859819Y-36524853D02*
X32859819Y-36286758D01*
X32859819Y-36286758D02*
X32812200Y-36191520D01*
X32812200Y-36191520D02*
X32716961Y-36143901D01*
X32716961Y-36143901D02*
X32621723Y-36143901D01*
X32621723Y-36143901D02*
X32526485Y-36191520D01*
X32526485Y-36191520D02*
X32478866Y-36286758D01*
X32478866Y-36286758D02*
X32478866Y-36524853D01*
X32478866Y-36524853D02*
X32431247Y-36620091D01*
X32859819Y-37096282D02*
X32193152Y-37096282D01*
X32383628Y-37096282D02*
X32288390Y-37143901D01*
X32288390Y-37143901D02*
X32240771Y-37191520D01*
X32240771Y-37191520D02*
X32193152Y-37286758D01*
X32193152Y-37286758D02*
X32193152Y-37381996D01*
X32812200Y-38143901D02*
X32859819Y-38048663D01*
X32859819Y-38048663D02*
X32859819Y-37858187D01*
X32859819Y-37858187D02*
X32812200Y-37762949D01*
X32812200Y-37762949D02*
X32764580Y-37715330D01*
X32764580Y-37715330D02*
X32669342Y-37667711D01*
X32669342Y-37667711D02*
X32383628Y-37667711D01*
X32383628Y-37667711D02*
X32288390Y-37715330D01*
X32288390Y-37715330D02*
X32240771Y-37762949D01*
X32240771Y-37762949D02*
X32193152Y-37858187D01*
X32193152Y-37858187D02*
X32193152Y-38048663D01*
X32193152Y-38048663D02*
X32240771Y-38143901D01*
X32859819Y-38572473D02*
X31859819Y-38572473D01*
X32859819Y-39001044D02*
X32336009Y-39001044D01*
X32336009Y-39001044D02*
X32240771Y-38953425D01*
X32240771Y-38953425D02*
X32193152Y-38858187D01*
X32193152Y-38858187D02*
X32193152Y-38715330D01*
X32193152Y-38715330D02*
X32240771Y-38620092D01*
X32240771Y-38620092D02*
X32288390Y-38572473D01*
X31955057Y-40191521D02*
X31907438Y-40239140D01*
X31907438Y-40239140D02*
X31859819Y-40334378D01*
X31859819Y-40334378D02*
X31859819Y-40572473D01*
X31859819Y-40572473D02*
X31907438Y-40667711D01*
X31907438Y-40667711D02*
X31955057Y-40715330D01*
X31955057Y-40715330D02*
X32050295Y-40762949D01*
X32050295Y-40762949D02*
X32145533Y-40762949D01*
X32145533Y-40762949D02*
X32288390Y-40715330D01*
X32288390Y-40715330D02*
X32859819Y-40143902D01*
X32859819Y-40143902D02*
X32859819Y-40762949D01*
X31859819Y-41381997D02*
X31859819Y-41477235D01*
X31859819Y-41477235D02*
X31907438Y-41572473D01*
X31907438Y-41572473D02*
X31955057Y-41620092D01*
X31955057Y-41620092D02*
X32050295Y-41667711D01*
X32050295Y-41667711D02*
X32240771Y-41715330D01*
X32240771Y-41715330D02*
X32478866Y-41715330D01*
X32478866Y-41715330D02*
X32669342Y-41667711D01*
X32669342Y-41667711D02*
X32764580Y-41620092D01*
X32764580Y-41620092D02*
X32812200Y-41572473D01*
X32812200Y-41572473D02*
X32859819Y-41477235D01*
X32859819Y-41477235D02*
X32859819Y-41381997D01*
X32859819Y-41381997D02*
X32812200Y-41286759D01*
X32812200Y-41286759D02*
X32764580Y-41239140D01*
X32764580Y-41239140D02*
X32669342Y-41191521D01*
X32669342Y-41191521D02*
X32478866Y-41143902D01*
X32478866Y-41143902D02*
X32240771Y-41143902D01*
X32240771Y-41143902D02*
X32050295Y-41191521D01*
X32050295Y-41191521D02*
X31955057Y-41239140D01*
X31955057Y-41239140D02*
X31907438Y-41286759D01*
X31907438Y-41286759D02*
X31859819Y-41381997D01*
X31955057Y-42096283D02*
X31907438Y-42143902D01*
X31907438Y-42143902D02*
X31859819Y-42239140D01*
X31859819Y-42239140D02*
X31859819Y-42477235D01*
X31859819Y-42477235D02*
X31907438Y-42572473D01*
X31907438Y-42572473D02*
X31955057Y-42620092D01*
X31955057Y-42620092D02*
X32050295Y-42667711D01*
X32050295Y-42667711D02*
X32145533Y-42667711D01*
X32145533Y-42667711D02*
X32288390Y-42620092D01*
X32288390Y-42620092D02*
X32859819Y-42048664D01*
X32859819Y-42048664D02*
X32859819Y-42667711D01*
X32193152Y-43524854D02*
X32859819Y-43524854D01*
X31812200Y-43286759D02*
X32526485Y-43048664D01*
X32526485Y-43048664D02*
X32526485Y-43667711D01*
X32859819Y-46905807D02*
X32383628Y-46572474D01*
X32859819Y-46334379D02*
X31859819Y-46334379D01*
X31859819Y-46334379D02*
X31859819Y-46715331D01*
X31859819Y-46715331D02*
X31907438Y-46810569D01*
X31907438Y-46810569D02*
X31955057Y-46858188D01*
X31955057Y-46858188D02*
X32050295Y-46905807D01*
X32050295Y-46905807D02*
X32193152Y-46905807D01*
X32193152Y-46905807D02*
X32288390Y-46858188D01*
X32288390Y-46858188D02*
X32336009Y-46810569D01*
X32336009Y-46810569D02*
X32383628Y-46715331D01*
X32383628Y-46715331D02*
X32383628Y-46334379D01*
X32812200Y-47715331D02*
X32859819Y-47620093D01*
X32859819Y-47620093D02*
X32859819Y-47429617D01*
X32859819Y-47429617D02*
X32812200Y-47334379D01*
X32812200Y-47334379D02*
X32716961Y-47286760D01*
X32716961Y-47286760D02*
X32336009Y-47286760D01*
X32336009Y-47286760D02*
X32240771Y-47334379D01*
X32240771Y-47334379D02*
X32193152Y-47429617D01*
X32193152Y-47429617D02*
X32193152Y-47620093D01*
X32193152Y-47620093D02*
X32240771Y-47715331D01*
X32240771Y-47715331D02*
X32336009Y-47762950D01*
X32336009Y-47762950D02*
X32431247Y-47762950D01*
X32431247Y-47762950D02*
X32526485Y-47286760D01*
X32193152Y-48096284D02*
X32859819Y-48334379D01*
X32859819Y-48334379D02*
X32193152Y-48572474D01*
X32764580Y-48953427D02*
X32812200Y-49001046D01*
X32812200Y-49001046D02*
X32859819Y-48953427D01*
X32859819Y-48953427D02*
X32812200Y-48905808D01*
X32812200Y-48905808D02*
X32764580Y-48953427D01*
X32764580Y-48953427D02*
X32859819Y-48953427D01*
X31955057Y-50143903D02*
X31907438Y-50191522D01*
X31907438Y-50191522D02*
X31859819Y-50286760D01*
X31859819Y-50286760D02*
X31859819Y-50524855D01*
X31859819Y-50524855D02*
X31907438Y-50620093D01*
X31907438Y-50620093D02*
X31955057Y-50667712D01*
X31955057Y-50667712D02*
X32050295Y-50715331D01*
X32050295Y-50715331D02*
X32145533Y-50715331D01*
X32145533Y-50715331D02*
X32288390Y-50667712D01*
X32288390Y-50667712D02*
X32859819Y-50096284D01*
X32859819Y-50096284D02*
X32859819Y-50715331D01*
D11*
X7025912Y-24331153D02*
X7025912Y-25259725D01*
X7025912Y-25259725D02*
X7597341Y-24759725D01*
X7597341Y-24759725D02*
X7597341Y-24974010D01*
X7597341Y-24974010D02*
X7668769Y-25116868D01*
X7668769Y-25116868D02*
X7740198Y-25188296D01*
X7740198Y-25188296D02*
X7883055Y-25259725D01*
X7883055Y-25259725D02*
X8240198Y-25259725D01*
X8240198Y-25259725D02*
X8383055Y-25188296D01*
X8383055Y-25188296D02*
X8454484Y-25116868D01*
X8454484Y-25116868D02*
X8525912Y-24974010D01*
X8525912Y-24974010D02*
X8525912Y-24545439D01*
X8525912Y-24545439D02*
X8454484Y-24402582D01*
X8454484Y-24402582D02*
X8383055Y-24331153D01*
X7025912Y-26545439D02*
X7025912Y-26259724D01*
X7025912Y-26259724D02*
X7097341Y-26116867D01*
X7097341Y-26116867D02*
X7168769Y-26045439D01*
X7168769Y-26045439D02*
X7383055Y-25902581D01*
X7383055Y-25902581D02*
X7668769Y-25831153D01*
X7668769Y-25831153D02*
X8240198Y-25831153D01*
X8240198Y-25831153D02*
X8383055Y-25902581D01*
X8383055Y-25902581D02*
X8454484Y-25974010D01*
X8454484Y-25974010D02*
X8525912Y-26116867D01*
X8525912Y-26116867D02*
X8525912Y-26402581D01*
X8525912Y-26402581D02*
X8454484Y-26545439D01*
X8454484Y-26545439D02*
X8383055Y-26616867D01*
X8383055Y-26616867D02*
X8240198Y-26688296D01*
X8240198Y-26688296D02*
X7883055Y-26688296D01*
X7883055Y-26688296D02*
X7740198Y-26616867D01*
X7740198Y-26616867D02*
X7668769Y-26545439D01*
X7668769Y-26545439D02*
X7597341Y-26402581D01*
X7597341Y-26402581D02*
X7597341Y-26116867D01*
X7597341Y-26116867D02*
X7668769Y-25974010D01*
X7668769Y-25974010D02*
X7740198Y-25902581D01*
X7740198Y-25902581D02*
X7883055Y-25831153D01*
X7525912Y-27188295D02*
X8525912Y-27545438D01*
X8525912Y-27545438D02*
X7525912Y-27902581D01*
X7525912Y-30259724D02*
X8525912Y-30259724D01*
X6954484Y-29902581D02*
X8025912Y-29545438D01*
X8025912Y-29545438D02*
X8025912Y-30474009D01*
X7025912Y-31331152D02*
X7025912Y-31474009D01*
X7025912Y-31474009D02*
X7097341Y-31616866D01*
X7097341Y-31616866D02*
X7168769Y-31688295D01*
X7168769Y-31688295D02*
X7311626Y-31759723D01*
X7311626Y-31759723D02*
X7597341Y-31831152D01*
X7597341Y-31831152D02*
X7954484Y-31831152D01*
X7954484Y-31831152D02*
X8240198Y-31759723D01*
X8240198Y-31759723D02*
X8383055Y-31688295D01*
X8383055Y-31688295D02*
X8454484Y-31616866D01*
X8454484Y-31616866D02*
X8525912Y-31474009D01*
X8525912Y-31474009D02*
X8525912Y-31331152D01*
X8525912Y-31331152D02*
X8454484Y-31188295D01*
X8454484Y-31188295D02*
X8383055Y-31116866D01*
X8383055Y-31116866D02*
X8240198Y-31045437D01*
X8240198Y-31045437D02*
X7954484Y-30974009D01*
X7954484Y-30974009D02*
X7597341Y-30974009D01*
X7597341Y-30974009D02*
X7311626Y-31045437D01*
X7311626Y-31045437D02*
X7168769Y-31116866D01*
X7168769Y-31116866D02*
X7097341Y-31188295D01*
X7097341Y-31188295D02*
X7025912Y-31331152D01*
X7525912Y-32331151D02*
X8525912Y-32616866D01*
X8525912Y-32616866D02*
X7811626Y-32902580D01*
X7811626Y-32902580D02*
X8525912Y-33188294D01*
X8525912Y-33188294D02*
X7525912Y-33474008D01*
X10797971Y-25331153D02*
X10869400Y-25259725D01*
X10869400Y-25259725D02*
X10940828Y-25045439D01*
X10940828Y-25045439D02*
X10940828Y-24902582D01*
X10940828Y-24902582D02*
X10869400Y-24688296D01*
X10869400Y-24688296D02*
X10726542Y-24545439D01*
X10726542Y-24545439D02*
X10583685Y-24474010D01*
X10583685Y-24474010D02*
X10297971Y-24402582D01*
X10297971Y-24402582D02*
X10083685Y-24402582D01*
X10083685Y-24402582D02*
X9797971Y-24474010D01*
X9797971Y-24474010D02*
X9655114Y-24545439D01*
X9655114Y-24545439D02*
X9512257Y-24688296D01*
X9512257Y-24688296D02*
X9440828Y-24902582D01*
X9440828Y-24902582D02*
X9440828Y-25045439D01*
X9440828Y-25045439D02*
X9512257Y-25259725D01*
X9512257Y-25259725D02*
X9583685Y-25331153D01*
X9440828Y-26259725D02*
X9440828Y-26545439D01*
X9440828Y-26545439D02*
X9512257Y-26688296D01*
X9512257Y-26688296D02*
X9655114Y-26831153D01*
X9655114Y-26831153D02*
X9940828Y-26902582D01*
X9940828Y-26902582D02*
X10440828Y-26902582D01*
X10440828Y-26902582D02*
X10726542Y-26831153D01*
X10726542Y-26831153D02*
X10869400Y-26688296D01*
X10869400Y-26688296D02*
X10940828Y-26545439D01*
X10940828Y-26545439D02*
X10940828Y-26259725D01*
X10940828Y-26259725D02*
X10869400Y-26116868D01*
X10869400Y-26116868D02*
X10726542Y-25974010D01*
X10726542Y-25974010D02*
X10440828Y-25902582D01*
X10440828Y-25902582D02*
X9940828Y-25902582D01*
X9940828Y-25902582D02*
X9655114Y-25974010D01*
X9655114Y-25974010D02*
X9512257Y-26116868D01*
X9512257Y-26116868D02*
X9440828Y-26259725D01*
X10155114Y-28045439D02*
X10226542Y-28259725D01*
X10226542Y-28259725D02*
X10297971Y-28331154D01*
X10297971Y-28331154D02*
X10440828Y-28402582D01*
X10440828Y-28402582D02*
X10655114Y-28402582D01*
X10655114Y-28402582D02*
X10797971Y-28331154D01*
X10797971Y-28331154D02*
X10869400Y-28259725D01*
X10869400Y-28259725D02*
X10940828Y-28116868D01*
X10940828Y-28116868D02*
X10940828Y-27545439D01*
X10940828Y-27545439D02*
X9440828Y-27545439D01*
X9440828Y-27545439D02*
X9440828Y-28045439D01*
X9440828Y-28045439D02*
X9512257Y-28188297D01*
X9512257Y-28188297D02*
X9583685Y-28259725D01*
X9583685Y-28259725D02*
X9726542Y-28331154D01*
X9726542Y-28331154D02*
X9869400Y-28331154D01*
X9869400Y-28331154D02*
X10012257Y-28259725D01*
X10012257Y-28259725D02*
X10083685Y-28188297D01*
X10083685Y-28188297D02*
X10155114Y-28045439D01*
X10155114Y-28045439D02*
X10155114Y-27545439D01*
X10940828Y-30902582D02*
X10940828Y-30188296D01*
X10940828Y-30188296D02*
X9440828Y-30188296D01*
X10155114Y-31402582D02*
X10155114Y-31902582D01*
X10940828Y-32116868D02*
X10940828Y-31402582D01*
X10940828Y-31402582D02*
X9440828Y-31402582D01*
X9440828Y-31402582D02*
X9440828Y-32116868D01*
X10940828Y-32759725D02*
X9440828Y-32759725D01*
X9440828Y-32759725D02*
X9440828Y-33116868D01*
X9440828Y-33116868D02*
X9512257Y-33331154D01*
X9512257Y-33331154D02*
X9655114Y-33474011D01*
X9655114Y-33474011D02*
X9797971Y-33545440D01*
X9797971Y-33545440D02*
X10083685Y-33616868D01*
X10083685Y-33616868D02*
X10297971Y-33616868D01*
X10297971Y-33616868D02*
X10583685Y-33545440D01*
X10583685Y-33545440D02*
X10726542Y-33474011D01*
X10726542Y-33474011D02*
X10869400Y-33331154D01*
X10869400Y-33331154D02*
X10940828Y-33116868D01*
X10940828Y-33116868D02*
X10940828Y-32759725D01*
X10940828Y-36045440D02*
X9440828Y-36045440D01*
X10869400Y-36045440D02*
X10940828Y-35902582D01*
X10940828Y-35902582D02*
X10940828Y-35616868D01*
X10940828Y-35616868D02*
X10869400Y-35474011D01*
X10869400Y-35474011D02*
X10797971Y-35402582D01*
X10797971Y-35402582D02*
X10655114Y-35331154D01*
X10655114Y-35331154D02*
X10226542Y-35331154D01*
X10226542Y-35331154D02*
X10083685Y-35402582D01*
X10083685Y-35402582D02*
X10012257Y-35474011D01*
X10012257Y-35474011D02*
X9940828Y-35616868D01*
X9940828Y-35616868D02*
X9940828Y-35902582D01*
X9940828Y-35902582D02*
X10012257Y-36045440D01*
X10940828Y-36759725D02*
X9940828Y-36759725D01*
X10226542Y-36759725D02*
X10083685Y-36831154D01*
X10083685Y-36831154D02*
X10012257Y-36902583D01*
X10012257Y-36902583D02*
X9940828Y-37045440D01*
X9940828Y-37045440D02*
X9940828Y-37188297D01*
X10940828Y-37688296D02*
X9940828Y-37688296D01*
X9440828Y-37688296D02*
X9512257Y-37616868D01*
X9512257Y-37616868D02*
X9583685Y-37688296D01*
X9583685Y-37688296D02*
X9512257Y-37759725D01*
X9512257Y-37759725D02*
X9440828Y-37688296D01*
X9440828Y-37688296D02*
X9583685Y-37688296D01*
X9940828Y-38259725D02*
X10940828Y-38616868D01*
X10940828Y-38616868D02*
X9940828Y-38974011D01*
X10869400Y-40116868D02*
X10940828Y-39974011D01*
X10940828Y-39974011D02*
X10940828Y-39688297D01*
X10940828Y-39688297D02*
X10869400Y-39545439D01*
X10869400Y-39545439D02*
X10726542Y-39474011D01*
X10726542Y-39474011D02*
X10155114Y-39474011D01*
X10155114Y-39474011D02*
X10012257Y-39545439D01*
X10012257Y-39545439D02*
X9940828Y-39688297D01*
X9940828Y-39688297D02*
X9940828Y-39974011D01*
X9940828Y-39974011D02*
X10012257Y-40116868D01*
X10012257Y-40116868D02*
X10155114Y-40188297D01*
X10155114Y-40188297D02*
X10297971Y-40188297D01*
X10297971Y-40188297D02*
X10440828Y-39474011D01*
X10940828Y-40831153D02*
X9940828Y-40831153D01*
X10226542Y-40831153D02*
X10083685Y-40902582D01*
X10083685Y-40902582D02*
X10012257Y-40974011D01*
X10012257Y-40974011D02*
X9940828Y-41116868D01*
X9940828Y-41116868D02*
X9940828Y-41259725D01*
D10*
X63177438Y-64670088D02*
X63129819Y-64574850D01*
X63129819Y-64574850D02*
X63129819Y-64431993D01*
X63129819Y-64431993D02*
X63177438Y-64289136D01*
X63177438Y-64289136D02*
X63272676Y-64193898D01*
X63272676Y-64193898D02*
X63367914Y-64146279D01*
X63367914Y-64146279D02*
X63558390Y-64098660D01*
X63558390Y-64098660D02*
X63701247Y-64098660D01*
X63701247Y-64098660D02*
X63891723Y-64146279D01*
X63891723Y-64146279D02*
X63986961Y-64193898D01*
X63986961Y-64193898D02*
X64082200Y-64289136D01*
X64082200Y-64289136D02*
X64129819Y-64431993D01*
X64129819Y-64431993D02*
X64129819Y-64527231D01*
X64129819Y-64527231D02*
X64082200Y-64670088D01*
X64082200Y-64670088D02*
X64034580Y-64717707D01*
X64034580Y-64717707D02*
X63701247Y-64717707D01*
X63701247Y-64717707D02*
X63701247Y-64527231D01*
X64129819Y-65146279D02*
X63129819Y-65146279D01*
X63129819Y-65146279D02*
X64129819Y-65717707D01*
X64129819Y-65717707D02*
X63129819Y-65717707D01*
X64129819Y-66193898D02*
X63129819Y-66193898D01*
X63129819Y-66193898D02*
X63129819Y-66431993D01*
X63129819Y-66431993D02*
X63177438Y-66574850D01*
X63177438Y-66574850D02*
X63272676Y-66670088D01*
X63272676Y-66670088D02*
X63367914Y-66717707D01*
X63367914Y-66717707D02*
X63558390Y-66765326D01*
X63558390Y-66765326D02*
X63701247Y-66765326D01*
X63701247Y-66765326D02*
X63891723Y-66717707D01*
X63891723Y-66717707D02*
X63986961Y-66670088D01*
X63986961Y-66670088D02*
X64082200Y-66574850D01*
X64082200Y-66574850D02*
X64129819Y-66431993D01*
X64129819Y-66431993D02*
X64129819Y-66193898D01*
X80938866Y-17986279D02*
X80938866Y-18748184D01*
X81319819Y-18367231D02*
X80557914Y-18367231D01*
X80415057Y-19176755D02*
X80367438Y-19224374D01*
X80367438Y-19224374D02*
X80319819Y-19319612D01*
X80319819Y-19319612D02*
X80319819Y-19557707D01*
X80319819Y-19557707D02*
X80367438Y-19652945D01*
X80367438Y-19652945D02*
X80415057Y-19700564D01*
X80415057Y-19700564D02*
X80510295Y-19748183D01*
X80510295Y-19748183D02*
X80605533Y-19748183D01*
X80605533Y-19748183D02*
X80748390Y-19700564D01*
X80748390Y-19700564D02*
X81319819Y-19129136D01*
X81319819Y-19129136D02*
X81319819Y-19748183D01*
X80319819Y-20367231D02*
X80319819Y-20462469D01*
X80319819Y-20462469D02*
X80367438Y-20557707D01*
X80367438Y-20557707D02*
X80415057Y-20605326D01*
X80415057Y-20605326D02*
X80510295Y-20652945D01*
X80510295Y-20652945D02*
X80700771Y-20700564D01*
X80700771Y-20700564D02*
X80938866Y-20700564D01*
X80938866Y-20700564D02*
X81129342Y-20652945D01*
X81129342Y-20652945D02*
X81224580Y-20605326D01*
X81224580Y-20605326D02*
X81272200Y-20557707D01*
X81272200Y-20557707D02*
X81319819Y-20462469D01*
X81319819Y-20462469D02*
X81319819Y-20367231D01*
X81319819Y-20367231D02*
X81272200Y-20271993D01*
X81272200Y-20271993D02*
X81224580Y-20224374D01*
X81224580Y-20224374D02*
X81129342Y-20176755D01*
X81129342Y-20176755D02*
X80938866Y-20129136D01*
X80938866Y-20129136D02*
X80700771Y-20129136D01*
X80700771Y-20129136D02*
X80510295Y-20176755D01*
X80510295Y-20176755D02*
X80415057Y-20224374D01*
X80415057Y-20224374D02*
X80367438Y-20271993D01*
X80367438Y-20271993D02*
X80319819Y-20367231D01*
X80653152Y-21033898D02*
X81319819Y-21271993D01*
X81319819Y-21271993D02*
X80653152Y-21510088D01*
X49938866Y-17986279D02*
X49938866Y-18748184D01*
X50319819Y-18367231D02*
X49557914Y-18367231D01*
X49415057Y-19176755D02*
X49367438Y-19224374D01*
X49367438Y-19224374D02*
X49319819Y-19319612D01*
X49319819Y-19319612D02*
X49319819Y-19557707D01*
X49319819Y-19557707D02*
X49367438Y-19652945D01*
X49367438Y-19652945D02*
X49415057Y-19700564D01*
X49415057Y-19700564D02*
X49510295Y-19748183D01*
X49510295Y-19748183D02*
X49605533Y-19748183D01*
X49605533Y-19748183D02*
X49748390Y-19700564D01*
X49748390Y-19700564D02*
X50319819Y-19129136D01*
X50319819Y-19129136D02*
X50319819Y-19748183D01*
X49319819Y-20367231D02*
X49319819Y-20462469D01*
X49319819Y-20462469D02*
X49367438Y-20557707D01*
X49367438Y-20557707D02*
X49415057Y-20605326D01*
X49415057Y-20605326D02*
X49510295Y-20652945D01*
X49510295Y-20652945D02*
X49700771Y-20700564D01*
X49700771Y-20700564D02*
X49938866Y-20700564D01*
X49938866Y-20700564D02*
X50129342Y-20652945D01*
X50129342Y-20652945D02*
X50224580Y-20605326D01*
X50224580Y-20605326D02*
X50272200Y-20557707D01*
X50272200Y-20557707D02*
X50319819Y-20462469D01*
X50319819Y-20462469D02*
X50319819Y-20367231D01*
X50319819Y-20367231D02*
X50272200Y-20271993D01*
X50272200Y-20271993D02*
X50224580Y-20224374D01*
X50224580Y-20224374D02*
X50129342Y-20176755D01*
X50129342Y-20176755D02*
X49938866Y-20129136D01*
X49938866Y-20129136D02*
X49700771Y-20129136D01*
X49700771Y-20129136D02*
X49510295Y-20176755D01*
X49510295Y-20176755D02*
X49415057Y-20224374D01*
X49415057Y-20224374D02*
X49367438Y-20271993D01*
X49367438Y-20271993D02*
X49319819Y-20367231D01*
X49653152Y-21033898D02*
X50319819Y-21271993D01*
X50319819Y-21271993D02*
X49653152Y-21510088D01*
M02*
