G04 #@! TF.GenerationSoftware,KiCad,Pcbnew,8.0.0*
G04 #@! TF.CreationDate,2024-02-29T15:25:12+11:00*
G04 #@! TF.ProjectId,panel,70616e65-6c2e-46b6-9963-61645f706362,rev?*
G04 #@! TF.SameCoordinates,Original*
G04 #@! TF.FileFunction,Copper,L2,Bot*
G04 #@! TF.FilePolarity,Positive*
%FSLAX46Y46*%
G04 Gerber Fmt 4.6, Leading zero omitted, Abs format (unit mm)*
G04 Created by KiCad (PCBNEW 8.0.0) date 2024-02-29 15:25:12*
%MOMM*%
%LPD*%
G01*
G04 APERTURE LIST*
G04 #@! TA.AperFunction,ComponentPad*
%ADD10R,1.700000X1.700000*%
G04 #@! TD*
G04 #@! TA.AperFunction,ComponentPad*
%ADD11O,1.700000X1.700000*%
G04 #@! TD*
G04 #@! TA.AperFunction,SMDPad,CuDef*
%ADD12C,1.000000*%
G04 #@! TD*
G04 #@! TA.AperFunction,ViaPad*
%ADD13C,0.800000*%
G04 #@! TD*
G04 #@! TA.AperFunction,ViaPad*
%ADD14C,0.600000*%
G04 #@! TD*
G04 #@! TA.AperFunction,Conductor*
%ADD15C,3.000000*%
G04 #@! TD*
G04 #@! TA.AperFunction,Conductor*
%ADD16C,0.381000*%
G04 #@! TD*
G04 APERTURE END LIST*
D10*
G04 #@! TO.P,J3,1,Pin_1*
G04 #@! TO.N,Board_2-SHDN*
X63900000Y-58764500D03*
D11*
G04 #@! TO.P,J3,2,Pin_2*
G04 #@! TO.N,Board_2-GND*
X63900000Y-61304500D03*
G04 #@! TD*
D10*
G04 #@! TO.P,J3,1,Pin_1*
G04 #@! TO.N,Board_0-SHDN*
X1900000Y-58764500D03*
D11*
G04 #@! TO.P,J3,2,Pin_2*
G04 #@! TO.N,Board_0-GND*
X1900000Y-61304500D03*
G04 #@! TD*
D10*
G04 #@! TO.P,J2,1,Pin_1*
G04 #@! TO.N,Board_2-LED+*
X76945000Y-66269500D03*
D11*
G04 #@! TO.P,J2,2,Pin_2*
G04 #@! TO.N,Board_2-LED-*
X74405000Y-66269500D03*
G04 #@! TD*
D10*
G04 #@! TO.P,J2,1,Pin_1*
G04 #@! TO.N,Board_1-LED+*
X45945000Y-66269500D03*
D11*
G04 #@! TO.P,J2,2,Pin_2*
G04 #@! TO.N,Board_1-LED-*
X43405000Y-66269500D03*
G04 #@! TD*
D10*
G04 #@! TO.P,J1,1,Pin_1*
G04 #@! TO.N,Board_0-VBUS*
X20925000Y-19749500D03*
D11*
G04 #@! TO.P,J1,2,Pin_2*
G04 #@! TO.N,Board_0-GND*
X23465000Y-19749500D03*
G04 #@! TD*
D10*
G04 #@! TO.P,J2,1,Pin_1*
G04 #@! TO.N,Board_0-LED+*
X14945000Y-66269500D03*
D11*
G04 #@! TO.P,J2,2,Pin_2*
G04 #@! TO.N,Board_0-LED-*
X12405000Y-66269500D03*
G04 #@! TD*
D10*
G04 #@! TO.P,J1,1,Pin_1*
G04 #@! TO.N,Board_2-VBUS*
X82925000Y-19749500D03*
D11*
G04 #@! TO.P,J1,2,Pin_2*
G04 #@! TO.N,Board_2-GND*
X85465000Y-19749500D03*
G04 #@! TD*
D10*
G04 #@! TO.P,J3,1,Pin_1*
G04 #@! TO.N,Board_1-SHDN*
X32900000Y-58764500D03*
D11*
G04 #@! TO.P,J3,2,Pin_2*
G04 #@! TO.N,Board_1-GND*
X32900000Y-61304500D03*
G04 #@! TD*
D10*
G04 #@! TO.P,J1,1,Pin_1*
G04 #@! TO.N,Board_1-VBUS*
X51925000Y-19749500D03*
D11*
G04 #@! TO.P,J1,2,Pin_2*
G04 #@! TO.N,Board_1-GND*
X54465000Y-19749500D03*
G04 #@! TD*
D12*
G04 #@! TO.P,KiKit_FID_B_1,*
G04 #@! TO.N,*
X5000000Y-3000000D03*
G04 #@! TD*
G04 #@! TO.P,KiKit_FID_B_2,*
G04 #@! TO.N,*
X85000000Y-3000000D03*
G04 #@! TD*
G04 #@! TO.P,KiKit_FID_B_3,*
G04 #@! TO.N,*
X5000000Y-83499500D03*
G04 #@! TD*
G04 #@! TO.P,KiKit_FID_B_4,*
G04 #@! TO.N,*
X85000000Y-83499500D03*
G04 #@! TD*
D13*
G04 #@! TO.N,Board_0-GND*
X5000000Y-32249500D03*
X3000000Y-36249500D03*
X12500000Y-22249500D03*
X17500000Y-33249500D03*
X10750000Y-43249500D03*
D14*
X22500000Y-33249500D03*
D13*
X23500000Y-57999500D03*
X21750000Y-63749500D03*
X3000000Y-40249500D03*
X24500000Y-26249500D03*
D14*
X10370000Y-61439500D03*
D13*
X17500000Y-38249500D03*
X23500000Y-26249500D03*
D14*
X11870000Y-58359500D03*
D13*
X12750000Y-43249500D03*
X23500000Y-55999500D03*
X24500000Y-25249500D03*
X14500000Y-31249500D03*
X15500000Y-25249500D03*
X5500000Y-31249500D03*
X20750000Y-63749500D03*
D14*
X1880000Y-62759500D03*
D13*
X3000000Y-42249500D03*
X15500000Y-35249500D03*
D14*
X22500000Y-32249500D03*
D13*
X5500000Y-46749500D03*
X6250000Y-55999500D03*
X11750000Y-43249500D03*
X16500000Y-35249500D03*
D14*
X23500000Y-37749500D03*
D13*
X16500000Y-34249500D03*
X15500000Y-30249500D03*
D14*
X10330000Y-59019500D03*
D13*
X23500000Y-30249500D03*
X3500000Y-29249500D03*
X3000000Y-43249500D03*
X5500000Y-19249500D03*
X2500000Y-68249500D03*
X22250000Y-53749500D03*
X22250000Y-54749500D03*
X8750000Y-43249500D03*
X23500000Y-18249500D03*
X23500000Y-25249500D03*
X9000000Y-55749500D03*
X14750000Y-43249500D03*
X1500000Y-68249500D03*
D14*
X22500000Y-35249500D03*
D13*
X17500000Y-30249500D03*
X14750000Y-44249500D03*
X17500000Y-35249500D03*
X22250000Y-52749500D03*
X15500000Y-31249500D03*
X22500000Y-58499500D03*
X15750000Y-53999500D03*
X3500000Y-68249500D03*
X23750000Y-62749500D03*
X15500000Y-32249500D03*
X3500000Y-31249500D03*
X23750000Y-61749500D03*
X8750000Y-45249500D03*
X13750000Y-43249500D03*
X23750000Y-59749500D03*
X23500000Y-24249500D03*
X4500000Y-31249500D03*
X17500000Y-25249500D03*
X17500000Y-36249500D03*
X22500000Y-31249500D03*
X23750000Y-60749500D03*
X21000000Y-58499500D03*
X15500000Y-26249500D03*
X9750000Y-43249500D03*
X23750000Y-63749500D03*
D14*
X8770000Y-61449500D03*
D13*
X3000000Y-35249500D03*
X14500000Y-22249500D03*
X11500000Y-22249500D03*
X14500000Y-63749500D03*
X23500000Y-27249500D03*
X23500000Y-29249500D03*
D14*
X5500000Y-62249500D03*
D13*
X4750000Y-43249500D03*
X3500000Y-19249500D03*
X20250000Y-54749500D03*
X15500000Y-29249500D03*
X9000000Y-53499500D03*
X11000000Y-54249500D03*
X8750000Y-46249500D03*
X13750000Y-55249500D03*
X9750000Y-47249500D03*
X8750000Y-44249500D03*
X9750000Y-46249500D03*
D14*
X7130000Y-62299500D03*
D13*
X3000000Y-38249500D03*
X5500000Y-44749500D03*
X15500000Y-33249500D03*
X16500000Y-29249500D03*
X24500000Y-31249500D03*
X23500000Y-49999500D03*
X15500000Y-28249500D03*
X20250000Y-53749500D03*
D14*
X22500000Y-36249500D03*
D13*
X22750000Y-63749500D03*
X23500000Y-31249500D03*
X12000000Y-55749500D03*
X15500000Y-27249500D03*
X15750000Y-54999500D03*
X13500000Y-30249500D03*
X24500000Y-28249500D03*
X9500000Y-22249500D03*
X5500000Y-47749500D03*
X14500000Y-30249500D03*
X3000000Y-34249500D03*
X16500000Y-26249500D03*
D14*
X22500000Y-34249500D03*
D13*
X13500000Y-22249500D03*
X7750000Y-43249500D03*
X3000000Y-39249500D03*
X23500000Y-51999500D03*
X6500000Y-22249500D03*
D14*
X22500000Y-37249500D03*
D13*
X3500000Y-30249500D03*
X3500000Y-32249500D03*
X22500000Y-28249500D03*
X23500000Y-56999500D03*
X16500000Y-33249500D03*
X3500000Y-23249500D03*
D14*
X12870000Y-56829500D03*
D13*
X22500000Y-30249500D03*
X7500000Y-22249500D03*
X9750000Y-48249500D03*
X17500000Y-24249500D03*
X23500000Y-28249500D03*
X3000000Y-33249500D03*
X5500000Y-48749500D03*
X3500000Y-27249500D03*
X24500000Y-27249500D03*
X17500000Y-31249500D03*
X8000000Y-53499500D03*
D14*
X15120000Y-56939500D03*
D13*
X8500000Y-22249500D03*
X24500000Y-30249500D03*
X8000000Y-55749500D03*
X15500000Y-24249500D03*
X4500000Y-19249500D03*
X14750000Y-59749500D03*
X12000000Y-54749500D03*
X3500000Y-24249500D03*
X16500000Y-36249500D03*
X14750000Y-55249500D03*
X15500000Y-36249500D03*
X9000000Y-54499500D03*
X3500000Y-20249500D03*
X5750000Y-43249500D03*
X10000000Y-53499500D03*
X3500000Y-28249500D03*
X20250000Y-52749500D03*
X1500000Y-51249500D03*
X23500000Y-53999500D03*
X3000000Y-37249500D03*
X9750000Y-44249500D03*
X1500000Y-52249500D03*
X15500000Y-23249500D03*
X3500000Y-26249500D03*
X8750000Y-47249500D03*
X13750000Y-44249500D03*
X13500000Y-31249500D03*
X9750000Y-45249500D03*
X3500000Y-21249500D03*
X16500000Y-25249500D03*
X6750000Y-43249500D03*
D14*
X3640000Y-61479500D03*
D13*
X24500000Y-29249500D03*
X15500000Y-34249500D03*
X10750000Y-44249500D03*
X16500000Y-30249500D03*
X22500000Y-29249500D03*
X23500000Y-50999500D03*
X17500000Y-34249500D03*
X12750000Y-55249500D03*
X11000000Y-55749500D03*
X17500000Y-29249500D03*
X23500000Y-52999500D03*
X17500000Y-26249500D03*
X3500000Y-25249500D03*
X15500000Y-22249500D03*
X17500000Y-37249500D03*
X5500000Y-45749500D03*
X23500000Y-54999500D03*
X3500000Y-22249500D03*
X16500000Y-31249500D03*
D14*
X15870000Y-58339500D03*
D13*
X23500000Y-21249500D03*
X6250000Y-54999500D03*
X6000000Y-49749500D03*
X10500000Y-22249500D03*
X3000000Y-41249500D03*
X8000000Y-54499500D03*
G04 #@! TO.N,Board_0-VBUS*
X17000000Y-46249500D03*
X18500000Y-60999500D03*
X17000000Y-45249500D03*
X18000000Y-48249500D03*
D14*
X15350000Y-52209000D03*
D13*
X18000000Y-47249500D03*
X18500000Y-59999500D03*
X17000000Y-43249500D03*
X17000000Y-47249500D03*
X17500000Y-60999500D03*
X18000000Y-43249500D03*
X17500000Y-61999500D03*
X17000000Y-44249500D03*
X18000000Y-45249500D03*
X17500000Y-59999500D03*
X18000000Y-44249500D03*
X18000000Y-46249500D03*
X17000000Y-48249500D03*
X18500000Y-61999500D03*
G04 #@! TO.N,Board_1-GND*
X47500000Y-26249500D03*
X47500000Y-25249500D03*
X34500000Y-32249500D03*
X47500000Y-35249500D03*
X54500000Y-57999500D03*
X54500000Y-49999500D03*
X44750000Y-43249500D03*
X46500000Y-28249500D03*
X53250000Y-53749500D03*
X43000000Y-54749500D03*
X40500000Y-22249500D03*
X54500000Y-50999500D03*
X55500000Y-26249500D03*
X41750000Y-44249500D03*
X53250000Y-52749500D03*
X54500000Y-24249500D03*
X40000000Y-53499500D03*
X53500000Y-58499500D03*
X35500000Y-19249500D03*
X46500000Y-24249500D03*
X42000000Y-55749500D03*
X46500000Y-22249500D03*
X37500000Y-22249500D03*
X34500000Y-27249500D03*
X34000000Y-43249500D03*
D14*
X42870000Y-58359500D03*
D13*
X48500000Y-38249500D03*
X44500000Y-30249500D03*
X55500000Y-30249500D03*
X54500000Y-31249500D03*
X55500000Y-29249500D03*
X51250000Y-54749500D03*
X34500000Y-23249500D03*
X36000000Y-32249500D03*
X32500000Y-51249500D03*
X54500000Y-51999500D03*
X34000000Y-34249500D03*
X46500000Y-34249500D03*
X34000000Y-42249500D03*
X43750000Y-55249500D03*
X34000000Y-36249500D03*
X53500000Y-30249500D03*
X40750000Y-45249500D03*
X34500000Y-28249500D03*
X45500000Y-31249500D03*
X48500000Y-26249500D03*
X39750000Y-43249500D03*
X41750000Y-43249500D03*
X53250000Y-54749500D03*
X40750000Y-43249500D03*
X34500000Y-20249500D03*
X48500000Y-33249500D03*
X35750000Y-43249500D03*
D14*
X32880000Y-62759500D03*
D13*
X54500000Y-26249500D03*
X36500000Y-31249500D03*
X34500000Y-25249500D03*
X54750000Y-62749500D03*
X34000000Y-40249500D03*
X53500000Y-31249500D03*
X45750000Y-43249500D03*
X55500000Y-25249500D03*
D14*
X53500000Y-35249500D03*
D13*
X46500000Y-31249500D03*
X42000000Y-54249500D03*
X46500000Y-25249500D03*
X39750000Y-44249500D03*
X34500000Y-21249500D03*
X32500000Y-52249500D03*
X46500000Y-36249500D03*
X34500000Y-31249500D03*
X36500000Y-44749500D03*
X35500000Y-31249500D03*
X44500000Y-22249500D03*
D14*
X53500000Y-32249500D03*
X53500000Y-34249500D03*
D13*
X40750000Y-44249500D03*
X44750000Y-55249500D03*
X37250000Y-55999500D03*
X41500000Y-22249500D03*
X42500000Y-22249500D03*
X34000000Y-39249500D03*
X34500000Y-19249500D03*
X46500000Y-23249500D03*
X54500000Y-29249500D03*
X53500000Y-28249500D03*
X42750000Y-43249500D03*
X54500000Y-52999500D03*
X46500000Y-32249500D03*
X51750000Y-63749500D03*
D14*
X41370000Y-61439500D03*
D13*
X39000000Y-55749500D03*
X39750000Y-47249500D03*
X34500000Y-24249500D03*
X34500000Y-26249500D03*
X40000000Y-54499500D03*
X47500000Y-34249500D03*
X37750000Y-43249500D03*
X36500000Y-19249500D03*
X40750000Y-47249500D03*
X55500000Y-31249500D03*
X33500000Y-68249500D03*
X36500000Y-48749500D03*
D14*
X53500000Y-37249500D03*
D13*
X45750000Y-55249500D03*
X54750000Y-63749500D03*
X44500000Y-31249500D03*
X52750000Y-63749500D03*
X43000000Y-55749500D03*
X51250000Y-53749500D03*
X37250000Y-54999500D03*
X54500000Y-28249500D03*
X38750000Y-43249500D03*
X39750000Y-46249500D03*
X41000000Y-53499500D03*
X34000000Y-33249500D03*
X46500000Y-27249500D03*
X39000000Y-54499500D03*
X54500000Y-53999500D03*
X34000000Y-38249500D03*
X45750000Y-44249500D03*
D14*
X39770000Y-61449500D03*
D13*
X52000000Y-58499500D03*
X36500000Y-47749500D03*
D14*
X36500000Y-62249500D03*
D13*
X32500000Y-68249500D03*
D14*
X46120000Y-56939500D03*
D13*
X54500000Y-18249500D03*
X37000000Y-49749500D03*
X40750000Y-46249500D03*
X39000000Y-53499500D03*
X54500000Y-55999500D03*
X34000000Y-41249500D03*
X47500000Y-30249500D03*
X54750000Y-61749500D03*
X34000000Y-35249500D03*
D14*
X54500000Y-37749500D03*
D13*
X47500000Y-36249500D03*
X54500000Y-25249500D03*
X46500000Y-30249500D03*
X34500000Y-68249500D03*
X34500000Y-22249500D03*
X48500000Y-24249500D03*
X34500000Y-29249500D03*
X38500000Y-22249500D03*
X54500000Y-27249500D03*
X45500000Y-22249500D03*
X48500000Y-30249500D03*
X36500000Y-45749500D03*
X48500000Y-34249500D03*
X40750000Y-48249500D03*
X54500000Y-30249500D03*
X46500000Y-29249500D03*
X34000000Y-37249500D03*
X36750000Y-43249500D03*
D14*
X53500000Y-33249500D03*
D13*
X45500000Y-30249500D03*
D14*
X53500000Y-36249500D03*
D13*
X54500000Y-54999500D03*
D14*
X38130000Y-62299500D03*
D13*
X53500000Y-29249500D03*
X43750000Y-43249500D03*
X45750000Y-59749500D03*
X54750000Y-60749500D03*
X47500000Y-29249500D03*
X48500000Y-35249500D03*
D14*
X41330000Y-59019500D03*
D13*
X55500000Y-28249500D03*
X48500000Y-37249500D03*
X48500000Y-25249500D03*
X51250000Y-52749500D03*
X43500000Y-22249500D03*
X36500000Y-46749500D03*
X34500000Y-30249500D03*
X54500000Y-21249500D03*
X54500000Y-56999500D03*
X53750000Y-63749500D03*
D14*
X43870000Y-56829500D03*
D13*
X47500000Y-31249500D03*
D14*
X34640000Y-61479500D03*
D13*
X46750000Y-54999500D03*
X48500000Y-31249500D03*
X44750000Y-44249500D03*
X39750000Y-45249500D03*
X39500000Y-22249500D03*
X46750000Y-53999500D03*
X46500000Y-26249500D03*
X48500000Y-36249500D03*
X48500000Y-29249500D03*
D14*
X46870000Y-58339500D03*
D13*
X46500000Y-35249500D03*
X54750000Y-59749500D03*
X45500000Y-63749500D03*
X55500000Y-27249500D03*
X47500000Y-33249500D03*
X46500000Y-33249500D03*
X40000000Y-55749500D03*
G04 #@! TO.N,Board_1-VBUS*
X49000000Y-48249500D03*
X48000000Y-48249500D03*
X49000000Y-47249500D03*
X48500000Y-60999500D03*
X49500000Y-59999500D03*
X48000000Y-46249500D03*
X49000000Y-45249500D03*
X49500000Y-61999500D03*
X48500000Y-59999500D03*
D14*
X46350000Y-52209000D03*
D13*
X49500000Y-60999500D03*
X48000000Y-43249500D03*
X49000000Y-44249500D03*
X48000000Y-47249500D03*
X49000000Y-43249500D03*
X48500000Y-61999500D03*
X48000000Y-45249500D03*
X48000000Y-44249500D03*
X49000000Y-46249500D03*
D14*
G04 #@! TO.N,Board_2-GND*
X84500000Y-36249500D03*
D13*
X85500000Y-50999500D03*
X76500000Y-31249500D03*
D14*
X84500000Y-32249500D03*
D13*
X76750000Y-44249500D03*
X75750000Y-55249500D03*
X83750000Y-63749500D03*
X85500000Y-29249500D03*
X72000000Y-53499500D03*
X65000000Y-37249500D03*
X83000000Y-58499500D03*
X71000000Y-55749500D03*
X77500000Y-34249500D03*
X79500000Y-37249500D03*
X67500000Y-45749500D03*
X76500000Y-30249500D03*
X86500000Y-26249500D03*
X74750000Y-43249500D03*
X77750000Y-53999500D03*
X85500000Y-56999500D03*
D14*
X67500000Y-62249500D03*
D13*
X85500000Y-53999500D03*
X64500000Y-68249500D03*
X73750000Y-43249500D03*
X69500000Y-22249500D03*
X86500000Y-31249500D03*
X71750000Y-45249500D03*
D14*
X84500000Y-37249500D03*
X70770000Y-61449500D03*
D13*
X79500000Y-33249500D03*
D14*
X72370000Y-61439500D03*
D13*
X85750000Y-62749500D03*
X71750000Y-47249500D03*
X85500000Y-27249500D03*
X84500000Y-28249500D03*
X84250000Y-52749500D03*
X67500000Y-46749500D03*
X78500000Y-30249500D03*
X72750000Y-43249500D03*
X79500000Y-24249500D03*
D14*
X74870000Y-56829500D03*
D13*
X86500000Y-30249500D03*
X65500000Y-23249500D03*
X86500000Y-25249500D03*
X68750000Y-43249500D03*
X79500000Y-26249500D03*
X63500000Y-68249500D03*
X65500000Y-32249500D03*
X66750000Y-43249500D03*
X74000000Y-54749500D03*
X85750000Y-63749500D03*
D14*
X73870000Y-58359500D03*
D13*
X84250000Y-54749500D03*
D14*
X85500000Y-37749500D03*
D13*
X65500000Y-29249500D03*
X73500000Y-22249500D03*
X79500000Y-36249500D03*
X65500000Y-24249500D03*
X67750000Y-43249500D03*
X76500000Y-22249500D03*
X79500000Y-35249500D03*
X65000000Y-34249500D03*
X77500000Y-36249500D03*
X85500000Y-55999500D03*
X65000000Y-40249500D03*
X82250000Y-53749500D03*
X85500000Y-57999500D03*
X79500000Y-34249500D03*
X73000000Y-55749500D03*
X75500000Y-31249500D03*
X68250000Y-54999500D03*
X65500000Y-19249500D03*
X65000000Y-38249500D03*
X82250000Y-52749500D03*
X84500000Y-30249500D03*
X86500000Y-27249500D03*
X65500000Y-27249500D03*
X85500000Y-24249500D03*
X86500000Y-29249500D03*
X85500000Y-26249500D03*
X71750000Y-44249500D03*
X85500000Y-31249500D03*
X85750000Y-60749500D03*
X78500000Y-36249500D03*
X65500000Y-68249500D03*
X70750000Y-47249500D03*
X63500000Y-51249500D03*
X85500000Y-54999500D03*
X74500000Y-22249500D03*
X67500000Y-44749500D03*
X77500000Y-25249500D03*
D14*
X84500000Y-34249500D03*
D13*
X76750000Y-55249500D03*
X70000000Y-53499500D03*
X79500000Y-31249500D03*
X65000000Y-41249500D03*
X70000000Y-54499500D03*
X76750000Y-59749500D03*
X65500000Y-26249500D03*
X70500000Y-22249500D03*
X77500000Y-24249500D03*
X70750000Y-46249500D03*
X84500000Y-31249500D03*
X65500000Y-20249500D03*
X67500000Y-19249500D03*
X72500000Y-22249500D03*
X70750000Y-45249500D03*
X65000000Y-42249500D03*
X77500000Y-35249500D03*
X78500000Y-35249500D03*
X82750000Y-63749500D03*
X75750000Y-43249500D03*
X78500000Y-33249500D03*
X85500000Y-49999500D03*
X67500000Y-47749500D03*
X67500000Y-31249500D03*
D14*
X77120000Y-56939500D03*
D13*
X79500000Y-30249500D03*
X77500000Y-29249500D03*
X84250000Y-53749500D03*
X77500000Y-30249500D03*
X69750000Y-43249500D03*
X77500000Y-33249500D03*
X65000000Y-39249500D03*
X84500000Y-29249500D03*
X73000000Y-54249500D03*
X66500000Y-19249500D03*
X79500000Y-29249500D03*
X76750000Y-43249500D03*
X68250000Y-55999500D03*
X74750000Y-55249500D03*
X71750000Y-46249500D03*
D14*
X84500000Y-35249500D03*
D13*
X68500000Y-22249500D03*
X82250000Y-54749500D03*
X77500000Y-23249500D03*
X75500000Y-30249500D03*
X65500000Y-25249500D03*
X85500000Y-18249500D03*
X65000000Y-33249500D03*
X71000000Y-53499500D03*
X85500000Y-28249500D03*
X75750000Y-44249500D03*
D14*
X77870000Y-58339500D03*
D13*
X63500000Y-52249500D03*
X65000000Y-36249500D03*
X71500000Y-22249500D03*
X85500000Y-30249500D03*
X77500000Y-27249500D03*
X85500000Y-21249500D03*
X65500000Y-22249500D03*
X77500000Y-32249500D03*
X70750000Y-44249500D03*
X75500000Y-22249500D03*
X84500000Y-58499500D03*
D14*
X72330000Y-59019500D03*
D13*
X86500000Y-28249500D03*
X79500000Y-38249500D03*
X77500000Y-28249500D03*
X79500000Y-25249500D03*
D14*
X63880000Y-62759500D03*
D13*
X78500000Y-29249500D03*
X71750000Y-48249500D03*
X67000000Y-32249500D03*
X77500000Y-26249500D03*
X71750000Y-43249500D03*
D14*
X84500000Y-33249500D03*
D13*
X77500000Y-31249500D03*
X78500000Y-34249500D03*
X65500000Y-28249500D03*
X78500000Y-25249500D03*
D14*
X69130000Y-62299500D03*
D13*
X78500000Y-26249500D03*
X70750000Y-43249500D03*
X85750000Y-61749500D03*
X71000000Y-54499500D03*
X67500000Y-48749500D03*
X85750000Y-59749500D03*
X77500000Y-22249500D03*
X66500000Y-31249500D03*
X76500000Y-63749500D03*
X72750000Y-44249500D03*
X85500000Y-25249500D03*
X65500000Y-30249500D03*
D14*
X65640000Y-61479500D03*
D13*
X74000000Y-55749500D03*
X65000000Y-43249500D03*
X68000000Y-49749500D03*
X84750000Y-63749500D03*
X85500000Y-52999500D03*
X65500000Y-21249500D03*
X78500000Y-31249500D03*
X65000000Y-35249500D03*
X65500000Y-31249500D03*
X85500000Y-51999500D03*
X70000000Y-55749500D03*
X77750000Y-54999500D03*
G04 #@! TO.N,Board_2-VBUS*
X80500000Y-59999500D03*
X79000000Y-46249500D03*
X79000000Y-43249500D03*
X79000000Y-47249500D03*
X79000000Y-44249500D03*
X79500000Y-61999500D03*
X79000000Y-45249500D03*
D14*
X77350000Y-52209000D03*
D13*
X79500000Y-60999500D03*
X80000000Y-46249500D03*
X80500000Y-60999500D03*
X80000000Y-43249500D03*
X79000000Y-48249500D03*
X79500000Y-59999500D03*
X80000000Y-48249500D03*
X80000000Y-47249500D03*
X80000000Y-44249500D03*
X80500000Y-61999500D03*
X80000000Y-45249500D03*
G04 #@! TD*
D15*
G04 #@! TO.N,Board_0-VBUS*
X17750000Y-43249500D02*
X17830000Y-43169500D01*
X17770000Y-46069500D02*
X17750000Y-46049500D01*
X17000000Y-46249500D02*
X18000000Y-46249500D01*
X17500000Y-59999500D02*
X18500000Y-59999500D01*
X17000000Y-44249500D02*
X17000000Y-43249500D01*
X17000000Y-47249500D02*
X17000000Y-46249500D01*
X17750000Y-46999500D02*
X18000000Y-47249500D01*
X17890000Y-43109500D02*
X20250000Y-40749500D01*
X17770000Y-48559500D02*
X17000000Y-48249500D01*
X18000000Y-46249500D02*
X17770000Y-46069500D01*
X17750000Y-46049500D02*
X18000000Y-45249500D01*
X17000000Y-48249500D02*
X17000000Y-47249500D01*
X17750000Y-46749500D02*
X17750000Y-46999500D01*
X18500000Y-60999500D02*
X17500000Y-61999500D01*
X17750000Y-48499500D02*
X17750000Y-48539500D01*
X17750000Y-47499500D02*
X17750000Y-47999500D01*
X17000000Y-45249500D02*
X17750000Y-45039500D01*
X17500000Y-59999500D02*
X18000000Y-60499500D01*
X18000000Y-48249500D02*
X18000000Y-59499500D01*
D16*
X16040500Y-52209000D02*
X17770000Y-50479500D01*
D15*
X18000000Y-48249500D02*
X17750000Y-48499500D01*
X17830000Y-43169500D02*
X17830000Y-43109500D01*
D16*
X15350000Y-52209000D02*
X16040500Y-52209000D01*
D15*
X18000000Y-43249500D02*
X17890000Y-43109500D01*
X18000000Y-59499500D02*
X17500000Y-59999500D01*
X17830000Y-43109500D02*
X18000000Y-43249500D01*
X17750000Y-48539500D02*
X17770000Y-48559500D01*
D16*
X15350000Y-52209000D02*
X15330000Y-52229000D01*
D15*
X18000000Y-45249500D02*
X17000000Y-45249500D01*
D16*
X17770000Y-50479500D02*
X17770000Y-48559500D01*
D15*
X18000000Y-47249500D02*
X17750000Y-47499500D01*
X18500000Y-59999500D02*
X18500000Y-58999500D01*
X17790000Y-44999500D02*
X17750000Y-44959500D01*
X20250000Y-40749500D02*
X20250000Y-20414500D01*
X18500000Y-61999500D02*
X18000000Y-61749500D01*
X18000000Y-44249500D02*
X17000000Y-44249500D01*
X17000000Y-43249500D02*
X17750000Y-43249500D01*
X20250000Y-20414500D02*
X20915000Y-19749500D01*
X18000000Y-60499500D02*
X18500000Y-60999500D01*
X17750000Y-47999500D02*
X18000000Y-48249500D01*
X17750000Y-44959500D02*
X18000000Y-44249500D01*
X18500000Y-58999500D02*
X17500000Y-59999500D01*
X17750000Y-45039500D02*
X17790000Y-44999500D01*
G04 #@! TO.N,Board_1-VBUS*
X49000000Y-45249500D02*
X48000000Y-45249500D01*
X49000000Y-43249500D02*
X48890000Y-43109500D01*
X48000000Y-44249500D02*
X48000000Y-43249500D01*
X48500000Y-59999500D02*
X49500000Y-59999500D01*
X49000000Y-44249500D02*
X48000000Y-44249500D01*
D16*
X48770000Y-50479500D02*
X48770000Y-48559500D01*
D15*
X48750000Y-43249500D02*
X48830000Y-43169500D01*
X48750000Y-45039500D02*
X48790000Y-44999500D01*
X51250000Y-40749500D02*
X51250000Y-20414500D01*
X48830000Y-43169500D02*
X48830000Y-43109500D01*
X48000000Y-47249500D02*
X48000000Y-46249500D01*
X48750000Y-47499500D02*
X48750000Y-47999500D01*
D16*
X47040500Y-52209000D02*
X48770000Y-50479500D01*
D15*
X48790000Y-44999500D02*
X48750000Y-44959500D01*
X49500000Y-58999500D02*
X48500000Y-59999500D01*
X51250000Y-20414500D02*
X51915000Y-19749500D01*
X49000000Y-47249500D02*
X48750000Y-47499500D01*
X48830000Y-43109500D02*
X49000000Y-43249500D01*
X48750000Y-47999500D02*
X49000000Y-48249500D01*
X48000000Y-46249500D02*
X49000000Y-46249500D01*
X48500000Y-59999500D02*
X49000000Y-60499500D01*
D16*
X46350000Y-52209000D02*
X47040500Y-52209000D01*
D15*
X49000000Y-46249500D02*
X48770000Y-46069500D01*
X48750000Y-48499500D02*
X48750000Y-48539500D01*
X49500000Y-61999500D02*
X49000000Y-61749500D01*
X48750000Y-48539500D02*
X48770000Y-48559500D01*
X48750000Y-46749500D02*
X48750000Y-46999500D01*
X49500000Y-60999500D02*
X48500000Y-61999500D01*
X48770000Y-46069500D02*
X48750000Y-46049500D01*
X49000000Y-48249500D02*
X49000000Y-59499500D01*
X48000000Y-48249500D02*
X48000000Y-47249500D01*
X48750000Y-44959500D02*
X49000000Y-44249500D01*
X48000000Y-45249500D02*
X48750000Y-45039500D01*
X49000000Y-59499500D02*
X48500000Y-59999500D01*
X48890000Y-43109500D02*
X51250000Y-40749500D01*
X48750000Y-46049500D02*
X49000000Y-45249500D01*
D16*
X46350000Y-52209000D02*
X46330000Y-52229000D01*
D15*
X49500000Y-59999500D02*
X49500000Y-58999500D01*
X49000000Y-48249500D02*
X48750000Y-48499500D01*
X48750000Y-46999500D02*
X49000000Y-47249500D01*
X48770000Y-48559500D02*
X48000000Y-48249500D01*
X49000000Y-60499500D02*
X49500000Y-60999500D01*
X48000000Y-43249500D02*
X48750000Y-43249500D01*
G04 #@! TO.N,Board_2-VBUS*
X79750000Y-44959500D02*
X80000000Y-44249500D01*
X80500000Y-60999500D02*
X79500000Y-61999500D01*
X80500000Y-61999500D02*
X80000000Y-61749500D01*
X79750000Y-47499500D02*
X79750000Y-47999500D01*
X79830000Y-43109500D02*
X80000000Y-43249500D01*
X79750000Y-45039500D02*
X79790000Y-44999500D01*
X80000000Y-48249500D02*
X80000000Y-59499500D01*
X79000000Y-43249500D02*
X79750000Y-43249500D01*
D16*
X79770000Y-50479500D02*
X79770000Y-48559500D01*
D15*
X79750000Y-43249500D02*
X79830000Y-43169500D01*
X79750000Y-48499500D02*
X79750000Y-48539500D01*
X79750000Y-47999500D02*
X80000000Y-48249500D01*
X79000000Y-47249500D02*
X79000000Y-46249500D01*
X79790000Y-44999500D02*
X79750000Y-44959500D01*
X79000000Y-46249500D02*
X80000000Y-46249500D01*
X80000000Y-48249500D02*
X79750000Y-48499500D01*
X79750000Y-46749500D02*
X79750000Y-46999500D01*
X80500000Y-58999500D02*
X79500000Y-59999500D01*
X79000000Y-48249500D02*
X79000000Y-47249500D01*
X80000000Y-44249500D02*
X79000000Y-44249500D01*
X80000000Y-43249500D02*
X79890000Y-43109500D01*
X80000000Y-46249500D02*
X79770000Y-46069500D01*
X79770000Y-48559500D02*
X79000000Y-48249500D01*
X79500000Y-59999500D02*
X80000000Y-60499500D01*
X79770000Y-46069500D02*
X79750000Y-46049500D01*
D16*
X77350000Y-52209000D02*
X78040500Y-52209000D01*
D15*
X79750000Y-46999500D02*
X80000000Y-47249500D01*
X79000000Y-45249500D02*
X79750000Y-45039500D01*
D16*
X77350000Y-52209000D02*
X77330000Y-52229000D01*
D15*
X82250000Y-20414500D02*
X82915000Y-19749500D01*
X80000000Y-47249500D02*
X79750000Y-47499500D01*
X79500000Y-59999500D02*
X80500000Y-59999500D01*
D16*
X78040500Y-52209000D02*
X79770000Y-50479500D01*
D15*
X79750000Y-48539500D02*
X79770000Y-48559500D01*
X79890000Y-43109500D02*
X82250000Y-40749500D01*
X80000000Y-59499500D02*
X79500000Y-59999500D01*
X79000000Y-44249500D02*
X79000000Y-43249500D01*
X79830000Y-43169500D02*
X79830000Y-43109500D01*
X80500000Y-59999500D02*
X80500000Y-58999500D01*
X80000000Y-45249500D02*
X79000000Y-45249500D01*
X79750000Y-46049500D02*
X80000000Y-45249500D01*
X82250000Y-40749500D02*
X82250000Y-20414500D01*
X80000000Y-60499500D02*
X80500000Y-60999500D01*
G04 #@! TD*
G04 #@! TA.AperFunction,Conductor*
G04 #@! TO.N,Board_2-GND*
G36*
X89970755Y-17028745D02*
G01*
X89989500Y-17074000D01*
X89989500Y-69425000D01*
X89970755Y-69470255D01*
X89925500Y-69489000D01*
X62074500Y-69489000D01*
X62029245Y-69470255D01*
X62010500Y-69425000D01*
X62010500Y-66269500D01*
X73249571Y-66269500D01*
X73269244Y-66481810D01*
X73327595Y-66686889D01*
X73390516Y-66813252D01*
X73422632Y-66877752D01*
X73551127Y-67047906D01*
X73708694Y-67191549D01*
X73708696Y-67191550D01*
X73708698Y-67191552D01*
X73833247Y-67268670D01*
X73871354Y-67292265D01*
X73889981Y-67303798D01*
X73989391Y-67342309D01*
X74088804Y-67380822D01*
X74211983Y-67403847D01*
X74298390Y-67420000D01*
X74511610Y-67420000D01*
X74634791Y-67396973D01*
X74721195Y-67380822D01*
X74721198Y-67380821D01*
X74920019Y-67303798D01*
X75101302Y-67191552D01*
X75131132Y-67164358D01*
X75794500Y-67164358D01*
X75794501Y-67164367D01*
X75797415Y-67189493D01*
X75820104Y-67240878D01*
X75842794Y-67292265D01*
X75922235Y-67371706D01*
X76025009Y-67417085D01*
X76050135Y-67420000D01*
X77839864Y-67419999D01*
X77864991Y-67417085D01*
X77967765Y-67371706D01*
X78047206Y-67292265D01*
X78092585Y-67189491D01*
X78095500Y-67164365D01*
X78095499Y-65374636D01*
X78092585Y-65349509D01*
X78047206Y-65246735D01*
X77967765Y-65167294D01*
X77864991Y-65121915D01*
X77839865Y-65119000D01*
X77839863Y-65119000D01*
X76050141Y-65119000D01*
X76050132Y-65119001D01*
X76025006Y-65121915D01*
X75947928Y-65155949D01*
X75922235Y-65167294D01*
X75842794Y-65246735D01*
X75797415Y-65349509D01*
X75794500Y-65374635D01*
X75794500Y-67164358D01*
X75131132Y-67164358D01*
X75258872Y-67047907D01*
X75387366Y-66877755D01*
X75482405Y-66686889D01*
X75540756Y-66481810D01*
X75560429Y-66269500D01*
X75540756Y-66057190D01*
X75482405Y-65852111D01*
X75387366Y-65661245D01*
X75258872Y-65491093D01*
X75101305Y-65347450D01*
X74920020Y-65235202D01*
X74721195Y-65158177D01*
X74511612Y-65119000D01*
X74511610Y-65119000D01*
X74298390Y-65119000D01*
X74298387Y-65119000D01*
X74088804Y-65158177D01*
X73889979Y-65235202D01*
X73708694Y-65347450D01*
X73551127Y-65491093D01*
X73422632Y-65661247D01*
X73327594Y-65852114D01*
X73269244Y-66057188D01*
X73269244Y-66057190D01*
X73249571Y-66269500D01*
X62010500Y-66269500D01*
X62010500Y-61704500D01*
X62818167Y-61704500D01*
X62823062Y-61721704D01*
X62918059Y-61912488D01*
X63046498Y-62082568D01*
X63203997Y-62226149D01*
X63385203Y-62338347D01*
X63499999Y-62382819D01*
X63500000Y-62382819D01*
X63500000Y-61704500D01*
X62818167Y-61704500D01*
X62010500Y-61704500D01*
X62010500Y-61370326D01*
X63400000Y-61370326D01*
X63434075Y-61497493D01*
X63499901Y-61611507D01*
X63592993Y-61704599D01*
X63707007Y-61770425D01*
X63834174Y-61804500D01*
X63965826Y-61804500D01*
X64092993Y-61770425D01*
X64207007Y-61704599D01*
X64207106Y-61704500D01*
X64300000Y-61704500D01*
X64300000Y-62382819D01*
X64414796Y-62338347D01*
X64596002Y-62226149D01*
X64753501Y-62082568D01*
X64881940Y-61912488D01*
X64976937Y-61721704D01*
X64981833Y-61704500D01*
X64300000Y-61704500D01*
X64207106Y-61704500D01*
X64300099Y-61611507D01*
X64365925Y-61497493D01*
X64400000Y-61370326D01*
X64400000Y-61238674D01*
X64365925Y-61111507D01*
X64300099Y-60997493D01*
X64207007Y-60904401D01*
X64092993Y-60838575D01*
X63965826Y-60804500D01*
X63834174Y-60804500D01*
X63707007Y-60838575D01*
X63592993Y-60904401D01*
X63499901Y-60997493D01*
X63434075Y-61111507D01*
X63400000Y-61238674D01*
X63400000Y-61370326D01*
X62010500Y-61370326D01*
X62010500Y-60904500D01*
X62818167Y-60904500D01*
X63500000Y-60904500D01*
X63500000Y-60226180D01*
X63499999Y-60226179D01*
X64300000Y-60226179D01*
X64300000Y-60904500D01*
X64981832Y-60904500D01*
X64976937Y-60887295D01*
X64881940Y-60696511D01*
X64753501Y-60526431D01*
X64596002Y-60382850D01*
X64414796Y-60270652D01*
X64300000Y-60226179D01*
X63499999Y-60226179D01*
X63385203Y-60270652D01*
X63203997Y-60382850D01*
X63046498Y-60526431D01*
X62918059Y-60696511D01*
X62823062Y-60887295D01*
X62818167Y-60904500D01*
X62010500Y-60904500D01*
X62010500Y-59659358D01*
X62749500Y-59659358D01*
X62749501Y-59659367D01*
X62752415Y-59684493D01*
X62775104Y-59735878D01*
X62797794Y-59787265D01*
X62877235Y-59866706D01*
X62980009Y-59912085D01*
X63005135Y-59915000D01*
X64794864Y-59914999D01*
X64819991Y-59912085D01*
X64922765Y-59866706D01*
X65002206Y-59787265D01*
X65047585Y-59684491D01*
X65050500Y-59659365D01*
X65050499Y-57869636D01*
X65047585Y-57844509D01*
X65002206Y-57741735D01*
X64922765Y-57662294D01*
X64819991Y-57616915D01*
X64794865Y-57614000D01*
X64794863Y-57614000D01*
X63005141Y-57614000D01*
X63005132Y-57614001D01*
X62980006Y-57616915D01*
X62902928Y-57650949D01*
X62877235Y-57662294D01*
X62797794Y-57741735D01*
X62752415Y-57844509D01*
X62749500Y-57869635D01*
X62749500Y-59659358D01*
X62010500Y-59659358D01*
X62010500Y-52209003D01*
X76744318Y-52209003D01*
X76764954Y-52365757D01*
X76764957Y-52365766D01*
X76825462Y-52511837D01*
X76825464Y-52511841D01*
X76921718Y-52637282D01*
X77047159Y-52733536D01*
X77193238Y-52794044D01*
X77193239Y-52794044D01*
X77193242Y-52794045D01*
X77349996Y-52814682D01*
X77350000Y-52814682D01*
X77350004Y-52814682D01*
X77506757Y-52794045D01*
X77506758Y-52794044D01*
X77506762Y-52794044D01*
X77652841Y-52733536D01*
X77664427Y-52724645D01*
X77679312Y-52713225D01*
X77718272Y-52700000D01*
X78105139Y-52700000D01*
X78105142Y-52700000D01*
X78118934Y-52696304D01*
X78167499Y-52702697D01*
X78197319Y-52741557D01*
X78199500Y-52758123D01*
X78199500Y-58727199D01*
X78180755Y-58772453D01*
X78143415Y-58809793D01*
X78143407Y-58809802D01*
X77999726Y-58997051D01*
X77881712Y-59201457D01*
X77881711Y-59201457D01*
X77851338Y-59274788D01*
X77851338Y-59274789D01*
X77791393Y-59419506D01*
X77730308Y-59647477D01*
X77730305Y-59647491D01*
X77699500Y-59881483D01*
X77699500Y-60117516D01*
X77730305Y-60351508D01*
X77730308Y-60351522D01*
X77791393Y-60579492D01*
X77807078Y-60617357D01*
X77807078Y-60617358D01*
X77881711Y-60797541D01*
X77881712Y-60797543D01*
X77979836Y-60967500D01*
X77986229Y-61016065D01*
X77979836Y-61031500D01*
X77881712Y-61201456D01*
X77881711Y-61201458D01*
X77791396Y-61419501D01*
X77791395Y-61419504D01*
X77730309Y-61647477D01*
X77730306Y-61647491D01*
X77699500Y-61881482D01*
X77699500Y-62117517D01*
X77730306Y-62351508D01*
X77730309Y-62351522D01*
X77791395Y-62579495D01*
X77791396Y-62579498D01*
X77881711Y-62797541D01*
X77881712Y-62797542D01*
X77881714Y-62797546D01*
X77881716Y-62797550D01*
X77999727Y-63001950D01*
X78143408Y-63189199D01*
X78310301Y-63356092D01*
X78497550Y-63499773D01*
X78701950Y-63617784D01*
X78701956Y-63617786D01*
X78701957Y-63617787D01*
X78701958Y-63617788D01*
X78920001Y-63708103D01*
X78920006Y-63708105D01*
X79022447Y-63735554D01*
X79147977Y-63769190D01*
X79147991Y-63769193D01*
X79303709Y-63789694D01*
X79381983Y-63799999D01*
X79381987Y-63800000D01*
X79381989Y-63800000D01*
X79618013Y-63800000D01*
X79618015Y-63799999D01*
X79716609Y-63787018D01*
X79852001Y-63769194D01*
X79852003Y-63769193D01*
X79852014Y-63769192D01*
X79977549Y-63735554D01*
X80015020Y-63736884D01*
X80023420Y-63739787D01*
X80254645Y-63787103D01*
X80254650Y-63787104D01*
X80490078Y-63803836D01*
X80725676Y-63789694D01*
X80957413Y-63744922D01*
X81181323Y-63670286D01*
X81393576Y-63567061D01*
X81590539Y-63437015D01*
X81768843Y-63282373D01*
X81925436Y-63105782D01*
X82057640Y-62910260D01*
X82163192Y-62699156D01*
X82240287Y-62476080D01*
X82287604Y-62244850D01*
X82304336Y-62009422D01*
X82290194Y-61773824D01*
X82245422Y-61542087D01*
X82236646Y-61515763D01*
X82235543Y-61478959D01*
X82269693Y-61351514D01*
X82300500Y-61117511D01*
X82300500Y-60881489D01*
X82269693Y-60647486D01*
X82234478Y-60516061D01*
X82234478Y-60482936D01*
X82269693Y-60351514D01*
X82300500Y-60117511D01*
X82300500Y-58881489D01*
X82285096Y-58764487D01*
X82269694Y-58647492D01*
X82269693Y-58647490D01*
X82269693Y-58647486D01*
X82268466Y-58642908D01*
X82208606Y-58419506D01*
X82174611Y-58337435D01*
X82118288Y-58201458D01*
X82118285Y-58201453D01*
X82118284Y-58201450D01*
X82000274Y-57997049D01*
X82000272Y-57997046D01*
X82000269Y-57997041D01*
X81856600Y-57809810D01*
X81856597Y-57809807D01*
X81856592Y-57809800D01*
X81856584Y-57809792D01*
X81819245Y-57772452D01*
X81800500Y-57727198D01*
X81800500Y-48131488D01*
X81800499Y-48131483D01*
X81769695Y-47897498D01*
X81769694Y-47897493D01*
X81769693Y-47897486D01*
X81734477Y-47766060D01*
X81734477Y-47732935D01*
X81769692Y-47601514D01*
X81800499Y-47367511D01*
X81800499Y-47131489D01*
X81769692Y-46897486D01*
X81738633Y-46781571D01*
X81734478Y-46766065D01*
X81734478Y-46732936D01*
X81736854Y-46724069D01*
X81737015Y-46723480D01*
X81766251Y-46618394D01*
X81766913Y-46613704D01*
X81768467Y-46606088D01*
X81769693Y-46601514D01*
X81783963Y-46493116D01*
X81783997Y-46492868D01*
X81799291Y-46384696D01*
X81799336Y-46379952D01*
X81799881Y-46372208D01*
X81800500Y-46367511D01*
X81800500Y-46258400D01*
X81800503Y-46257789D01*
X81801545Y-46148683D01*
X81800971Y-46143978D01*
X81800500Y-46136229D01*
X81800500Y-46131487D01*
X81800499Y-46131482D01*
X81786258Y-46023314D01*
X81786181Y-46022707D01*
X81772974Y-45914408D01*
X81772973Y-45914399D01*
X81772971Y-45914391D01*
X81771791Y-45909812D01*
X81770310Y-45902179D01*
X81769693Y-45897486D01*
X81741444Y-45792061D01*
X81741301Y-45791519D01*
X81734862Y-45766537D01*
X81735751Y-45731472D01*
X81753737Y-45673919D01*
X81753740Y-45673907D01*
X81753741Y-45673905D01*
X81759599Y-45640171D01*
X81760830Y-45634585D01*
X81769693Y-45601514D01*
X81780097Y-45522476D01*
X81780491Y-45519898D01*
X81784833Y-45494904D01*
X81794134Y-45441365D01*
X81795540Y-45407158D01*
X81796034Y-45401432D01*
X81797844Y-45387685D01*
X81800500Y-45367511D01*
X81800500Y-45287816D01*
X81800554Y-45285187D01*
X81801591Y-45259963D01*
X81803828Y-45205542D01*
X81800757Y-45171452D01*
X81800500Y-45165712D01*
X81800500Y-45131487D01*
X81800499Y-45131485D01*
X81790091Y-45052433D01*
X81789809Y-45049891D01*
X81782658Y-44970472D01*
X81775164Y-44937075D01*
X81774161Y-44931429D01*
X81772306Y-44917336D01*
X81769693Y-44897486D01*
X81749056Y-44820470D01*
X81748431Y-44817928D01*
X81736912Y-44766591D01*
X81737657Y-44738356D01*
X81737058Y-44738230D01*
X81751411Y-44670102D01*
X81752217Y-44666731D01*
X81769693Y-44601514D01*
X81775754Y-44555467D01*
X81776573Y-44550681D01*
X81786150Y-44505228D01*
X81791329Y-44437871D01*
X81791689Y-44434433D01*
X81800499Y-44367515D01*
X81800500Y-44367513D01*
X81800500Y-44321098D01*
X81800688Y-44316191D01*
X81800775Y-44315058D01*
X81804248Y-44269901D01*
X81804247Y-44269892D01*
X81804248Y-44269891D01*
X81800594Y-44202480D01*
X81800500Y-44199016D01*
X81800500Y-44131487D01*
X81799248Y-44121983D01*
X81794436Y-44085439D01*
X81793987Y-44080592D01*
X81791475Y-44034225D01*
X81779051Y-43967859D01*
X81778508Y-43964451D01*
X81769693Y-43897486D01*
X81757668Y-43852609D01*
X81756594Y-43847883D01*
X81753548Y-43831613D01*
X81763648Y-43783686D01*
X81771196Y-43774593D01*
X83606592Y-41939199D01*
X83750273Y-41751950D01*
X83868284Y-41547550D01*
X83871041Y-41540894D01*
X83926228Y-41407661D01*
X83926228Y-41407660D01*
X83958606Y-41329493D01*
X84019691Y-41101522D01*
X84019694Y-41101508D01*
X84050499Y-40867516D01*
X84050500Y-40867511D01*
X84050500Y-21186800D01*
X84069244Y-21141546D01*
X84271592Y-20939199D01*
X84415273Y-20751950D01*
X84528048Y-20556618D01*
X84566906Y-20526802D01*
X84615471Y-20533195D01*
X84626588Y-20541325D01*
X84768997Y-20671148D01*
X84950203Y-20783347D01*
X85064999Y-20827819D01*
X85065000Y-20827819D01*
X85065000Y-20056606D01*
X85157993Y-20149599D01*
X85272007Y-20215425D01*
X85399174Y-20249500D01*
X85530826Y-20249500D01*
X85657993Y-20215425D01*
X85772007Y-20149599D01*
X85772106Y-20149500D01*
X85865000Y-20149500D01*
X85865000Y-20827819D01*
X85979796Y-20783347D01*
X86161002Y-20671149D01*
X86318501Y-20527568D01*
X86446940Y-20357488D01*
X86541937Y-20166704D01*
X86546833Y-20149500D01*
X85865000Y-20149500D01*
X85772106Y-20149500D01*
X85865099Y-20056507D01*
X85930925Y-19942493D01*
X85965000Y-19815326D01*
X85965000Y-19683674D01*
X85930925Y-19556507D01*
X85865099Y-19442493D01*
X85772007Y-19349401D01*
X85657993Y-19283575D01*
X85530826Y-19249500D01*
X85399174Y-19249500D01*
X85272007Y-19283575D01*
X85157993Y-19349401D01*
X85065000Y-19442394D01*
X85065000Y-18671180D01*
X85064999Y-18671179D01*
X85865000Y-18671179D01*
X85865000Y-19349500D01*
X86546832Y-19349500D01*
X86541937Y-19332295D01*
X86446940Y-19141511D01*
X86318501Y-18971431D01*
X86161002Y-18827850D01*
X85979796Y-18715652D01*
X85865000Y-18671179D01*
X85064999Y-18671179D01*
X84950203Y-18715652D01*
X84768997Y-18827851D01*
X84626589Y-18957674D01*
X84580516Y-18974310D01*
X84536176Y-18953495D01*
X84528046Y-18942378D01*
X84415273Y-18747050D01*
X84271592Y-18559801D01*
X84104699Y-18392908D01*
X83917450Y-18249227D01*
X83713050Y-18131216D01*
X83713046Y-18131214D01*
X83713042Y-18131212D01*
X83713041Y-18131211D01*
X83494998Y-18040896D01*
X83494995Y-18040895D01*
X83267022Y-17979809D01*
X83267008Y-17979806D01*
X83033017Y-17949000D01*
X83033011Y-17949000D01*
X82796989Y-17949000D01*
X82796982Y-17949000D01*
X82562991Y-17979806D01*
X82562977Y-17979809D01*
X82335004Y-18040895D01*
X82335001Y-18040896D01*
X82116958Y-18131211D01*
X82116957Y-18131212D01*
X81912551Y-18249226D01*
X81725302Y-18392907D01*
X80893407Y-19224802D01*
X80749726Y-19412051D01*
X80631715Y-19616451D01*
X80594303Y-19706772D01*
X80541393Y-19834506D01*
X80480308Y-20062477D01*
X80480305Y-20062491D01*
X80449500Y-20296483D01*
X80449500Y-39977199D01*
X80430755Y-40022454D01*
X79022954Y-41430255D01*
X78977699Y-41449000D01*
X78881983Y-41449000D01*
X78647991Y-41479805D01*
X78647977Y-41479808D01*
X78420006Y-41540893D01*
X78201949Y-41631216D01*
X77997547Y-41749228D01*
X77810302Y-41892907D01*
X77643407Y-42059802D01*
X77499728Y-42247047D01*
X77381716Y-42451449D01*
X77291393Y-42669506D01*
X77230308Y-42897477D01*
X77230305Y-42897491D01*
X77199500Y-43131483D01*
X77199500Y-44367516D01*
X77230305Y-44601508D01*
X77230308Y-44601522D01*
X77265352Y-44732305D01*
X77265534Y-44764742D01*
X77258332Y-44792875D01*
X77258151Y-44793566D01*
X77230306Y-44897489D01*
X77229482Y-44903744D01*
X77228034Y-44911239D01*
X77226474Y-44917336D01*
X77226473Y-44917338D01*
X77213635Y-45024081D01*
X77213546Y-45024791D01*
X77199501Y-45131487D01*
X77199500Y-45131492D01*
X77199500Y-45137784D01*
X77199042Y-45145425D01*
X77198290Y-45151673D01*
X77198290Y-45151676D01*
X77199496Y-45259246D01*
X77199500Y-45259963D01*
X77199500Y-45367516D01*
X77200322Y-45373761D01*
X77200865Y-45381384D01*
X77200936Y-45387690D01*
X77216173Y-45494194D01*
X77216270Y-45494904D01*
X77230306Y-45601510D01*
X77231936Y-45607594D01*
X77233470Y-45615086D01*
X77234363Y-45621328D01*
X77263372Y-45724932D01*
X77263561Y-45725623D01*
X77265520Y-45732934D01*
X77265520Y-45766063D01*
X77230307Y-45897481D01*
X77230306Y-45897486D01*
X77199500Y-46131483D01*
X77199500Y-48136614D01*
X77199033Y-48144330D01*
X77198415Y-48149418D01*
X77198414Y-48149421D01*
X77199497Y-48258130D01*
X77199500Y-48258767D01*
X77199500Y-48367510D01*
X77200169Y-48372598D01*
X77200712Y-48380295D01*
X77200763Y-48385422D01*
X77200764Y-48385435D01*
X77216027Y-48493070D01*
X77216113Y-48493701D01*
X77230305Y-48601501D01*
X77230308Y-48601520D01*
X77231636Y-48606476D01*
X77233180Y-48614039D01*
X77233900Y-48619117D01*
X77263062Y-48723772D01*
X77263230Y-48724386D01*
X77291394Y-48829493D01*
X77293357Y-48834232D01*
X77295877Y-48841537D01*
X77297253Y-48846474D01*
X77339883Y-48946562D01*
X77340129Y-48947149D01*
X77381716Y-49047549D01*
X77381719Y-49047555D01*
X77384278Y-49051988D01*
X77387731Y-49058902D01*
X77389741Y-49063621D01*
X77389747Y-49063631D01*
X77389748Y-49063633D01*
X77445032Y-49157224D01*
X77445353Y-49157774D01*
X77499720Y-49251939D01*
X77499722Y-49251943D01*
X77502846Y-49256015D01*
X77507167Y-49262413D01*
X77509780Y-49266836D01*
X77576786Y-49352383D01*
X77577176Y-49352886D01*
X77635291Y-49428621D01*
X77643408Y-49439199D01*
X77643417Y-49439208D01*
X77647035Y-49442827D01*
X77652157Y-49448609D01*
X77655317Y-49452644D01*
X77655321Y-49452648D01*
X77732922Y-49528718D01*
X77733375Y-49529166D01*
X77810300Y-49606091D01*
X77814365Y-49609210D01*
X77820206Y-49614280D01*
X77823396Y-49617408D01*
X77823871Y-49617874D01*
X77910752Y-49683175D01*
X77911260Y-49683560D01*
X77997553Y-49749775D01*
X77997554Y-49749776D01*
X78001980Y-49752331D01*
X78008429Y-49756593D01*
X78012535Y-49759679D01*
X78107268Y-49813122D01*
X78107821Y-49813438D01*
X78133412Y-49828212D01*
X78167499Y-49847892D01*
X78197319Y-49886753D01*
X78199500Y-49903318D01*
X78199500Y-51329111D01*
X78180755Y-51374366D01*
X77855866Y-51699255D01*
X77810611Y-51718000D01*
X77718272Y-51718000D01*
X77679312Y-51704775D01*
X77652844Y-51684466D01*
X77652842Y-51684465D01*
X77652841Y-51684464D01*
X77652839Y-51684463D01*
X77652837Y-51684462D01*
X77506766Y-51623957D01*
X77506757Y-51623954D01*
X77350004Y-51603318D01*
X77349996Y-51603318D01*
X77193242Y-51623954D01*
X77193233Y-51623957D01*
X77047162Y-51684462D01*
X77047159Y-51684464D01*
X76921718Y-51780718D01*
X76825464Y-51906159D01*
X76825462Y-51906162D01*
X76764957Y-52052233D01*
X76764954Y-52052242D01*
X76744318Y-52208996D01*
X76744318Y-52209003D01*
X62010500Y-52209003D01*
X62010500Y-17074000D01*
X62029245Y-17028745D01*
X62074500Y-17010000D01*
X89925500Y-17010000D01*
X89970755Y-17028745D01*
G37*
G04 #@! TD.AperFunction*
G04 #@! TD*
G04 #@! TA.AperFunction,Conductor*
G04 #@! TO.N,Board_0-GND*
G36*
X27970755Y-17028745D02*
G01*
X27989500Y-17074000D01*
X27989500Y-69425000D01*
X27970755Y-69470255D01*
X27925500Y-69489000D01*
X74500Y-69489000D01*
X29245Y-69470255D01*
X10500Y-69425000D01*
X10500Y-66269500D01*
X11249571Y-66269500D01*
X11269244Y-66481810D01*
X11327595Y-66686889D01*
X11390516Y-66813252D01*
X11422632Y-66877752D01*
X11551127Y-67047906D01*
X11708694Y-67191549D01*
X11708696Y-67191550D01*
X11708698Y-67191552D01*
X11833247Y-67268670D01*
X11871354Y-67292265D01*
X11889981Y-67303798D01*
X11989391Y-67342309D01*
X12088804Y-67380822D01*
X12211983Y-67403847D01*
X12298390Y-67420000D01*
X12511610Y-67420000D01*
X12634791Y-67396973D01*
X12721195Y-67380822D01*
X12721198Y-67380821D01*
X12920019Y-67303798D01*
X13101302Y-67191552D01*
X13131132Y-67164358D01*
X13794500Y-67164358D01*
X13794501Y-67164367D01*
X13797415Y-67189493D01*
X13820104Y-67240878D01*
X13842794Y-67292265D01*
X13922235Y-67371706D01*
X14025009Y-67417085D01*
X14050135Y-67420000D01*
X15839864Y-67419999D01*
X15864991Y-67417085D01*
X15967765Y-67371706D01*
X16047206Y-67292265D01*
X16092585Y-67189491D01*
X16095500Y-67164365D01*
X16095499Y-65374636D01*
X16092585Y-65349509D01*
X16047206Y-65246735D01*
X15967765Y-65167294D01*
X15864991Y-65121915D01*
X15839865Y-65119000D01*
X15839863Y-65119000D01*
X14050141Y-65119000D01*
X14050132Y-65119001D01*
X14025006Y-65121915D01*
X13947928Y-65155949D01*
X13922235Y-65167294D01*
X13842794Y-65246735D01*
X13797415Y-65349509D01*
X13794500Y-65374635D01*
X13794500Y-67164358D01*
X13131132Y-67164358D01*
X13258872Y-67047907D01*
X13387366Y-66877755D01*
X13482405Y-66686889D01*
X13540756Y-66481810D01*
X13560429Y-66269500D01*
X13540756Y-66057190D01*
X13482405Y-65852111D01*
X13387366Y-65661245D01*
X13258872Y-65491093D01*
X13101305Y-65347450D01*
X12920020Y-65235202D01*
X12721195Y-65158177D01*
X12511612Y-65119000D01*
X12511610Y-65119000D01*
X12298390Y-65119000D01*
X12298387Y-65119000D01*
X12088804Y-65158177D01*
X11889979Y-65235202D01*
X11708694Y-65347450D01*
X11551127Y-65491093D01*
X11422632Y-65661247D01*
X11327594Y-65852114D01*
X11269244Y-66057188D01*
X11269244Y-66057190D01*
X11249571Y-66269500D01*
X10500Y-66269500D01*
X10500Y-61704500D01*
X818167Y-61704500D01*
X823062Y-61721704D01*
X918059Y-61912488D01*
X1046498Y-62082568D01*
X1203997Y-62226149D01*
X1385203Y-62338347D01*
X1499999Y-62382819D01*
X1500000Y-62382819D01*
X1500000Y-61704500D01*
X818167Y-61704500D01*
X10500Y-61704500D01*
X10500Y-61370326D01*
X1400000Y-61370326D01*
X1434075Y-61497493D01*
X1499901Y-61611507D01*
X1592993Y-61704599D01*
X1707007Y-61770425D01*
X1834174Y-61804500D01*
X1965826Y-61804500D01*
X2092993Y-61770425D01*
X2207007Y-61704599D01*
X2207106Y-61704500D01*
X2300000Y-61704500D01*
X2300000Y-62382819D01*
X2414796Y-62338347D01*
X2596002Y-62226149D01*
X2753501Y-62082568D01*
X2881940Y-61912488D01*
X2976937Y-61721704D01*
X2981833Y-61704500D01*
X2300000Y-61704500D01*
X2207106Y-61704500D01*
X2300099Y-61611507D01*
X2365925Y-61497493D01*
X2400000Y-61370326D01*
X2400000Y-61238674D01*
X2365925Y-61111507D01*
X2300099Y-60997493D01*
X2207007Y-60904401D01*
X2092993Y-60838575D01*
X1965826Y-60804500D01*
X1834174Y-60804500D01*
X1707007Y-60838575D01*
X1592993Y-60904401D01*
X1499901Y-60997493D01*
X1434075Y-61111507D01*
X1400000Y-61238674D01*
X1400000Y-61370326D01*
X10500Y-61370326D01*
X10500Y-60904500D01*
X818167Y-60904500D01*
X1500000Y-60904500D01*
X1500000Y-60226180D01*
X1499999Y-60226179D01*
X2300000Y-60226179D01*
X2300000Y-60904500D01*
X2981832Y-60904500D01*
X2976937Y-60887295D01*
X2881940Y-60696511D01*
X2753501Y-60526431D01*
X2596002Y-60382850D01*
X2414796Y-60270652D01*
X2300000Y-60226179D01*
X1499999Y-60226179D01*
X1385203Y-60270652D01*
X1203997Y-60382850D01*
X1046498Y-60526431D01*
X918059Y-60696511D01*
X823062Y-60887295D01*
X818167Y-60904500D01*
X10500Y-60904500D01*
X10500Y-59659358D01*
X749500Y-59659358D01*
X749501Y-59659367D01*
X752415Y-59684493D01*
X775104Y-59735878D01*
X797794Y-59787265D01*
X877235Y-59866706D01*
X980009Y-59912085D01*
X1005135Y-59915000D01*
X2794864Y-59914999D01*
X2819991Y-59912085D01*
X2922765Y-59866706D01*
X3002206Y-59787265D01*
X3047585Y-59684491D01*
X3050500Y-59659365D01*
X3050499Y-57869636D01*
X3047585Y-57844509D01*
X3002206Y-57741735D01*
X2922765Y-57662294D01*
X2819991Y-57616915D01*
X2794865Y-57614000D01*
X2794863Y-57614000D01*
X1005141Y-57614000D01*
X1005132Y-57614001D01*
X980006Y-57616915D01*
X902928Y-57650949D01*
X877235Y-57662294D01*
X797794Y-57741735D01*
X752415Y-57844509D01*
X749500Y-57869635D01*
X749500Y-59659358D01*
X10500Y-59659358D01*
X10500Y-52209003D01*
X14744318Y-52209003D01*
X14764954Y-52365757D01*
X14764957Y-52365766D01*
X14825462Y-52511837D01*
X14825464Y-52511841D01*
X14921718Y-52637282D01*
X15047159Y-52733536D01*
X15193238Y-52794044D01*
X15193239Y-52794044D01*
X15193242Y-52794045D01*
X15349996Y-52814682D01*
X15350000Y-52814682D01*
X15350004Y-52814682D01*
X15506757Y-52794045D01*
X15506758Y-52794044D01*
X15506762Y-52794044D01*
X15652841Y-52733536D01*
X15664427Y-52724645D01*
X15679312Y-52713225D01*
X15718272Y-52700000D01*
X16105139Y-52700000D01*
X16105142Y-52700000D01*
X16118934Y-52696304D01*
X16167499Y-52702697D01*
X16197319Y-52741557D01*
X16199500Y-52758123D01*
X16199500Y-58727199D01*
X16180755Y-58772453D01*
X16143415Y-58809793D01*
X16143407Y-58809802D01*
X15999726Y-58997051D01*
X15881712Y-59201457D01*
X15881711Y-59201457D01*
X15851338Y-59274788D01*
X15851338Y-59274789D01*
X15791393Y-59419506D01*
X15730308Y-59647477D01*
X15730305Y-59647491D01*
X15699500Y-59881483D01*
X15699500Y-60117516D01*
X15730305Y-60351508D01*
X15730308Y-60351522D01*
X15791393Y-60579492D01*
X15807078Y-60617357D01*
X15807078Y-60617358D01*
X15881711Y-60797541D01*
X15881712Y-60797543D01*
X15979836Y-60967500D01*
X15986229Y-61016065D01*
X15979836Y-61031500D01*
X15881712Y-61201456D01*
X15881711Y-61201458D01*
X15791396Y-61419501D01*
X15791395Y-61419504D01*
X15730309Y-61647477D01*
X15730306Y-61647491D01*
X15699500Y-61881482D01*
X15699500Y-62117517D01*
X15730306Y-62351508D01*
X15730309Y-62351522D01*
X15791395Y-62579495D01*
X15791396Y-62579498D01*
X15881711Y-62797541D01*
X15881712Y-62797542D01*
X15881714Y-62797546D01*
X15881716Y-62797550D01*
X15999727Y-63001950D01*
X16143408Y-63189199D01*
X16310301Y-63356092D01*
X16497550Y-63499773D01*
X16701950Y-63617784D01*
X16701956Y-63617786D01*
X16701957Y-63617787D01*
X16701958Y-63617788D01*
X16920001Y-63708103D01*
X16920006Y-63708105D01*
X17022447Y-63735554D01*
X17147977Y-63769190D01*
X17147991Y-63769193D01*
X17303709Y-63789694D01*
X17381983Y-63799999D01*
X17381987Y-63800000D01*
X17381989Y-63800000D01*
X17618013Y-63800000D01*
X17618015Y-63799999D01*
X17716609Y-63787018D01*
X17852001Y-63769194D01*
X17852003Y-63769193D01*
X17852014Y-63769192D01*
X17977549Y-63735554D01*
X18015020Y-63736884D01*
X18023420Y-63739787D01*
X18254645Y-63787103D01*
X18254650Y-63787104D01*
X18490078Y-63803836D01*
X18725676Y-63789694D01*
X18957413Y-63744922D01*
X19181323Y-63670286D01*
X19393576Y-63567061D01*
X19590539Y-63437015D01*
X19768843Y-63282373D01*
X19925436Y-63105782D01*
X20057640Y-62910260D01*
X20163192Y-62699156D01*
X20240287Y-62476080D01*
X20287604Y-62244850D01*
X20304336Y-62009422D01*
X20290194Y-61773824D01*
X20245422Y-61542087D01*
X20236646Y-61515763D01*
X20235543Y-61478959D01*
X20269693Y-61351514D01*
X20300500Y-61117511D01*
X20300500Y-60881489D01*
X20269693Y-60647486D01*
X20234478Y-60516061D01*
X20234478Y-60482936D01*
X20269693Y-60351514D01*
X20300500Y-60117511D01*
X20300500Y-58881489D01*
X20285096Y-58764487D01*
X20269694Y-58647492D01*
X20269693Y-58647490D01*
X20269693Y-58647486D01*
X20268466Y-58642908D01*
X20208606Y-58419506D01*
X20174611Y-58337435D01*
X20118288Y-58201458D01*
X20118285Y-58201453D01*
X20118284Y-58201450D01*
X20000274Y-57997049D01*
X20000272Y-57997046D01*
X20000269Y-57997041D01*
X19856600Y-57809810D01*
X19856597Y-57809807D01*
X19856592Y-57809800D01*
X19856584Y-57809792D01*
X19819245Y-57772452D01*
X19800500Y-57727198D01*
X19800500Y-48131488D01*
X19800499Y-48131483D01*
X19769695Y-47897498D01*
X19769694Y-47897493D01*
X19769693Y-47897486D01*
X19734477Y-47766060D01*
X19734477Y-47732935D01*
X19769692Y-47601514D01*
X19800499Y-47367511D01*
X19800499Y-47131489D01*
X19769692Y-46897486D01*
X19738633Y-46781571D01*
X19734478Y-46766065D01*
X19734478Y-46732936D01*
X19736854Y-46724069D01*
X19737015Y-46723480D01*
X19766251Y-46618394D01*
X19766913Y-46613704D01*
X19768467Y-46606088D01*
X19769693Y-46601514D01*
X19783963Y-46493116D01*
X19783997Y-46492868D01*
X19799291Y-46384696D01*
X19799336Y-46379952D01*
X19799881Y-46372208D01*
X19800500Y-46367511D01*
X19800500Y-46258400D01*
X19800503Y-46257789D01*
X19801545Y-46148683D01*
X19800971Y-46143978D01*
X19800500Y-46136229D01*
X19800500Y-46131487D01*
X19800499Y-46131482D01*
X19786258Y-46023314D01*
X19786181Y-46022707D01*
X19772974Y-45914408D01*
X19772973Y-45914399D01*
X19772971Y-45914391D01*
X19771791Y-45909812D01*
X19770310Y-45902179D01*
X19769693Y-45897486D01*
X19741444Y-45792061D01*
X19741301Y-45791519D01*
X19734862Y-45766537D01*
X19735751Y-45731472D01*
X19753737Y-45673919D01*
X19753740Y-45673907D01*
X19753741Y-45673905D01*
X19759599Y-45640171D01*
X19760830Y-45634585D01*
X19769693Y-45601514D01*
X19780097Y-45522476D01*
X19780491Y-45519898D01*
X19784833Y-45494904D01*
X19794134Y-45441365D01*
X19795540Y-45407158D01*
X19796034Y-45401432D01*
X19797844Y-45387685D01*
X19800500Y-45367511D01*
X19800500Y-45287816D01*
X19800554Y-45285187D01*
X19801591Y-45259963D01*
X19803828Y-45205542D01*
X19800757Y-45171452D01*
X19800500Y-45165712D01*
X19800500Y-45131487D01*
X19800499Y-45131485D01*
X19790091Y-45052433D01*
X19789809Y-45049891D01*
X19782658Y-44970472D01*
X19775164Y-44937075D01*
X19774161Y-44931429D01*
X19772306Y-44917336D01*
X19769693Y-44897486D01*
X19749056Y-44820470D01*
X19748431Y-44817928D01*
X19736912Y-44766591D01*
X19737657Y-44738356D01*
X19737058Y-44738230D01*
X19751411Y-44670102D01*
X19752217Y-44666731D01*
X19769693Y-44601514D01*
X19775754Y-44555467D01*
X19776573Y-44550681D01*
X19786150Y-44505228D01*
X19791329Y-44437871D01*
X19791689Y-44434433D01*
X19800499Y-44367515D01*
X19800500Y-44367513D01*
X19800500Y-44321098D01*
X19800688Y-44316191D01*
X19800775Y-44315058D01*
X19804248Y-44269901D01*
X19804247Y-44269892D01*
X19804248Y-44269891D01*
X19800594Y-44202480D01*
X19800500Y-44199016D01*
X19800500Y-44131487D01*
X19799248Y-44121983D01*
X19794436Y-44085439D01*
X19793987Y-44080592D01*
X19791475Y-44034225D01*
X19779051Y-43967859D01*
X19778508Y-43964451D01*
X19769693Y-43897486D01*
X19757668Y-43852609D01*
X19756594Y-43847883D01*
X19753548Y-43831613D01*
X19763648Y-43783686D01*
X19771196Y-43774593D01*
X21606592Y-41939199D01*
X21750273Y-41751950D01*
X21868284Y-41547550D01*
X21871041Y-41540894D01*
X21926228Y-41407661D01*
X21926228Y-41407660D01*
X21958606Y-41329493D01*
X22019691Y-41101522D01*
X22019694Y-41101508D01*
X22050499Y-40867516D01*
X22050500Y-40867511D01*
X22050500Y-21186800D01*
X22069244Y-21141546D01*
X22271592Y-20939199D01*
X22415273Y-20751950D01*
X22528048Y-20556618D01*
X22566906Y-20526802D01*
X22615471Y-20533195D01*
X22626588Y-20541325D01*
X22768997Y-20671148D01*
X22950203Y-20783347D01*
X23064999Y-20827819D01*
X23065000Y-20827819D01*
X23065000Y-20056606D01*
X23157993Y-20149599D01*
X23272007Y-20215425D01*
X23399174Y-20249500D01*
X23530826Y-20249500D01*
X23657993Y-20215425D01*
X23772007Y-20149599D01*
X23772106Y-20149500D01*
X23865000Y-20149500D01*
X23865000Y-20827819D01*
X23979796Y-20783347D01*
X24161002Y-20671149D01*
X24318501Y-20527568D01*
X24446940Y-20357488D01*
X24541937Y-20166704D01*
X24546833Y-20149500D01*
X23865000Y-20149500D01*
X23772106Y-20149500D01*
X23865099Y-20056507D01*
X23930925Y-19942493D01*
X23965000Y-19815326D01*
X23965000Y-19683674D01*
X23930925Y-19556507D01*
X23865099Y-19442493D01*
X23772007Y-19349401D01*
X23657993Y-19283575D01*
X23530826Y-19249500D01*
X23399174Y-19249500D01*
X23272007Y-19283575D01*
X23157993Y-19349401D01*
X23065000Y-19442394D01*
X23065000Y-18671180D01*
X23064999Y-18671179D01*
X23865000Y-18671179D01*
X23865000Y-19349500D01*
X24546832Y-19349500D01*
X24541937Y-19332295D01*
X24446940Y-19141511D01*
X24318501Y-18971431D01*
X24161002Y-18827850D01*
X23979796Y-18715652D01*
X23865000Y-18671179D01*
X23064999Y-18671179D01*
X22950203Y-18715652D01*
X22768997Y-18827851D01*
X22626589Y-18957674D01*
X22580516Y-18974310D01*
X22536176Y-18953495D01*
X22528046Y-18942378D01*
X22415273Y-18747050D01*
X22271592Y-18559801D01*
X22104699Y-18392908D01*
X21917450Y-18249227D01*
X21713050Y-18131216D01*
X21713046Y-18131214D01*
X21713042Y-18131212D01*
X21713041Y-18131211D01*
X21494998Y-18040896D01*
X21494995Y-18040895D01*
X21267022Y-17979809D01*
X21267008Y-17979806D01*
X21033017Y-17949000D01*
X21033011Y-17949000D01*
X20796989Y-17949000D01*
X20796982Y-17949000D01*
X20562991Y-17979806D01*
X20562977Y-17979809D01*
X20335004Y-18040895D01*
X20335001Y-18040896D01*
X20116958Y-18131211D01*
X20116957Y-18131212D01*
X19912551Y-18249226D01*
X19725302Y-18392907D01*
X18893407Y-19224802D01*
X18749726Y-19412051D01*
X18631715Y-19616451D01*
X18594303Y-19706772D01*
X18541393Y-19834506D01*
X18480308Y-20062477D01*
X18480305Y-20062491D01*
X18449500Y-20296483D01*
X18449500Y-39977199D01*
X18430755Y-40022454D01*
X17022954Y-41430255D01*
X16977699Y-41449000D01*
X16881983Y-41449000D01*
X16647991Y-41479805D01*
X16647977Y-41479808D01*
X16420006Y-41540893D01*
X16201949Y-41631216D01*
X15997547Y-41749228D01*
X15810302Y-41892907D01*
X15643407Y-42059802D01*
X15499728Y-42247047D01*
X15381716Y-42451449D01*
X15291393Y-42669506D01*
X15230308Y-42897477D01*
X15230305Y-42897491D01*
X15199500Y-43131483D01*
X15199500Y-44367516D01*
X15230305Y-44601508D01*
X15230308Y-44601522D01*
X15265352Y-44732305D01*
X15265534Y-44764742D01*
X15258332Y-44792875D01*
X15258151Y-44793566D01*
X15230306Y-44897489D01*
X15229482Y-44903744D01*
X15228034Y-44911239D01*
X15226474Y-44917336D01*
X15226473Y-44917338D01*
X15213635Y-45024081D01*
X15213546Y-45024791D01*
X15199501Y-45131487D01*
X15199500Y-45131492D01*
X15199500Y-45137784D01*
X15199042Y-45145425D01*
X15198290Y-45151673D01*
X15198290Y-45151676D01*
X15199496Y-45259246D01*
X15199500Y-45259963D01*
X15199500Y-45367516D01*
X15200322Y-45373761D01*
X15200865Y-45381384D01*
X15200936Y-45387690D01*
X15216173Y-45494194D01*
X15216270Y-45494904D01*
X15230306Y-45601510D01*
X15231936Y-45607594D01*
X15233470Y-45615086D01*
X15234363Y-45621328D01*
X15263372Y-45724932D01*
X15263561Y-45725623D01*
X15265520Y-45732934D01*
X15265520Y-45766063D01*
X15230307Y-45897481D01*
X15230306Y-45897486D01*
X15199500Y-46131483D01*
X15199500Y-48136614D01*
X15199033Y-48144330D01*
X15198415Y-48149418D01*
X15198414Y-48149421D01*
X15199497Y-48258130D01*
X15199500Y-48258767D01*
X15199500Y-48367510D01*
X15200169Y-48372598D01*
X15200712Y-48380295D01*
X15200763Y-48385422D01*
X15200764Y-48385435D01*
X15216027Y-48493070D01*
X15216113Y-48493701D01*
X15230305Y-48601501D01*
X15230308Y-48601520D01*
X15231636Y-48606476D01*
X15233180Y-48614039D01*
X15233900Y-48619117D01*
X15263062Y-48723772D01*
X15263230Y-48724386D01*
X15291394Y-48829493D01*
X15293357Y-48834232D01*
X15295877Y-48841537D01*
X15297253Y-48846474D01*
X15339883Y-48946562D01*
X15340129Y-48947149D01*
X15381716Y-49047549D01*
X15381719Y-49047555D01*
X15384278Y-49051988D01*
X15387731Y-49058902D01*
X15389741Y-49063621D01*
X15389747Y-49063631D01*
X15389748Y-49063633D01*
X15445032Y-49157224D01*
X15445353Y-49157774D01*
X15499720Y-49251939D01*
X15499722Y-49251943D01*
X15502846Y-49256015D01*
X15507167Y-49262413D01*
X15509780Y-49266836D01*
X15576786Y-49352383D01*
X15577176Y-49352886D01*
X15635291Y-49428621D01*
X15643408Y-49439199D01*
X15643417Y-49439208D01*
X15647035Y-49442827D01*
X15652157Y-49448609D01*
X15655317Y-49452644D01*
X15655321Y-49452648D01*
X15732922Y-49528718D01*
X15733375Y-49529166D01*
X15810300Y-49606091D01*
X15814365Y-49609210D01*
X15820206Y-49614280D01*
X15823396Y-49617408D01*
X15823871Y-49617874D01*
X15910752Y-49683175D01*
X15911260Y-49683560D01*
X15997553Y-49749775D01*
X15997554Y-49749776D01*
X16001980Y-49752331D01*
X16008429Y-49756593D01*
X16012535Y-49759679D01*
X16107268Y-49813122D01*
X16107821Y-49813438D01*
X16133412Y-49828212D01*
X16167499Y-49847892D01*
X16197319Y-49886753D01*
X16199500Y-49903318D01*
X16199500Y-51329111D01*
X16180755Y-51374366D01*
X15855866Y-51699255D01*
X15810611Y-51718000D01*
X15718272Y-51718000D01*
X15679312Y-51704775D01*
X15652844Y-51684466D01*
X15652842Y-51684465D01*
X15652841Y-51684464D01*
X15652839Y-51684463D01*
X15652837Y-51684462D01*
X15506766Y-51623957D01*
X15506757Y-51623954D01*
X15350004Y-51603318D01*
X15349996Y-51603318D01*
X15193242Y-51623954D01*
X15193233Y-51623957D01*
X15047162Y-51684462D01*
X15047159Y-51684464D01*
X14921718Y-51780718D01*
X14825464Y-51906159D01*
X14825462Y-51906162D01*
X14764957Y-52052233D01*
X14764954Y-52052242D01*
X14744318Y-52208996D01*
X14744318Y-52209003D01*
X10500Y-52209003D01*
X10500Y-17074000D01*
X29245Y-17028745D01*
X74500Y-17010000D01*
X27925500Y-17010000D01*
X27970755Y-17028745D01*
G37*
G04 #@! TD.AperFunction*
G04 #@! TD*
G04 #@! TA.AperFunction,Conductor*
G04 #@! TO.N,Board_1-GND*
G36*
X58970755Y-17028745D02*
G01*
X58989500Y-17074000D01*
X58989500Y-69425000D01*
X58970755Y-69470255D01*
X58925500Y-69489000D01*
X31074500Y-69489000D01*
X31029245Y-69470255D01*
X31010500Y-69425000D01*
X31010500Y-66269500D01*
X42249571Y-66269500D01*
X42269244Y-66481810D01*
X42327595Y-66686889D01*
X42390516Y-66813252D01*
X42422632Y-66877752D01*
X42551127Y-67047906D01*
X42708694Y-67191549D01*
X42708696Y-67191550D01*
X42708698Y-67191552D01*
X42833247Y-67268670D01*
X42871354Y-67292265D01*
X42889981Y-67303798D01*
X42989391Y-67342309D01*
X43088804Y-67380822D01*
X43211983Y-67403847D01*
X43298390Y-67420000D01*
X43511610Y-67420000D01*
X43634791Y-67396973D01*
X43721195Y-67380822D01*
X43721198Y-67380821D01*
X43920019Y-67303798D01*
X44101302Y-67191552D01*
X44131132Y-67164358D01*
X44794500Y-67164358D01*
X44794501Y-67164367D01*
X44797415Y-67189493D01*
X44820104Y-67240878D01*
X44842794Y-67292265D01*
X44922235Y-67371706D01*
X45025009Y-67417085D01*
X45050135Y-67420000D01*
X46839864Y-67419999D01*
X46864991Y-67417085D01*
X46967765Y-67371706D01*
X47047206Y-67292265D01*
X47092585Y-67189491D01*
X47095500Y-67164365D01*
X47095499Y-65374636D01*
X47092585Y-65349509D01*
X47047206Y-65246735D01*
X46967765Y-65167294D01*
X46864991Y-65121915D01*
X46839865Y-65119000D01*
X46839863Y-65119000D01*
X45050141Y-65119000D01*
X45050132Y-65119001D01*
X45025006Y-65121915D01*
X44947928Y-65155949D01*
X44922235Y-65167294D01*
X44842794Y-65246735D01*
X44797415Y-65349509D01*
X44794500Y-65374635D01*
X44794500Y-67164358D01*
X44131132Y-67164358D01*
X44258872Y-67047907D01*
X44387366Y-66877755D01*
X44482405Y-66686889D01*
X44540756Y-66481810D01*
X44560429Y-66269500D01*
X44540756Y-66057190D01*
X44482405Y-65852111D01*
X44387366Y-65661245D01*
X44258872Y-65491093D01*
X44101305Y-65347450D01*
X43920020Y-65235202D01*
X43721195Y-65158177D01*
X43511612Y-65119000D01*
X43511610Y-65119000D01*
X43298390Y-65119000D01*
X43298387Y-65119000D01*
X43088804Y-65158177D01*
X42889979Y-65235202D01*
X42708694Y-65347450D01*
X42551127Y-65491093D01*
X42422632Y-65661247D01*
X42327594Y-65852114D01*
X42269244Y-66057188D01*
X42269244Y-66057190D01*
X42249571Y-66269500D01*
X31010500Y-66269500D01*
X31010500Y-61704500D01*
X31818167Y-61704500D01*
X31823062Y-61721704D01*
X31918059Y-61912488D01*
X32046498Y-62082568D01*
X32203997Y-62226149D01*
X32385203Y-62338347D01*
X32499999Y-62382819D01*
X32500000Y-62382819D01*
X32500000Y-61704500D01*
X31818167Y-61704500D01*
X31010500Y-61704500D01*
X31010500Y-61370326D01*
X32400000Y-61370326D01*
X32434075Y-61497493D01*
X32499901Y-61611507D01*
X32592993Y-61704599D01*
X32707007Y-61770425D01*
X32834174Y-61804500D01*
X32965826Y-61804500D01*
X33092993Y-61770425D01*
X33207007Y-61704599D01*
X33207106Y-61704500D01*
X33300000Y-61704500D01*
X33300000Y-62382819D01*
X33414796Y-62338347D01*
X33596002Y-62226149D01*
X33753501Y-62082568D01*
X33881940Y-61912488D01*
X33976937Y-61721704D01*
X33981833Y-61704500D01*
X33300000Y-61704500D01*
X33207106Y-61704500D01*
X33300099Y-61611507D01*
X33365925Y-61497493D01*
X33400000Y-61370326D01*
X33400000Y-61238674D01*
X33365925Y-61111507D01*
X33300099Y-60997493D01*
X33207007Y-60904401D01*
X33092993Y-60838575D01*
X32965826Y-60804500D01*
X32834174Y-60804500D01*
X32707007Y-60838575D01*
X32592993Y-60904401D01*
X32499901Y-60997493D01*
X32434075Y-61111507D01*
X32400000Y-61238674D01*
X32400000Y-61370326D01*
X31010500Y-61370326D01*
X31010500Y-60904500D01*
X31818167Y-60904500D01*
X32500000Y-60904500D01*
X32500000Y-60226180D01*
X32499999Y-60226179D01*
X33300000Y-60226179D01*
X33300000Y-60904500D01*
X33981832Y-60904500D01*
X33976937Y-60887295D01*
X33881940Y-60696511D01*
X33753501Y-60526431D01*
X33596002Y-60382850D01*
X33414796Y-60270652D01*
X33300000Y-60226179D01*
X32499999Y-60226179D01*
X32385203Y-60270652D01*
X32203997Y-60382850D01*
X32046498Y-60526431D01*
X31918059Y-60696511D01*
X31823062Y-60887295D01*
X31818167Y-60904500D01*
X31010500Y-60904500D01*
X31010500Y-59659358D01*
X31749500Y-59659358D01*
X31749501Y-59659367D01*
X31752415Y-59684493D01*
X31775104Y-59735878D01*
X31797794Y-59787265D01*
X31877235Y-59866706D01*
X31980009Y-59912085D01*
X32005135Y-59915000D01*
X33794864Y-59914999D01*
X33819991Y-59912085D01*
X33922765Y-59866706D01*
X34002206Y-59787265D01*
X34047585Y-59684491D01*
X34050500Y-59659365D01*
X34050499Y-57869636D01*
X34047585Y-57844509D01*
X34002206Y-57741735D01*
X33922765Y-57662294D01*
X33819991Y-57616915D01*
X33794865Y-57614000D01*
X33794863Y-57614000D01*
X32005141Y-57614000D01*
X32005132Y-57614001D01*
X31980006Y-57616915D01*
X31902928Y-57650949D01*
X31877235Y-57662294D01*
X31797794Y-57741735D01*
X31752415Y-57844509D01*
X31749500Y-57869635D01*
X31749500Y-59659358D01*
X31010500Y-59659358D01*
X31010500Y-52209003D01*
X45744318Y-52209003D01*
X45764954Y-52365757D01*
X45764957Y-52365766D01*
X45825462Y-52511837D01*
X45825464Y-52511841D01*
X45921718Y-52637282D01*
X46047159Y-52733536D01*
X46193238Y-52794044D01*
X46193239Y-52794044D01*
X46193242Y-52794045D01*
X46349996Y-52814682D01*
X46350000Y-52814682D01*
X46350004Y-52814682D01*
X46506757Y-52794045D01*
X46506758Y-52794044D01*
X46506762Y-52794044D01*
X46652841Y-52733536D01*
X46664427Y-52724645D01*
X46679312Y-52713225D01*
X46718272Y-52700000D01*
X47105139Y-52700000D01*
X47105142Y-52700000D01*
X47118934Y-52696304D01*
X47167499Y-52702697D01*
X47197319Y-52741557D01*
X47199500Y-52758123D01*
X47199500Y-58727199D01*
X47180755Y-58772453D01*
X47143415Y-58809793D01*
X47143407Y-58809802D01*
X46999726Y-58997051D01*
X46881712Y-59201457D01*
X46881711Y-59201457D01*
X46851338Y-59274788D01*
X46851338Y-59274789D01*
X46791393Y-59419506D01*
X46730308Y-59647477D01*
X46730305Y-59647491D01*
X46699500Y-59881483D01*
X46699500Y-60117516D01*
X46730305Y-60351508D01*
X46730308Y-60351522D01*
X46791393Y-60579492D01*
X46807078Y-60617357D01*
X46807078Y-60617358D01*
X46881711Y-60797541D01*
X46881712Y-60797543D01*
X46979836Y-60967500D01*
X46986229Y-61016065D01*
X46979836Y-61031500D01*
X46881712Y-61201456D01*
X46881711Y-61201458D01*
X46791396Y-61419501D01*
X46791395Y-61419504D01*
X46730309Y-61647477D01*
X46730306Y-61647491D01*
X46699500Y-61881482D01*
X46699500Y-62117517D01*
X46730306Y-62351508D01*
X46730309Y-62351522D01*
X46791395Y-62579495D01*
X46791396Y-62579498D01*
X46881711Y-62797541D01*
X46881712Y-62797542D01*
X46881714Y-62797546D01*
X46881716Y-62797550D01*
X46999727Y-63001950D01*
X47143408Y-63189199D01*
X47310301Y-63356092D01*
X47497550Y-63499773D01*
X47701950Y-63617784D01*
X47701956Y-63617786D01*
X47701957Y-63617787D01*
X47701958Y-63617788D01*
X47920001Y-63708103D01*
X47920006Y-63708105D01*
X48022447Y-63735554D01*
X48147977Y-63769190D01*
X48147991Y-63769193D01*
X48303709Y-63789694D01*
X48381983Y-63799999D01*
X48381987Y-63800000D01*
X48381989Y-63800000D01*
X48618013Y-63800000D01*
X48618015Y-63799999D01*
X48716609Y-63787018D01*
X48852001Y-63769194D01*
X48852003Y-63769193D01*
X48852014Y-63769192D01*
X48977549Y-63735554D01*
X49015020Y-63736884D01*
X49023420Y-63739787D01*
X49254645Y-63787103D01*
X49254650Y-63787104D01*
X49490078Y-63803836D01*
X49725676Y-63789694D01*
X49957413Y-63744922D01*
X50181323Y-63670286D01*
X50393576Y-63567061D01*
X50590539Y-63437015D01*
X50768843Y-63282373D01*
X50925436Y-63105782D01*
X51057640Y-62910260D01*
X51163192Y-62699156D01*
X51240287Y-62476080D01*
X51287604Y-62244850D01*
X51304336Y-62009422D01*
X51290194Y-61773824D01*
X51245422Y-61542087D01*
X51236646Y-61515763D01*
X51235543Y-61478959D01*
X51269693Y-61351514D01*
X51300500Y-61117511D01*
X51300500Y-60881489D01*
X51269693Y-60647486D01*
X51234478Y-60516061D01*
X51234478Y-60482936D01*
X51269693Y-60351514D01*
X51300500Y-60117511D01*
X51300500Y-58881489D01*
X51285096Y-58764487D01*
X51269694Y-58647492D01*
X51269693Y-58647490D01*
X51269693Y-58647486D01*
X51268466Y-58642908D01*
X51208606Y-58419506D01*
X51174611Y-58337435D01*
X51118288Y-58201458D01*
X51118285Y-58201453D01*
X51118284Y-58201450D01*
X51000274Y-57997049D01*
X51000272Y-57997046D01*
X51000269Y-57997041D01*
X50856600Y-57809810D01*
X50856597Y-57809807D01*
X50856592Y-57809800D01*
X50856584Y-57809792D01*
X50819245Y-57772452D01*
X50800500Y-57727198D01*
X50800500Y-48131488D01*
X50800499Y-48131483D01*
X50769695Y-47897498D01*
X50769694Y-47897493D01*
X50769693Y-47897486D01*
X50734477Y-47766060D01*
X50734477Y-47732935D01*
X50769692Y-47601514D01*
X50800499Y-47367511D01*
X50800499Y-47131489D01*
X50769692Y-46897486D01*
X50738633Y-46781571D01*
X50734478Y-46766065D01*
X50734478Y-46732936D01*
X50736854Y-46724069D01*
X50737015Y-46723480D01*
X50766251Y-46618394D01*
X50766913Y-46613704D01*
X50768467Y-46606088D01*
X50769693Y-46601514D01*
X50783963Y-46493116D01*
X50783997Y-46492868D01*
X50799291Y-46384696D01*
X50799336Y-46379952D01*
X50799881Y-46372208D01*
X50800500Y-46367511D01*
X50800500Y-46258400D01*
X50800503Y-46257789D01*
X50801545Y-46148683D01*
X50800971Y-46143978D01*
X50800500Y-46136229D01*
X50800500Y-46131487D01*
X50800499Y-46131482D01*
X50786258Y-46023314D01*
X50786181Y-46022707D01*
X50772974Y-45914408D01*
X50772973Y-45914399D01*
X50772971Y-45914391D01*
X50771791Y-45909812D01*
X50770310Y-45902179D01*
X50769693Y-45897486D01*
X50741444Y-45792061D01*
X50741301Y-45791519D01*
X50734862Y-45766537D01*
X50735751Y-45731472D01*
X50753737Y-45673919D01*
X50753740Y-45673907D01*
X50753741Y-45673905D01*
X50759599Y-45640171D01*
X50760830Y-45634585D01*
X50769693Y-45601514D01*
X50780097Y-45522476D01*
X50780491Y-45519898D01*
X50784833Y-45494904D01*
X50794134Y-45441365D01*
X50795540Y-45407158D01*
X50796034Y-45401432D01*
X50797844Y-45387685D01*
X50800500Y-45367511D01*
X50800500Y-45287816D01*
X50800554Y-45285187D01*
X50801591Y-45259963D01*
X50803828Y-45205542D01*
X50800757Y-45171452D01*
X50800500Y-45165712D01*
X50800500Y-45131487D01*
X50800499Y-45131485D01*
X50790091Y-45052433D01*
X50789809Y-45049891D01*
X50782658Y-44970472D01*
X50775164Y-44937075D01*
X50774161Y-44931429D01*
X50772306Y-44917336D01*
X50769693Y-44897486D01*
X50749056Y-44820470D01*
X50748431Y-44817928D01*
X50736912Y-44766591D01*
X50737657Y-44738356D01*
X50737058Y-44738230D01*
X50751411Y-44670102D01*
X50752217Y-44666731D01*
X50769693Y-44601514D01*
X50775754Y-44555467D01*
X50776573Y-44550681D01*
X50786150Y-44505228D01*
X50791329Y-44437871D01*
X50791689Y-44434433D01*
X50800499Y-44367515D01*
X50800500Y-44367513D01*
X50800500Y-44321098D01*
X50800688Y-44316191D01*
X50800775Y-44315058D01*
X50804248Y-44269901D01*
X50804247Y-44269892D01*
X50804248Y-44269891D01*
X50800594Y-44202480D01*
X50800500Y-44199016D01*
X50800500Y-44131487D01*
X50799248Y-44121983D01*
X50794436Y-44085439D01*
X50793987Y-44080592D01*
X50791475Y-44034225D01*
X50779051Y-43967859D01*
X50778508Y-43964451D01*
X50769693Y-43897486D01*
X50757668Y-43852609D01*
X50756594Y-43847883D01*
X50753548Y-43831613D01*
X50763648Y-43783686D01*
X50771196Y-43774593D01*
X52606592Y-41939199D01*
X52750273Y-41751950D01*
X52868284Y-41547550D01*
X52871041Y-41540894D01*
X52926228Y-41407661D01*
X52926228Y-41407660D01*
X52958606Y-41329493D01*
X53019691Y-41101522D01*
X53019694Y-41101508D01*
X53050499Y-40867516D01*
X53050500Y-40867511D01*
X53050500Y-21186800D01*
X53069244Y-21141546D01*
X53271592Y-20939199D01*
X53415273Y-20751950D01*
X53528048Y-20556618D01*
X53566906Y-20526802D01*
X53615471Y-20533195D01*
X53626588Y-20541325D01*
X53768997Y-20671148D01*
X53950203Y-20783347D01*
X54064999Y-20827819D01*
X54065000Y-20827819D01*
X54065000Y-20056606D01*
X54157993Y-20149599D01*
X54272007Y-20215425D01*
X54399174Y-20249500D01*
X54530826Y-20249500D01*
X54657993Y-20215425D01*
X54772007Y-20149599D01*
X54772106Y-20149500D01*
X54865000Y-20149500D01*
X54865000Y-20827819D01*
X54979796Y-20783347D01*
X55161002Y-20671149D01*
X55318501Y-20527568D01*
X55446940Y-20357488D01*
X55541937Y-20166704D01*
X55546833Y-20149500D01*
X54865000Y-20149500D01*
X54772106Y-20149500D01*
X54865099Y-20056507D01*
X54930925Y-19942493D01*
X54965000Y-19815326D01*
X54965000Y-19683674D01*
X54930925Y-19556507D01*
X54865099Y-19442493D01*
X54772007Y-19349401D01*
X54657993Y-19283575D01*
X54530826Y-19249500D01*
X54399174Y-19249500D01*
X54272007Y-19283575D01*
X54157993Y-19349401D01*
X54065000Y-19442394D01*
X54065000Y-18671180D01*
X54064999Y-18671179D01*
X54865000Y-18671179D01*
X54865000Y-19349500D01*
X55546832Y-19349500D01*
X55541937Y-19332295D01*
X55446940Y-19141511D01*
X55318501Y-18971431D01*
X55161002Y-18827850D01*
X54979796Y-18715652D01*
X54865000Y-18671179D01*
X54064999Y-18671179D01*
X53950203Y-18715652D01*
X53768997Y-18827851D01*
X53626589Y-18957674D01*
X53580516Y-18974310D01*
X53536176Y-18953495D01*
X53528046Y-18942378D01*
X53415273Y-18747050D01*
X53271592Y-18559801D01*
X53104699Y-18392908D01*
X52917450Y-18249227D01*
X52713050Y-18131216D01*
X52713046Y-18131214D01*
X52713042Y-18131212D01*
X52713041Y-18131211D01*
X52494998Y-18040896D01*
X52494995Y-18040895D01*
X52267022Y-17979809D01*
X52267008Y-17979806D01*
X52033017Y-17949000D01*
X52033011Y-17949000D01*
X51796989Y-17949000D01*
X51796982Y-17949000D01*
X51562991Y-17979806D01*
X51562977Y-17979809D01*
X51335004Y-18040895D01*
X51335001Y-18040896D01*
X51116958Y-18131211D01*
X51116957Y-18131212D01*
X50912551Y-18249226D01*
X50725302Y-18392907D01*
X49893407Y-19224802D01*
X49749726Y-19412051D01*
X49631715Y-19616451D01*
X49594303Y-19706772D01*
X49541393Y-19834506D01*
X49480308Y-20062477D01*
X49480305Y-20062491D01*
X49449500Y-20296483D01*
X49449500Y-39977199D01*
X49430755Y-40022454D01*
X48022954Y-41430255D01*
X47977699Y-41449000D01*
X47881983Y-41449000D01*
X47647991Y-41479805D01*
X47647977Y-41479808D01*
X47420006Y-41540893D01*
X47201949Y-41631216D01*
X46997547Y-41749228D01*
X46810302Y-41892907D01*
X46643407Y-42059802D01*
X46499728Y-42247047D01*
X46381716Y-42451449D01*
X46291393Y-42669506D01*
X46230308Y-42897477D01*
X46230305Y-42897491D01*
X46199500Y-43131483D01*
X46199500Y-44367516D01*
X46230305Y-44601508D01*
X46230308Y-44601522D01*
X46265352Y-44732305D01*
X46265534Y-44764742D01*
X46258332Y-44792875D01*
X46258151Y-44793566D01*
X46230306Y-44897489D01*
X46229482Y-44903744D01*
X46228034Y-44911239D01*
X46226474Y-44917336D01*
X46226473Y-44917338D01*
X46213635Y-45024081D01*
X46213546Y-45024791D01*
X46199501Y-45131487D01*
X46199500Y-45131492D01*
X46199500Y-45137784D01*
X46199042Y-45145425D01*
X46198290Y-45151673D01*
X46198290Y-45151676D01*
X46199496Y-45259246D01*
X46199500Y-45259963D01*
X46199500Y-45367516D01*
X46200322Y-45373761D01*
X46200865Y-45381384D01*
X46200936Y-45387690D01*
X46216173Y-45494194D01*
X46216270Y-45494904D01*
X46230306Y-45601510D01*
X46231936Y-45607594D01*
X46233470Y-45615086D01*
X46234363Y-45621328D01*
X46263372Y-45724932D01*
X46263561Y-45725623D01*
X46265520Y-45732934D01*
X46265520Y-45766063D01*
X46230307Y-45897481D01*
X46230306Y-45897486D01*
X46199500Y-46131483D01*
X46199500Y-48136614D01*
X46199033Y-48144330D01*
X46198415Y-48149418D01*
X46198414Y-48149421D01*
X46199497Y-48258130D01*
X46199500Y-48258767D01*
X46199500Y-48367510D01*
X46200169Y-48372598D01*
X46200712Y-48380295D01*
X46200763Y-48385422D01*
X46200764Y-48385435D01*
X46216027Y-48493070D01*
X46216113Y-48493701D01*
X46230305Y-48601501D01*
X46230308Y-48601520D01*
X46231636Y-48606476D01*
X46233180Y-48614039D01*
X46233900Y-48619117D01*
X46263062Y-48723772D01*
X46263230Y-48724386D01*
X46291394Y-48829493D01*
X46293357Y-48834232D01*
X46295877Y-48841537D01*
X46297253Y-48846474D01*
X46339883Y-48946562D01*
X46340129Y-48947149D01*
X46381716Y-49047549D01*
X46381719Y-49047555D01*
X46384278Y-49051988D01*
X46387731Y-49058902D01*
X46389741Y-49063621D01*
X46389747Y-49063631D01*
X46389748Y-49063633D01*
X46445032Y-49157224D01*
X46445353Y-49157774D01*
X46499720Y-49251939D01*
X46499722Y-49251943D01*
X46502846Y-49256015D01*
X46507167Y-49262413D01*
X46509780Y-49266836D01*
X46576786Y-49352383D01*
X46577176Y-49352886D01*
X46635291Y-49428621D01*
X46643408Y-49439199D01*
X46643417Y-49439208D01*
X46647035Y-49442827D01*
X46652157Y-49448609D01*
X46655317Y-49452644D01*
X46655321Y-49452648D01*
X46732922Y-49528718D01*
X46733375Y-49529166D01*
X46810300Y-49606091D01*
X46814365Y-49609210D01*
X46820206Y-49614280D01*
X46823396Y-49617408D01*
X46823871Y-49617874D01*
X46910752Y-49683175D01*
X46911260Y-49683560D01*
X46997553Y-49749775D01*
X46997554Y-49749776D01*
X47001980Y-49752331D01*
X47008429Y-49756593D01*
X47012535Y-49759679D01*
X47107268Y-49813122D01*
X47107821Y-49813438D01*
X47133412Y-49828212D01*
X47167499Y-49847892D01*
X47197319Y-49886753D01*
X47199500Y-49903318D01*
X47199500Y-51329111D01*
X47180755Y-51374366D01*
X46855866Y-51699255D01*
X46810611Y-51718000D01*
X46718272Y-51718000D01*
X46679312Y-51704775D01*
X46652844Y-51684466D01*
X46652842Y-51684465D01*
X46652841Y-51684464D01*
X46652839Y-51684463D01*
X46652837Y-51684462D01*
X46506766Y-51623957D01*
X46506757Y-51623954D01*
X46350004Y-51603318D01*
X46349996Y-51603318D01*
X46193242Y-51623954D01*
X46193233Y-51623957D01*
X46047162Y-51684462D01*
X46047159Y-51684464D01*
X45921718Y-51780718D01*
X45825464Y-51906159D01*
X45825462Y-51906162D01*
X45764957Y-52052233D01*
X45764954Y-52052242D01*
X45744318Y-52208996D01*
X45744318Y-52209003D01*
X31010500Y-52209003D01*
X31010500Y-17074000D01*
X31029245Y-17028745D01*
X31074500Y-17010000D01*
X58925500Y-17010000D01*
X58970755Y-17028745D01*
G37*
G04 #@! TD.AperFunction*
G04 #@! TD*
M02*
